<?xml version="1.0" encoding="utf-8"?>
<!-- Generator: Adobe Illustrator 24.0.0, SVG Export Plug-In . SVG Version: 6.00 Build 0)  -->
<svg version="1.1" id="Capa_1" xmlns="http://www.w3.org/2000/svg" xmlns:xlink="http://www.w3.org/1999/xlink" x="0px" y="0px"
	 viewBox="0 0 1920 3000" style="enable-background:new 0 0 1920 3000;" xml:space="preserve">
<style type="text/css">
	.st0{fill:#8E8E8E;}
	.st1{fill:#BFBFBF;stroke:#000000;stroke-width:0.25;stroke-miterlimit:10;}
	.st2{fill:#FFFFFF;stroke:#000000;stroke-width:6;stroke-miterlimit:10;}
	.st3{fill:#FFFFFF;}
</style>
<path class="st0" d="M963.6,976.3c11.5-30.9,32.9-56.8,61.5-73.4c20.5-11.9,42.3-17.9,64.8-21c32.7-7.2,66.9-9.2,97.7-9.5
	c26.5-0.2,53.4,1,80.3,1.6c10.9-0.9,21.7-1.8,32.5-3.1c30.6-3.5,69.2,1.7,99.4-10.4c-16.2-22.1-21.2-51.7-9.4-94.6
	c5.5-20.1,8-45.9,0.2-64c-29.9-69-51.8-143.6-118.2-190.6c-13.5-9.6-23.1-24.7-36.1-35.1c-26.8-21.5-35.8-48.6-33.3-82.1
	c2-26.2,0.4-52.7,0.4-86.9c-16.9,9.9-24.8,13.3-31.3,18.5c-43.2,35-88.4,68-128.5,106.2c-52.7,50.2-107.9,83-182.9,54.6
	c-3.5-1.3-7.8-0.4-11.5-1.3c-40-10.1-65,15.7-76.5,44.5c-10.4,26.1-15,65-2.5,87.1c15.2,26.9,22.5,51.2,20.1,79.5
	c-3.8,45.9,6.6,86.6,34.4,123.7c20.5,27.5,26.9,58.6,13.4,91.7c-4.6,11.4-9.4,22.7-14.2,34c4.1,5.6,7.5,11.6,10.7,18
	c3.7,5.6,7.2,11.4,10.3,17.5c7.5,14.6,11.6,31.1,17.7,46.3c3.3,5,7,9.6,11.4,13.8c13.2,12.4,30,20,44.5,30.6
	c4.3,3.1,8.2,6.5,11.7,10c6.5,2.3,12.9,4.4,18.8,6.7c5.5,2.1,10,4.1,14.1,5.2C952.6,1055.6,949.7,1013.9,963.6,976.3z"/>
<path class="st1" d="M1806.8,2000.8c-13.4-41.6-29.8-82.2-45.3-123.1c-8.2-21.6-16.9-43-25-64.6c-14.2-38-28.4-76-42-114.2
	c-2.3-6.6-2.7-14.7-1.6-21.7c4.3-28.1,8.4-56.3,14.9-83.9c8.8-37.5-1.3-68.7-17.4-103.5c-16.4-35.8-22.5-78.5-23.3-118.4
	c-0.5-25.8,16.8-51.3-13.9-71.5c-5-3.3-7.6-18-4.7-24.6c20.6-46.5-1.7-68.6-42.2-86.4c-44-19.4-47.5-63.3-11-95.2
	c16.5-14.4,36.2-27.5,46.7-45.7c7.8-13.5,10.8-43.7,2.8-50c-32.5-25.7-68.9-47.3-106.1-65.9c-20.2-10.1-46-8.3-67.5-16.5
	c-19.9-7.6-37.9-15.6-52.9-25.4c-65.1,22-132.7,18.8-200.7,17.7c-15.1,0.9-30.3,1.6-45.5,2.1c-15.9,0.5-32.1,0.2-48.2,0.7
	c-27.7,3.3-54.8,9.6-80.6,20.6c-4,1.7-7.9,3.5-11.8,5.5c-37.9,28-49,74-43.3,120c0.6,1.9,1.2,3.9,1.9,5.7c8.3,22,19,46.1-7.1,60.9
	c-10,5.7-19.6,7-29.1,5.9c1.3,9.2,1.3,18.8-0.1,29c-1.5,11.4-4.4,22.4-7.9,33.2c-1.7,15.1-4.8,29.9-10.9,43.7
	c-3.5,8-8,15.8-12.1,23.7c-18,73.8,41.1,128.7,79.1,184.1c23.7,34.6,33.5,76.1,46.8,115.3c12,35.4,29.5,65.8,55.7,92.5
	c37.5,38.4,97.2,84.1,94.9,143.3c1.2,1.9,2.3,3.8,3.6,5.7c43,16.9,61,64,85.1,100.7c8.4,12.8,18.3,23.6,30.6,29.9
	c7.8,0.9,16,0.3,23.6-0.9c62.8-10.1,150.7-72.3,205.3-10.3c16.4,18.7,24.4,41.3,27.1,65.6c3.2,12.8,5.6,25.7,8.1,38.6
	c6.1,31,15.1,59.1,31.6,86.2c12.8,21,28.1,40.3,43.7,59.3c11.4-11.4,23.3-21.6,37-28.4c48.2-24.3,78.3-61.6,105-104.3
	C1806.3,2026.6,1810.1,2011.1,1806.8,2000.8z"/>
<path class="st1" d="M1164.6,1771c-1.8-4-3.6-7.9-5.4-11.8c-9.5-17.3-24.8-33-36.6-45.3c-22.6-23.6-47.8-45-67.1-71.5
	c-23.1-31.7-35-68.2-46.7-105.1c-11.8-37.2-26.8-69.2-50.3-100.5c-40.4-53.6-82.1-109.1-67.4-180.4c6.8-32.9,23.9-62.7,30.5-95.7
	c3.1-15.5,3.5-34.2-5.6-47.9c-1.1-1.7-2.3-3.2-3.6-4.7c-19.5-7.5-39.4-15.2-55-29.4c-11.4-10.4-17.6-23.1-22.5-36.5
	c-4.5-6.8-8.4-14.1-11.8-22.2c-4.4-10.6-7.9-23-12.5-34.7c-0.8-1.3-1.6-2.6-2.5-3.8c-34.7,74-77.6,142.5-144.9,195.6
	c-38.9,30.7-73.7,62.8-129.8,55.5c-19.2-2.5-43.8,8.4-60.7,20.5c-60.8,43.9-124.2,57.3-197.4,36.1c-45-13-90.6-3.7-129.2,24.8
	c-33.2,24.5-34.7,36.3-3.5,63.3c60.6,52.5,80.7,111.7,40.2,185.3c-8,14.6-15.3,29.8-21.2,45.4c-3.7,9.9-6,21.1-5.8,31.7
	c0.8,43.8,3.5,87.5,4.2,131.3c0.4,22.4,4.1,47.4-4.1,66.8c-18.9,44.8-16.2,88-7.8,130.7c29.4-4.9,59.1-8.1,88.9-7.1
	c36.2,1.2,72,8.1,106.1,20.4c6.9,2.5,13.8,5.1,20.7,7.8c56.2,14.4,113.1,33.3,171,24.8c1-2.9,2.2-5.6,3.8-8.2
	c10-16.4,32.4-22.5,49.5-27.8c23.4-7.3,46.5-12.1,70.7-15.8c9-1.4,18-3.1,26.8-5c17.5-5,35-9.7,52.5-14.8c19.2-6.5,38-14,56.7-22.4
	c42.9-19,84.9-41.4,129.2-57.2c35.8-12.7,73.2-20.5,110.4-28.7c25.2-10,50.1-20.7,75.9-29.1c17.6-5.7,36.4-10.9,55.1-11.6
	c0.9-0.4,1.8-0.9,2.7-1.4C1168.5,1785.2,1167.2,1778,1164.6,1771z"/>
<path class="st0" d="M1562.9,2099.5c-7.2-18.9-8.5-38.5-8.6-58.2c-1.8-7.9-3.4-15.9-5-24.1c-4.8-24.3-9.3-53.5-27-72.2
	c-40.2-42.5-106.9,7.6-149.8,18.8c-27.5,7.2-56.5,5.9-80-11.4c-18.6-13.7-31.2-33.8-42.7-53.5c-11.8-20.4-22.7-43.2-41-58.8
	c-11.3-9.5-23.9-13.5-37.2-14c-41.9,19.1-86.5,29.6-131.3,39.8c-24.1,8.8-48.3,15.8-73.3,23.1c-70.8,20.6-135.3,56.7-205.3,79.3
	c-17.1,6.5-34.4,12.2-52.1,16.8c-10.8,2.8-21.7,4.8-32.7,6.5c-15.8,4.6-31.4,9.8-46.3,16.4c-24,10.7-46.6,24.1-70.6,34.8
	c-0.9,4.6-2,9-4.1,12.9c-12.3,21.8-40.8,16.5-61.1,12.2c-15.2-3.2-30.1-7.4-44.9-12.2c-35.8-6.1-71.3-19-104.3-29.8
	c-19.5-6.4-39.1-12.5-58.6-17.5c-43.1-3.1-86.6,1.1-129.9-0.1c3.2,12.9,6.5,25.8,9.5,38.7c8.3,35.9,23.3,70.3,34.5,105.6
	c4.8,15.1,4.7,32.3,11.6,46.1c27.1,54,58,106.5,38.9,171c-4.9,16.6-8.3,33.6-15.4,62.7c35.5-19.7,62.8-34.7,90-49.8
	c98.9-55.1,197.6-110.6,296.9-164.9c10.7-5.9,24.8-6.1,37.5-7.7c56-7.3,111.8-15.6,168-20.8c74.2-7,148.6-14.8,223-15.8
	c52.8-0.7,105.9,7.8,158.4,15.2c13.8,2,26.1,15.1,38.7,23.6c17.2,11.6,33.9,24.2,51.3,35.5c18.2,11.8,41.8,18.9,54.3,34.9
	c16.3,21.1,28,21.8,51.6,12.7c53.9-20.7,110-35.7,164.7-54.5c17.5-6,35.6-14.2,49.6-26c5.6-4.7,10.9-9.8,16.2-15.1
	C1605.1,2171.5,1578,2138.9,1562.9,2099.5z"/>
<g>
	<path class="st2" d="M561.8,1591.2h-12l-2.2,5.5h-8.2l12.5-28.4h7.9l12.6,28.4H564L561.8,1591.2z M559.5,1585.3l-3.6-9.1l-3.6,9.1
		H559.5z"/>
	<path class="st2" d="M587.1,1589.2h-4.4v7.5h-8v-28.4h13c7.7,0,12.6,4,12.6,10.5c0,4.2-2,7.3-5.6,9l6.1,8.9h-8.6L587.1,1589.2z
		 M587.1,1574.6h-4.5v8.3h4.5c3.3,0,5-1.5,5-4.1C592.1,1576.2,590.5,1574.6,587.1,1574.6z"/>
	<path class="st2" d="M604.6,1568.3h8v28.4h-8V1568.3z"/>
	<path class="st2" d="M616.9,1582.5c0-8.6,6.6-14.8,15.6-14.8c5.2,0,9.4,1.9,12.2,5.3l-5.1,4.6c-1.8-2.1-4-3.3-6.7-3.3
		c-4.7,0-7.9,3.2-7.9,8.1s3.2,8.1,7.9,8.1c2.7,0,4.9-1.2,6.7-3.3l5.1,4.6c-2.8,3.4-7,5.3-12.2,5.3
		C623.5,1597.3,616.9,1591.1,616.9,1582.5z"/>
	<path class="st2" d="M666.8,1591.2h-12l-2.2,5.5h-8.2l12.5-28.4h7.9l12.6,28.4H669L666.8,1591.2z M664.5,1585.3l-3.6-9.1l-3.6,9.1
		H664.5z"/>
</g>
<g>
	<path class="st3" d="M561.8,1591.2h-12l-2.2,5.5h-8.2l12.5-28.4h7.9l12.6,28.4H564L561.8,1591.2z M559.5,1585.3l-3.6-9.1l-3.6,9.1
		H559.5z"/>
	<path class="st3" d="M587.1,1589.2h-4.4v7.5h-8v-28.4h13c7.7,0,12.6,4,12.6,10.5c0,4.2-2,7.3-5.6,9l6.1,8.9h-8.6L587.1,1589.2z
		 M587.1,1574.6h-4.5v8.3h4.5c3.3,0,5-1.5,5-4.1C592.1,1576.2,590.5,1574.6,587.1,1574.6z"/>
	<path class="st3" d="M604.6,1568.3h8v28.4h-8V1568.3z"/>
	<path class="st3" d="M616.9,1582.5c0-8.6,6.6-14.8,15.6-14.8c5.2,0,9.4,1.9,12.2,5.3l-5.1,4.6c-1.8-2.1-4-3.3-6.7-3.3
		c-4.7,0-7.9,3.2-7.9,8.1s3.2,8.1,7.9,8.1c2.7,0,4.9-1.2,6.7-3.3l5.1,4.6c-2.8,3.4-7,5.3-12.2,5.3
		C623.5,1597.3,616.9,1591.1,616.9,1582.5z"/>
	<path class="st3" d="M666.8,1591.2h-12l-2.2,5.5h-8.2l12.5-28.4h7.9l12.6,28.4H669L666.8,1591.2z M664.5,1585.3l-3.6-9.1l-3.6,9.1
		H664.5z"/>
</g>
<g>
	<path class="st2" d="M1272.8,1354c0,6.4-4.9,10.5-12.6,10.5h-4.9v7.4h-8v-28.4h13C1267.9,1343.5,1272.8,1347.5,1272.8,1354z
		 M1264.7,1354c0-2.6-1.7-4.2-5-4.2h-4.5v8.3h4.5C1263,1358.1,1264.7,1356.6,1264.7,1354z"/>
	<path class="st2" d="M1294.3,1366.3h-12l-2.2,5.5h-8.2l12.5-28.4h7.9l12.6,28.4h-8.3L1294.3,1366.3z M1291.9,1360.4l-3.6-9.1
		l-3.6,9.1H1291.9z"/>
	<path class="st2" d="M1319.5,1364.3h-4.4v7.5h-8v-28.4h13c7.7,0,12.6,4,12.6,10.5c0,4.2-2,7.3-5.6,9l6.1,8.9h-8.6L1319.5,1364.3z
		 M1319.6,1349.8h-4.5v8.3h4.5c3.3,0,5-1.5,5-4.1C1324.6,1351.3,1322.9,1349.8,1319.6,1349.8z"/>
	<path class="st2" d="M1337.1,1343.5h8v28.4h-8V1343.5z"/>
	<path class="st2" d="M1377.8,1343.5v28.4h-6.6l-12.5-15.1v15.1h-7.9v-28.4h6.6l12.5,15.1v-15.1H1377.8z"/>
	<path class="st2" d="M1402.5,1366.3h-12l-2.2,5.5h-8.2l12.5-28.4h7.9l12.6,28.4h-8.3L1402.5,1366.3z M1400.2,1360.4l-3.6-9.1
		l-3.6,9.1H1400.2z"/>
	<path class="st2" d="M1413.5,1357.7c0-8.6,6.6-14.8,15.6-14.8c5.2,0,9.4,1.9,12.2,5.3l-5.1,4.6c-1.8-2.1-4-3.3-6.7-3.3
		c-4.7,0-7.9,3.2-7.9,8.1s3.2,8.1,7.9,8.1c2.7,0,4.9-1.2,6.7-3.3l5.1,4.6c-2.8,3.4-7,5.3-12.2,5.3
		C1420.1,1372.4,1413.5,1366.3,1413.5,1357.7z"/>
	<path class="st2" d="M1442.8,1357.7c0-8.5,6.7-14.8,15.8-14.8s15.8,6.2,15.8,14.8s-6.7,14.8-15.8,14.8S1442.8,1366.2,1442.8,1357.7
		z M1466.2,1357.7c0-4.9-3.4-8.1-7.7-8.1c-4.3,0-7.7,3.2-7.7,8.1s3.4,8.1,7.7,8.1C1462.9,1365.8,1466.2,1362.6,1466.2,1357.7z"/>
	<path class="st2" d="M1484.2,1349.8h-8.7v-6.4h25.4v6.4h-8.7v22h-8V1349.8z"/>
	<path class="st2" d="M1521.5,1366.3h-12l-2.2,5.5h-8.2l12.5-28.4h7.9l12.6,28.4h-8.3L1521.5,1366.3z M1519.1,1360.4l-3.6-9.1
		l-3.6,9.1H1519.1z"/>
</g>
<g>
	<path class="st3" d="M1272.8,1354c0,6.4-4.9,10.5-12.6,10.5h-4.9v7.4h-8v-28.4h13C1267.9,1343.5,1272.8,1347.5,1272.8,1354z
		 M1264.7,1354c0-2.6-1.7-4.2-5-4.2h-4.5v8.3h4.5C1263,1358.1,1264.7,1356.6,1264.7,1354z"/>
	<path class="st3" d="M1294.3,1366.3h-12l-2.2,5.5h-8.2l12.5-28.4h7.9l12.6,28.4h-8.3L1294.3,1366.3z M1291.9,1360.4l-3.6-9.1
		l-3.6,9.1H1291.9z"/>
	<path class="st3" d="M1319.5,1364.3h-4.4v7.5h-8v-28.4h13c7.7,0,12.6,4,12.6,10.5c0,4.2-2,7.3-5.6,9l6.1,8.9h-8.6L1319.5,1364.3z
		 M1319.6,1349.8h-4.5v8.3h4.5c3.3,0,5-1.5,5-4.1C1324.6,1351.3,1322.9,1349.8,1319.6,1349.8z"/>
	<path class="st3" d="M1337.1,1343.5h8v28.4h-8V1343.5z"/>
	<path class="st3" d="M1377.8,1343.5v28.4h-6.6l-12.5-15.1v15.1h-7.9v-28.4h6.6l12.5,15.1v-15.1H1377.8z"/>
	<path class="st3" d="M1402.5,1366.3h-12l-2.2,5.5h-8.2l12.5-28.4h7.9l12.6,28.4h-8.3L1402.5,1366.3z M1400.2,1360.4l-3.6-9.1
		l-3.6,9.1H1400.2z"/>
	<path class="st3" d="M1413.5,1357.7c0-8.6,6.6-14.8,15.6-14.8c5.2,0,9.4,1.9,12.2,5.3l-5.1,4.6c-1.8-2.1-4-3.3-6.7-3.3
		c-4.7,0-7.9,3.2-7.9,8.1s3.2,8.1,7.9,8.1c2.7,0,4.9-1.2,6.7-3.3l5.1,4.6c-2.8,3.4-7,5.3-12.2,5.3
		C1420.1,1372.4,1413.5,1366.3,1413.5,1357.7z"/>
	<path class="st3" d="M1442.8,1357.7c0-8.5,6.7-14.8,15.8-14.8s15.8,6.2,15.8,14.8s-6.7,14.8-15.8,14.8S1442.8,1366.2,1442.8,1357.7
		z M1466.2,1357.7c0-4.9-3.4-8.1-7.7-8.1c-4.3,0-7.7,3.2-7.7,8.1s3.4,8.1,7.7,8.1C1462.9,1365.8,1466.2,1362.6,1466.2,1357.7z"/>
	<path class="st3" d="M1484.2,1349.8h-8.7v-6.4h25.4v6.4h-8.7v22h-8V1349.8z"/>
	<path class="st3" d="M1521.5,1366.3h-12l-2.2,5.5h-8.2l12.5-28.4h7.9l12.6,28.4h-8.3L1521.5,1366.3z M1519.1,1360.4l-3.6-9.1
		l-3.6,9.1H1519.1z"/>
</g>
<g>
	<path class="st2" d="M928.6,674.7h7.1v11.8c-3.3,2.4-7.8,3.6-11.9,3.6c-9,0-15.6-6.1-15.6-14.8s6.6-14.8,15.8-14.8
		c5.3,0,9.6,1.8,12.4,5.2l-5.1,4.6c-1.9-2.1-4.2-3.2-6.9-3.2c-4.9,0-8.1,3.2-8.1,8.1c0,4.8,3.2,8.1,8,8.1c1.5,0,2.9-0.3,4.3-0.9
		V674.7z"/>
	<path class="st2" d="M963.6,683.2v6.2h-22.8v-28.4h22.2v6.2h-14.3v4.8h12.6v6h-12.6v5.2H963.6z"/>
	<path class="st2" d="M995.1,661.1v28.4h-6.6l-12.5-15.1v15.1h-7.9v-28.4h6.6l12.5,15.1v-15.1H995.1z"/>
	<path class="st2" d="M1023.5,683.2v6.2h-22.8v-28.4h22.2v6.2h-14.3v4.8h12.6v6h-12.6v5.2H1023.5z"/>
	<path class="st2" d="M1040.4,681.9h-4.4v7.5h-8v-28.4h13c7.7,0,12.6,4,12.6,10.5c0,4.2-2,7.3-5.6,9l6.1,8.9h-8.6L1040.4,681.9z
		 M1040.5,667.4h-4.5v8.3h4.5c3.3,0,5-1.5,5-4.1C1045.4,668.9,1043.8,667.4,1040.5,667.4z"/>
	<path class="st2" d="M1077,683.9h-12l-2.2,5.5h-8.2l12.5-28.4h7.9l12.6,28.4h-8.3L1077,683.9z M1074.6,678l-3.6-9.1l-3.6,9.1
		H1074.6z"/>
	<path class="st2" d="M1089.8,661.1h8v22h13.5v6.4h-21.6V661.1z"/>
	<path class="st2" d="M1126.3,661.1h8v22h13.5v6.4h-21.6V661.1z"/>
	<path class="st2" d="M1170.4,683.9h-12l-2.2,5.5h-8.2l12.5-28.4h7.9l12.6,28.4h-8.3L1170.4,683.9z M1168,678l-3.6-9.1l-3.6,9.1
		H1168z"/>
	<path class="st2" d="M1201.8,674.7h7.1v11.8c-3.3,2.4-7.8,3.6-11.9,3.6c-9,0-15.6-6.1-15.6-14.8s6.6-14.8,15.8-14.8
		c5.3,0,9.6,1.8,12.4,5.2l-5.1,4.6c-1.9-2.1-4.2-3.2-6.9-3.2c-4.9,0-8.1,3.2-8.1,8.1c0,4.8,3.2,8.1,8,8.1c1.5,0,2.9-0.3,4.3-0.9
		V674.7z"/>
	<path class="st2" d="M1212.6,675.3c0-8.5,6.7-14.8,15.8-14.8s15.8,6.2,15.8,14.8s-6.7,14.8-15.8,14.8S1212.6,683.8,1212.6,675.3z
		 M1236,675.3c0-4.9-3.4-8.1-7.7-8.1c-4.3,0-7.7,3.2-7.7,8.1s3.4,8.1,7.7,8.1C1232.6,683.4,1236,680.2,1236,675.3z"/>
	<path class="st2" d="M1246.3,686.9l2.6-5.9c2.5,1.7,6.1,2.8,9.4,2.8c3.3,0,4.6-0.9,4.6-2.3c0-4.5-16.1-1.2-16.1-11.8
		c0-5.1,4.1-9.2,12.6-9.2c3.7,0,7.5,0.9,10.3,2.5l-2.5,6c-2.7-1.5-5.4-2.2-7.9-2.2c-3.4,0-4.6,1.1-4.6,2.6c0,4.3,16.1,1.1,16.1,11.6
		c0,4.9-4.1,9.2-12.6,9.2C1253.6,690,1249,688.8,1246.3,686.9z"/>
</g>
<g>
	<path class="st3" d="M928.6,674.7h7.1v11.8c-3.3,2.4-7.8,3.6-11.9,3.6c-9,0-15.6-6.1-15.6-14.8s6.6-14.8,15.8-14.8
		c5.3,0,9.6,1.8,12.4,5.2l-5.1,4.6c-1.9-2.1-4.2-3.2-6.9-3.2c-4.9,0-8.1,3.2-8.1,8.1c0,4.8,3.2,8.1,8,8.1c1.5,0,2.9-0.3,4.3-0.9
		V674.7z"/>
	<path class="st3" d="M963.6,683.2v6.2h-22.8v-28.4h22.2v6.2h-14.3v4.8h12.6v6h-12.6v5.2H963.6z"/>
	<path class="st3" d="M995.1,661.1v28.4h-6.6l-12.5-15.1v15.1h-7.9v-28.4h6.6l12.5,15.1v-15.1H995.1z"/>
	<path class="st3" d="M1023.5,683.2v6.2h-22.8v-28.4h22.2v6.2h-14.3v4.8h12.6v6h-12.6v5.2H1023.5z"/>
	<path class="st3" d="M1040.4,681.9h-4.4v7.5h-8v-28.4h13c7.7,0,12.6,4,12.6,10.5c0,4.2-2,7.3-5.6,9l6.1,8.9h-8.6L1040.4,681.9z
		 M1040.5,667.4h-4.5v8.3h4.5c3.3,0,5-1.5,5-4.1C1045.4,668.9,1043.8,667.4,1040.5,667.4z"/>
	<path class="st3" d="M1077,683.9h-12l-2.2,5.5h-8.2l12.5-28.4h7.9l12.6,28.4h-8.3L1077,683.9z M1074.6,678l-3.6-9.1l-3.6,9.1
		H1074.6z"/>
	<path class="st3" d="M1089.8,661.1h8v22h13.5v6.4h-21.6V661.1z"/>
	<path class="st3" d="M1126.3,661.1h8v22h13.5v6.4h-21.6V661.1z"/>
	<path class="st3" d="M1170.4,683.9h-12l-2.2,5.5h-8.2l12.5-28.4h7.9l12.6,28.4h-8.3L1170.4,683.9z M1168,678l-3.6-9.1l-3.6,9.1
		H1168z"/>
	<path class="st3" d="M1201.8,674.7h7.1v11.8c-3.3,2.4-7.8,3.6-11.9,3.6c-9,0-15.6-6.1-15.6-14.8s6.6-14.8,15.8-14.8
		c5.3,0,9.6,1.8,12.4,5.2l-5.1,4.6c-1.9-2.1-4.2-3.2-6.9-3.2c-4.9,0-8.1,3.2-8.1,8.1c0,4.8,3.2,8.1,8,8.1c1.5,0,2.9-0.3,4.3-0.9
		V674.7z"/>
	<path class="st3" d="M1212.6,675.3c0-8.5,6.7-14.8,15.8-14.8s15.8,6.2,15.8,14.8s-6.7,14.8-15.8,14.8S1212.6,683.8,1212.6,675.3z
		 M1236,675.3c0-4.9-3.4-8.1-7.7-8.1c-4.3,0-7.7,3.2-7.7,8.1s3.4,8.1,7.7,8.1C1232.6,683.4,1236,680.2,1236,675.3z"/>
	<path class="st3" d="M1246.3,686.9l2.6-5.9c2.5,1.7,6.1,2.8,9.4,2.8c3.3,0,4.6-0.9,4.6-2.3c0-4.5-16.1-1.2-16.1-11.8
		c0-5.1,4.1-9.2,12.6-9.2c3.7,0,7.5,0.9,10.3,2.5l-2.5,6c-2.7-1.5-5.4-2.2-7.9-2.2c-3.4,0-4.6,1.1-4.6,2.6c0,4.3,16.1,1.1,16.1,11.6
		c0,4.9-4.1,9.2-12.6,9.2C1253.6,690,1249,688.8,1246.3,686.9z"/>
</g>
<g>
	<path class="st2" d="M862.7,2059.3c0-8.6,6.6-14.8,15.6-14.8c5.2,0,9.4,1.9,12.2,5.3l-5.1,4.6c-1.8-2.1-4-3.3-6.7-3.3
		c-4.7,0-7.9,3.2-7.9,8.1s3.2,8.1,7.9,8.1c2.7,0,4.9-1.2,6.7-3.3l5.1,4.6c-2.8,3.4-7,5.3-12.2,5.3
		C869.3,2074.1,862.7,2068,862.7,2059.3z"/>
	<path class="st2" d="M912.6,2068h-12l-2.2,5.5h-8.2l12.5-28.4h7.9l12.6,28.4h-8.3L912.6,2068z M910.2,2062.1l-3.6-9.1l-3.6,9.1
		H910.2z"/>
	<path class="st2" d="M951.1,2073.5l-0.1-15l-7.3,12.2h-3.6l-7.3-11.8v14.6h-7.4v-28.4h6.6l10,16.4l9.7-16.4h6.6l0.1,28.4H951.1z"/>
	<path class="st2" d="M983.1,2068h-12l-2.2,5.5h-8.2l12.5-28.4h7.9l12.6,28.4h-8.3L983.1,2068z M980.8,2062.1l-3.6-9.1l-3.6,9.1
		H980.8z"/>
	<path class="st2" d="M1008.4,2066h-4.4v7.5h-8v-28.4h13c7.7,0,12.6,4,12.6,10.5c0,4.2-2,7.3-5.6,9l6.1,8.9h-8.6L1008.4,2066z
		 M1008.4,2051.5h-4.5v8.3h4.5c3.3,0,5-1.5,5-4.1C1013.4,2053,1011.8,2051.5,1008.4,2051.5z"/>
	<path class="st2" d="M1024.5,2059.3c0-8.5,6.7-14.8,15.8-14.8s15.8,6.2,15.8,14.8s-6.7,14.8-15.8,14.8S1024.5,2067.8,1024.5,2059.3
		z M1047.9,2059.3c0-4.9-3.4-8.1-7.7-8.1c-4.3,0-7.7,3.2-7.7,8.1s3.4,8.1,7.7,8.1C1044.5,2067.4,1047.9,2064.2,1047.9,2059.3z"/>
	<path class="st2" d="M1087.2,2045.1v28.4h-6.6l-12.5-15.1v15.1h-7.9v-28.4h6.6l12.5,15.1v-15.1H1087.2z"/>
	<path class="st2" d="M1115.7,2067.3v6.2h-22.8v-28.4h22.2v6.2h-14.3v4.8h12.6v6h-12.6v5.2H1115.7z"/>
	<path class="st2" d="M1118.1,2071l2.6-5.9c2.5,1.7,6.1,2.8,9.4,2.8c3.3,0,4.6-0.9,4.6-2.3c0-4.5-16.1-1.2-16.1-11.8
		c0-5.1,4.1-9.2,12.6-9.2c3.7,0,7.5,0.9,10.3,2.5l-2.5,6c-2.7-1.5-5.4-2.2-7.9-2.2c-3.4,0-4.6,1.1-4.6,2.6c0,4.3,16.1,1.1,16.1,11.6
		c0,4.9-4.1,9.2-12.6,9.2C1125.4,2074.1,1120.8,2072.8,1118.1,2071z"/>
</g>
<g>
	<path class="st3" d="M862.7,2059.3c0-8.6,6.6-14.8,15.6-14.8c5.2,0,9.4,1.9,12.2,5.3l-5.1,4.6c-1.8-2.1-4-3.3-6.7-3.3
		c-4.7,0-7.9,3.2-7.9,8.1s3.2,8.1,7.9,8.1c2.7,0,4.9-1.2,6.7-3.3l5.1,4.6c-2.8,3.4-7,5.3-12.2,5.3
		C869.3,2074.1,862.7,2068,862.7,2059.3z"/>
	<path class="st3" d="M912.6,2068h-12l-2.2,5.5h-8.2l12.5-28.4h7.9l12.6,28.4h-8.3L912.6,2068z M910.2,2062.1l-3.6-9.1l-3.6,9.1
		H910.2z"/>
	<path class="st3" d="M951.1,2073.5l-0.1-15l-7.3,12.2h-3.6l-7.3-11.8v14.6h-7.4v-28.4h6.6l10,16.4l9.7-16.4h6.6l0.1,28.4H951.1z"/>
	<path class="st3" d="M983.1,2068h-12l-2.2,5.5h-8.2l12.5-28.4h7.9l12.6,28.4h-8.3L983.1,2068z M980.8,2062.1l-3.6-9.1l-3.6,9.1
		H980.8z"/>
	<path class="st3" d="M1008.4,2066h-4.4v7.5h-8v-28.4h13c7.7,0,12.6,4,12.6,10.5c0,4.2-2,7.3-5.6,9l6.1,8.9h-8.6L1008.4,2066z
		 M1008.4,2051.5h-4.5v8.3h4.5c3.3,0,5-1.5,5-4.1C1013.4,2053,1011.8,2051.5,1008.4,2051.5z"/>
	<path class="st3" d="M1024.5,2059.3c0-8.5,6.7-14.8,15.8-14.8s15.8,6.2,15.8,14.8s-6.7,14.8-15.8,14.8S1024.5,2067.8,1024.5,2059.3
		z M1047.9,2059.3c0-4.9-3.4-8.1-7.7-8.1c-4.3,0-7.7,3.2-7.7,8.1s3.4,8.1,7.7,8.1C1044.5,2067.4,1047.9,2064.2,1047.9,2059.3z"/>
	<path class="st3" d="M1087.2,2045.1v28.4h-6.6l-12.5-15.1v15.1h-7.9v-28.4h6.6l12.5,15.1v-15.1H1087.2z"/>
	<path class="st3" d="M1115.7,2067.3v6.2h-22.8v-28.4h22.2v6.2h-14.3v4.8h12.6v6h-12.6v5.2H1115.7z"/>
	<path class="st3" d="M1118.1,2071l2.6-5.9c2.5,1.7,6.1,2.8,9.4,2.8c3.3,0,4.6-0.9,4.6-2.3c0-4.5-16.1-1.2-16.1-11.8
		c0-5.1,4.1-9.2,12.6-9.2c3.7,0,7.5,0.9,10.3,2.5l-2.5,6c-2.7-1.5-5.4-2.2-7.9-2.2c-3.4,0-4.6,1.1-4.6,2.6c0,4.3,16.1,1.1,16.1,11.6
		c0,4.9-4.1,9.2-12.6,9.2C1125.4,2074.1,1120.8,2072.8,1118.1,2071z"/>
</g>
</svg>
