<?xml version="1.0" encoding="utf-8"?>
<!-- Generator: Adobe Illustrator 24.0.0, SVG Export Plug-In . SVG Version: 6.00 Build 0)  -->
<svg version="1.1" id="Capa_1" xmlns="http://www.w3.org/2000/svg" xmlns:xlink="http://www.w3.org/1999/xlink" x="0px" y="0px"
	 viewBox="0 0 1920 2314" style="enable-background:new 0 0 1920 2314;" xml:space="preserve">
<style type="text/css">
	.st0{fill:#BFBFBF;}
	.st1{fill:#8E8E8E;}
	.st2{stroke:#000000;stroke-width:6;stroke-miterlimit:10;}
	.st3{fill:#FFFFFF;}
	.st4{fill:#D4353F;}
	.st5{fill:#FF6D00;}
	.st6{fill:#FF8500;}
	.st7{fill:#D7D9D9;}
	.st8{fill:#C5C7C8;}
	.st9{opacity:0.4;fill:#DA5D68;enable-background:new    ;}
	.st10{opacity:0.4;fill:#D4353F;enable-background:new    ;}
	.st11{fill:#444444;}
</style>
<path class="st0" d="M551.2,585.2c-6.4-7.1-2.4-16.2,4-19.6c-3.5-35-6.6-70.2-13.8-104.7c-8.1-38.8-22-76.1-43.7-109.4
	c-13.1-20.1-39.8-40.2-35.8-66.8c3.9-25.4,20-39.7,40.5-52.6c16.8-10.5,31.1-21.3,37-38.4c-3.6-1.8-7.1-3.6-10.7-5.3
	c-3.9-1.9-10.1-2.4-13.7-0.6c-16.2,8-27.9,4-40.4-8.7c-11.8-12-21.4-8.1-27.9,8.2c-3.2,8.1-7,16-8.8,20.1
	c-10.9-4.7-21.4-9.7-32.2-13.8c-7.8-3-16.2-4.3-24-7.3c-2.9-1.1-6.8-4.8-6.7-7.2c0.2-15.6-10.2-18.2-22-18.7
	c-10.2-0.4-14.2-4.9-16.4-15c-1.2-5.5-8.4-13.2-13.5-13.6c-15.3-1.3-22.2-7-23.4-22.9c-1.4-18.1-9.8-20.8-24.9-10
	c-8.4,6-43,0.7-49.2-7.5c-12.7-16.7-16.5-16.9-27.9,0c-3.7,5.6-6,12.1-9.1,18.2c-4.6,9.1-9.1,18.3-14,27.3
	c-5.9,10.8-14.1,20.8-17.8,32.3c-6.7,20.7-14.4,40.1-30.6,55.6c-12.6,12.1-22.7,25.6-23.2,44.9c-0.2,8-4.8,21.1-10.2,22.8
	c-17.7,5.6-20.2,19.2-24.7,33.4c-2,6.4-8.6,11.3-13,17c-4.2,5.4-11.3,10.5-11.9,16.3c-1.1,10.7,1.4,21.8,2.7,32.7
	c5,41.4,33,77.3,28.9,121.1c-0.6,6.2,5.1,12.7,6.4,19.3c5.2,27.6,1.6,55.7-11,79.3c-10.7,20-27.7,37.8-42.4,55.2
	c-14.4,17-10.7,25.5-2.5,40.2c14.2,25.7,21.7,51.3,4.4,80.1c-12.1,20.2-12.2,42.7-5,66.8c8.1,27.2,13.2,56.1-2.6,84
	c-11.9,20.9,5.9,63,33.6,65.4c11.6,1,15.8,8.5,16.4,19.4c1.1,17.6,10.7,28.1,27.4,30.8c19.7,3.2,27.2,12.2,27.7,31.8
	c0.1,4.3,2,9.7,5,12.5c17.7,16.1,34.7,33.4,62.2,31.2c7.8-0.6,18,1.6,23.6,6.5c11.9,10.4,20.1,15.2,30.7,13
	c1.9-6.3,3.6-12.7,5.3-19.1c5.8-22.6,13.2-49,5.9-72c-7.4-23.3-23.8-42.8-29.9-66.6c-5.8-22.3,1.7-40.8,18.1-53.9
	c-26.5-50.6-45.5-105.3-63.5-159.3c-3.7-11,9-17.4,17.7-13.6c23.1,10.1,47.8,17.1,73.2,13.9c12-1.5,23.8-5.1,35.1-9.2
	c8.3-3,11.9-8,16.9-15.1c8.9-12.6,21.6-27.7,38.4-28.1c15.4-0.3,27.4,10.7,38.8,19.6c4.6,3.6,8.4,7.9,14.1,6.2
	c5.6-1.7,11-7.7,14.3-12.3c8.7-11.9,12.3-26.8,16.4-40.7c4.1-13.7,8.3-27.5,16.8-39.2c8-11,21.4-14.5,33.8-18.5
	c7-2.2,14.7-3.9,21.2-7.5c6-3.3,8.6-9.7,11.6-15.6c5.9-11.8,12.4-20.8,21.8-28.6C553.5,587.6,552.3,586.4,551.2,585.2z"/>
<path class="st0" d="M1692.5,1048.3c-13.7-4.6-27.1-10.3-40.2-16.2c-2.7-1.2-5.1-5.4-5.7-8.5c-2.5-12.8,4.9-17.4,16.3-20
	c18.4-4.2,23.8-7.5,24.6-20c-12.9-9.9-24.4-21.6-34.8-35.2c-16.7-22-30-46.6-49-66.7c-25.9-27.3-58.8-41.5-96.6-38.4
	c-18.4,1.5-36.6,6-55.2,6.2c-16.1,0.1-31.5-3.5-46.2-9.8c-13.4-5.8-26-13.9-40.1-18.1c-17-5.1-31.6,0.2-46,9.8
	c-6.7,4.5-15.5-0.2-17.7-7.2c-5.2-16.2-16-31-34.4-31.5c-18.4-0.5-33.6,12.8-44.2,26.5c-3.7,4.7-13.3,4.7-17,0
	c-23.5-30-52.1-60.4-90-71.1c-28.1-7.9-56.8-2.5-83.8,7.1c-58.5,21-110.6,56.4-170.3,75c-37,11.5-105.1,26-113.5-28.1
	c-2.8-17.8-1.3-36-6.1-53.6c-6.2-22.5-25.2-36.9-42.9-50.7c-26-20.2-53.7-38.2-80.6-57.3c-15.7-11.2-31.9-22.5-46.7-35.2
	c-6.6,4.7-11.4,9.9-15.4,17.5c-4.3,8.3-8,17.8-14.6,24.7c-11.2,11.8-31.8,14.2-46.4,19.6c-12.5,4.6-16,14.4-20.1,27.1
	c-4.8,14.8-8.4,29.9-14.9,44c-6.8,14.8-17.6,27.8-32.6,34.8c-14.9,6.9-26.7-0.2-38.6-9.5c-5.7-4.5-12-11-19-13.3
	c-7.6-2.4-14,4.5-18.5,9.9c-10.8,12.9-16.7,24.7-33.4,30.8c-20.1,7.3-41.2,12.5-62.8,11.4c-14-0.7-27.4-3.7-40.4-7.9
	c16.3,47.8,34.1,95.7,58.4,140c3.1,5.7,1.4,13.2-4.3,16.5c-10,5.7-18.6,13-18,25.3c0.5,10.5,5.6,20.6,10.2,29.8
	c10.1,20.1,22.6,39.7,24.5,62.7c2,24.4-4.7,50.1-11,73.5c-0.1,0.5-0.3,1.1-0.5,1.6c2.2,2.3,3.7,6.1,5.1,10.3
	c6.7,20.2,15.2,39,35.5,49.6c4,2.1,7.6,5.8,10.1,9.7c6,9.5,10.4,20.2,17.3,29c3.1,4,10.9,6.8,16.1,6.2c15.7-1.9,33.9-23,34.1-38.6
	c0.1-4.7-2.8-9.5-4.9-14.1c-1.9-4.2-7.5-10.3-6.3-11.8c5.9-8,13.9-21.2,20.2-20.7c11.7,0.9,28.3-0.7,34.2,16.7
	c0.9,2.8,10.6,5.9,13.1,4.2c14.1-9.4,29.7-5.6,44.7-7.6c17.1-2.2,30.5,3,43.5,12.5c32.5,23.7,33.3,23.7,60.4,1.3
	c0.6-0.5,2-0.1,3.1-0.1c15.5,22.9,15.5,22.9,32.8,14.4c14.6,12.4,26.3,13.5,33.7,3.2c9.7-13.4,7.7-21.8-8.7-33.2
	c-8.8-6.1-11.4-12.9-5.4-22.7c2.9-4.7,2.9-11.2,6-15.8c3.5-5.2,8.4-11.8,13.7-12.9c20.2-4.2,35.3-12.9,46.3-31.6
	c3.7-6.3,17-6.8,26-10c1.7,5.6,4.5,11.1,5,16.8c1,11.9,10.4,20.9,23.1,20.5c4.1-0.1,9-2.4,12.3-0.9c23.3,10.3,32.7-5.5,46.6-19.8
	c9.9-10.1,28.1-15.3,43-16.2c7.6-0.5,17.5,12.2,23.8,20.8c10.7,14.6,15,17.1,31.1,8.2c7-3.9,13.4-9.9,18-16.5
	c10.3-14.7,14.4-14.6,23.8,1.6c4.1,7,8.3,16.3,14.8,19c17.2,7.2,27.4,20.7,37.1,35c9,13.2,16.2,14.7,30.1,7.3
	c28.4-15.1,57.1-26.5,89-7.3c5.9,3.6,19.3,4.1,23,0.1c8.9-9.5,16.8-8.2,26.6-4.3c8.9,3.6,19.2,5,26.9,10.3
	c11.3,7.9,21.1,18.1,31.1,27.7c2.5,2.4,4.9,6.1,5,9.3c0.4,10.7,6.3,16.1,15.7,19.1c11.8,3.6,20.6,10.6,23.6,23.1
	c5.6,22.6,22.7,34.3,41.8,43.9c16.1,8.1,22.1,5.3,24.5-12c1.4-9.8,4.7-14.9,15.8-15.1c12.2-0.2,24.1-3,29.9-16.4
	c1.2-2.8,5.4-4.3,8.6-6.6c16,16.6,24.4,40.2,49.3,45.8c1.3,0.3,2.8,1.8,3.4,3.2c8.1,17.5,22.5,16.1,37.7,12.7
	c7.7-1.7,15.4-4.4,23.2-4.4c6.8,0,15.5,0.9,20.1,5c10.4,9.3,21.4,9.9,33.8,8.1c40.8-6.2,48.1-16.6,42.9-57c-1-7.8,2.7-17.2,6.6-24.6
	c10.2-19.7,23.3-38,32.4-58.2c13.5-29.9,24.1-61.1,36.7-91.4C1706.3,1057.1,1703.4,1052,1692.5,1048.3z"/>
<path class="st1" d="M1904.9,595c-3.5-7-7.9-16.3-6-22.8c8.7-29.4-2.4-55.9-9.6-83.1c-0.6-2.3-4.3-4.7-7-5.4
	c-13.9-3.8-15.9-13.1-13.2-25.5c4.8-22.9,1.1-43.2-16.5-60.7c-7.9-7.8-15-12.4-26.1-10.2c-4.3,0.8-10.3,1.9-13.3-0.3
	c-13.4-9.8-26.2-20.5-38.9-31.3c-15.9-13.4-15.5-23.1,1.8-37.2c8-6.6,10.7-17.3,3.4-21.4c-13.8-8-10.3-21.5-15-32.1
	c-3.7-8.5-7.1-17.9-7.2-27c-0.2-23-9.4-33.9-32-34.8c-4.7-0.2-9.5-0.6-14.1-1.3c-22.9-3.8-29.2-0.6-37.1,20.3
	c-4.1,10.8-9.5,16.4-22.4,12.8c-12.4-3.4-25.4-4.7-38.2-6.7c-12.8-2-14.4-5.4-6.7-15.7c12-16,14.5-41.9,2.3-57.5
	c-7.8-10-18-17.4-17.9-31.9c0-2.4-4.6-5.8-7.7-7.2c-15.2-7-19.8-17.6-15.9-34.3c5.8-25.1-2.6-38.4-26.7-49.1
	c-4.3-1.9-7.7-6.8-10.6-10.9c-9.6-13.5-23.2-18.8-38.6-16c-19.4,3.6-38.3,9.4-57.4,14.4c-1.5,0.4-3.7,0.9-4.1,2
	c-6.5,16.9-20.3,18.4-35.6,17.8c-2.7-0.1-5.3,3.4-8.2,4.3c-8.2,2.7-16.6,5.2-25,7.2c-5.5,1.4-12.5,0.2-16.7,3.1
	c-17.4,12.3-34,25.8-53.8,41.1c-4.1-3.9-11.8-11.3-19.5-18.6c-12.3-11.8-21.1-11.7-34.3-0.9c-12.5,10.2-25.5,19.7-38.7,29.1
	c-2.7,1.9-7.9,3.2-10.4,1.9c-16.1-8.8-27.2-0.1-39.8,8.4c-16.6,11.2-18.8,17.8-3.6,30.8c12.5,10.7,13.3,22.8,9.1,36.9
	c-1.5,5-3.3,10-4,15.2c-1.6,10.8-7.4,13.4-17.8,12.1c-31.2-4.1-50.3,9.3-58.9,39c-1.3,4.4-5.7,9.8-9.8,11.2
	c-32.3,10.6-43.4,43.3-23.4,70.8c2.4,3.3,4.4,6.9,7,10.8c-16.4,18.1-34.7,29.4-59.8,25c-8.3-1.4-16.8-3.4-25-2.7
	c-7.9,0.7-16.7,2.8-22.9,7.4c-11.7,8.6-21.8,8.3-34.7,2.4c-12.4-5.7-26.6-10.7-39.9-10.5c-19.8,0.4-37.1-4.9-50.2-17.9
	c-16.1-16-29.2-35-43.5-52.7c-7.1-8.8-19.7-17.5-20.2-26.7c-1.5-26-25.4-30.2-38.2-44.8c-1.5-1.7-8.9,0-12.4,2
	c-18.9,10.9-33.8,29.3-58.2,29.7c-2.2,0-4.3,3.1-6.7,3.9c-4.7,1.6-12.1,5.3-13.8,3.5c-3.8-3.9-6.9-10.6-6.7-16
	c0.5-11.6-4.2-17.6-15-20.4c-4.4-1.1-8.4-3.9-12.6-6.1c-8.7-4.5-17.3-9-25.9-13.5c-7.2,17.9-20.9,31.7-38.7,43.3
	c-8.6,5.6-18.2,10.4-25.7,17.6c-6.1,5.9-12.2,17.8-11.3,26.5c1.1,9.7,12.4,19.3,18,26.4c12.4,15.8,23.1,32.8,32,50.8
	c33,66.3,37.5,139.4,45.4,211.7c20.2,18.9,43.9,34.5,66.5,50.2c28.9,20.1,58.7,39.5,85.1,62.8c17.3,15.3,30,31.8,34.7,54.8
	c3.5,17,1.8,35.9,5.4,52c1.3,5.9,3,9.8,6.8,12.3c7.5,4.8,18.2,4.1,26.8,3.5c33.6-2.2,66.2-14,96.7-27.5
	c52.6-23.3,104.1-58.6,162-67.2c62.3-9.2,111.8,24.9,150.1,70.2c15.2-15,35.5-25.4,57.3-23.2c21.9,2.3,37.5,16.4,46.9,34.8
	c13.8-6.9,28.8-10.1,44.7-7.2c16.4,2.9,30.9,11.7,45.7,18.7c15.7,7.5,31.6,11,49,9.9c19.4-1.2,38.4-6,57.9-6.5
	c37.7-0.9,72.3,15,99.2,41c21.2,20.5,35.8,46.3,52.9,70c6.9,9.5,14.3,18.1,22.5,25.7c3.1-4.8,7.8-8.5,13.4-11.4
	c19.7-10.2,27.1-22.8,19-44.2c-8.7-23-1.2-41.1,11.2-58.8c6.4-9.2,16.1-16.4,21.4-26c17.7-32.3,34.2-65.4,51.9-99.7
	c17.5,5.1,28.7-11.5,41.9-23.7c17.9-16.5,26.1-40.8,48.1-54.7C1914.3,626.5,1913.7,612.7,1904.9,595z"/>
<g>
	<path class="st2" d="M1139.5,499.2c0-9.5,7.2-16.2,17.1-16.2c5.7,0,10.3,2.1,13.4,5.9l-5.6,5.1c-2-2.4-4.3-3.6-7.3-3.6
		c-5.1,0-8.7,3.5-8.7,8.9c0,5.3,3.6,8.9,8.7,8.9c3,0,5.4-1.3,7.3-3.6l5.6,5.1c-3,3.8-7.6,5.9-13.4,5.9
		C1146.8,515.4,1139.5,508.7,1139.5,499.2z"/>
	<path class="st2" d="M1194.2,508.7H1181l-2.4,6h-9l13.7-31.1h8.7l13.8,31.1h-9.1L1194.2,508.7z M1191.6,502.2l-4-9.9l-4,9.9H1191.6
		z"/>
	<path class="st2" d="M1206.2,499.2c0-9.5,7.2-16.2,17.1-16.2c5.7,0,10.3,2.1,13.4,5.9l-5.6,5.1c-2-2.4-4.3-3.6-7.3-3.6
		c-5.1,0-8.7,3.5-8.7,8.9c0,5.3,3.5,8.9,8.7,8.9c3,0,5.4-1.3,7.3-3.6l5.6,5.1c-3,3.8-7.6,5.9-13.4,5.9
		C1213.4,515.4,1206.2,508.7,1206.2,499.2z"/>
	<path class="st2" d="M1270.1,483.7v31.1h-8.8v-12.1h-12v12.1h-8.8v-31.1h8.8v11.7h12v-11.7H1270.1z"/>
	<path class="st2" d="M1297.1,508.7h-13.1l-2.4,6h-9l13.7-31.1h8.7l13.8,31.1h-9.1L1297.1,508.7z M1294.5,502.2l-4-9.9l-4,9.9
		H1294.5z"/>
	<path class="st2" d="M1339.1,495.2c0,7.1-5.3,11.4-13.8,11.4h-5.4v8.1h-8.8v-31.1h14.2C1333.8,483.7,1339.1,488.1,1339.1,495.2z
		 M1330.3,495.2c0-2.9-1.8-4.6-5.5-4.6h-4.9v9.1h4.9C1328.4,499.7,1330.3,498,1330.3,495.2z"/>
	<path class="st2" d="M1342.2,499.2c0-9.3,7.3-16.2,17.3-16.2s17.3,6.8,17.3,16.2s-7.3,16.2-17.3,16.2S1342.2,508.5,1342.2,499.2z
		 M1367.9,499.2c0-5.4-3.7-8.9-8.4-8.9s-8.4,3.5-8.4,8.9s3.7,8.9,8.4,8.9S1367.9,504.6,1367.9,499.2z"/>
	<path class="st2" d="M1401.7,508.7h-13.1l-2.4,6h-9l13.7-31.1h8.7l13.8,31.1h-9.1L1401.7,508.7z M1399.2,502.2l-4-9.9l-4,9.9
		H1399.2z"/>
	<path class="st2" d="M1415.8,483.7h8.8v24.1h14.8v7h-23.6V483.7z"/>
</g>
<g>
	<path class="st3" d="M1139.5,499.2c0-9.5,7.2-16.2,17.1-16.2c5.7,0,10.3,2.1,13.4,5.9l-5.6,5.1c-2-2.4-4.3-3.6-7.3-3.6
		c-5.1,0-8.7,3.5-8.7,8.9c0,5.3,3.6,8.9,8.7,8.9c3,0,5.4-1.3,7.3-3.6l5.6,5.1c-3,3.8-7.6,5.9-13.4,5.9
		C1146.8,515.4,1139.5,508.7,1139.5,499.2z"/>
	<path class="st3" d="M1194.2,508.7H1181l-2.4,6h-9l13.7-31.1h8.7l13.8,31.1h-9.1L1194.2,508.7z M1191.6,502.2l-4-9.9l-4,9.9H1191.6
		z"/>
	<path class="st3" d="M1206.2,499.2c0-9.5,7.2-16.2,17.1-16.2c5.7,0,10.3,2.1,13.4,5.9l-5.6,5.1c-2-2.4-4.3-3.6-7.3-3.6
		c-5.1,0-8.7,3.5-8.7,8.9c0,5.3,3.5,8.9,8.7,8.9c3,0,5.4-1.3,7.3-3.6l5.6,5.1c-3,3.8-7.6,5.9-13.4,5.9
		C1213.4,515.4,1206.2,508.7,1206.2,499.2z"/>
	<path class="st3" d="M1270.1,483.7v31.1h-8.8v-12.1h-12v12.1h-8.8v-31.1h8.8v11.7h12v-11.7H1270.1z"/>
	<path class="st3" d="M1297.1,508.7h-13.1l-2.4,6h-9l13.7-31.1h8.7l13.8,31.1h-9.1L1297.1,508.7z M1294.5,502.2l-4-9.9l-4,9.9
		H1294.5z"/>
	<path class="st3" d="M1339.1,495.2c0,7.1-5.3,11.4-13.8,11.4h-5.4v8.1h-8.8v-31.1h14.2C1333.8,483.7,1339.1,488.1,1339.1,495.2z
		 M1330.3,495.2c0-2.9-1.8-4.6-5.5-4.6h-4.9v9.1h4.9C1328.4,499.7,1330.3,498,1330.3,495.2z"/>
	<path class="st3" d="M1342.2,499.2c0-9.3,7.3-16.2,17.3-16.2s17.3,6.8,17.3,16.2s-7.3,16.2-17.3,16.2S1342.2,508.5,1342.2,499.2z
		 M1367.9,499.2c0-5.4-3.7-8.9-8.4-8.9s-8.4,3.5-8.4,8.9s3.7,8.9,8.4,8.9S1367.9,504.6,1367.9,499.2z"/>
	<path class="st3" d="M1401.7,508.7h-13.1l-2.4,6h-9l13.7-31.1h8.7l13.8,31.1h-9.1L1401.7,508.7z M1399.2,502.2l-4-9.9l-4,9.9
		H1399.2z"/>
	<path class="st3" d="M1415.8,483.7h8.8v24.1h14.8v7h-23.6V483.7z"/>
</g>
<g>
	<path class="st2" d="M802.5,952.2c0-9.5,7.2-16.2,17.1-16.2c5.7,0,10.3,2.1,13.4,5.9l-5.6,5.1c-2-2.4-4.3-3.6-7.3-3.6
		c-5.1,0-8.7,3.5-8.7,8.9c0,5.3,3.5,8.9,8.7,8.9c3,0,5.4-1.3,7.3-3.6l5.6,5.1c-3,3.8-7.6,5.9-13.4,5.9
		C809.8,968.4,802.5,961.7,802.5,952.2z"/>
	<path class="st2" d="M834.6,952.2c0-9.3,7.3-16.2,17.3-16.2s17.3,6.8,17.3,16.2s-7.3,16.2-17.3,16.2S834.6,961.5,834.6,952.2z
		 M860.3,952.2c0-5.4-3.7-8.9-8.4-8.9s-8.4,3.5-8.4,8.9s3.7,8.9,8.4,8.9S860.3,957.6,860.3,952.2z"/>
	<path class="st2" d="M873.7,936.7h8.8v24.1h14.8v7h-23.6V936.7z"/>
	<path class="st2" d="M898.7,952.2c0-9.5,7.2-16.2,17.1-16.2c5.7,0,10.3,2.1,13.4,5.9l-5.6,5.1c-2-2.4-4.3-3.6-7.3-3.6
		c-5.1,0-8.7,3.5-8.7,8.9c0,5.3,3.5,8.9,8.7,8.9c3,0,5.4-1.3,7.3-3.6l5.6,5.1c-3,3.8-7.6,5.9-13.4,5.9
		C905.9,968.4,898.7,961.7,898.7,952.2z"/>
	<path class="st2" d="M962.6,936.7v31.1h-8.8v-12.1h-12v12.1h-8.8v-31.1h8.8v11.7h12v-11.7H962.6z"/>
	<path class="st2" d="M989.6,961.7h-13.1l-2.4,6h-9l13.7-31.1h8.7l13.8,31.1h-9.1L989.6,961.7z M987,955.2l-4-9.9l-4,9.9H987z"/>
	<path class="st2" d="M1024.1,951.6h7.8v12.9c-3.6,2.6-8.5,3.9-13,3.9c-9.9,0-17.1-6.7-17.1-16.2c0-9.5,7.2-16.2,17.3-16.2
		c5.8,0,10.5,2,13.6,5.7l-5.6,5.1c-2.1-2.4-4.6-3.5-7.5-3.5c-5.3,0-8.9,3.5-8.9,8.9c0,5.2,3.6,8.9,8.8,8.9c1.6,0,3.2-0.3,4.7-1
		V951.6z"/>
	<path class="st2" d="M1037.1,953.9v-17.2h8.8v17c0,5.3,2.2,7.5,5.9,7.5c3.6,0,5.9-2.1,5.9-7.5v-17h8.7v17.2
		c0,9.3-5.4,14.5-14.6,14.5C1042.5,968.4,1037.1,963.2,1037.1,953.9z"/>
	<path class="st2" d="M1092.4,961.7h-13.1l-2.4,6h-9l13.7-31.1h8.7l13.8,31.1h-9.1L1092.4,961.7z M1089.8,955.2l-4-9.9l-4,9.9
		H1089.8z"/>
</g>
<g>
	<path class="st3" d="M802.5,952.2c0-9.5,7.2-16.2,17.1-16.2c5.7,0,10.3,2.1,13.4,5.9l-5.6,5.1c-2-2.4-4.3-3.6-7.3-3.6
		c-5.1,0-8.7,3.5-8.7,8.9c0,5.3,3.5,8.9,8.7,8.9c3,0,5.4-1.3,7.3-3.6l5.6,5.1c-3,3.8-7.6,5.9-13.4,5.9
		C809.8,968.4,802.5,961.7,802.5,952.2z"/>
	<path class="st3" d="M834.6,952.2c0-9.3,7.3-16.2,17.3-16.2s17.3,6.8,17.3,16.2s-7.3,16.2-17.3,16.2S834.6,961.5,834.6,952.2z
		 M860.3,952.2c0-5.4-3.7-8.9-8.4-8.9s-8.4,3.5-8.4,8.9s3.7,8.9,8.4,8.9S860.3,957.6,860.3,952.2z"/>
	<path class="st3" d="M873.7,936.7h8.8v24.1h14.8v7h-23.6V936.7z"/>
	<path class="st3" d="M898.7,952.2c0-9.5,7.2-16.2,17.1-16.2c5.7,0,10.3,2.1,13.4,5.9l-5.6,5.1c-2-2.4-4.3-3.6-7.3-3.6
		c-5.1,0-8.7,3.5-8.7,8.9c0,5.3,3.5,8.9,8.7,8.9c3,0,5.4-1.3,7.3-3.6l5.6,5.1c-3,3.8-7.6,5.9-13.4,5.9
		C905.9,968.4,898.7,961.7,898.7,952.2z"/>
	<path class="st3" d="M962.6,936.7v31.1h-8.8v-12.1h-12v12.1h-8.8v-31.1h8.8v11.7h12v-11.7H962.6z"/>
	<path class="st3" d="M989.6,961.7h-13.1l-2.4,6h-9l13.7-31.1h8.7l13.8,31.1h-9.1L989.6,961.7z M987,955.2l-4-9.9l-4,9.9H987z"/>
	<path class="st3" d="M1024.1,951.6h7.8v12.9c-3.6,2.6-8.5,3.9-13,3.9c-9.9,0-17.1-6.7-17.1-16.2c0-9.5,7.2-16.2,17.3-16.2
		c5.8,0,10.5,2,13.6,5.7l-5.6,5.1c-2.1-2.4-4.6-3.5-7.5-3.5c-5.3,0-8.9,3.5-8.9,8.9c0,5.2,3.6,8.9,8.8,8.9c1.6,0,3.2-0.3,4.7-1
		V951.6z"/>
	<path class="st3" d="M1037.1,953.9v-17.2h8.8v17c0,5.3,2.2,7.5,5.9,7.5c3.6,0,5.9-2.1,5.9-7.5v-17h8.7v17.2
		c0,9.3-5.4,14.5-14.6,14.5C1042.5,968.4,1037.1,963.2,1037.1,953.9z"/>
	<path class="st3" d="M1092.4,961.7h-13.1l-2.4,6h-9l13.7-31.1h8.7l13.8,31.1h-9.1L1092.4,961.7z M1089.8,955.2l-4-9.9l-4,9.9
		H1089.8z"/>
</g>
<g>
	<path class="st2" d="M90.5,460.2c0-9.5,7.2-16.2,17.1-16.2c5.7,0,10.3,2.1,13.4,5.9l-5.6,5.1c-2-2.4-4.3-3.6-7.3-3.6
		c-5.1,0-8.7,3.5-8.7,8.9c0,5.3,3.5,8.9,8.7,8.9c3,0,5.4-1.3,7.3-3.6l5.6,5.1c-3,3.8-7.6,5.9-13.4,5.9
		C97.8,476.4,90.5,469.7,90.5,460.2z"/>
	<path class="st2" d="M145.1,469.7H132l-2.4,6h-9l13.7-31.1h8.7l13.8,31.1h-9.1L145.1,469.7z M142.6,463.2l-4-9.9l-4,9.9H142.6z"/>
	<path class="st2" d="M172.8,467.5H168v8.3h-8.8v-31.1h14.2c8.5,0,13.8,4.4,13.8,11.5c0,4.6-2.2,7.9-6.1,9.8l6.7,9.8h-9.4
		L172.8,467.5z M172.9,451.6H168v9.1h4.9c3.6,0,5.5-1.7,5.5-4.5C178.3,453.3,176.5,451.6,172.9,451.6z"/>
	<path class="st2" d="M192,444.7h14.7c10.3,0,17.4,6,17.4,15.5s-7.1,15.5-17.4,15.5H192V444.7z M206.4,468.8c5.3,0,8.8-3.2,8.8-8.5
		s-3.5-8.5-8.8-8.5h-5.5v17H206.4z"/>
	<path class="st2" d="M253.6,469v6.8h-24.9v-31.1H253v6.8h-15.7v5.2h13.8v6.6h-13.8v5.7H253.6z"/>
	<path class="st2" d="M288,444.7v31.1h-7.2l-13.7-16.6v16.6h-8.6v-31.1h7.2l13.7,16.6v-16.6H288z"/>
	<path class="st2" d="M315.1,469.7h-13.1l-2.4,6h-9l13.7-31.1h8.7l13.8,31.1h-9.1L315.1,469.7z M312.5,463.2l-4-9.9l-4,9.9H312.5z"
		/>
	<path class="st2" d="M329.1,444.7h8.8v24.1h14.8v7h-23.6V444.7z"/>
	<path class="st2" d="M367.5,460.2c0-9.5,7.2-16.2,17.1-16.2c5.7,0,10.3,2.1,13.4,5.9l-5.6,5.1c-2-2.4-4.3-3.6-7.3-3.6
		c-5.1,0-8.7,3.5-8.7,8.9c0,5.3,3.5,8.9,8.7,8.9c3,0,5.4-1.3,7.3-3.6l5.6,5.1c-3,3.8-7.6,5.9-13.4,5.9
		C374.7,476.4,367.5,469.7,367.5,460.2z"/>
	<path class="st2" d="M422.1,469.7H409l-2.4,6h-9l13.7-31.1h8.7l13.8,31.1h-9.1L422.1,469.7z M419.5,463.2l-4-9.9l-4,9.9H419.5z"/>
	<path class="st2" d="M449.8,467.5H445v8.3h-8.8v-31.1h14.2c8.5,0,13.8,4.4,13.8,11.5c0,4.6-2.2,7.9-6.1,9.8l6.7,9.8h-9.4
		L449.8,467.5z M449.8,451.6H445v9.1h4.9c3.6,0,5.5-1.7,5.5-4.5C455.3,453.3,453.5,451.6,449.8,451.6z"/>
	<path class="st2" d="M467.4,460.2c0-9.3,7.3-16.2,17.3-16.2s17.3,6.8,17.3,16.2s-7.3,16.2-17.3,16.2S467.4,469.5,467.4,460.2z
		 M493.1,460.2c0-5.4-3.7-8.9-8.4-8.9s-8.4,3.5-8.4,8.9s3.7,8.9,8.4,8.9S493.1,465.6,493.1,460.2z"/>
</g>
<g>
	<path class="st3" d="M90.5,460.2c0-9.5,7.2-16.2,17.1-16.2c5.7,0,10.3,2.1,13.4,5.9l-5.6,5.1c-2-2.4-4.3-3.6-7.3-3.6
		c-5.1,0-8.7,3.5-8.7,8.9c0,5.3,3.5,8.9,8.7,8.9c3,0,5.4-1.3,7.3-3.6l5.6,5.1c-3,3.8-7.6,5.9-13.4,5.9
		C97.8,476.4,90.5,469.7,90.5,460.2z"/>
	<path class="st3" d="M145.1,469.7H132l-2.4,6h-9l13.7-31.1h8.7l13.8,31.1h-9.1L145.1,469.7z M142.6,463.2l-4-9.9l-4,9.9H142.6z"/>
	<path class="st3" d="M172.8,467.5H168v8.3h-8.8v-31.1h14.2c8.5,0,13.8,4.4,13.8,11.5c0,4.6-2.2,7.9-6.1,9.8l6.7,9.8h-9.4
		L172.8,467.5z M172.9,451.6H168v9.1h4.9c3.6,0,5.5-1.7,5.5-4.5C178.3,453.3,176.5,451.6,172.9,451.6z"/>
	<path class="st3" d="M192,444.7h14.7c10.3,0,17.4,6,17.4,15.5s-7.1,15.5-17.4,15.5H192V444.7z M206.4,468.8c5.3,0,8.8-3.2,8.8-8.5
		s-3.5-8.5-8.8-8.5h-5.5v17H206.4z"/>
	<path class="st3" d="M253.6,469v6.8h-24.9v-31.1H253v6.8h-15.7v5.2h13.8v6.6h-13.8v5.7H253.6z"/>
	<path class="st3" d="M288,444.7v31.1h-7.2l-13.7-16.6v16.6h-8.6v-31.1h7.2l13.7,16.6v-16.6H288z"/>
	<path class="st3" d="M315.1,469.7h-13.1l-2.4,6h-9l13.7-31.1h8.7l13.8,31.1h-9.1L315.1,469.7z M312.5,463.2l-4-9.9l-4,9.9H312.5z"
		/>
	<path class="st3" d="M329.1,444.7h8.8v24.1h14.8v7h-23.6V444.7z"/>
	<path class="st3" d="M367.5,460.2c0-9.5,7.2-16.2,17.1-16.2c5.7,0,10.3,2.1,13.4,5.9l-5.6,5.1c-2-2.4-4.3-3.6-7.3-3.6
		c-5.1,0-8.7,3.5-8.7,8.9c0,5.3,3.5,8.9,8.7,8.9c3,0,5.4-1.3,7.3-3.6l5.6,5.1c-3,3.8-7.6,5.9-13.4,5.9
		C374.7,476.4,367.5,469.7,367.5,460.2z"/>
	<path class="st3" d="M422.1,469.7H409l-2.4,6h-9l13.7-31.1h8.7l13.8,31.1h-9.1L422.1,469.7z M419.5,463.2l-4-9.9l-4,9.9H419.5z"/>
	<path class="st3" d="M449.8,467.5H445v8.3h-8.8v-31.1h14.2c8.5,0,13.8,4.4,13.8,11.5c0,4.6-2.2,7.9-6.1,9.8l6.7,9.8h-9.4
		L449.8,467.5z M449.8,451.6H445v9.1h4.9c3.6,0,5.5-1.7,5.5-4.5C455.3,453.3,453.5,451.6,449.8,451.6z"/>
	<path class="st3" d="M467.4,460.2c0-9.3,7.3-16.2,17.3-16.2s17.3,6.8,17.3,16.2s-7.3,16.2-17.3,16.2S467.4,469.5,467.4,460.2z
		 M493.1,460.2c0-5.4-3.7-8.9-8.4-8.9s-8.4,3.5-8.4,8.9s3.7,8.9,8.4,8.9S493.1,465.6,493.1,460.2z"/>
</g>
<g>
	<g>
		<g>
			<path class="st4" d="M1337.2,957.6c0-40.5-32.8-73.3-73.3-73.3s-73.3,32.8-73.3,73.3c0,46.6,73.3,104.3,73.3,104.3
				S1337.2,1004.2,1337.2,957.6z"/>
			<g>
				<path class="st5" d="M1263.9,884.3c-40.5,0-73.3,32.8-73.3,73.3c0,20.2,13.8,42.6,29.5,61.4l98.3-110.4
					C1304.9,893.7,1285.5,884.3,1263.9,884.3z"/>
				<path class="st6" d="M1220.1,1019c20.4,24.5,43.8,42.9,43.8,42.9s73.3-57.7,73.3-104.3c0-18.9-7.1-36.1-18.9-49.1L1220.1,1019z"
					/>
			</g>
			<g>
				<path class="st7" d="M1236.9,1000c7.8,5,17,7.8,27,7.8c27.8,0,50.3-22.5,50.3-50.3c0-12-4.2-23.1-11.3-31.7L1236.9,1000z"/>
				<path class="st8" d="M1263.9,907.2c-27.8,0-50.3,22.5-50.3,50.3c0,17.9,9.3,33.6,23.4,42.5l66.1-74.2
					C1293.7,914.4,1279.6,907.2,1263.9,907.2z"/>
			</g>
			<circle class="st3" cx="1263.9" cy="957.5" r="46.1"/>
			<path class="st9" d="M1318.3,908.5l-3.9,4.3c10.9,12.4,17,28.2,17,44.7c0,17.6-12.1,40.2-35.1,65.6
				c-13.1,14.5-26.3,26.1-32.5,31.2c-7.2-6.1-24.3-21-39.4-39.2c-0.2-0.2-0.4-0.4-0.5-0.7l-3.9,4.4c20.4,24.5,43.8,42.9,43.8,42.9
				s73.3-57.7,73.3-104.3C1337.2,938.7,1330,921.5,1318.3,908.5z"/>
			<path class="st10" d="M1196.3,957.6c0-37.3,30.3-67.6,67.6-67.6c19.1,0,37.4,8.1,50.2,22.3c0.1,0.2,0.3,0.3,0.4,0.5l3.9-4.3
				c-13.4-14.9-32.8-24.2-54.5-24.2c-40.5,0-73.3,32.8-73.3,73.3c0,20.2,13.8,42.6,29.5,61.4l3.9-4.4
				C1205.9,992.8,1196.3,973.1,1196.3,957.6z"/>
		</g>
	</g>
</g>
<g>
	<path class="st11" d="M1285.5,965.3c0,9.1-8.4,15-20.7,15s-20.7-5.9-20.7-15c0-4.9,2.5-8.7,6.8-11.1c-3.2-2.2-5.1-5.5-5.1-9.6
		c0-8.5,7.8-13.9,19-13.9s19,5.5,19,13.9c0,4.1-1.9,7.4-5.1,9.6C1283,956.6,1285.5,960.4,1285.5,965.3z M1271.9,964.9
		c0-3.7-2.9-5.9-7.2-5.9s-7.2,2.2-7.2,5.9c0,3.7,2.9,5.9,7.2,5.9S1271.9,968.6,1271.9,964.9z M1259.1,945.2c0,3.1,2.2,5,5.7,5
		s5.7-1.8,5.7-5c0-3.2-2.4-5-5.7-5S1259.1,942,1259.1,945.2z"/>
</g>
<g>
	<g>
		<g>
			<path class="st4" d="M1635.2,381.6c0-40.5-32.8-73.3-73.3-73.3s-73.3,32.8-73.3,73.3c0,46.6,73.3,104.3,73.3,104.3
				S1635.2,428.2,1635.2,381.6z"/>
			<g>
				<path class="st5" d="M1561.9,308.3c-40.5,0-73.3,32.8-73.3,73.3c0,20.2,13.8,42.6,29.5,61.4l98.3-110.4
					C1602.9,317.7,1583.5,308.3,1561.9,308.3z"/>
				<path class="st6" d="M1518.1,443c20.4,24.5,43.8,42.9,43.8,42.9s73.3-57.7,73.3-104.3c0-18.9-7.1-36.1-18.9-49.1L1518.1,443z"/>
			</g>
			<g>
				<path class="st7" d="M1534.9,424c7.8,5,17,7.8,27,7.8c27.8,0,50.3-22.5,50.3-50.3c0-12-4.2-23.1-11.3-31.7L1534.9,424z"/>
				<path class="st8" d="M1561.9,331.2c-27.8,0-50.3,22.5-50.3,50.3c0,17.9,9.3,33.6,23.4,42.5l66.1-74.2
					C1591.7,338.4,1577.6,331.2,1561.9,331.2z"/>
			</g>
			<circle class="st3" cx="1561.9" cy="381.5" r="46.1"/>
			<path class="st9" d="M1616.3,332.5l-3.9,4.3c10.9,12.4,17,28.2,17,44.7c0,17.6-12.1,40.2-35.1,65.6
				c-13.1,14.5-26.3,26.1-32.5,31.2c-7.2-6.1-24.3-21-39.4-39.2c-0.2-0.2-0.4-0.4-0.5-0.7l-3.9,4.4c20.4,24.5,43.8,42.9,43.8,42.9
				s73.3-57.7,73.3-104.3C1635.2,362.7,1628,345.5,1616.3,332.5z"/>
			<path class="st10" d="M1494.3,381.6c0-37.3,30.3-67.6,67.6-67.6c19.1,0,37.4,8.1,50.2,22.3c0.1,0.2,0.3,0.3,0.4,0.5l3.9-4.3
				c-13.4-14.9-32.8-24.2-54.5-24.2c-40.5,0-73.3,32.8-73.3,73.3c0,20.2,13.8,42.6,29.5,61.4l3.9-4.4
				C1503.9,416.8,1494.3,397.1,1494.3,381.6z"/>
		</g>
	</g>
</g>
<g>
	<path class="st11" d="M1579.8,388c0,8.5-6.4,16.3-20.8,16.3c-6.6,0-13.6-1.6-18.5-4.7l4.8-10.2c3.9,2.6,8.7,4,13.2,4
		c4.6,0,7.6-1.8,7.6-5c0-2.9-2-4.8-9.3-4.8H1544l2.4-27.9h30.4v10.4h-19.2l-0.6,7h3.2C1574.3,373,1579.8,379.5,1579.8,388z"/>
</g>
<g>
	<g>
		<g>
			<path class="st4" d="M340.2,303.6c0-40.5-32.8-73.3-73.3-73.3s-73.3,32.8-73.3,73.3c0,46.6,73.3,104.3,73.3,104.3
				S340.2,350.2,340.2,303.6z"/>
			<g>
				<path class="st5" d="M266.9,230.3c-40.5,0-73.3,32.8-73.3,73.3c0,20.2,13.8,42.6,29.5,61.4l98.3-110.4
					C307.9,239.7,288.5,230.3,266.9,230.3z"/>
				<path class="st6" d="M223.1,365c20.4,24.5,43.8,42.9,43.8,42.9s73.3-57.7,73.3-104.3c0-18.9-7.1-36.1-18.9-49.1L223.1,365z"/>
			</g>
			<g>
				<path class="st7" d="M239.9,346c7.8,5,17,7.8,27,7.8c27.8,0,50.3-22.5,50.3-50.3c0-12-4.2-23.1-11.3-31.7L239.9,346z"/>
				<path class="st8" d="M266.9,253.2c-27.8,0-50.3,22.5-50.3,50.3c0,17.9,9.3,33.6,23.4,42.5l66.1-74.2
					C296.7,260.4,282.6,253.2,266.9,253.2z"/>
			</g>
			<circle class="st3" cx="266.9" cy="303.5" r="46.1"/>
			<path class="st9" d="M321.3,254.5l-3.9,4.3c10.9,12.4,17,28.2,17,44.7c0,17.6-12.1,40.2-35.1,65.6
				c-13.1,14.5-26.3,26.1-32.5,31.2c-7.2-6.1-24.3-21-39.4-39.2c-0.2-0.2-0.4-0.4-0.5-0.7l-3.9,4.4c20.4,24.5,43.8,42.9,43.8,42.9
				s73.3-57.7,73.3-104.3C340.2,284.7,333,267.5,321.3,254.5z"/>
			<path class="st10" d="M199.3,303.6c0-37.3,30.3-67.6,67.6-67.6c19.1,0,37.4,8.1,50.2,22.3c0.1,0.2,0.3,0.3,0.4,0.5l3.9-4.3
				c-13.4-14.9-32.8-24.2-54.5-24.2c-40.5,0-73.3,32.8-73.3,73.3c0,20.2,13.8,42.6,29.5,61.4l3.9-4.4
				C208.9,338.8,199.3,319.1,199.3,303.6z"/>
		</g>
	</g>
</g>
<g>
	<path class="st11" d="M288.1,310c0,9.9-8.3,16.3-18.7,16.3c-13.4,0-22.1-8-22.1-23.5c0-16.6,10.3-26.1,25.3-26.1
		c5.4,0,10.6,1.2,14,3.5l-4.9,9.7c-2.7-1.9-5.7-2.5-8.8-2.5c-6.8,0-11.4,3.8-12.1,11.1c2.7-2.3,6.3-3.5,10.8-3.5
		C280.7,294.9,288.1,300.9,288.1,310z M275.1,310.6c0-3.7-2.7-6-6.5-6c-3.9,0-6.6,2.5-6.6,6.1c0,3.5,2.6,6,6.7,6
		C272.4,316.7,275.1,314.4,275.1,310.6z"/>
</g>
</svg>
