<?xml version="1.0" encoding="utf-8"?>
<!-- Generator: Adobe Illustrator 24.0.0, SVG Export Plug-In . SVG Version: 6.00 Build 0)  -->
<svg version="1.1" id="Capa_1" xmlns="http://www.w3.org/2000/svg" xmlns:xlink="http://www.w3.org/1999/xlink" x="0px" y="0px"
	 viewBox="0 0 1920 2314" style="enable-background:new 0 0 1920 2314;" xml:space="preserve">
<style type="text/css">
	.st0{fill:#BFBFBF;stroke:#000000;stroke-width:0.25;stroke-miterlimit:10;}
	.st1{fill:#8E8E8E;}
	.st2{fill:#D4353F;}
	.st3{fill:#FF6D00;}
	.st4{fill:#FF8500;}
	.st5{fill:#D7D9D9;}
	.st6{fill:#C5C7C8;}
	.st7{fill:#FFFFFF;}
	.st8{fill:none;}
	.st9{opacity:0.4;fill:#D4353F;enable-background:new    ;}
	.st10{stroke:#000000;stroke-width:6;stroke-miterlimit:10;}
</style>
<path class="st0" d="M849,172.1c-34.2,31.5-77.1,43.9-118.9,61.6c-25.3,10.7-48.5,23.6-60.9,49.1c-14.2,29.2-15.8,63.9-19.4,95.8
	c-4,35.4-7.7,71.9-3.4,107.4c1.6,13.2,4.3,28.8,12.8,39.7c7.1,9.1,17.8,10,28.6,8.7c32.5-3.9,64-22.7,91.5-39.1
	c28.3-16.9,55.5-35.7,82-55.3c14-10.4,29.1-19.3,43.7-28.9c21.7-14.2,43.1-29,64-44.4c39.5-29.2,78.3-61,109.8-98.9
	c-13.6-5.9-26.3-13.4-37.5-23.5c-22.7-20.5-39.5-47.8-51.5-75.8c-3.9-9.1-7.4-18.6-10.2-28.2c-5.2-2.2-10.2-5.9-15.4-11.3
	c-17.6-18.2-37-32.4-59.4-40.7C892.2,119.7,874.2,148.9,849,172.1z"/>
<path class="st1" d="M312.7,568.9c30,29.9,35,63.3,25,103.1c-3.8,15.1-4.5,37.1,3.8,48.3c28.8,39.6,32.9,79.8,27.2,121.3
	c33,12.9,70,17.2,104.4,21.4c22.8,2.8,45.8,5.2,68.5,9.1c25,4.3,48.6,10.9,74.3,10.6c52.8-0.7,103.7-18.5,153.7-33.7
	c27.1-8.3,54-13.1,82.1-16.5c66.3-8,133.1-11.5,199.2-21.3c30.2-4.5,60.6-9.9,89.7-19.3c11.6-3.8,23.1-8.2,33.7-14.3
	c6.3-3.6,18.4-10.3,21.1-17.2c1.5-3.9-2.3-11.7-3.9-16.3c-2.5-7.2-5.2-14.7-5.3-22.5c-0.4-20.8,16.8-38.2,27.5-54.3
	c6.6-10,11.6-21,17.3-31.5c5.1-9.3,10.1-18.8,14.1-28.6c8.8-21.3,12.1-43.2,10.3-66.2c-24.6-15.9-48.4-33.1-71.5-51.2
	c-19.1-14.9-41.9-33.4-48-58.2c-5.1-20.9,2.7-42.7,7.6-62.9c3.6-14.9,6.5-29.7,7-45.1c0.3-9,0.4-19.3-3.9-27.5
	c-6.7-12.6-25.8-14.5-38.5-18.1c-3.3-0.9-6.6-1.9-9.8-2.9c-0.4,0.9-0.9,1.7-1.5,2.5c-66,81.7-159.9,133.3-244,193.3
	c-30.8,21.9-62.6,42.9-96.4,60c-26,13.1-60.4,30-90.3,22.1c-30.8-8.1-37.6-46.5-39.9-73.4c-3.2-37.5,1-75.4,5.4-112.5
	c3.9-33.4,6.6-68.8,23.2-98.8c15.2-27.4,42-41.7,69.9-53.3c38.6-16.2,79.1-27.7,110.6-56.7c22.8-21,39.1-47.1,50.9-75.3
	c-8.6-1.8-17.5-2.7-27-2.8c-27.6-0.1-55.4-5.2-82.8-9.7c-100.8-16.5-199.4,0.8-292.3,34.8c-74.4,27.2-142.7,72-212.1,111.8
	c-12.7,7.3-27.1,30-24.5,42c7.5,34.5,19,69.7,37,99.8c26.8,44.9,26.1,94.8,14.3,137.2C289.1,529.2,292.3,548.7,312.7,568.9z"/>
<path class="st0" d="M413.2,989c0.2,16.5,0.3,33.2-2,49.5c-0.8,5.8-5.7,24.2,0.5,28c3.5,2.1,11.8-2.4,15-3.6
	c5.5-2.1,10.8-4.3,16.6-5c13-1.7,25.6,6.2,38.4,1.7c14.2-5,23.2-17.3,31.6-29.2c4.8-6.8,9.4-13.2,11.4-21.5
	c1.8-7.4,1.6-15.2,1.4-22.8c-0.7-32.2,6.6-62.7,11.9-94.2c-7.2-1.4-14.4-2.8-21.8-3.8c-22.1-3-44.3-5.3-66.4-8.4
	c-10.5-1.4-21.2-3-31.9-4.9C409.3,912.3,412.6,951,413.2,989z"/>
<path class="st1" d="M511.8,1961c0.6-39.4,20.9-72.9,28.2-110.8c6.7-35-2.3-72.9,9.9-107c4.3-12.2,13.3-18,24.4-23.3
	c5.8-2.7,13.2-6.2,15.3-12.8c2.4-7.7-3.6-16.4-7.4-22.7c-20-33-36.7-68-57.5-100.5c-21-32.9-32.1-69.9-50.1-104.2
	c-0.3-0.5-0.4-1-0.6-1.4c-8.1-12.1-12.3-25.8-19.3-38.8c-6.9-13-15.3-25.4-19.7-39.6c-5.2-16.6-4.9-35-5.2-52.2
	c-0.3-19.5-0.6-38.8-3.5-58.1c-5.3-35.3-11.1-71.9-25.2-104.8c-6.4-14.9-13-29.9-14-46.3c-1.1-18.2,5.4-35.7,5.8-53.8
	c0.1-2.8,1-4.9,2.5-6.5c-0.1-0.2-0.3-0.3-0.4-0.5c-8.1-10.8-5.7-26-3.9-38.4c2.6-17.8,2.4-35.9,2.1-53.8
	c-0.7-38.2-3.2-76.8,5.2-114.3c-11.3-2.6-22.4-5.6-33.2-9.6c-2.6,12.8-5.8,25.8-9.4,38.9c-11.5,42.6-28.9,86.3-3,131.3
	c5.5,9.6,1.4,25.2,0.3,37.9c-2.8,33.1-6.2,66.1-9.8,99.1c-1.9,17.5,1.6,42.4-8.3,50.8c-24.7,20.9-24.6,45.3-24.4,72.3
	c0.3,45-2.1,90.2,1.2,135c1.6,21.7,13.5,42.6,21.1,63.8c7,19.7,19,38.9,20.3,58.9c2,29.8-12.1,62.7-4.1,89.8
	c17.8,60.5,16.4,128.3,62.4,179.6c5.9,6.5,5.9,27.7,0,33.9c-30.2,31.8-4.9,58.7,8.7,82.4c7.9,13.9,31.8,25,49.1,26
	c14.2,0.8,28.5,1.3,42.7,1.6C511.9,1962.2,511.8,1961.6,511.8,1961z"/>
<path class="st0" d="M1283.9,1819.3c-18.1-33.7-38.8-66.8-48.2-104.2c-10.1-39.9-9.5-80.7-7.9-121.5c1.3-31.8,1.3-63.6,4.4-95.3
	c2.7-27.8,6.6-56.8,2.5-84.6c-1.3-9.2-3.7-21.6-11.5-27.8c-6.4-5-16.5-4.4-24.2-4.2c-27.9,1-55.6,8.5-82.7,14.8
	c-24.3,5.6-49.1,12.7-74.2,10.3c-19.9-1.9-39.4-7.4-59.3-8.6c-15.9-0.9-25.6,3.9-38.8,11.9c-12.1,7.4-24.7,14.9-39.1,16.4
	c-16,1.7-30.5-5.9-41-17.7c-14.7-16.6-14.8-43.3-15.2-64.3c-0.9-49.6,5.2-99,5.2-148.6c0-29.8-0.6-60,3.3-89.6
	c3-23.6,9.8-43.6,31.3-56.2c24.8-14.6,55.7-18.1,83.8-20.4c27.3-2.2,56.2-4.1,83.6-1.3c28.8,3,56.9,10.7,85.7,13.7
	c25.9,2.7,57.4,3.3,76.7-17.3c11.5-12.3,16.7-28.4,11.8-44.6c-4.9-16-14.1-30.5-17.1-47.1c-2.9-15.9-4.7-33.5-4.6-49.8
	c0-17,4.1-33.6,8.9-49.8c0.2-0.7,0.5-1.4,0.8-2c-0.4-17.5-9.1-33.2-16.7-48.8c-18,15.8-41.9,24.4-64.5,31
	c-31.7,9.2-64.5,14.5-97.1,18.8c-67.6,9.1-135.8,12.1-203.3,21.7c-87.6,12.4-169.1,60.3-259.9,45.3c-6.4-1-12.7-2.3-19-3.6
	c-3.7,21.3-9,42.4-11,64c-1.9,20.5,2.7,42.1-4.9,61.8c-5.6,14.5-17.5,29.7-28.5,40.7c-10.9,10.8-26.2,19.3-41.9,18.6
	c-8-0.4-16.3-4.1-24.2-3.6c-5.9,0.3-11.8,3.6-17.2,5.6c-5.5,2-11.3,3.5-16.9,3.4c-0.7,16.3-6,32.2-5.8,48.5
	c0.2,16.5,8.2,32.1,14.5,46.9c12.9,30.6,18.8,65.4,23.5,98.2c2.5,17.5,4.2,34.7,4.5,52.4c0.4,18.4-0.9,38.1,3.1,56.1
	c3.1,13.8,11,25.8,17.8,38.1c7.4,13.5,11.4,29.7,20.9,41.9c1,1.2,1.6,2.5,1.9,3.8c9.8,19.2,17.3,39.4,25.9,59.1
	c9,20.6,21,38.9,32.5,58.1c10.5,17.7,20.3,35.8,30.2,53.8c8.3,15.3,19.7,30.4,25.6,46.8c5.4,15,1.1,29.8-11.3,39.6
	c-8.6,6.8-23.4,8.6-27.5,19.7c-6.5,17.4-5.3,38.3-5.6,56.5c-0.3,18.1-0.8,36.3-4.8,54.1c-7.7,34.1-26,65-26.5,100.7
	c0,0.7-0.1,1.4-0.2,2.1c33.8,0.2,67.6-0.7,101.4-1.2c48.4-0.7,87.4,11.7,107,62.4c10,25.9,26.4,49.2,39.3,73.9
	c12.6,24,27.1,24.6,45.2,5.8c47.9-49.9,94.8-100.9,144.9-148.6c19.4-18.4,44.5-34.6,69.9-42.3c84.5-25.4,166.8-54.8,246.4-90.9
	C1285,1821.3,1284.5,1820.3,1283.9,1819.3z"/>
<path class="st1" d="M1576.4,1303.5c-53.7-32.6-107-66.1-158.9-101.5c-41.6-28.3-37.1-65.7,9.1-86.8c18.1-8.3,26.9-16.5,18.5-38.8
	c-9.6-25.5-13.5-53-20.6-79.4c-7.7-28.6,5.3-66.3-37.7-79.8c0.4-5.2,0.8-10.3,1.2-15.5c30.9-4.9,61.9-13.8,92.7-13.3
	c26.6,0.4,40.5-7.8,50-31.2c14.3-35,14.2-70.5,16.4-107.8c2.4-40.3-4.3-47.7-40.8-55.2c-22.2-4.5-42.4-30-57.8-50.3
	c-1.5-1.9-0.3-6.3,2.3-11.6c-61-19.9-120-45.4-175-78.7c-0.1,22-4.7,43.2-13.6,63.8c-9.9,23.1-22.1,47.1-36.7,67.5
	c-7.2,10-16.1,20.3-18.8,32.5c-1.9,8.7,2.8,17.7,5.5,25.8c2.5,7.4,5.4,15.9,2.4,23.6c1,0.8,1.8,1.9,2.5,3.3
	c5,10.4,10.5,20.8,14.6,31.7c4.3,2.5,5.6,8.1,4,12.6c1.7,7,2.6,14.3,2.1,21.8c-0.2,2.5-1.1,4.5-2.4,6c-4.3,15-7.7,29.9-7.2,45.7
	c0.6,16.5,1.7,35,6.8,50.6c4.8,15,13.5,29,16.1,44.6c5.2,30-15,60.2-42.1,72c-53.6,23.3-111.8-6.9-166.5-7.6
	c-29.4-0.3-59.2,0.1-88.4,3.9c-22,2.9-55.1,7.3-68.8,27.5c-5.6,8.2-7.1,19.2-8.3,28.8c-1.8,13.8-2.4,27.9-2.7,41.8
	c-0.7,28.8,0.5,57.6-0.9,86.3c-1.1,21.9-2.6,43.8-3.7,65.7c-1.3,26-3.5,54.2,2.7,79.7c2.6,10.7,8,18.9,18.6,23.6
	c13.2,5.8,27-2.2,38.2-8.9c11.1-6.6,22.1-14.7,35.1-16.9c17.9-3,36.4,1,54,4c15.5,2.7,31.3,5.7,47,3.7c11.6-1.5,23.1-4.3,34.5-6.9
	c28.2-6.4,56.3-13.6,85.1-17c20.7-2.4,45-3.5,58.5,15.5c14.3,20.1,13.6,49.4,12.7,72.9c-1,26.5-5.5,52.9-6.3,79.4
	c-1.2,39.6-3.9,79.6-2.6,119.2c1.3,40.7,11,78.1,29.7,114.2c8.7,16.8,18.2,33.2,27,49.9c60.1-28.2,118.5-60.3,175.1-97.5
	c50.2-33,82.9-68.7,89.7-126.5c1.9-15.8-1.8-39-12.2-48.1c-29.1-25.5-29.3-55.7-27.9-89.4c1.8-41.3,22.5-68.3,53.9-93.1
	C1617,1332,1613.7,1326.1,1576.4,1303.5z"/>
<path class="st0" d="M1637,386.4c-37.4-40.2-62.4-92.8-117.6-115.8c-23.4-9.8-45.5-26.2-63.7-44.2c-25.8-25.4-46.2-56.3-71.5-82.5
	c-12.8-13.2-30-26.8-47.1-30.2c-31.1-6.1-49.7-21.6-60.6-50.3c-5.1-13.6-12.7-26.2-19.6-39.1c-11.1-20.7-26.9-26.1-43.2-7.8
	c-54.7,61.5-131.3,85-201.3,120.2c-4.1,2.1-8,3.6-11.7,4.6c4.1,12.7,9.5,25,15.6,36.6c14.7,27.9,34.7,54.3,63.4,68.6
	c18.1,9,37.7,12.2,56.5,18.9c15.9,5.6,27.8,15.6,31.9,32.6c6.3,25.8-0.2,54.3-6.4,79.4c-4.2,17.1-12.1,37.5-4.8,54.9
	c4.1,9.8,12,17.9,19.6,25.2c13.1,12.5,27.8,23.3,42.3,34.1c27.6,20.4,56.3,39.4,86.2,56.4c49.5,28.2,102.1,49.7,156.2,67
	c3-4.2,6-8.2,8.7-11.4c51.4-61.4,104.3-121.5,155.5-183C1632.8,411.5,1641,390.6,1637,386.4z"/>
<g>
	<g>
		<g>
			<path class="st2" d="M361,1298.6c0-27.9-22.6-50.6-50.6-50.6c-27.9,0-50.6,22.6-50.6,50.6c0,32.1,50.6,72,50.6,72
				S361,1330.7,361,1298.6z"/>
			<g>
				<path class="st3" d="M310.4,1248c-27.9,0-50.6,22.6-50.6,50.6c0,13.9,9.5,29.4,20.4,42.4l67.8-76.2
					C338.7,1254.5,325.3,1248,310.4,1248z"/>
				<path class="st4" d="M280.2,1340.9c14.1,16.9,30.2,29.6,30.2,29.6s50.6-39.8,50.6-72c0-13-4.9-24.9-13-33.9L280.2,1340.9z"/>
			</g>
			<g>
				<path class="st5" d="M291.8,1327.8c5.4,3.4,11.7,5.4,18.6,5.4c19.2,0,34.7-15.5,34.7-34.7c0-8.3-2.9-15.9-7.8-21.9L291.8,1327.8
					z"/>
				<path class="st6" d="M310.4,1263.8c-19.2,0-34.7,15.5-34.7,34.7c0,12.3,6.4,23.2,16.1,29.3l45.6-51.2
					C331,1268.8,321.2,1263.8,310.4,1263.8z"/>
			</g>
			<circle class="st7" cx="310.4" cy="1298.5" r="31.8"/>
			<path class="st8" d="M347.9,1264.7l-2.7,3c7.5,8.6,11.7,19.5,11.7,30.8c0,12.1-8.3,27.7-24.2,45.3c-9,10-18.1,18-22.4,21.5
				c-5-4.2-16.8-14.5-27.2-27c-0.1-0.1-0.3-0.3-0.4-0.5l-2.7,3c14.1,16.9,30.2,29.6,30.2,29.6s50.6-39.8,50.6-72
				C361,1285.5,356,1273.7,347.9,1264.7z"/>
			<path class="st9" d="M263.8,1298.6c0-25.7,20.9-46.6,46.6-46.6c13.2,0,25.8,5.6,34.6,15.4c0.1,0.1,0.2,0.2,0.3,0.3l2.7-3
				c-9.2-10.3-22.6-16.7-37.6-16.7c-27.9,0-50.6,22.6-50.6,50.6c0,13.9,9.5,29.4,20.4,42.4l2.7-3
				C270.4,1322.9,263.8,1309.3,263.8,1298.6z"/>
		</g>
	</g>
	<g>
		<path d="M317,1281.7v32.5h-11v-24.2h-5.6v-8.3H317z"/>
	</g>
</g>
<g>
	<path class="st10" d="M254,1391h6.1v18.2H254V1391z"/>
	<path class="st10" d="M283.9,1411.4c-1.3,1.5-3.1,2.3-5.3,2.3c-3.2,0-5.2-1-8.5-4.4c-4.6-1-7.7-4.6-7.7-9.3c0-5.5,4.3-9.5,10.3-9.5
		s10.3,4,10.3,9.5c0,4-2.3,7.3-5.9,8.7c0.5,0.6,1,0.8,1.7,0.8c0.9,0,1.8-0.4,2.5-1.2L283.9,1411.4z M268.6,1400.1
		c0,2.8,1.8,4.5,4.1,4.5s4.1-1.7,4.1-4.5c0-2.8-1.8-4.5-4.1-4.5S268.6,1397.2,268.6,1400.1z"/>
	<path class="st10" d="M285,1401v-10h6.1v9.8c0,2.8,1.1,3.8,2.8,3.8s2.8-1,2.8-3.8v-9.8h6v10c0,5.5-3.3,8.6-8.9,8.6
		S285,1406.4,285,1401z"/>
	<path class="st10" d="M305.5,1391h6.1v18.2h-6.1V1391z"/>
	<path class="st10" d="M335.4,1411.4c-1.3,1.5-3.1,2.3-5.3,2.3c-3.2,0-5.2-1-8.5-4.4c-4.6-1-7.7-4.6-7.7-9.3c0-5.5,4.3-9.5,10.3-9.5
		s10.3,4,10.3,9.5c0,4-2.3,7.3-5.9,8.7c0.5,0.6,1,0.8,1.7,0.8c0.9,0,1.8-0.4,2.5-1.2L335.4,1411.4z M320.1,1400.1
		c0,2.8,1.8,4.5,4.1,4.5s4.1-1.7,4.1-4.5c0-2.8-1.8-4.5-4.1-4.5S320.1,1397.2,320.1,1400.1z"/>
	<path class="st10" d="M336.5,1401v-10h6.1v9.8c0,2.8,1.1,3.8,2.8,3.8s2.8-1,2.8-3.8v-9.8h6v10c0,5.5-3.3,8.6-8.9,8.6
		S336.5,1406.4,336.5,1401z"/>
	<path class="st10" d="M372.2,1404.5v4.6H357V1391h14.8v4.6h-8.8v2.1h7.7v4.4h-7.7v2.4H372.2z"/>
</g>
<g>
	<path class="st7" d="M254,1391h6.1v18.2H254V1391z"/>
	<path class="st7" d="M283.9,1411.4c-1.3,1.5-3.1,2.3-5.3,2.3c-3.2,0-5.2-1-8.5-4.4c-4.6-1-7.7-4.6-7.7-9.3c0-5.5,4.3-9.5,10.3-9.5
		s10.3,4,10.3,9.5c0,4-2.3,7.3-5.9,8.7c0.5,0.6,1,0.8,1.7,0.8c0.9,0,1.8-0.4,2.5-1.2L283.9,1411.4z M268.6,1400.1
		c0,2.8,1.8,4.5,4.1,4.5s4.1-1.7,4.1-4.5c0-2.8-1.8-4.5-4.1-4.5S268.6,1397.2,268.6,1400.1z"/>
	<path class="st7" d="M285,1401v-10h6.1v9.8c0,2.8,1.1,3.8,2.8,3.8s2.8-1,2.8-3.8v-9.8h6v10c0,5.5-3.3,8.6-8.9,8.6
		S285,1406.4,285,1401z"/>
	<path class="st7" d="M305.5,1391h6.1v18.2h-6.1V1391z"/>
	<path class="st7" d="M335.4,1411.4c-1.3,1.5-3.1,2.3-5.3,2.3c-3.2,0-5.2-1-8.5-4.4c-4.6-1-7.7-4.6-7.7-9.3c0-5.5,4.3-9.5,10.3-9.5
		s10.3,4,10.3,9.5c0,4-2.3,7.3-5.9,8.7c0.5,0.6,1,0.8,1.7,0.8c0.9,0,1.8-0.4,2.5-1.2L335.4,1411.4z M320.1,1400.1
		c0,2.8,1.8,4.5,4.1,4.5s4.1-1.7,4.1-4.5c0-2.8-1.8-4.5-4.1-4.5S320.1,1397.2,320.1,1400.1z"/>
	<path class="st7" d="M336.5,1401v-10h6.1v9.8c0,2.8,1.1,3.8,2.8,3.8s2.8-1,2.8-3.8v-9.8h6v10c0,5.5-3.3,8.6-8.9,8.6
		S336.5,1406.4,336.5,1401z"/>
	<path class="st7" d="M372.2,1404.5v4.6H357V1391h14.8v4.6h-8.8v2.1h7.7v4.4h-7.7v2.4H372.2z"/>
</g>
<g>
	<path class="st10" d="M731.5,728.7v18.2h-6.1v-6.7h-5.7v6.7h-6.1v-18.2h6.1v6.4h5.7v-6.4H731.5z"/>
	<path class="st10" d="M734.3,738.7v-10h6.1v9.8c0,2.8,1.1,3.8,2.8,3.8s2.8-1,2.8-3.8v-9.8h6v10c0,5.5-3.3,8.6-8.9,8.6
		S734.3,744.1,734.3,738.7z"/>
	<path class="st10" d="M766.8,743.7h-6.9l-1.2,3.2h-6.2l8-18.2h6l8,18.2H768L766.8,743.7z M765.1,739.3l-1.8-4.6l-1.8,4.6H765.1z"/>
	<path class="st10" d="M783.2,742.3h-1.7v4.6h-6.1v-18.2h8.8c5.1,0,8.3,2.7,8.3,6.9c0,2.6-1.2,4.6-3.4,5.7l3.8,5.6h-6.5L783.2,742.3
		z M783.7,733.4h-2.2v4.3h2.2c1.7,0,2.5-0.8,2.5-2.1C786.2,734.2,785.4,733.4,783.7,733.4z"/>
	<path class="st10" d="M807.1,743.7h-6.9l-1.2,3.2h-6.2l8-18.2h6l8,18.2h-6.3L807.1,743.7z M805.4,739.3l-1.8-4.6l-1.8,4.6H805.4z"
		/>
</g>
<g>
	<path class="st7" d="M731.5,728.7v18.2h-6.1v-6.7h-5.7v6.7h-6.1v-18.2h6.1v6.4h5.7v-6.4H731.5z"/>
	<path class="st7" d="M734.3,738.7v-10h6.1v9.8c0,2.8,1.1,3.8,2.8,3.8s2.8-1,2.8-3.8v-9.8h6v10c0,5.5-3.3,8.6-8.9,8.6
		S734.3,744.1,734.3,738.7z"/>
	<path class="st7" d="M766.8,743.7h-6.9l-1.2,3.2h-6.2l8-18.2h6l8,18.2H768L766.8,743.7z M765.1,739.3l-1.8-4.6l-1.8,4.6H765.1z"/>
	<path class="st7" d="M783.2,742.3h-1.7v4.6h-6.1v-18.2h8.8c5.1,0,8.3,2.7,8.3,6.9c0,2.6-1.2,4.6-3.4,5.7l3.8,5.6h-6.5L783.2,742.3z
		 M783.7,733.4h-2.2v4.3h2.2c1.7,0,2.5-0.8,2.5-2.1C786.2,734.2,785.4,733.4,783.7,733.4z"/>
	<path class="st7" d="M807.1,743.7h-6.9l-1.2,3.2h-6.2l8-18.2h6l8,18.2h-6.3L807.1,743.7z M805.4,739.3l-1.8-4.6l-1.8,4.6H805.4z"/>
</g>
<g>
	<path class="st10" d="M777.5,375.3c0-5.6,4.3-9.5,10.1-9.5c3.6,0,6.4,1.3,8.2,3.6l-3.9,3.5c-1.1-1.4-2.3-2.1-4-2.1
		c-2.5,0-4.3,1.8-4.3,4.5c0,2.8,1.7,4.5,4.3,4.5c1.6,0,2.9-0.8,4-2.1l3.9,3.5c-1.8,2.3-4.6,3.6-8.2,3.6
		C781.8,384.9,777.5,380.9,777.5,375.3z"/>
	<path class="st10" d="M809.7,381.3h-6.9l-1.2,3.2h-6.2l8-18.2h6l8,18.2h-6.3L809.7,381.3z M808,376.8l-1.8-4.6l-1.8,4.6H808z"/>
	<path class="st10" d="M834.5,384.4l-0.1-8.3l-3.9,6.7h-2.7l-3.9-6.4v8h-5.6v-18.2h5l5.9,9.7l5.8-9.7h5l0.1,18.2H834.5z"/>
	<path class="st10" d="M843.1,366.2h6.1v18.2h-6.1V366.2z"/>
	<path class="st10" d="M870.1,366.2v18.2h-5l-6.9-8.3v8.3h-6v-18.2h5l6.9,8.3v-8.3H870.1z M858.2,364.8h-2.8
		c0.1-2.7,1.4-4.5,3.6-4.5c1.9,0,2.9,1.5,3.8,1.5c0.7,0,1.1-0.5,1.2-1.2h2.8c-0.1,2.7-1.4,4.4-3.6,4.4c-1.9,0-2.9-1.5-3.8-1.5
		C858.7,363.5,858.3,364,858.2,364.8z"/>
	<path class="st10" d="M885.4,381.3h-6.9l-1.2,3.2h-6.2l8-18.2h6l8,18.2h-6.3L885.4,381.3z M883.8,376.8l-1.8-4.6l-1.8,4.6H883.8z"
		/>
</g>
<g>
	<path class="st7" d="M777.5,375.3c0-5.6,4.3-9.5,10.1-9.5c3.6,0,6.4,1.3,8.2,3.6l-3.9,3.5c-1.1-1.4-2.3-2.1-4-2.1
		c-2.5,0-4.3,1.8-4.3,4.5c0,2.8,1.7,4.5,4.3,4.5c1.6,0,2.9-0.8,4-2.1l3.9,3.5c-1.8,2.3-4.6,3.6-8.2,3.6
		C781.8,384.9,777.5,380.9,777.5,375.3z"/>
	<path class="st7" d="M809.7,381.3h-6.9l-1.2,3.2h-6.2l8-18.2h6l8,18.2h-6.3L809.7,381.3z M808,376.8l-1.8-4.6l-1.8,4.6H808z"/>
	<path class="st7" d="M834.5,384.4l-0.1-8.3l-3.9,6.7h-2.7l-3.9-6.4v8h-5.6v-18.2h5l5.9,9.7l5.8-9.7h5l0.1,18.2H834.5z"/>
	<path class="st7" d="M843.1,366.2h6.1v18.2h-6.1V366.2z"/>
	<path class="st7" d="M870.1,366.2v18.2h-5l-6.9-8.3v8.3h-6v-18.2h5l6.9,8.3v-8.3H870.1z M858.2,364.8h-2.8c0.1-2.7,1.4-4.5,3.6-4.5
		c1.9,0,2.9,1.5,3.8,1.5c0.7,0,1.1-0.5,1.2-1.2h2.8c-0.1,2.7-1.4,4.4-3.6,4.4c-1.9,0-2.9-1.5-3.8-1.5
		C858.7,363.5,858.3,364,858.2,364.8z"/>
	<path class="st7" d="M885.4,381.3h-6.9l-1.2,3.2h-6.2l8-18.2h6l8,18.2h-6.3L885.4,381.3z M883.8,376.8l-1.8-4.6l-1.8,4.6H883.8z"/>
</g>
<g>
	<path class="st10" d="M1305,433.6c0-5.6,4.3-9.5,10.1-9.5c3.6,0,6.4,1.3,8.2,3.6l-3.9,3.5c-1.1-1.4-2.3-2.1-4-2.1
		c-2.5,0-4.3,1.8-4.3,4.5c0,2.8,1.7,4.5,4.3,4.5c1.6,0,2.9-0.8,4-2.1l3.9,3.5c-1.8,2.3-4.6,3.6-8.2,3.6
		C1309.3,443.1,1305,439.2,1305,433.6z"/>
	<path class="st10" d="M1323.9,433.6c0-5.5,4.3-9.5,10.3-9.5s10.3,4,10.3,9.5c0,5.5-4.3,9.5-10.3,9.5S1323.9,439.1,1323.9,433.6z
		 M1338.3,433.6c0-2.8-1.8-4.5-4.1-4.5s-4.1,1.7-4.1,4.5c0,2.8,1.8,4.5,4.1,4.5S1338.3,436.4,1338.3,433.6z"/>
	<path class="st10" d="M1346.7,424.5h6.1v13.4h8.2v4.8h-14.3V424.5z"/>
	<path class="st10" d="M1361.7,433.6c0-5.6,4.3-9.5,10.1-9.5c3.6,0,6.4,1.3,8.2,3.6l-3.9,3.5c-1.1-1.4-2.3-2.1-4-2.1
		c-2.5,0-4.3,1.8-4.3,4.5c0,2.8,1.7,4.5,4.3,4.5c1.6,0,2.9-0.8,4-2.1l3.9,3.5c-1.8,2.3-4.6,3.6-8.2,3.6
		C1366,443.1,1361.7,439.2,1361.7,433.6z"/>
	<path class="st10" d="M1399.7,424.5v18.2h-6.1V436h-5.7v6.7h-6.1v-18.2h6.1v6.4h5.7v-6.4H1399.7z"/>
	<path class="st10" d="M1415.1,439.5h-6.9l-1.2,3.2h-6.2l8-18.2h6l8,18.2h-6.3L1415.1,439.5z M1413.4,435.1l-1.8-4.6l-1.8,4.6
		H1413.4z"/>
	<path class="st10" d="M1441.6,424.5v18.2h-5l-6.9-8.3v8.3h-6v-18.2h5l6.9,8.3v-8.3H1441.6z"/>
	<path class="st10" d="M1459.7,438.1v4.6h-15.1v-18.2h14.8v4.6h-8.8v2.1h7.7v4.4h-7.7v2.4H1459.7z"/>
</g>
<g>
	<path class="st7" d="M1305,433.6c0-5.6,4.3-9.5,10.1-9.5c3.6,0,6.4,1.3,8.2,3.6l-3.9,3.5c-1.1-1.4-2.3-2.1-4-2.1
		c-2.5,0-4.3,1.8-4.3,4.5c0,2.8,1.7,4.5,4.3,4.5c1.6,0,2.9-0.8,4-2.1l3.9,3.5c-1.8,2.3-4.6,3.6-8.2,3.6
		C1309.3,443.1,1305,439.2,1305,433.6z"/>
	<path class="st7" d="M1323.9,433.6c0-5.5,4.3-9.5,10.3-9.5s10.3,4,10.3,9.5c0,5.5-4.3,9.5-10.3,9.5S1323.9,439.1,1323.9,433.6z
		 M1338.3,433.6c0-2.8-1.8-4.5-4.1-4.5s-4.1,1.7-4.1,4.5c0,2.8,1.8,4.5,4.1,4.5S1338.3,436.4,1338.3,433.6z"/>
	<path class="st7" d="M1346.7,424.5h6.1v13.4h8.2v4.8h-14.3V424.5z"/>
	<path class="st7" d="M1361.7,433.6c0-5.6,4.3-9.5,10.1-9.5c3.6,0,6.4,1.3,8.2,3.6l-3.9,3.5c-1.1-1.4-2.3-2.1-4-2.1
		c-2.5,0-4.3,1.8-4.3,4.5c0,2.8,1.7,4.5,4.3,4.5c1.6,0,2.9-0.8,4-2.1l3.9,3.5c-1.8,2.3-4.6,3.6-8.2,3.6
		C1366,443.1,1361.7,439.2,1361.7,433.6z"/>
	<path class="st7" d="M1399.7,424.5v18.2h-6.1V436h-5.7v6.7h-6.1v-18.2h6.1v6.4h5.7v-6.4H1399.7z"/>
	<path class="st7" d="M1415.1,439.5h-6.9l-1.2,3.2h-6.2l8-18.2h6l8,18.2h-6.3L1415.1,439.5z M1413.4,435.1l-1.8-4.6l-1.8,4.6H1413.4
		z"/>
	<path class="st7" d="M1441.6,424.5v18.2h-5l-6.9-8.3v8.3h-6v-18.2h5l6.9,8.3v-8.3H1441.6z"/>
	<path class="st7" d="M1459.7,438.1v4.6h-15.1v-18.2h14.8v4.6h-8.8v2.1h7.7v4.4h-7.7v2.4H1459.7z"/>
</g>
<g>
	<path class="st10" d="M1084.4,1286.7c0,4.2-3.2,6.9-8.3,6.9h-2.6v4.5h-6.1v-18.2h8.8C1081.2,1279.9,1084.4,1282.5,1084.4,1286.7z
		 M1078.2,1286.7c0-1.3-0.8-2.1-2.5-2.1h-2.2v4.3h2.2C1077.4,1288.9,1078.2,1288.1,1078.2,1286.7z"/>
	<path class="st10" d="M1086.4,1279.9h6.1v18.2h-6.1V1279.9z"/>
	<path class="st10" d="M1094.7,1289c0-5.6,4.3-9.5,10.1-9.5c3.6,0,6.4,1.3,8.2,3.6l-3.9,3.5c-1.1-1.4-2.3-2.1-4-2.1
		c-2.5,0-4.3,1.8-4.3,4.5s1.7,4.5,4.3,4.5c1.6,0,2.9-0.8,4-2.1l3.9,3.5c-1.8,2.3-4.6,3.6-8.2,3.6
		C1099,1298.5,1094.7,1294.5,1094.7,1289z"/>
	<path class="st10" d="M1126.9,1294.9h-6.9l-1.2,3.2h-6.2l8-18.2h6l8,18.2h-6.3L1126.9,1294.9z M1125.3,1290.5l-1.8-4.6l-1.8,4.6
		H1125.3z"/>
</g>
<g>
	<path class="st7" d="M1084.4,1286.7c0,4.2-3.2,6.9-8.3,6.9h-2.6v4.5h-6.1v-18.2h8.8C1081.2,1279.9,1084.4,1282.5,1084.4,1286.7z
		 M1078.2,1286.7c0-1.3-0.8-2.1-2.5-2.1h-2.2v4.3h2.2C1077.4,1288.9,1078.2,1288.1,1078.2,1286.7z"/>
	<path class="st7" d="M1086.4,1279.9h6.1v18.2h-6.1V1279.9z"/>
	<path class="st7" d="M1094.7,1289c0-5.6,4.3-9.5,10.1-9.5c3.6,0,6.4,1.3,8.2,3.6l-3.9,3.5c-1.1-1.4-2.3-2.1-4-2.1
		c-2.5,0-4.3,1.8-4.3,4.5s1.7,4.5,4.3,4.5c1.6,0,2.9-0.8,4-2.1l3.9,3.5c-1.8,2.3-4.6,3.6-8.2,3.6
		C1099,1298.5,1094.7,1294.5,1094.7,1289z"/>
	<path class="st7" d="M1126.9,1294.9h-6.9l-1.2,3.2h-6.2l8-18.2h6l8,18.2h-6.3L1126.9,1294.9z M1125.3,1290.5l-1.8-4.6l-1.8,4.6
		H1125.3z"/>
</g>
<g>
	<path class="st10" d="M592.5,1302.9c0,4.2-3.2,6.9-8.3,6.9h-2.6v4.5h-6.1V1296h8.8C589.3,1296,592.5,1298.7,592.5,1302.9z
		 M586.3,1302.9c0-1.3-0.8-2.1-2.5-2.1h-2.2v4.3h2.2C585.5,1305,586.3,1304.2,586.3,1302.9z"/>
	<path class="st10" d="M594,1305.1c0-5.5,4.3-9.5,10.3-9.5s10.3,4,10.3,9.5s-4.3,9.5-10.3,9.5S594,1310.6,594,1305.1z M608.4,1305.1
		c0-2.8-1.8-4.5-4.1-4.5s-4.1,1.7-4.1,4.5s1.8,4.5,4.1,4.5S608.4,1308,608.4,1305.1z"/>
	<path class="st10" d="M632.7,1309.5v4.8H616v-3.8l8.3-9.7h-8.1v-4.8h16v3.8l-8.3,9.7H632.7z"/>
	<path class="st10" d="M633.7,1305.1c0-5.5,4.3-9.5,10.3-9.5s10.3,4,10.3,9.5s-4.3,9.5-10.3,9.5S633.7,1310.6,633.7,1305.1z
		 M648,1305.1c0-2.8-1.8-4.5-4.1-4.5s-4.1,1.7-4.1,4.5s1.8,4.5,4.1,4.5S648,1308,648,1305.1z"/>
	<path class="st10" d="M676.6,1311.1h-6.9l-1.2,3.2h-6.2l8-18.2h6l8,18.2h-6.3L676.6,1311.1z M674.9,1306.6l-1.8-4.6l-1.8,4.6H674.9
		z"/>
	<path class="st10" d="M685.2,1296h6.1v13.4h8.2v4.8h-14.3V1296z"/>
	<path class="st10" d="M717.5,1314.2l-0.1-8.3l-3.9,6.7h-2.7l-3.9-6.4v8h-5.6V1296h5l5.9,9.7l5.8-9.7h5l0.1,18.2H717.5z"/>
	<path class="st10" d="M725.3,1305.1c0-5.5,4.3-9.5,10.3-9.5s10.3,4,10.3,9.5s-4.3,9.5-10.3,9.5S725.3,1310.6,725.3,1305.1z
		 M739.6,1305.1c0-2.8-1.8-4.5-4.1-4.5s-4.1,1.7-4.1,4.5s1.8,4.5,4.1,4.5S739.6,1308,739.6,1305.1z"/>
	<path class="st10" d="M766,1296v18.2h-5l-6.9-8.3v8.3h-6V1296h5l6.9,8.3v-8.3H766z"/>
	<path class="st10" d="M772.9,1300.8h-5.3v-4.8h16.8v4.8H779v13.4h-6.1V1300.8z"/>
	<path class="st10" d="M801.1,1309.6v4.6h-15.1V1296h14.8v4.6H792v2.1h7.7v4.4H792v2.4H801.1z"/>
</g>
<g>
	<path class="st7" d="M592.5,1302.9c0,4.2-3.2,6.9-8.3,6.9h-2.6v4.5h-6.1V1296h8.8C589.3,1296,592.5,1298.7,592.5,1302.9z
		 M586.3,1302.9c0-1.3-0.8-2.1-2.5-2.1h-2.2v4.3h2.2C585.5,1305,586.3,1304.2,586.3,1302.9z"/>
	<path class="st7" d="M594,1305.1c0-5.5,4.3-9.5,10.3-9.5s10.3,4,10.3,9.5s-4.3,9.5-10.3,9.5S594,1310.6,594,1305.1z M608.4,1305.1
		c0-2.8-1.8-4.5-4.1-4.5s-4.1,1.7-4.1,4.5s1.8,4.5,4.1,4.5S608.4,1308,608.4,1305.1z"/>
	<path class="st7" d="M632.7,1309.5v4.8H616v-3.8l8.3-9.7h-8.1v-4.8h16v3.8l-8.3,9.7H632.7z"/>
	<path class="st7" d="M633.7,1305.1c0-5.5,4.3-9.5,10.3-9.5s10.3,4,10.3,9.5s-4.3,9.5-10.3,9.5S633.7,1310.6,633.7,1305.1z
		 M648,1305.1c0-2.8-1.8-4.5-4.1-4.5s-4.1,1.7-4.1,4.5s1.8,4.5,4.1,4.5S648,1308,648,1305.1z"/>
	<path class="st7" d="M676.6,1311.1h-6.9l-1.2,3.2h-6.2l8-18.2h6l8,18.2h-6.3L676.6,1311.1z M674.9,1306.6l-1.8-4.6l-1.8,4.6H674.9z
		"/>
	<path class="st7" d="M685.2,1296h6.1v13.4h8.2v4.8h-14.3V1296z"/>
	<path class="st7" d="M717.5,1314.2l-0.1-8.3l-3.9,6.7h-2.7l-3.9-6.4v8h-5.6V1296h5l5.9,9.7l5.8-9.7h5l0.1,18.2H717.5z"/>
	<path class="st7" d="M725.3,1305.1c0-5.5,4.3-9.5,10.3-9.5s10.3,4,10.3,9.5s-4.3,9.5-10.3,9.5S725.3,1310.6,725.3,1305.1z
		 M739.6,1305.1c0-2.8-1.8-4.5-4.1-4.5s-4.1,1.7-4.1,4.5s1.8,4.5,4.1,4.5S739.6,1308,739.6,1305.1z"/>
	<path class="st7" d="M766,1296v18.2h-5l-6.9-8.3v8.3h-6V1296h5l6.9,8.3v-8.3H766z"/>
	<path class="st7" d="M772.9,1300.8h-5.3v-4.8h16.8v4.8H779v13.4h-6.1V1300.8z"/>
	<path class="st7" d="M801.1,1309.6v4.6h-15.1V1296h14.8v4.6H792v2.1h7.7v4.4H792v2.4H801.1z"/>
</g>
<g>
	<path class="st10" d="M439,1029.5h-6.9l-1.2,3.2h-6.2l8-18.2h6l8,18.2h-6.3L439,1029.5z M437.3,1025.1l-1.8-4.6l-1.8,4.6H437.3z"/>
	<path class="st10" d="M447.6,1014.5h6.1v13.4h8.2v4.8h-14.3V1014.5z"/>
	<path class="st10" d="M465.9,1019.3h-5.3v-4.8h16.8v4.8H472v13.4h-6.1V1019.3z"/>
	<path class="st10" d="M477.9,1023.6c0-5.5,4.3-9.5,10.3-9.5s10.3,4,10.3,9.5c0,5.5-4.3,9.5-10.3,9.5S477.9,1029.1,477.9,1023.6z
		 M492.3,1023.6c0-2.8-1.8-4.5-4.1-4.5s-4.1,1.7-4.1,4.5c0,2.8,1.8,4.5,4.1,4.5S492.3,1026.4,492.3,1023.6z"/>
	<path class="st10" d="M526.4,1014.5v18.2h-6.1v-6.7h-5.7v6.7h-6.1v-18.2h6.1v6.4h5.7v-6.4H526.4z"/>
	<path class="st10" d="M528.6,1023.6c0-5.5,4.3-9.5,10.3-9.5s10.3,4,10.3,9.5c0,5.5-4.3,9.5-10.3,9.5S528.6,1029.1,528.6,1023.6z
		 M543,1023.6c0-2.8-1.8-4.5-4.1-4.5s-4.1,1.7-4.1,4.5c0,2.8,1.8,4.5,4.1,4.5S543,1026.4,543,1023.6z"/>
	<path class="st10" d="M550.3,1031.3l2-4.5c1.7,1,4,1.7,6,1.7c1.7,0,2.4-0.4,2.4-1c0-2.3-10.1-0.4-10.1-7.2c0-3.4,2.8-6.1,8.5-6.1
		c2.4,0,5,0.5,6.9,1.6l-1.8,4.4c-1.8-0.9-3.5-1.4-5.1-1.4c-1.8,0-2.4,0.5-2.4,1.1c0,2.2,10.1,0.4,10.1,7.1c0,3.3-2.8,6.1-8.5,6.1
		C555.1,1033.1,552.1,1032.4,550.3,1031.3z"/>
	<path class="st10" d="M585.5,1021.4c0,4.2-3.2,6.9-8.3,6.9h-2.6v4.5h-6.1v-18.2h8.8C582.3,1014.5,585.5,1017.2,585.5,1021.4z
		 M579.3,1021.4c0-1.3-0.8-2.1-2.5-2.1h-2.2v4.3h2.2C578.5,1023.5,579.3,1022.7,579.3,1021.4z"/>
	<path class="st10" d="M587.5,1014.5h6.1v18.2h-6.1V1014.5z"/>
	<path class="st10" d="M595.9,1023.6c0-5.6,4.3-9.5,10.1-9.5c3.6,0,6.4,1.3,8.2,3.6l-3.9,3.5c-1.1-1.4-2.3-2.1-4-2.1
		c-2.5,0-4.3,1.8-4.3,4.5c0,2.8,1.7,4.5,4.3,4.5c1.6,0,2.9-0.8,4-2.1l3.9,3.5c-1.8,2.3-4.6,3.6-8.2,3.6
		C600.2,1033.1,595.9,1029.2,595.9,1023.6z"/>
	<path class="st10" d="M616,1014.5h6.1v18.2H616V1014.5z"/>
	<path class="st10" d="M624.3,1023.6c0-5.5,4.3-9.5,10.3-9.5s10.3,4,10.3,9.5c0,5.5-4.3,9.5-10.3,9.5S624.3,1029.1,624.3,1023.6z
		 M638.7,1023.6c0-2.8-1.8-4.5-4.1-4.5s-4.1,1.7-4.1,4.5c0,2.8,1.8,4.5,4.1,4.5S638.7,1026.4,638.7,1023.6z"/>
</g>
<g>
	<path class="st7" d="M439,1029.5h-6.9l-1.2,3.2h-6.2l8-18.2h6l8,18.2h-6.3L439,1029.5z M437.3,1025.1l-1.8-4.6l-1.8,4.6H437.3z"/>
	<path class="st7" d="M447.6,1014.5h6.1v13.4h8.2v4.8h-14.3V1014.5z"/>
	<path class="st7" d="M465.9,1019.3h-5.3v-4.8h16.8v4.8H472v13.4h-6.1V1019.3z"/>
	<path class="st7" d="M477.9,1023.6c0-5.5,4.3-9.5,10.3-9.5s10.3,4,10.3,9.5c0,5.5-4.3,9.5-10.3,9.5S477.9,1029.1,477.9,1023.6z
		 M492.3,1023.6c0-2.8-1.8-4.5-4.1-4.5s-4.1,1.7-4.1,4.5c0,2.8,1.8,4.5,4.1,4.5S492.3,1026.4,492.3,1023.6z"/>
	<path class="st7" d="M526.4,1014.5v18.2h-6.1v-6.7h-5.7v6.7h-6.1v-18.2h6.1v6.4h5.7v-6.4H526.4z"/>
	<path class="st7" d="M528.6,1023.6c0-5.5,4.3-9.5,10.3-9.5s10.3,4,10.3,9.5c0,5.5-4.3,9.5-10.3,9.5S528.6,1029.1,528.6,1023.6z
		 M543,1023.6c0-2.8-1.8-4.5-4.1-4.5s-4.1,1.7-4.1,4.5c0,2.8,1.8,4.5,4.1,4.5S543,1026.4,543,1023.6z"/>
	<path class="st7" d="M550.3,1031.3l2-4.5c1.7,1,4,1.7,6,1.7c1.7,0,2.4-0.4,2.4-1c0-2.3-10.1-0.4-10.1-7.2c0-3.4,2.8-6.1,8.5-6.1
		c2.4,0,5,0.5,6.9,1.6l-1.8,4.4c-1.8-0.9-3.5-1.4-5.1-1.4c-1.8,0-2.4,0.5-2.4,1.1c0,2.2,10.1,0.4,10.1,7.1c0,3.3-2.8,6.1-8.5,6.1
		C555.1,1033.1,552.1,1032.4,550.3,1031.3z"/>
	<path class="st7" d="M585.5,1021.4c0,4.2-3.2,6.9-8.3,6.9h-2.6v4.5h-6.1v-18.2h8.8C582.3,1014.5,585.5,1017.2,585.5,1021.4z
		 M579.3,1021.4c0-1.3-0.8-2.1-2.5-2.1h-2.2v4.3h2.2C578.5,1023.5,579.3,1022.7,579.3,1021.4z"/>
	<path class="st7" d="M587.5,1014.5h6.1v18.2h-6.1V1014.5z"/>
	<path class="st7" d="M595.9,1023.6c0-5.6,4.3-9.5,10.1-9.5c3.6,0,6.4,1.3,8.2,3.6l-3.9,3.5c-1.1-1.4-2.3-2.1-4-2.1
		c-2.5,0-4.3,1.8-4.3,4.5c0,2.8,1.7,4.5,4.3,4.5c1.6,0,2.9-0.8,4-2.1l3.9,3.5c-1.8,2.3-4.6,3.6-8.2,3.6
		C600.2,1033.1,595.9,1029.2,595.9,1023.6z"/>
	<path class="st7" d="M616,1014.5h6.1v18.2H616V1014.5z"/>
	<path class="st7" d="M624.3,1023.6c0-5.5,4.3-9.5,10.3-9.5s10.3,4,10.3,9.5c0,5.5-4.3,9.5-10.3,9.5S624.3,1029.1,624.3,1023.6z
		 M638.7,1023.6c0-2.8-1.8-4.5-4.1-4.5s-4.1,1.7-4.1,4.5c0,2.8,1.8,4.5,4.1,4.5S638.7,1026.4,638.7,1023.6z"/>
</g>
</svg>
