<?xml version="1.0" encoding="utf-8"?>
<!-- Generator: Adobe Illustrator 24.0.0, SVG Export Plug-In . SVG Version: 6.00 Build 0)  -->
<svg version="1.1" id="Capa_1" xmlns="http://www.w3.org/2000/svg" xmlns:xlink="http://www.w3.org/1999/xlink" x="0px" y="0px"
	 viewBox="0 0 1920 2314" style="enable-background:new 0 0 1920 2314;" xml:space="preserve">
<style type="text/css">
	.st0{fill:#BFBFBF;}
	.st1{fill:#8E8E8E;}
	.st2{stroke:#000000;stroke-width:6;stroke-miterlimit:10;}
	.st3{fill:#FFFFFF;}
	.st4{fill:#D4353F;}
	.st5{fill:#FF6D00;}
	.st6{fill:#FF8500;}
	.st7{fill:#D7D9D9;}
	.st8{fill:#C5C7C8;}
	.st9{opacity:0.4;fill:#DA5D68;enable-background:new    ;}
	.st10{opacity:0.4;fill:#D4353F;enable-background:new    ;}
	.st11{fill:#444444;}
</style>
<g id="los_lagos">
	<path class="st0" d="M815.1,934.3c-7.8-3.9-14.1-10.8-21-16.3c19.6-24.4,19.2-32.8-0.3-55.6c-6.1-7.1-10.7-16-18.1-21.2
		c-19.9-14-12.4-29.9-6.1-46.9c2.2-5.8,2.9-12.3,3.8-19.9c-8.3-3.4-16.9-6-25.8-8.1c-25-5.7-50.8-7.1-76.4-8
		c-10.3,14-29,21.2-62.6,24.2c-5-18.9-7.1-41-33.4-43c-13.4-1.1-27.9-4.1-40.2-0.4c-12.6,3.8-24.8,13.1-33.6,23.2
		c-3.1,3.5,4.5,16.5,7.5,25c1.9,5.3,7.9,12.8,6.2,15.1c-18.2,24.6-7.9,52.9-11.7,79.2c-0.7,4.8-3.1,9.8-5.9,13.7
		c-10.9,15-23.4,28.9-33.1,44.6c-5.9,9.6-13.5,23.8-10.4,32.2c8.5,23.3,0.5,42.1-8.7,61.6c-11.5,24.4-11.9,46.1,4.8,70.5
		c10.2,15,13.2,37.2,13.2,56.2c0,20-9.3,39.8-10.8,60c-1.2,16.3-3,29.2-19.5,36.9c-4.9,2.3-9,9.5-10.4,15.2
		c-6.3,24.3-15.5,45.7-40,57.4c-4.3,2.1-9.8,9.5-9,13.4c5.2,26.3-14.4,41.4-26.3,59.3c-13.2,19.8-8.4,40.4,13.8,47.1
		c4.8,1.4,9.5,3,14.2,4.9c22.2,8.7,43.7,21.5,66.6,24.9c14.6,2.2,21.7,7.8,30.3,17.3c10.6,11.7,21.7,11.9,31.8-2.7
		c2.7-3.9,14-7.5,15.1-6.2c14.2,17.6,27.4,7.8,39.8-1.1c38.3,31.9,56.8,32.4,79.9,2.3c17.2,17.7,36.3,9.7,53.6,1.6
		c19-8.9,3.5-23.6,2.7-35.8c-0.2-2.8,0.9-5.8,0.6-8.6c-2.2-20.8-4.6-41.6-6.9-62.3c4-0.4,9.5-0.9,15.1-1.3
		c15.8-1.2,31.5-2.6,47.3-3.2c12.2-0.5,24.5,0.2,36.7,0.3c-3.6-10.9-5.3-23-11.3-32.4c-17.1-26.8-22.4-63.2-58.7-75.1
		c-0.9-0.3-0.7-3.7-1.4-8.4c16.6,0,32.3,1,47.8-0.4c6.9-0.6,16.5-4.3,19.5-9.7c11.7-20.7,2.7-48.7-20.4-55.1
		c-38.3-10.5-60-44.1-93.2-61.2c-8-4.1-14.2-11.8-20.6-17.4c20.2-3.2,39.2-3.3,55.9-9.6c21.1-8,21.6-18.3,5.7-34.7
		c-17.2-17.8-11.7-42.3,11.8-48.2c26.4-6.6,53-12.8,79.9-16.6c16.1-2.3,29.6-3.3,32.3-23.5C839.5,955.3,835.4,944.5,815.1,934.3z"/>
	<path class="st1" d="M642.4,183.9c0.7,4.4,0.1,11.1-2.7,13.7C620.2,216.1,606,237,595.8,262c23.1-2.9,46.2-5.5,69.5-2.2
		c15.7,2.2,31.1,10.4,39.4,24.4c10.7,17.8,9.9,40.5,11,60.6c0.9,16.3,1.7,29.8,16,39.5c16.1,11,35.1,16.9,53.9,21.3
		c44.4,10.2,90.6,11.5,135.9,13.7c20.6,1,41.2,1.8,61.6,4.1c14.8,1.7,29.5,4.8,44.4,6.3c36.1,3.8,72.5,5.2,108.7,6.5
		c85.5,3,171.4,3.9,256.4,14.6c42.7,5.4,91.3,12.3,133.6,29.9c-0.3-2.4-0.7-4.8-1.4-7.3c-0.3-1.1,1.5-2.5,1.7-3.9
		c2-15.8,7.8-32.4,5-47.3c-3.6-18.7-16.6-35.5-10.8-56.3c0.5-1.7-1.2-4-1.9-6.1c-5.8-16.8-8.7-35.6-18.1-50.1
		c-17.5-27.2-16.2-43.7,15-59.7c18.9-9.7,18.1-41.1,2.3-44.4c-34.2-7.2-69.6-15.6-98.9,14.8c-4.1,4.2-11,6.8-17,8
		c-16.8,3.5-33.6,6.9-50.6,8.5c-16.1,1.6-32.5,1-48.7,1.2c-19.7,0.2-39.4-0.6-59,0.6c-20.6,1.3-41.3,7.7-61.5,5.9
		c-23.7-2.1-47.1-10-70.3-16.6c-32.2-9.1-58.7-29.8-67.6-60.5c-7.5-25.9-19.9-38.5-43.2-47.3c-18.7-7.1-37.9-14.9-40.9-40.8
		c-1.8-15.8-14-25.6-31.4-27.8c-10.5-1.3-20.7-5.7-30.9-9c-20.1-6.4-39.3-6.9-60.9-2.1c-19.4,4.3-45.1,4.3-60.8-5.5
		c-18.6-11.6-33.4-17.8-52.9-9c-10.9,4.9-18.9,6.1-28.1-4.5C684,8.7,669.1,14.5,658,22c-5.2,3.5-5.1,14.7-7.5,22.4
		c-2.1,6.6-4,13.2-6.8,19.5c-2.8,6.4-9.1,12.3-9.5,18.7c-1.1,20.2-1.1,40.6,0.4,60.8C635.6,157,640.3,170.3,642.4,183.9z"/>
	<path class="st1" d="M1569,795.4c-1.1-8.5-1.1-17.2-2.4-25.7c-3.9-23.9-6.7-47.8-27.4-65.6c-7.1-6.1-11-18.5-12-28.4
		c-3.2-32.1,3-67.2-8.1-95.9c-10.5-27.4,1.2-51.3,5.8-75.5c-14.2-6.2-29.1-11-43.7-15.1c-42.7-11.8-86.9-17.5-130.9-21.5
		c-83.7-7.5-167.7-7.7-251.5-11.6c-33.6-1.5-67.3-3.5-100.6-8.8c-38.9-6.1-78.2-6.4-117.5-8.8c-43.5-2.6-89.4-5.6-130.6-21.2
		c-15.1-5.7-32.5-13.5-43.3-26c-11.4-13.1-11.9-32.6-12.7-48.9c-0.8-15.4,0.7-36-9-49.1c-8.3-11.3-21.9-13-35.3-13.4
		c-20.9-0.6-41.5,2.2-62.2,4.7c-6.6,19.5-11.5,38.6-7.3,59.1c2.5,12.2,0.3,18.8-10.1,24.4c-17.7,9.5-23.1,24.2-17.1,43.5
		c8.2,26.5,14.6,53.6,24.2,79.6c9.2,25,18.9,48.4,13.2,76.7c-4.4,22.2-4.6,46.2,17.7,62.7c4,2.9,6,9.8,7,15.2
		c3,15.4,10.4,23.5,27.3,24.6c22,1.4,24.6,7.5,15.4,27.7c-13.5,29.6-16.4,36-0.5,45.3c18.3,0.6,36.5,1.2,54.7,2.9
		c30.7,2.9,61.2,9,88.1,24.7c0.3,0.2,0.5,0.3,0.8,0.5c1.8,0.7,3.7,1.5,5.5,2.3c14.5,6.9,26.4,5.1,40.4-2.4c10-5.3,24.5-8.6,34.9-5.6
		c28.8,8.3,57.8,16.6,84.4,32c8.6,4.9,26.6,4.8,33-1c6.3-5.8,5.5-22.1,3.8-33.1c-1.2-7.5-9.9-13.5-14.1-20.9
		c-4.5-7.8-8.9-16-10.9-24.6c-3.5-14.8-5.1-30.1-8.1-48.7c2.6-3.5,8-9.2,11.8-15.8c10.5-18.7,30.9-26.4,50.9-18.8
		c8,3,16.2,7.7,24.3,7.7c23.8,0,37.8,14.5,51.2,30.9c3.6,4.4,7,9.1,11.1,12.9c14.3,13.3,19.8,24.8,16.8,35.9
		c5.5,0.4,11.1,0.9,16.6,1.4c14.8,1.4,30.1,2.2,44.6,5.6c18.4,4.3,32.3,14.7,48.1,24.2c16.7,10.1,35.3,12.5,54.3,9.5
		c22.6-3.5,43.6-5.9,65.2,3.7c23.5,10.4,43.8,28.4,60.2,47.9c2.5,2.9,3,7.5,0,10.3c-18.2,17.2-42.8,13.7-65.6,17.5
		c9.3,9.2,17.3,19.5,25.9,29.5c13.2,15.3,28.4,25.8,45.7,35.9c12.8,7.5,25.5,15.1,36.9,24.6c5.6,4.7,10.7,9.8,15.5,15.2
		c4.5,0.8,9,0.9,12.9,0.2c17-3.3,33.1-11.8,50.1-15c34.4-6.3,47.7-18.4,36-49.4C1571.3,854,1572.7,824.8,1569,795.4z"/>
	<path class="st0" d="M1617.5,1580.9c-8.9-2.5-22.1-0.3-26.6-5.8c-21.1-25.8-62.1-26.6-75.2-61.6c-1.3-3.4-6.5-5.4-9.9-8
		c-15.7-11.7-18.4-24.2-3-34.4c13.7-9.1,30.3-20.2,49.1-9.6c15.7,8.8,26.1,1.8,29.2-12.9c3.9-18.5,5.3-37.7,5.4-56.6
		c0-5.3-7.1-12.2-12.6-15.7c-6.4-4.1-14.7-5.1-22.2-7.8c-27.7-9.8-55.5-19.5-83.1-29.8c-2.7-1-4.3-5.2-6.3-8
		c-14-19.7-28.4-39-41.6-59.3c-5.8-9-11.6-19.4-12.6-29.7c-2.2-23.5,3.5-48.8-3.1-70.6c-10.9-35.8-1.4-62.3,17.6-92.4
		c11.1-17.5,13.7-45,9.9-66.2c-4.1-23-9.3-40,1.8-61.6c5-9.8,7.8-15.2,11.3-17.1c-8.9-6.1-18.4-11.4-27.7-16.8
		c-17-9.9-31.6-21.5-44.3-36.4c-11-12.9-21.2-26.3-34.6-36.9c-4.7-3.7-1.4-10.6,3.2-12.2c12.2-4.3,25.1-4.9,37.8-5.8
		c10.1-0.8,20.5-1.9,29.1-7.1c-17-18.9-38.6-37.3-63.4-43.1c-20.6-4.8-40.5,3-61.1,3.5c-17.7,0.4-35.5-5.5-50.3-15.1
		c-16.2-10.4-30.9-19.8-50.6-22.3c-18.8-2.4-37.7-4.3-56.7-5.3c-3.3,3.5-7.5,6.9-12.6,10.4c-22.3,15.2-43.3,32.5-64,49.8
		c-11.7,9.8-11.2,20.5,1.5,30.4c18.2,14.1,33.1,32.1,57.1,38.4c22.7,6,44.5,15.5,67.1,22.2c3.7,1.1,9.7-4.2,14-7.4
		c13.6-9.9,27-20.1,41.1-30.7c-2.4,47-4.5,90.4-6.7,133.9c-7.6-14.6-11.7-28.2-17.2-41.1c-7.4-17.2-20.1-21.1-36.8-12.4
		c-7.6,3.9-15.4,7.3-23.4,10.3c-28.5,10.7-57.5,20.4-85.6,32.2c-6.3,2.7-13.8,13-13.2,19c0.6,6.7,9.2,16.8,15.6,18
		c38,6.8,42.8,48,71.5,64c-23.9,3-50.3-16.2-67.5,13.3c-15.1,25.9-25.3,52.2-2.2,78.6c-14.1,19.4-21.8,41.1-11.6,61.2
		c8.2,16.3,22.1,29.7,34.7,43.8c-9.9,2.9-20.9,5.4-22.3,10.6c-6.6,24.8-24.9,40.8-40,57.9c-21,23.8-23.2,26.4-4.2,50.9
		c3.6,4.7,4.3,18.5,1.2,20.5c-12.9,8.7-27.1,16.3-41.9,21c-19.5,6.2-30.1,15.7-30.6,37.8c-0.3,16.7-6.3,33.3-9.6,50
		c-0.2,1.1,1.2,2.5,2,3.8c16,28.3,28.7,60.2,74.9,61.8c-20.9,17.3-36.8,30.1-52.1,43.4c-8.8,7.7-16.2,20.1-3.3,26.6
		c22.4,11.3,47.2,18,71,26.3c8.3,2.9,16.8,5.4,25.4,7.7c9,2.4,18.1,4.5,27.1,6.7c2.1-9.3,5.2-18.6,5.8-28.1
		c0.3-5.1-3.8-10.5-5.8-15.9c-5.4-14.3,3.4-37.8,19-45.1c0,8.9,0,16.5,0,24.2c0.1,37.5,10.3,46.6,46.7,48.4
		c22.4,1.1,44.7,6.2,66.9,10.4c18.3,3.5,35.5,4.3,50.6-9.3c7.5-6.7,15.7-12.5,23.7-18.6c29-22,31.3-20.9,40.5,13.8
		c5,18.7,11,36.7,33.7,43.4c12,3.6,21.7,14,33.3,19.4c7.5,3.5,16.5,4.2,24.9,4.5c3.6,0.1,8.3-6.6,10.9-5.7
		c18.1,6.2,35.8,13.5,53.5,21c1.7,0.7,1.1,5.8,2.8,7.8c11.5,14.1,21.7,29.8,35.5,41.1c11.7,9.7,25.6,5.6,35.9-7
		c7.2-8.7,14.8-17.4,23.4-24.7c17.4-14.7,24.2-37.3,13.9-57.8c-6-11.9-14.2-23.5-23.9-32.5c-9.3-8.6-11-16.4-1.4-22.6
		c13.4-8.8,28.3-15.7,43.3-21.5c14.6-5.6,26.5-13.3,26.7-29.8C1646.7,1592.4,1632.8,1585.1,1617.5,1580.9z"/>
	<path class="st0" d="M258,1610c-18,5.9-37,10.1-53.8,18.4c-13,6.4-21.4,5.3-29.7-5.4c-7.5-9.6-15.6-18.8-22.4-28.9
		c-12.3-18.3-6.1-38.7,13.8-47.8c3.2-1.5,8.2-1.8,9.7-4.2c17-27.7,36-13.2,54.9-3.2c13.9,7.4,27.8,14.7,41.8,22.1
		c2.5,1.3,6.4,2,7.4,4.1c5.7,11.4,17.2,25.4,14.3,34.3c-3,9.1-20.4,13.4-31.5,19.8C260.9,1616.1,259.5,1613,258,1610z"/>
</g>
<g>
	<path class="st2" d="M499.8,1065.5c0-9.5,7.2-16.2,17.1-16.2c5.7,0,10.3,2.1,13.4,5.9l-5.6,5.1c-2-2.4-4.3-3.6-7.3-3.6
		c-5.1,0-8.7,3.5-8.7,8.9c0,5.3,3.5,8.9,8.7,8.9c3,0,5.4-1.3,7.3-3.6l5.6,5.1c-3,3.8-7.6,5.9-13.4,5.9
		C507,1081.7,499.8,1075,499.8,1065.5z"/>
	<path class="st2" d="M563.6,1050v31.1h-8.8v-12.1h-12v12.1h-8.8V1050h8.8v11.7h12V1050H563.6z"/>
	<path class="st2" d="M569.9,1050h8.8v31.1h-8.8V1050z"/>
	<path class="st2" d="M584.9,1050h8.8v24.1h14.8v7h-23.6V1050z"/>
	<path class="st2" d="M609.9,1065.5c0-9.3,7.3-16.2,17.3-16.2s17.3,6.8,17.3,16.2s-7.3,16.2-17.3,16.2S609.9,1074.8,609.9,1065.5z
		 M635.5,1065.5c0-5.4-3.7-8.9-8.4-8.9s-8.4,3.5-8.4,8.9s3.7,8.9,8.4,8.9S635.5,1070.9,635.5,1065.5z"/>
	<path class="st2" d="M673.9,1074.3v6.8H649V1050h24.4v6.8h-15.7v5.2h13.8v6.6h-13.8v5.7H673.9z M662.9,1047.5h-6l5.9-6.7h8.4
		L662.9,1047.5z"/>
</g>
<g>
	<path class="st3" d="M499.8,1065.5c0-9.5,7.2-16.2,17.1-16.2c5.7,0,10.3,2.1,13.4,5.9l-5.6,5.1c-2-2.4-4.3-3.6-7.3-3.6
		c-5.1,0-8.7,3.5-8.7,8.9c0,5.3,3.5,8.9,8.7,8.9c3,0,5.4-1.3,7.3-3.6l5.6,5.1c-3,3.8-7.6,5.9-13.4,5.9
		C507,1081.7,499.8,1075,499.8,1065.5z"/>
	<path class="st3" d="M563.6,1050v31.1h-8.8v-12.1h-12v12.1h-8.8V1050h8.8v11.7h12V1050H563.6z"/>
	<path class="st3" d="M569.9,1050h8.8v31.1h-8.8V1050z"/>
	<path class="st3" d="M584.9,1050h8.8v24.1h14.8v7h-23.6V1050z"/>
	<path class="st3" d="M609.9,1065.5c0-9.3,7.3-16.2,17.3-16.2s17.3,6.8,17.3,16.2s-7.3,16.2-17.3,16.2S609.9,1074.8,609.9,1065.5z
		 M635.5,1065.5c0-5.4-3.7-8.9-8.4-8.9s-8.4,3.5-8.4,8.9s3.7,8.9,8.4,8.9S635.5,1070.9,635.5,1065.5z"/>
	<path class="st3" d="M673.9,1074.3v6.8H649V1050h24.4v6.8h-15.7v5.2h13.8v6.6h-13.8v5.7H673.9z M662.9,1047.5h-6l5.9-6.7h8.4
		L662.9,1047.5z"/>
</g>
<g>
	<path class="st2" d="M1000.4,591.5c0,7.1-5.3,11.4-13.8,11.4h-5.4v8.1h-8.8V580h14.2C995,580,1000.4,584.4,1000.4,591.5z
		 M991.5,591.5c0-2.9-1.8-4.6-5.5-4.6h-4.9v9.1h4.9C989.7,596,991.5,594.3,991.5,591.5z"/>
	<path class="st2" d="M1004,597.2V580h8.8v17c0,5.3,2.2,7.5,5.9,7.5c3.6,0,5.9-2.1,5.9-7.5v-17h8.7v17.2c0,9.3-5.4,14.5-14.6,14.5
		S1004,606.5,1004,597.2z"/>
	<path class="st2" d="M1064.1,604.3v6.8h-24.9V580h24.4v6.8h-15.7v5.2h13.8v6.6h-13.8v5.7H1064.1z"/>
	<path class="st2" d="M1082.6,602.8h-4.8v8.3h-8.8V580h14.2c8.5,0,13.8,4.4,13.8,11.5c0,4.6-2.2,7.9-6.1,9.8l6.7,9.8h-9.4
		L1082.6,602.8z M1082.6,586.9h-4.9v9.1h4.9c3.6,0,5.5-1.7,5.5-4.5C1088.1,588.6,1086.3,586.9,1082.6,586.9z"/>
	<path class="st2" d="M1108,586.9h-9.5v-7h27.8v7h-9.5V611h-8.8V586.9z"/>
	<path class="st2" d="M1127.5,595.5c0-9.3,7.3-16.2,17.3-16.2s17.3,6.8,17.3,16.2s-7.3,16.2-17.3,16.2S1127.5,604.8,1127.5,595.5z
		 M1153.1,595.5c0-5.4-3.7-8.9-8.4-8.9s-8.4,3.5-8.4,8.9s3.7,8.9,8.4,8.9S1153.1,600.9,1153.1,595.5z"/>
	<path class="st2" d="M1207.6,611l-0.1-16.5l-8,13.4h-3.9l-7.9-13v16h-8.1V580h7.2l10.9,17.9l10.6-17.9h7.2l0.1,31.1H1207.6z"/>
	<path class="st2" d="M1220.3,595.5c0-9.3,7.3-16.2,17.3-16.2s17.3,6.8,17.3,16.2s-7.3,16.2-17.3,16.2S1220.3,604.8,1220.3,595.5z
		 M1245.9,595.5c0-5.4-3.7-8.9-8.4-8.9s-8.4,3.5-8.4,8.9s3.7,8.9,8.4,8.9S1245.9,600.9,1245.9,595.5z"/>
	<path class="st2" d="M1288.9,580V611h-7.2l-13.7-16.6V611h-8.6V580h7.2l13.7,16.6V580H1288.9z"/>
	<path class="st2" d="M1301.8,586.9h-9.5v-7h27.8v7h-9.5V611h-8.8V586.9z"/>
	<path class="st2" d="M1330.4,586.9h-9.5v-7h27.8v7h-9.5V611h-8.8V586.9z"/>
</g>
<g>
	<path class="st3" d="M1000.4,591.5c0,7.1-5.3,11.4-13.8,11.4h-5.4v8.1h-8.8V580h14.2C995,580,1000.4,584.4,1000.4,591.5z
		 M991.5,591.5c0-2.9-1.8-4.6-5.5-4.6h-4.9v9.1h4.9C989.7,596,991.5,594.3,991.5,591.5z"/>
	<path class="st3" d="M1004,597.2V580h8.8v17c0,5.3,2.2,7.5,5.9,7.5c3.6,0,5.9-2.1,5.9-7.5v-17h8.7v17.2c0,9.3-5.4,14.5-14.6,14.5
		S1004,606.5,1004,597.2z"/>
	<path class="st3" d="M1064.1,604.3v6.8h-24.9V580h24.4v6.8h-15.7v5.2h13.8v6.6h-13.8v5.7H1064.1z"/>
	<path class="st3" d="M1082.6,602.8h-4.8v8.3h-8.8V580h14.2c8.5,0,13.8,4.4,13.8,11.5c0,4.6-2.2,7.9-6.1,9.8l6.7,9.8h-9.4
		L1082.6,602.8z M1082.6,586.9h-4.9v9.1h4.9c3.6,0,5.5-1.7,5.5-4.5C1088.1,588.6,1086.3,586.9,1082.6,586.9z"/>
	<path class="st3" d="M1108,586.9h-9.5v-7h27.8v7h-9.5V611h-8.8V586.9z"/>
	<path class="st3" d="M1127.5,595.5c0-9.3,7.3-16.2,17.3-16.2s17.3,6.8,17.3,16.2s-7.3,16.2-17.3,16.2S1127.5,604.8,1127.5,595.5z
		 M1153.1,595.5c0-5.4-3.7-8.9-8.4-8.9s-8.4,3.5-8.4,8.9s3.7,8.9,8.4,8.9S1153.1,600.9,1153.1,595.5z"/>
	<path class="st3" d="M1207.6,611l-0.1-16.5l-8,13.4h-3.9l-7.9-13v16h-8.1V580h7.2l10.9,17.9l10.6-17.9h7.2l0.1,31.1H1207.6z"/>
	<path class="st3" d="M1220.3,595.5c0-9.3,7.3-16.2,17.3-16.2s17.3,6.8,17.3,16.2s-7.3,16.2-17.3,16.2S1220.3,604.8,1220.3,595.5z
		 M1245.9,595.5c0-5.4-3.7-8.9-8.4-8.9s-8.4,3.5-8.4,8.9s3.7,8.9,8.4,8.9S1245.9,600.9,1245.9,595.5z"/>
	<path class="st3" d="M1288.9,580V611h-7.2l-13.7-16.6V611h-8.6V580h7.2l13.7,16.6V580H1288.9z"/>
	<path class="st3" d="M1301.8,586.9h-9.5v-7h27.8v7h-9.5V611h-8.8V586.9z"/>
	<path class="st3" d="M1330.4,586.9h-9.5v-7h27.8v7h-9.5V611h-8.8V586.9z"/>
</g>
<g>
	<path class="st2" d="M1164.8,1298.5c0-9.5,7.2-16.2,17.1-16.2c5.7,0,10.3,2.1,13.4,5.9l-5.6,5.1c-2-2.4-4.3-3.6-7.3-3.6
		c-5.1,0-8.7,3.5-8.7,8.9c0,5.3,3.5,8.9,8.7,8.9c3,0,5.4-1.3,7.3-3.6l5.6,5.1c-3,3.8-7.6,5.9-13.4,5.9
		C1172,1314.7,1164.8,1308,1164.8,1298.5z"/>
	<path class="st2" d="M1228.6,1283v31.1h-8.8v-12.1h-12v12.1h-8.8V1283h8.8v11.7h12V1283H1228.6z"/>
	<path class="st2" d="M1255.7,1308h-13.1l-2.4,6h-9l13.7-31.1h8.7l13.8,31.1h-9.1L1255.7,1308z M1253.1,1301.5l-4-9.9l-4,9.9H1253.1
		z"/>
	<path class="st2" d="M1269.7,1283h8.8v31.1h-8.8V1283z"/>
	<path class="st2" d="M1291.4,1289.9h-9.5v-7h27.8v7h-9.5v24.1h-8.8V1289.9z"/>
	<path class="st2" d="M1337.9,1307.3v6.8h-24.9V1283h24.4v6.8h-15.7v5.2h13.8v6.6h-13.8v5.7H1337.9z M1326.8,1280.5h-6l5.9-6.7h8.4
		L1326.8,1280.5z"/>
	<path class="st2" d="M1372.3,1283v31.1h-7.2l-13.7-16.6v16.6h-8.6V1283h7.2l13.7,16.6V1283H1372.3z"/>
</g>
<g>
	<path class="st3" d="M1164.8,1298.5c0-9.5,7.2-16.2,17.1-16.2c5.7,0,10.3,2.1,13.4,5.9l-5.6,5.1c-2-2.4-4.3-3.6-7.3-3.6
		c-5.1,0-8.7,3.5-8.7,8.9c0,5.3,3.5,8.9,8.7,8.9c3,0,5.4-1.3,7.3-3.6l5.6,5.1c-3,3.8-7.6,5.9-13.4,5.9
		C1172,1314.7,1164.8,1308,1164.8,1298.5z"/>
	<path class="st3" d="M1228.6,1283v31.1h-8.8v-12.1h-12v12.1h-8.8V1283h8.8v11.7h12V1283H1228.6z"/>
	<path class="st3" d="M1255.7,1308h-13.1l-2.4,6h-9l13.7-31.1h8.7l13.8,31.1h-9.1L1255.7,1308z M1253.1,1301.5l-4-9.9l-4,9.9H1253.1
		z"/>
	<path class="st3" d="M1269.7,1283h8.8v31.1h-8.8V1283z"/>
	<path class="st3" d="M1291.4,1289.9h-9.5v-7h27.8v7h-9.5v24.1h-8.8V1289.9z"/>
	<path class="st3" d="M1337.9,1307.3v6.8h-24.9V1283h24.4v6.8h-15.7v5.2h13.8v6.6h-13.8v5.7H1337.9z M1326.8,1280.5h-6l5.9-6.7h8.4
		L1326.8,1280.5z"/>
	<path class="st3" d="M1372.3,1283v31.1h-7.2l-13.7-16.6v16.6h-8.6V1283h7.2l13.7,16.6V1283H1372.3z"/>
</g>
<g>
	<path class="st2" d="M828.8,330.5c0-9.3,7.3-16.2,17.3-16.2s17.3,6.8,17.3,16.2s-7.3,16.2-17.3,16.2S828.8,339.8,828.8,330.5z
		 M854.4,330.5c0-5.4-3.7-8.9-8.4-8.9s-8.4,3.5-8.4,8.9s3.7,8.9,8.4,8.9S854.4,335.9,854.4,330.5z"/>
	<path class="st2" d="M865.7,343.2l2.9-6.5c2.8,1.8,6.7,3.1,10.3,3.1c3.6,0,5.1-1,5.1-2.5c0-4.9-17.7-1.3-17.7-12.9
		c0-5.5,4.5-10.1,13.8-10.1c4,0,8.2,0.9,11.3,2.7l-2.7,6.5c-3-1.6-5.9-2.4-8.6-2.4c-3.7,0-5,1.2-5,2.8c0,4.7,17.6,1.2,17.6,12.6
		c0,5.4-4.5,10-13.8,10C873.7,346.7,868.6,345.3,865.7,343.2z"/>
	<path class="st2" d="M895,330.5c0-9.3,7.3-16.2,17.3-16.2s17.3,6.8,17.3,16.2s-7.3,16.2-17.3,16.2S895,339.8,895,330.5z
		 M920.6,330.5c0-5.4-3.7-8.9-8.4-8.9s-8.4,3.5-8.4,8.9s3.7,8.9,8.4,8.9S920.6,335.9,920.6,330.5z"/>
	<path class="st2" d="M947.7,337.8h-4.8v8.3h-8.8V315h14.2c8.5,0,13.8,4.4,13.8,11.5c0,4.6-2.2,7.9-6.1,9.8l6.7,9.8h-9.4
		L947.7,337.8z M947.8,321.9h-4.9v9.1h4.9c3.6,0,5.5-1.7,5.5-4.5C953.2,323.6,951.4,321.9,947.8,321.9z"/>
	<path class="st2" d="M996.5,315V346h-7.2l-13.7-16.6V346H967V315h7.2l13.7,16.6V315H996.5z"/>
	<path class="st2" d="M1001.1,330.5c0-9.3,7.3-16.2,17.3-16.2s17.3,6.8,17.3,16.2s-7.3,16.2-17.3,16.2S1001.1,339.8,1001.1,330.5z
		 M1026.8,330.5c0-5.4-3.7-8.9-8.4-8.9s-8.4,3.5-8.4,8.9s3.7,8.9,8.4,8.9S1026.8,335.9,1026.8,330.5z"/>
</g>
<g>
	<path class="st3" d="M828.8,330.5c0-9.3,7.3-16.2,17.3-16.2s17.3,6.8,17.3,16.2s-7.3,16.2-17.3,16.2S828.8,339.8,828.8,330.5z
		 M854.4,330.5c0-5.4-3.7-8.9-8.4-8.9s-8.4,3.5-8.4,8.9s3.7,8.9,8.4,8.9S854.4,335.9,854.4,330.5z"/>
	<path class="st3" d="M865.7,343.2l2.9-6.5c2.8,1.8,6.7,3.1,10.3,3.1c3.6,0,5.1-1,5.1-2.5c0-4.9-17.7-1.3-17.7-12.9
		c0-5.5,4.5-10.1,13.8-10.1c4,0,8.2,0.9,11.3,2.7l-2.7,6.5c-3-1.6-5.9-2.4-8.6-2.4c-3.7,0-5,1.2-5,2.8c0,4.7,17.6,1.2,17.6,12.6
		c0,5.4-4.5,10-13.8,10C873.7,346.7,868.6,345.3,865.7,343.2z"/>
	<path class="st3" d="M895,330.5c0-9.3,7.3-16.2,17.3-16.2s17.3,6.8,17.3,16.2s-7.3,16.2-17.3,16.2S895,339.8,895,330.5z
		 M920.6,330.5c0-5.4-3.7-8.9-8.4-8.9s-8.4,3.5-8.4,8.9s3.7,8.9,8.4,8.9S920.6,335.9,920.6,330.5z"/>
	<path class="st3" d="M947.7,337.8h-4.8v8.3h-8.8V315h14.2c8.5,0,13.8,4.4,13.8,11.5c0,4.6-2.2,7.9-6.1,9.8l6.7,9.8h-9.4
		L947.7,337.8z M947.8,321.9h-4.9v9.1h4.9c3.6,0,5.5-1.7,5.5-4.5C953.2,323.6,951.4,321.9,947.8,321.9z"/>
	<path class="st3" d="M996.5,315V346h-7.2l-13.7-16.6V346H967V315h7.2l13.7,16.6V315H996.5z"/>
	<path class="st3" d="M1001.1,330.5c0-9.3,7.3-16.2,17.3-16.2s17.3,6.8,17.3,16.2s-7.3,16.2-17.3,16.2S1001.1,339.8,1001.1,330.5z
		 M1026.8,330.5c0-5.4-3.7-8.9-8.4-8.9s-8.4,3.5-8.4,8.9s3.7,8.9,8.4,8.9S1026.8,335.9,1026.8,330.5z"/>
</g>
<g>
	<g>
		<g>
			<path class="st4" d="M1213.6,453c0-40.5-32.8-73.3-73.3-73.3S1067,412.5,1067,453c0,46.6,73.3,104.3,73.3,104.3
				S1213.6,499.6,1213.6,453z"/>
			<g>
				<path class="st5" d="M1140.3,379.7c-40.5,0-73.3,32.8-73.3,73.3c0,20.2,13.8,42.6,29.5,61.4l98.3-110.4
					C1181.3,389.1,1161.9,379.7,1140.3,379.7z"/>
				<path class="st6" d="M1096.5,514.4c20.4,24.5,43.8,42.9,43.8,42.9s73.3-57.7,73.3-104.3c0-18.9-7.1-36.1-18.9-49.1L1096.5,514.4
					z"/>
			</g>
			<g>
				<path class="st7" d="M1113.3,495.4c7.8,5,17,7.8,27,7.8c27.8,0,50.3-22.5,50.3-50.3c0-12-4.2-23.1-11.3-31.7L1113.3,495.4z"/>
				<path class="st8" d="M1140.3,402.6c-27.8,0-50.3,22.5-50.3,50.3c0,17.9,9.3,33.6,23.4,42.5l66.1-74.2
					C1170.1,409.8,1156,402.6,1140.3,402.6z"/>
			</g>
			<circle class="st3" cx="1140.3" cy="452.9" r="46.1"/>
			<path class="st9" d="M1194.7,403.9l-3.9,4.3c10.9,12.4,17,28.2,17,44.7c0,17.6-12.1,40.2-35.1,65.6
				c-13.1,14.5-26.3,26.1-32.5,31.2c-7.2-6.1-24.3-21-39.4-39.2c-0.2-0.2-0.4-0.4-0.5-0.7l-3.9,4.4c20.4,24.5,43.8,42.9,43.8,42.9
				s73.3-57.7,73.3-104.3C1213.6,434.1,1206.4,416.9,1194.7,403.9z"/>
			<path class="st10" d="M1072.7,453c0-37.3,30.3-67.6,67.6-67.6c19.1,0,37.4,8.1,50.2,22.3c0.1,0.2,0.3,0.3,0.4,0.5l3.9-4.3
				c-13.4-14.9-32.8-24.2-54.5-24.2c-40.5,0-73.3,32.8-73.3,73.3c0,20.2,13.8,42.6,29.5,61.4l3.9-4.4
				C1082.3,488.2,1072.7,468.5,1072.7,453z"/>
		</g>
	</g>
</g>
<g>
	<path class="st11" d="M1157.6,464v10.7h-37.1v-8.5l17.9-16.7c3.8-3.5,4.4-5.7,4.4-7.7c0-3.1-2-4.9-6.1-4.9c-3.5,0-6.6,1.6-8.5,4.6
		l-10-5.6c3.6-6,10.4-9.9,19.8-9.9c11,0,18.5,5.7,18.5,14.5c0,4.6-1.3,8.9-8.1,15.1l-9,8.3H1157.6z"/>
</g>
<g>
	<g>
		<g>
			<path class="st4" d="M1001.6,180c0-40.5-32.8-73.3-73.3-73.3S855,139.5,855,180c0,46.6,73.3,104.3,73.3,104.3
				S1001.6,226.6,1001.6,180z"/>
			<g>
				<path class="st5" d="M928.3,106.7c-40.5,0-73.3,32.8-73.3,73.3c0,20.2,13.8,42.6,29.5,61.4L982.8,131
					C969.3,116.1,949.9,106.7,928.3,106.7z"/>
				<path class="st6" d="M884.5,241.4c20.4,24.5,43.8,42.9,43.8,42.9s73.3-57.7,73.3-104.3c0-18.9-7.1-36.1-18.9-49.1L884.5,241.4z"
					/>
			</g>
			<g>
				<path class="st7" d="M901.3,222.4c7.8,5,17,7.8,27,7.8c27.8,0,50.3-22.5,50.3-50.3c0-12-4.2-23.1-11.3-31.7L901.3,222.4z"/>
				<path class="st8" d="M928.3,129.6c-27.8,0-50.3,22.5-50.3,50.3c0,17.9,9.3,33.6,23.4,42.5l66.1-74.2
					C958.1,136.8,944,129.6,928.3,129.6z"/>
			</g>
			<circle class="st3" cx="928.3" cy="179.9" r="46.1"/>
			<path class="st9" d="M982.7,130.9l-3.9,4.3c10.9,12.4,17,28.2,17,44.7c0,17.6-12.1,40.2-35.1,65.6
				c-13.1,14.5-26.3,26.1-32.5,31.2c-7.2-6.1-24.3-21-39.4-39.2c-0.2-0.2-0.4-0.4-0.5-0.7l-3.9,4.4c20.4,24.5,43.8,42.9,43.8,42.9
				s73.3-57.7,73.3-104.3C1001.6,161.1,994.4,143.9,982.7,130.9z"/>
			<path class="st10" d="M860.7,180c0-37.3,30.3-67.6,67.6-67.6c19.1,0,37.4,8.1,50.2,22.3c0.1,0.2,0.3,0.3,0.4,0.5l3.9-4.3
				c-13.4-14.9-32.8-24.2-54.5-24.2c-40.5,0-73.3,32.8-73.3,73.3c0,20.2,13.8,42.6,29.5,61.4l3.9-4.4
				C870.3,215.2,860.7,195.5,860.7,180z"/>
		</g>
	</g>
</g>
<g>
	<path class="st11" d="M935.2,154v47.7h-13.5v-37.3h-8.9V154H935.2z"/>
</g>
</svg>
