<?xml version="1.0" encoding="utf-8"?>
<!-- Generator: Adobe Illustrator 24.0.0, SVG Export Plug-In . SVG Version: 6.00 Build 0)  -->
<svg version="1.1" id="Capa_1" xmlns="http://www.w3.org/2000/svg" xmlns:xlink="http://www.w3.org/1999/xlink" x="0px" y="0px"
	 viewBox="0 0 1920 2314" style="enable-background:new 0 0 1920 2314;" xml:space="preserve">
<style type="text/css">
	.st0{fill:#BFBFBF;}
	.st1{fill:#8E8E8E;}
	.st2{fill:#D4353F;}
	.st3{fill:#FF6D00;}
	.st4{fill:#FF8500;}
	.st5{fill:#D7D9D9;}
	.st6{fill:#C5C7C8;}
	.st7{fill:#FFFFFF;}
	.st8{opacity:0.4;fill:#DA5D68;enable-background:new    ;}
	.st9{opacity:0.4;fill:#D4353F;enable-background:new    ;}
	.st10{fill:#444444;}
	.st11{stroke:#000000;stroke-width:6;stroke-miterlimit:10;}
</style>
<path class="st0" d="M1852.3,1170.8c-9.3-40.3-33-49.5-63.6-26.2c-19.7-20.8-38.9-41.8-59-61.9c-12.7-12.7-16-23.4-1.4-37.5
	c11.1-10.7,19.2-23.7,2-37.8c-3.5-2.9-3.7-10.7-4.1-16.3c-1.6-22.2-2.7-44.5-4.2-70.8c2.1-0.3,4.3-0.5,6.4-0.6
	c-13.5-43.1-19.8-90-41.5-129.8c-9.6-17.6-22.9-32.4-41.5-40.1c-25.9-10.8-56.1-8-82.9-2.7c-21.2,4.2-42,10.5-62.3,17.7
	c-27.5,9.7-53.4,25.1-79.1,38.6c-53.3,28-108.8,57.9-169.1,67c-26,3.9-51.4,9.1-77.7,9.8c-21.1,0.6-42-0.9-63.1-1.4
	c-19.4-0.4-38.6,0.4-57.3,6.1c-20.6,6.2-38.7,17.9-55,31.7c10,18.5,21.6,36.1,31.4,54.8c9.7,18.4,19.2,38.3,21.3,59.3
	c2.1,21.5-9.4,39.4-27.5,50.6c-35.9,22.4-75.6-3.9-100.2-32c-32.4,23.3-66.7,43.3-95.3,71.6c-4.4,4.4-12.8,3.8-15.8-2
	c-9.6-18.5-22.7-34.2-31.5-53c-29.6,10.4-59.2,9.5-88.2-5.5c-29.8-15.4-54.2-39.4-83.2-56.2c-14.3-8.3-29.7-15.2-46-18.4
	c-8.1-1.6-16.9-1-25.1-1.4c-28.3-1.1-56.5-2.3-84.8-2.9c-24.2-0.5-50.6-2.1-74.2,1.6c-9.7,1.6-18.4,6.5-27,11.2
	c-13.9,7.6-27.3,16-40.8,24.2c-9.8,6-20,13.5-30.9,17.2c-12.4,4.2-30.7-5-41.5-11.2c-10.3-5.9-17.9-14.4-22.7-25.2
	c-4-9-7-17.9-14.2-24.9c-13.4-13.1-33.2-21.8-49.5-30.6c-18.7-10.1-37.8-19.4-57.1-28.1c-23.8-10.8-47.9-20.7-72.2-30.5
	c-2.7,6.6-5.3,13.5-8.6,20.2c27,31.2,37.6,67.8,44,112.2c6.5,45.2-13.2,71.5-32.8,100.8c-21.3,31.8-21.6,48.3,9.4,68.8
	c3.5,2.3,3.7,9.1,6.9,12.3c12.8,12.7,24.2,28.8,39.6,36.4c43.6,21.3,87.1-2.3,130.8-5.4c0.9-0.1,1.8-0.9,2.6-1.4
	c17.9-11.5,29.7-10.3,43.9,9.7c24.6,34.9,55,62.6,104.5,42.7c9.8-3.9,23.2,0.4,34.8,2.2c23.9,3.8,48.2,13.9,71.4,11.6
	c30.3-2.9,62,9.3,91.8-8.4c7-4.2,22.3,3.1,32.7,7.5c19.7,8.4,39.1,17.7,57.8,28.1c20.2,11.3,42,21.6,58.5,37.2
	c20,19.1,39.4,39.2,46.2,69.6c4.2,18.9,18.4,37.1,32.3,51.8c17.4,18.4,46.7,28.9,57.3,49.7c24.7,48.4,72.9,47.4,112.9,61.3
	c15.3,5.3,23.3,9.7,32.7,22.5c11.5,15.5,30.5,37.2,45.3,36.5c39.9-1.8,80.4-10.8,118.7-23.2c40-13,77.5-13.5,115.5,2.4
	c14.8,6.2,24.6,5.8,35.4-9.1c4.7-6.5,20.6-6.1,31.5-6.1c6.1,0,12.5,8.2,18.4,7.8c48-3.4,96.1-7.1,143.9-13
	c9-1.1,16.2-13.2,25.1-18.9c8.5-5.5,19.8-15.1,26.8-12.9c42.4,13.4,66.4-9.5,85.7-40.9c9.7-15.7,19.8-20.2,36.7-12.6
	c18.5,8.4,30.4,1.5,36-17.9c2.4-8.5,5.8-16.7,9.6-27.4c-6.5-1.6-9.3-2.1-12-3c-8.6-2.6-21.2-2.9-24.5-8.6c-3.1-5.4,3.8-16.4,6.1-25
	c4.2-16,8.3-32.1,12.2-48.2c7-28.7,13.3-57.5,20.8-86.1c6.8-26,26.4-24,41.3-12.2c15.5,12.3,29,23.6,45.7,7.3
	c11.9-11.6,20-27.2,29.4-41.2c4.8-7.1,7-17.2,13.4-21.7c14.5-10.1,15.9-20.2,8.4-35.4C1856.6,1194.7,1854.9,1182.4,1852.3,1170.8z"
	/>
<path class="st1" d="M1851.3,631c-20.2-2-26.6-10.9-17.1-26.2c9.7-15.6,10.1-28,2.5-44c-8.7-18.2-17.1-37.4-20.3-57.1
	c-2.1-12.7,1.3-31,9.6-39.6c13.8-14.2,13.5-23,2.4-37.7c-8.3-11-18.1-26.3-16.6-38.4c4.4-35.1,14.4-69.4,21.8-104.1
	c7.8-36.2-25.5-70.7-62.2-61.7c-44.2,10.8-74-12.6-97.3-42.1c-15.6-19.7-32.6-28.8-54.8-36.4c-25.4-8.7-46.1-8.5-63.7,13.6
	c-1.7,2.1-5.3,2.7-7.8,4.2c-33.7,21.5-68.9,41-100.8,65c-43.2,32.5-92.2,31.4-141.7,30.5c-4.3-0.1-10.2-3.5-12.5-7.2
	c-15.9-25-33.6-13.1-54.1-6.4c-16.1,5.2-41,8.9-51.7,0.3c-27.2-21.8-55.5-29.1-88.4-26.3c-21.3,1.8-36.2-4.3-41.7-28
	c-1.6-7-13.9-17.5-19.9-16.6c-28,4-56.3,9.1-82.9,18.5c-15.8,5.6-23,2.5-36.2-6.4c-14.3-9.7-37.7-17.5-52.2-12.3
	c-20,7.1-32.3,2.7-45.5-8.5c-29.6-24.9-63.7-15.2-101.5-18.4c1.8-5.7,3.1-15.5,7.7-23.4c12.8-21.8,27.9-42.2,39.8-64.4
	c3.4-6.2,1.2-17.7-2.3-25C750.3,4.4,710.3-2,685.8,22.3c-16.8,16.6-29.5,21.4-50.4,6.6C617.1,16,595,13.1,581.3,37
	c-14.9,26-27.2,53.4-41.8,79.6c-4.6,8.2-11.3,16.9-19.4,21.1c-34.8,18.3-69.7,43.1-109.8,10.5c-1.1-0.9-5.2,1.7-11.4,3.9
	c16,35.6,26.7,71.5-23.4,88.5c4.6,9.4,9.4,14.8,9.4,20c-0.3,22.3,5.9,50.9-5.4,65.2c-13.2,16.7-23.9,28.2-20.5,50.7
	c1.3,8.2-5.3,18.6-10.4,26.7c-15,23.8-37.3,45.2-44.7,71c-6.6,23-17.4,33.8-35.3,45.6c-7.1,4.7-11.1,25.8-6.6,34.1
	c19.9,37.4,13.7,74.1,7.8,113.1c-3.4,22-2.9,55.8,10.3,66.9c26.9,22.5,7.4,43.4,11.1,64.2c-12.8-22.4-22.7-45.8-35.9-67.3
	c-4.9-7.9-17.2-14.5-26.5-15.1c-5.9-0.4-15.6,10.3-18.5,17.9c-15,38.4-42.9,60.3-82,70.5c-7.6,2-19.1,9.1-19.5,14.6
	c-1.5,20.6-14.1,18.2-28.6,20.9c-15.1,2.8-31.6,10.4-42.1,21.2c-1.9,2-3.6,4.1-5.2,6.4C59.5,878,86.1,889,112.2,901
	c21.8,10,43.2,20.7,64,32.6c15.8,9,34,17.7,45.6,32.1c6.3,7.9,9.2,17,13.5,26c5.3,10.9,14.8,16.6,26,20.7c6.7,2.4,11.5,5.2,15.1,3.4
	c4.9-2.3,9.5-5.2,14.1-7.9c12.9-7.7,25.6-15.7,38.5-23.3c11.7-6.9,23.6-14,36.4-18.6c8.1-3,17.1-3.5,25.7-4.1
	c27.2-1.8,54.6-0.9,81.7-0.1c25.5,0.7,51,2,76.5,2.8c27.4,0.9,52.5,11,75.8,25.3c25.3,15.5,47.3,36,73.2,50.5
	c26.9,15.1,54.8,16.4,83.2,3.9c6.2-2.7,12.4-0.6,14.8,6c6.2,17.6,17.7,31.9,27.4,47.4c29.9-26.8,64.5-46.8,96.6-70.8
	c4.8-3.6,10.7-0.3,13.8,3.6c12.9,16.9,31.4,33.7,52.8,38.1c19.6,4,44.6-10.3,44.8-31.9c0.2-21.4-12.1-43-22-61.3
	c-10.4-18.9-22.4-37-32.1-56.2c-1.9-3.8-1.9-9.1,1.6-12.2c9.8-8.7,20-16.9,31.1-23.9c36.9-23.3,76.9-25.6,119.3-23.9
	c22.8,0.9,45.6,1.5,68.3-0.7c13.5-1.3,26.6-4.6,40-6.5c15.3-2.2,30.2-4.9,45-9.2c60.2-17.5,114.2-50.6,169.9-78.5
	c40.8-20.5,84.6-35.7,130.2-40.7c26.8-3,55.2-1.1,79.3,11.9c19.6,10.6,34.1,28.3,44.2,48c22.1,43.3,28.5,92.7,44,138.5
	c12.6,3.1,25.7,8.5,39.2,14.2c14,5.9,37.9,9.7,46.2,2.2c10.5-9.5,10.9-31.4,13.2-48.3c1-7.1-4.4-15-6.6-22.7
	c-9.4-32.7,7.6-68.5,37.1-85.7c8.4-4.9,12.7-17.9,17.1-28c2.8-6.5,0.2-15.6,3.7-21.4C1927.7,687,1904.2,636.2,1851.3,631z"/>
<g>
	<g>
		<g>
			<path class="st2" d="M999.1,446.4c0-40.5-32.8-73.3-73.3-73.3s-73.3,32.8-73.3,73.3c0,46.6,73.3,104.3,73.3,104.3
				S999.1,493,999.1,446.4z"/>
			<g>
				<path class="st3" d="M925.8,373.1c-40.5,0-73.3,32.8-73.3,73.3c0,20.2,13.8,42.6,29.5,61.4l98.3-110.4
					C966.8,382.5,947.4,373.1,925.8,373.1z"/>
				<path class="st4" d="M882,507.8c20.4,24.5,43.8,42.9,43.8,42.9s73.3-57.7,73.3-104.3c0-18.9-7.1-36.1-18.9-49.1L882,507.8z"/>
			</g>
			<g>
				<path class="st5" d="M898.8,488.8c7.8,5,17,7.8,27,7.8c27.8,0,50.3-22.5,50.3-50.3c0-12-4.2-23.1-11.3-31.7L898.8,488.8z"/>
				<path class="st6" d="M925.8,396c-27.8,0-50.3,22.5-50.3,50.3c0,17.9,9.3,33.6,23.4,42.5l66.1-74.2
					C955.6,403.2,941.5,396,925.8,396z"/>
			</g>
			<circle class="st7" cx="925.8" cy="446.3" r="46.1"/>
			<path class="st8" d="M980.2,397.3l-3.9,4.3c10.9,12.4,17,28.2,17,44.7c0,17.6-12.1,40.2-35.1,65.6
				c-13.1,14.5-26.3,26.1-32.5,31.2c-7.2-6.1-24.3-21-39.4-39.2c-0.2-0.2-0.4-0.4-0.5-0.7l-3.9,4.4c20.4,24.5,43.8,42.9,43.8,42.9
				S999,492.8,999,446.2C999.1,427.5,991.9,410.3,980.2,397.3z"/>
			<path class="st9" d="M858.2,446.4c0-37.3,30.3-67.6,67.6-67.6c19.1,0,37.4,8.1,50.2,22.3c0.1,0.2,0.3,0.3,0.4,0.5l3.9-4.3
				c-13.4-14.9-32.8-24.2-54.5-24.2c-40.5,0-73.3,32.8-73.3,73.3c0,20.2,13.8,42.6,29.5,61.4l3.9-4.4
				C867.8,481.6,858.2,461.9,858.2,446.4z"/>
		</g>
	</g>
</g>
<g>
	<path class="st10" d="M947.4,454.1c0,9.1-8.4,15-20.7,15s-20.7-5.9-20.7-15c0-4.9,2.5-8.7,6.8-11.1c-3.2-2.2-5.1-5.5-5.1-9.6
		c0-8.5,7.8-13.9,19-13.9s19,5.5,19,13.9c0,4.1-1.9,7.4-5.1,9.6C944.9,445.4,947.4,449.2,947.4,454.1z M933.8,453.7
		c0-3.7-2.9-5.9-7.2-5.9s-7.2,2.2-7.2,5.9c0,3.7,2.9,5.9,7.2,5.9S933.8,457.4,933.8,453.7z M921,434c0,3.1,2.2,5,5.7,5
		s5.7-1.8,5.7-5c0-3.2-2.4-5-5.7-5S921,430.8,921,434z"/>
</g>
<g>
	<g>
		<g>
			<path class="st2" d="M1329.1,1175.4c0-40.5-32.8-73.3-73.3-73.3s-73.3,32.8-73.3,73.3c0,46.6,73.3,104.3,73.3,104.3
				S1329.1,1222,1329.1,1175.4z"/>
			<g>
				<path class="st3" d="M1255.8,1102.1c-40.5,0-73.3,32.8-73.3,73.3c0,20.2,13.8,42.6,29.5,61.4l98.3-110.4
					C1296.8,1111.5,1277.4,1102.1,1255.8,1102.1z"/>
				<path class="st4" d="M1212,1236.8c20.4,24.5,43.8,42.9,43.8,42.9s73.3-57.7,73.3-104.3c0-18.9-7.1-36.1-18.9-49.1L1212,1236.8z"
					/>
			</g>
			<g>
				<path class="st5" d="M1228.8,1217.8c7.8,5,17,7.8,27,7.8c27.8,0,50.3-22.5,50.3-50.3c0-12-4.2-23.1-11.3-31.7L1228.8,1217.8z"/>
				<path class="st6" d="M1255.8,1125c-27.8,0-50.3,22.5-50.3,50.3c0,17.9,9.3,33.6,23.4,42.5l66.1-74.2
					C1285.6,1132.2,1271.5,1125,1255.8,1125z"/>
			</g>
			<circle class="st7" cx="1255.8" cy="1175.3" r="46.1"/>
			<path class="st8" d="M1310.2,1126.3l-3.9,4.3c10.9,12.4,17,28.2,17,44.7c0,17.6-12.1,40.2-35.1,65.6
				c-13.1,14.5-26.3,26.1-32.5,31.2c-7.2-6.1-24.3-21-39.4-39.2c-0.2-0.2-0.4-0.4-0.5-0.7l-3.9,4.4c20.4,24.5,43.8,42.9,43.8,42.9
				s73.3-57.7,73.3-104.3C1329.1,1156.5,1321.9,1139.3,1310.2,1126.3z"/>
			<path class="st9" d="M1188.2,1175.4c0-37.3,30.3-67.6,67.6-67.6c19.1,0,37.4,8.1,50.2,22.3c0.1,0.2,0.3,0.3,0.4,0.5l3.9-4.3
				c-13.4-14.9-32.8-24.2-54.5-24.2c-40.5,0-73.3,32.8-73.3,73.3c0,20.2,13.8,42.6,29.5,61.4l3.9-4.4
				C1197.8,1210.6,1188.2,1190.9,1188.2,1175.4z"/>
		</g>
	</g>
</g>
<g>
	<path class="st10" d="M1276.1,1186.4v10.7H1239v-8.5l17.9-16.7c3.8-3.5,4.4-5.7,4.4-7.7c0-3.1-2-4.9-6.1-4.9
		c-3.5,0-6.6,1.6-8.5,4.6l-10-5.6c3.6-6,10.4-9.9,19.8-9.9c11,0,18.5,5.7,18.5,14.5c0,4.6-1.3,8.9-8.1,15.1l-9,8.3H1276.1z"/>
</g>
<g>
	<path class="st11" d="M840.7,608.8l-13.3,31.1h-8.7l-13.3-31.1h9.5l8.4,20.2l8.6-20.2H840.7z"/>
	<path class="st11" d="M862.3,633.8h-13.1l-2.4,6h-9l13.7-31.1h8.7l13.8,31.1h-9.1L862.3,633.8z M859.7,627.3l-4-9.9l-4,9.9H859.7z"
		/>
	<path class="st11" d="M876.4,608.8h8.8v24.1H900v7h-23.6V608.8z"/>
	<path class="st11" d="M903.4,608.8h14.7c10.3,0,17.4,6,17.4,15.5s-7.1,15.5-17.4,15.5h-14.7V608.8z M917.8,632.8
		c5.3,0,8.8-3.2,8.8-8.5s-3.5-8.5-8.8-8.5h-5.5v17H917.8z"/>
	<path class="st11" d="M940.1,608.8h8.8v31.1h-8.8V608.8z"/>
	<path class="st11" d="M986.5,608.8l-13.3,31.1h-8.7l-13.3-31.1h9.5l8.4,20.2l8.6-20.2H986.5z"/>
	<path class="st11" d="M988.3,608.8h8.8v31.1h-8.8V608.8z"/>
	<path class="st11" d="M1024.2,633.8h-13.1l-2.4,6h-9l13.7-31.1h8.7l13.8,31.1h-9.1L1024.2,633.8z M1021.6,627.3l-4-9.9l-4,9.9
		H1021.6z"/>
</g>
<g>
	<path class="st7" d="M840.7,607.8l-13.3,31.1h-8.7l-13.3-31.1h9.5l8.4,20.2l8.6-20.2H840.7z"/>
	<path class="st7" d="M862.3,632.8h-13.1l-2.4,6h-9l13.7-31.1h8.7l13.8,31.1h-9.1L862.3,632.8z M859.7,626.3l-4-9.9l-4,9.9H859.7z"
		/>
	<path class="st7" d="M876.4,607.8h8.8v24.1H900v7h-23.6V607.8z"/>
	<path class="st7" d="M903.4,607.8h14.7c10.3,0,17.4,6,17.4,15.5s-7.1,15.5-17.4,15.5h-14.7V607.8z M917.8,631.8
		c5.3,0,8.8-3.2,8.8-8.5s-3.5-8.5-8.8-8.5h-5.5v17H917.8z"/>
	<path class="st7" d="M940.1,607.8h8.8v31.1h-8.8V607.8z"/>
	<path class="st7" d="M986.5,607.8l-13.3,31.1h-8.7l-13.3-31.1h9.5l8.4,20.2l8.6-20.2H986.5z"/>
	<path class="st7" d="M988.3,607.8h8.8v31.1h-8.8V607.8z"/>
	<path class="st7" d="M1024.2,632.8h-13.1l-2.4,6h-9l13.7-31.1h8.7l13.8,31.1h-9.1L1024.2,632.8z M1021.6,626.3l-4-9.9l-4,9.9
		H1021.6z"/>
</g>
<g>
	<path class="st11" d="M1188.8,1343.6h-4.8v8.3h-8.8v-31.1h14.2c8.5,0,13.8,4.4,13.8,11.5c0,4.6-2.2,7.9-6.1,9.8l6.7,9.8h-9.4
		L1188.8,1343.6z M1188.9,1327.7h-4.9v9.1h4.9c3.6,0,5.5-1.7,5.5-4.5C1194.4,1329.4,1192.5,1327.7,1188.9,1327.7z"/>
	<path class="st11" d="M1228.9,1345.8h-13.1l-2.4,6h-9l13.7-31.1h8.7l13.8,31.1h-9.1L1228.9,1345.8z M1226.3,1339.3l-4-9.9l-4,9.9
		H1226.3z"/>
	<path class="st11" d="M1272.5,1320.8v31.1h-7.2l-13.7-16.6v16.6h-8.6v-31.1h7.2l13.7,16.6v-16.6H1272.5z"/>
	<path class="st11" d="M1277.1,1336.3c0-9.5,7.2-16.2,17.1-16.2c5.7,0,10.3,2.1,13.4,5.9l-5.6,5.1c-2-2.4-4.3-3.6-7.3-3.6
		c-5.1,0-8.7,3.5-8.7,8.9c0,5.3,3.5,8.9,8.7,8.9c3,0,5.4-1.3,7.3-3.6l5.6,5.1c-3,3.8-7.6,5.9-13.4,5.9
		C1284.3,1352.4,1277.1,1345.7,1277.1,1336.3z"/>
	<path class="st11" d="M1309.2,1336.3c0-9.3,7.3-16.2,17.3-16.2s17.3,6.8,17.3,16.2s-7.3,16.2-17.3,16.2
		S1309.2,1345.6,1309.2,1336.3z M1334.8,1336.3c0-5.4-3.7-8.9-8.4-8.9s-8.4,3.5-8.4,8.9s3.7,8.9,8.4,8.9
		S1334.8,1341.7,1334.8,1336.3z"/>
</g>
<g>
	<path class="st7" d="M1188.8,1342.6h-4.8v8.3h-8.8v-31.1h14.2c8.5,0,13.8,4.4,13.8,11.5c0,4.6-2.2,7.9-6.1,9.8l6.7,9.8h-9.4
		L1188.8,1342.6z M1188.9,1326.7h-4.9v9.1h4.9c3.6,0,5.5-1.7,5.5-4.5C1194.4,1328.4,1192.5,1326.7,1188.9,1326.7z"/>
	<path class="st7" d="M1228.9,1344.8h-13.1l-2.4,6h-9l13.7-31.1h8.7l13.8,31.1h-9.1L1228.9,1344.8z M1226.3,1338.3l-4-9.9l-4,9.9
		H1226.3z"/>
	<path class="st7" d="M1272.5,1319.8v31.1h-7.2l-13.7-16.6v16.6h-8.6v-31.1h7.2l13.7,16.6v-16.6H1272.5z"/>
	<path class="st7" d="M1277.1,1335.3c0-9.5,7.2-16.2,17.1-16.2c5.7,0,10.3,2.1,13.4,5.9l-5.6,5.1c-2-2.4-4.3-3.6-7.3-3.6
		c-5.1,0-8.7,3.5-8.7,8.9c0,5.3,3.5,8.9,8.7,8.9c3,0,5.4-1.3,7.3-3.6l5.6,5.1c-3,3.8-7.6,5.9-13.4,5.9
		C1284.3,1351.4,1277.1,1344.7,1277.1,1335.3z"/>
	<path class="st7" d="M1309.2,1335.3c0-9.3,7.3-16.2,17.3-16.2s17.3,6.8,17.3,16.2s-7.3,16.2-17.3,16.2S1309.2,1344.6,1309.2,1335.3
		z M1334.8,1335.3c0-5.4-3.7-8.9-8.4-8.9s-8.4,3.5-8.4,8.9s3.7,8.9,8.4,8.9S1334.8,1340.7,1334.8,1335.3z"/>
</g>
</svg>
