<?xml version="1.0" encoding="utf-8"?>
<!-- Generator: Adobe Illustrator 24.0.0, SVG Export Plug-In . SVG Version: 6.00 Build 0)  -->
<svg version="1.1" id="Capa_1" xmlns="http://www.w3.org/2000/svg" xmlns:xlink="http://www.w3.org/1999/xlink" x="0px" y="0px"
	 viewBox="0 0 1920 2314" style="enable-background:new 0 0 1920 2314;" xml:space="preserve">
<style type="text/css">
	.st0{fill:#BFBFBF;}
	.st1{fill:#8E8E8E;}
	.st2{fill:#FFFFFF;stroke:#000000;stroke-width:6;stroke-miterlimit:10;}
	.st3{fill:#FFFFFF;}
	.st4{fill:#D4353F;}
	.st5{fill:#FF6D00;}
	.st6{fill:#FF8500;}
	.st7{fill:#D7D9D9;}
	.st8{fill:#C5C7C8;}
	.st9{opacity:0.4;fill:#DA5D68;enable-background:new    ;}
	.st10{opacity:0.4;fill:#D4353F;enable-background:new    ;}
	.st11{fill:#444444;}
</style>
<path class="st0" d="M343.9,225.9c12.8-10.7,11.6-23.5-2.1-40.5c17.7-11.8,35.5-23.6,53.2-35.4c3.3,26.9,30,22.5,45.2,29.4
	c24.6,11,53.6,16.1,80.8,16.3c28,0.2,58.9,2.3,80.8-24.3c5-6.1,16.4-7,26.6-11c-0.7-6.5-1.6-13.8-2.6-22.5c9.2-4.5,19-9.2,28.5-13.8
	c33,40.5,34.7,40.4,76.7,7.3c33.8-26.7,68.2-52.7,104.8-80.9c-3.5-7.2-9.5-19.6-15.6-32.1c32.4,17.7,80.5-12.8,102.7,39
	c38.3-12.9,75.8-25.6,113.3-38c4.6-1.5,11.4-3.4,14.5-1.2c20.3,14.1,38.5,1.4,55.9-5.2c27.4-10.3,42.8-5,52.4,24.5
	c5.1-0.3,10.7-0.9,16.3-1.1c25.5-0.9,32.4,8.8,23.3,32.8c-12.5,32.8-2.8,52.5,31.2,64.1c21.1,7.2,43,12.8,62.8,22.6
	c21.1,10.5,33.6,9.6,35.2-13c20.7,6.8,40.3,13.2,54.4,17.8c11.9,20.3,23.5,37.7,32.2,56.4c3.5,7.4-0.2,17.9,1,26.7
	c1.1,7.9,2.8,16.4,7,22.9c4.9,7.7,19.5,16.9,18.2,19.5c-7.8,14.9-16,34.5-29.5,40.6c-31.9,14.5-66.4,23.9-100.7,32.2
	c-22.9,5.6-47.2,5.7-72.3,8.5c1.5,15.3,2.9,29.7,4.2,44.1c2,23.5-15.2,35-31.2,45.5c-5.7,3.7-19.6,3.3-24.4-1.1
	c-29.4-26.8-67.1-14.9-100.4-22.3c-9.3-2.1-23.8,6.5-31.9,14.4c-11.9,11.6-21.2,26.4-29.7,41c-10.2,17.7,7.9,57.1,28.5,64.2
	c8.6,2.9,17.5,5,23.9,6.8c8.8,27.1-36.6,34.9-16.1,64c-16.3,11.8-28.3,26.1-53.9,7.8c-13.4-9.5-40.5-2.4-60.7,0.9
	c-27.2,4.5-53.2,20.9-81.5,3.3c-3.9-2.4-10.9-3.2-14.9-1.3c-18.2,8.4-34.6,15.3-38.4-14.6c-0.1-0.6-15.2-2.3-17.9,1
	c-20.7,25.2-41.6,7.2-60-0.9c-25.7-11.3-91-7.7-108.7,12.5c-13.2,15.1-37.7,21.4-37.4,48.7c0.1,5.6-17.1,15.6-26.4,15.8
	c-7.5,0.1-16.1-10.8-22.6-18.2c-3.6-4.1-4-10.9-5.6-15.8c-27.1-5.4-52.9-10.6-77.4-15.5c-11.8-23.4-24.5-48-36.4-72.9
	c-4.4-9.2-8.4-19.2-9.3-29.2c-0.5-6,4.7-17.7,8.2-18.1c20-2,23.7-16.6,28.1-31.4c8.5-28.6,20.3-56.8,24.4-86
	c1.7-11.9-10.4-33.8-21.2-38c-46.3-17.7-42.2-55.3-43.7-92.6c-1.2-31.2-18.8-45.1-50.8-44.5C351.4,235.1,347.6,229.1,343.9,225.9z"
	/>
<path class="st0" d="M1143.1,833.8c-2.6,8.4-0.9,7.8,1.8,11.6c5.9,8.5,16.9,19.9,24.8,19.2c20.4-1.9,40.7-8.7,60.3-15.5
	c34.2-11.9,32.9-43.7,34.6-71c1.5-24.6,10.3-40.7,32-52c5.6-2.9,10.1-13.4,10.2-20.5c0.2-13.5-3.2-27.1-4.7-37.9
	c10.7-10.1,20.9-18.4,29.4-28c16-18,36.1-25.8,59.4-25.8c26.1,0,52.6,3.4,78.4,0.4c27.1-3.2,45.5-22,57.6-46.4
	c9.4-18.9,17.4-38.6,28.3-56.6c5.5-9.1,14.9-19.2,24.4-21.7c21.6-5.7,42-9.4,44.8-37.3c0.1-1.5,13.2-3.8,19.1-2.1
	c18,5.3,35.6,12,52.9,19.3c5.6,2.4,12.6,7.7,13.8,12.9c5.1,20.7,9.2,41.8,11.7,63c2.4,20.2-0.5,37.2-20.8,50.9
	c-22.5,15.2-20.6,40.1-1.7,60.3c4.6,4.9,7,13.4,7.4,20.5c1,18,0.6,36.2,0.4,54.2c-0.6,43.5,22.4,74.2,50.5,104.8
	c14.2,15.4,35.1,26.6,39.1,53.3c1.8,12.2,23.2,22.8,37.3,31.4c13.2,8,25.1,12.6,10.1,30.2c-5.3,6.2-5,17.3-7.1,26.3
	c-1.6,7.1-3.1,14.2-4.4,21.3c-1.5,8.4-5,17.1-3.7,25.1c5,31.3-5.4,43.5-37.3,44.7c-8.1,0.3-18.1,4.8-23.3,10.7
	c-10.6,12.1-20,25.8-27.2,40.2c-17.9,35.6-51.1,46.6-85.4,56.5c-14.5,4.2-26.5,9.1-28.4,28.1c-1.1,10.9-10.3,20.9-18.2,35.9
	c-4.1-10.9-7.4-18.2-9.6-25.7c-3-10.4-1.6-25.5-8.3-30.8c-17.3-13.6-37.9-23.1-57.4-33.7c-2.3-1.2-6.5,0.9-9.7,1.9
	c-32.7,10.2-54.6-8.6-52.8-43.5c0.5-10.4-3.2-29.4-7.6-30.2c-13.6-2.5-31.4-2.5-42.3,4.6c-15.9,10.5-28.2,27.1-40.3,42.6
	c-15.2,19.4-24.8,20-35.7-1.3c-8.9-17.4-18.2-34.9-24.3-53.4c-7.4-22.5-18.7-40.3-41.5-49.2c-3-1.2-7.7-3.4-7.9-5.4
	c-2.9-40.3-32.4-22.8-52.4-23.5c-10.8-0.4-21.7,4.7-32.6,6.9c-23.5,4.7-33.7-7.1-39.6-28.7c-8.1-30-18.3-59.4-28.7-88.7
	C1110.8,860.3,1121,838.1,1143.1,833.8z"/>
<path class="st1" d="M829.3,667c11.1-8.1,18.6-13.6,26.4-19.3c34.7,19.6,67.5,8.4,102.5-2.9c17.8-5.7,41.3-0.1,60.4,6
	c16.7,5.3,57.3-2.7,61.7-18.9c1.7-6.2-2.8-14-4-19.1c5.5-10,11.3-19.2,15.6-29.1c6.9-15.8,1.2-25.7-15-31.8
	c-38.5-14.6-43.8-31.8-22.2-65.3c3.1-4.8,2.3-13.1,6.2-16.5c10.9-9.5,27.1-26.9,34.6-24c31.6,12,69.7-2.2,97.4,26.2
	c11.8,12.1,27.3,6.4,38.4-6.4c16.2-18.6,35.4-35.2,25.1-65.1c-4.5-13,5-17.7,18.6-20.9c51-11.8,102.1-24,151.7-40.7
	c13.4-4.5,23.1-24.5,31.2-39.2c15.1-27.6,14.1-28.1,36.5-45c32.2,12.2,64,20.5,91.7,36.1c16.8,9.4,27.1,30.2,41.2,46.9
	c-0.7,12.1-1.7,29.8-3,52c-10.8,7-19.5,18.6-13,41.2c5,17.5,0.8,35.6-24.8,42.1c-40.4,10.3-53.5,49-69.8,81.1
	c-11.3,22.4-26.9,40.9-51.7,41.9c-18,0.7-36.3,1-54.2-0.9c-33.6-3.5-60.1,11.4-85.2,30.3c-12.9,9.7-25,20.4-39.8,32.6
	c1.4,5.9,4.6,14.7,5.7,23.8c1.7,15.4,5.5,28-14,40.9c-17.1,11.3-33.4,31.6-27.1,61.2c7.3,34.2-39.6,75.9-74.3,68.9
	c-4.8-1-8.6-10.7-11.3-17.1c-3.5-8.1-5.4-16.8-7.9-25.3c-12.2,4-27.3,4.8-36.1,12.6c-28.9,25.7-24.1,55.8-6.3,86.3
	c6.1,10.3,11.3,21.4,15.3,32.6c7.3,19.9,0.6,30.2-20.8,30c-23.9-0.2-47.7-3.9-71.6-4c-34.1-0.2-66.7-0.2-92.5,31.8
	c-10.6,13.2-36.9,13.7-60.3,21.4c0.6-11.7,2.2-18.3,0.8-24.4c-1.4-6.4-3.9-15.1-8.7-17.9c-34.2-20-41.7-77.1-11.3-101.6
	c12.4-10,11.9-18.5,8.8-33.1c-7.6-36.5-43.7-63.6-33.3-105.5c1.8-7.4,0-16.8,3.9-22.4C859.5,695.5,854.2,680.2,829.3,667z"/>
<path class="st1" d="M229.6,1359.7c-13.2-13.9-33.9-22.7-13.3-42.7c-17.6-23.9-7.5-49.4-7.2-75.1c0.1-13-20.4-26-30.9-39.5
	c-6.4-8.3-11.6-17.6-21.5-32.8c17.7,1.8,27.6,2.1,37.2,4c31.2,6.1,46.4-7.1,45-39.2c-0.6-14.2-0.1-28.4-0.1-46.5
	c16.1,2.6,28.4,4.5,40.6,6.5c47.7,8.1,66.3-7.1,66.5-54.2c0.1-12.9-1.6-26.2,0.8-38.6c1.4-7.3,9.2-13.4,14.1-20.1
	c5.8-8,16.7-16.1,16.4-23.9c-0.9-25.6-5.8-51-9.6-76.5c-0.5-3.1-2.7-7.3-5.3-8.5c-26.1-12.4-20.8-31.3-11.1-51.9
	c5.7,1.6,12.7,6,16.9,4.2c12.6-5.5,24.9-12.6,35.3-21.4c1.4-1.2-8.5-15.9-13.3-24.2c-4-7.1-8.2-14-12.1-20.6
	c3.3-2.9,4.4-4.7,5.6-4.8c38.6-3.7,49.5-14.9,58.1-59.7c5.8-30.3,27.6-41.7,54.3-25.2c27.8,17.1,53.5,37.7,80,56.9
	c13.3,9.7,13.3,20.2-0.8,28.3c-15.8,9.1-16.1,20-8,34.3c11.9,21.1,17.4,40.1-9.8,56.6c-11.8,7.1-16,26.5-27.6,34.5
	c-24.5,16.8-52.1,29.1-77.6,44.6c-10,6.1-26.5,18.1-25.1,23.4c4,15.2,13.7,30.3,25,41.7c12,12.1,28.3,19.9,38.1,26.4
	c-18.1,12.6-34.5,24.3-51.1,35.6c-6.1,4.1-12.3,8.7-19.2,11c-23.6,7.7-33.9,26.6-37.4,48.2c-1.3,7.9,8.1,17.5,13.5,27.9
	c-18.8,24.4,4,80.8,37.5,91.4c32.1,10.1,62.1,26.5,93.5,39c17.4,7,35.5,15.4,53.7,16.8c29,2.1,45.9,20.5,64.1,38.2
	c3.7,3.6,6,10.4,6.1,15.7c0.2,21.9,5.1,40.6,27.4,48.2c-6.6,18.2-12.3,35.1-18.8,51.6c-2.4,6.2-5.7,15.5-10.4,16.7
	c-31,8.3-49.1,41.5-85.1,40.9c-22-0.3-26.8,10.5-23.7,37.9c-1.2,1.2-2.3,3.2-3.6,3.4c-29,3-55.3,8.9-74.8,35.1
	c-5,6.8-24.9,6.1-36.9,3.6c-37.3-8-74.1-18.5-111.1-28.1c-8.6-2.2-17.1-4.4-18.4-4.8c4.7-14.6,6.8-26.3,12.1-36.3
	c4-7.6,11-15.4,18.6-18.7c9-3.9,20-2.9,23.9-3.3c6.1-24.5,11.8-45.5,16.3-66.8c1.7-8.2,1.2-17,0.8-25.5c-0.5-11.8-0.5-23.9-3.2-35.3
	c-1.6-6.6-6.7-14.9-12.4-17.5C308.2,1320.6,267.4,1328.1,229.6,1359.7z"/>
<path class="st0" d="M517.2,1870.1c-29.8,35-62.9,38.8-105.5,19.1c-18.2-8.4-41.3-7.1-62.3-7.7c-4.2-0.1-11.1,10.8-12.6,17.5
	c-2.6,11.6-3.9,24.2-2.2,35.8c5.8,41.6-23.6,56.3-52.2,73.6c-27.8,16.8-54.6,35.4-80.5,55.1c-16.7,12.7-30.3,21.6-42.6-3.8
	c-1.3-2.8-5.9-7-7-6.5c-27,13.4-39.1-17.8-61.3-18.5c-5.6-45.9,18.5-83,30.5-122.9c1.6-5.4,13.3-10,20.8-11
	c59.4-7.9,121-64.1,132.2-121.8c0.8-4.2,1.9-8.5,1.8-12.7c-0.5-30-1.5-59.9-1.7-89.9c0-3.8,2.2-8.4,4.9-11.2
	c23.6-24.1,16.6-36.8-3.6-62.6c-19.6-25-46.8-40.2-64.8-63.5c-11.5-14.8-6.7-42.3-9.1-63c31.8-12.2,49-46.1,42.5-74.2
	c-2.4-10.4-4.3-28.4,0.9-31.8c16.2-10.6,35.5-17,54.3-22.5c7.2-2.1,16.4,3.1,24.8,4.4c14.3,2.2,15,11.7,21,23.5
	c16.7,32.3-6.7,55.3-8.6,82.4c-1,14-6.6,18.7-20.5,20.2c-7.7,0.9-16.3,9.2-21.1,16.4c-8,11.8-12.2,26.1-20,38
	c-9.4,14.5-5.4,22.4,9.9,26.4c46.2,12.1,92.5,24.2,138.9,35.6c24.4,6,42.1-6.4,59.9-21.9c8.9-7.7,23.5-8.7,35.5-12.8
	c2.6,10.9,8.6,22.3,6.9,32.5c-3.2,18.9,1.4,32.8,13.9,47c23.3,26.3,11.5,69.9-20.6,83.2c-9.2,3.8-17.4,10.4-25.5,16.5
	c-10.9,8.2-20.9,17.7-32.1,25.6c-12.4,8.8-22.4,16.1-8,32.4c10.7,12.1,17.4,27.7,27.9,40C492.4,1849.3,505.4,1859.2,517.2,1870.1z"
	/>
<path class="st0" d="M517.5,1023.1c-17.5-15.4-34.3-30.1-51.2-44.9c29.9-15,43.3-12.7,62.6,9.5c3.8,4.4,8.5,9.5,13.8,11
	c43.7,12.8,84.8,38.1,133.3,29.2c25.5-4.7,51-10,76.7-13.3c6.3-0.8,13.5,4.8,20.2,7.7c14.7,6.4,29,17.7,43.9,18.5
	c22.2,1.2,31.1,13.5,38.2,30.2c5.7,13.2,10.3,26.8,16.1,42.1c-33.5,25-6,61.5-12.8,92.9c-0.9,3.9,7.7,10.1,12.2,15
	c15.6,16.8,12.2,35.4-8.4,45.9c-16.2,8.2-32.1,16.9-48.7,24.3c-3.9,1.7-9.8-1-14.7-1.8c-5.8-1-14.2-5.2-17-2.8c-25,21-52,9.1-78.9,8
	c-16.4-0.6-33.2,7.5-53.9,12.7c-14.3-24.5-43.2-32-75.2-33.3c-5-0.2-10.2-1.9-14.9-3.9c-41.1-17.6-82.2-35.2-123.1-53.3
	c-20-8.9-29.6-54-21.4-72.4c3.9-8.8-5.9-23.8-14.6-37.2C427.7,1070.9,470.5,1049.2,517.5,1023.1z"/>
<path class="st0" d="M586.2,711.2c20.1-23.6,38.1-44.7,56.2-65.7c10.7-12.4,67.2-22.1,82.7-15.3c21.6,9.4,43.7,17.8,66.6,27
	c4.9-8.7,8.5-15,12.7-22.4c1.9,2.1,4.2,3.5,4.8,5.4c2.3,8,1.9,17.7,6.4,24c17.8,25.4,13.2,52.2,10.6,80.3
	c-1.7,18.5,2.3,38.6,8.3,56.5c6.6,19.9,18.2,38.1,27.5,56.8c-34.8,22.7-44,93.9-9.4,127c6.6,6.3,12.6,22,9.2,27.8
	c-4.9,8.4-19.7,17.8-28.2,16.2c-21-4-41.9-12.1-60.7-22.4c-12.4-6.9-20.7-8.8-35-4c-41.9,14.2-85,18.8-128.4,4
	c-12.9-4.4-26.6-6.7-39.6-11c-8.8-2.9-20.1-5.3-25.1-11.9c-22.2-29.2-51.2-34.8-84.8-29.1c-3.6,0.6-7.7-1.3-19.7-3.6
	c25.4-14.2,45.4-23.2,63-35.6c22.6-15.9,42-36.7,65.3-51.3c23-14.4,30.5-32.3,24.6-57.2c-1.9-8-6.5-15.5-7.9-23.5
	c-1-5.8-1.1-15.8,2.1-17.7C617.1,747.8,615.2,729.8,586.2,711.2z"/>
<g>
	<path class="st2" d="M1419.1,881h8.1v22.2h13.6v6.4H1419V881H1419.1z"/>
	<path class="st2" d="M1442.1,895.4c0-8.6,6.7-14.9,15.9-14.9s15.9,6.3,15.9,14.9s-6.7,14.9-15.9,14.9
		C1448.8,910.2,1442.1,903.9,1442.1,895.4z M1465.7,895.4c0-5-3.4-8.2-7.7-8.2s-7.7,3.2-7.7,8.2s3.4,8.2,7.7,8.2
		S1465.7,900.3,1465.7,895.4z"/>
	<path class="st2" d="M1476.1,907.1l2.6-6c2.5,1.7,6.1,2.9,9.4,2.9s4.6-1,4.6-2.3c0-4.5-16.2-1.2-16.2-11.8c0-5.1,4.2-9.3,12.7-9.3
		c3.8,0,7.5,0.9,10.4,2.5l-2.5,6c-2.8-1.4-5.4-2.2-7.9-2.2c-3.4,0-4.6,1.1-4.6,2.5c0,4.4,16.2,1.1,16.2,11.6c0,5-4.2,9.3-12.7,9.3
		C1483.5,910.2,1478.7,908.9,1476.1,907.1z"/>
	<path class="st2" d="M1535.4,904.1h-12l-2.2,5.5h-8.3l12.6-28.6h7.9l12.7,28.6h-8.4L1535.4,904.1z M1533.1,898.1l-3.6-9.2l-3.6,9.2
		H1533.1z"/>
	<path class="st2" d="M1575.6,881v28.6h-6.6l-12.6-15.2v15.2h-7.9V881h6.6l12.6,15.2V881H1575.6z"/>
	<path class="st2" d="M1581.3,881h13.5c9.5,0,16,5.5,16,14.2c0,8.7-6.5,14.2-16,14.2h-13.5V881z M1594.5,903.2
		c4.9,0,8.2-2.9,8.2-7.8s-3.3-7.8-8.2-7.8h-5.1v15.7L1594.5,903.2L1594.5,903.2z"/>
	<path class="st2" d="M1638,903.4v6.3h-23v-28.6h22.4v6.3h-14.5v4.9h12.7v6.1h-12.7v5.2h15V903.4z"/>
	<path class="st2" d="M1640.5,907.1l2.6-6c2.5,1.7,6.1,2.9,9.4,2.9c3.3,0,4.6-1,4.6-2.3c0-4.5-16.2-1.2-16.2-11.8
		c0-5.1,4.2-9.3,12.7-9.3c3.8,0,7.5,0.9,10.4,2.5l-2.5,6c-2.8-1.4-5.4-2.2-7.9-2.2c-3.4,0-4.6,1.1-4.6,2.5c0,4.4,16.2,1.1,16.2,11.6
		c0,5-4.2,9.3-12.7,9.3C1647.8,910.2,1643.1,908.9,1640.5,907.1z"/>
</g>
<g>
	<path class="st3" d="M1419.1,881h8.1v22.2h13.6v6.4H1419V881H1419.1z"/>
	<path class="st3" d="M1442.1,895.4c0-8.6,6.7-14.9,15.9-14.9s15.9,6.3,15.9,14.9s-6.7,14.9-15.9,14.9
		C1448.8,910.2,1442.1,903.9,1442.1,895.4z M1465.7,895.4c0-5-3.4-8.2-7.7-8.2s-7.7,3.2-7.7,8.2s3.4,8.2,7.7,8.2
		S1465.7,900.3,1465.7,895.4z"/>
	<path class="st3" d="M1476.1,907.1l2.6-6c2.5,1.7,6.1,2.9,9.4,2.9s4.6-1,4.6-2.3c0-4.5-16.2-1.2-16.2-11.8c0-5.1,4.2-9.3,12.7-9.3
		c3.8,0,7.5,0.9,10.4,2.5l-2.5,6c-2.8-1.4-5.4-2.2-7.9-2.2c-3.4,0-4.6,1.1-4.6,2.5c0,4.4,16.2,1.1,16.2,11.6c0,5-4.2,9.3-12.7,9.3
		C1483.5,910.2,1478.7,908.9,1476.1,907.1z"/>
	<path class="st3" d="M1535.4,904.1h-12l-2.2,5.5h-8.3l12.6-28.6h7.9l12.7,28.6h-8.4L1535.4,904.1z M1533.1,898.1l-3.6-9.2l-3.6,9.2
		H1533.1z"/>
	<path class="st3" d="M1575.6,881v28.6h-6.6l-12.6-15.2v15.2h-7.9V881h6.6l12.6,15.2V881H1575.6z"/>
	<path class="st3" d="M1581.3,881h13.5c9.5,0,16,5.5,16,14.2c0,8.7-6.5,14.2-16,14.2h-13.5V881z M1594.5,903.2
		c4.9,0,8.2-2.9,8.2-7.8s-3.3-7.8-8.2-7.8h-5.1v15.7L1594.5,903.2L1594.5,903.2z"/>
	<path class="st3" d="M1638,903.4v6.3h-23v-28.6h22.4v6.3h-14.5v4.9h12.7v6.1h-12.7v5.2h15V903.4z"/>
	<path class="st3" d="M1640.5,907.1l2.6-6c2.5,1.7,6.1,2.9,9.4,2.9c3.3,0,4.6-1,4.6-2.3c0-4.5-16.2-1.2-16.2-11.8
		c0-5.1,4.2-9.3,12.7-9.3c3.8,0,7.5,0.9,10.4,2.5l-2.5,6c-2.8-1.4-5.4-2.2-7.9-2.2c-3.4,0-4.6,1.1-4.6,2.5c0,4.4,16.2,1.1,16.2,11.6
		c0,5-4.2,9.3-12.7,9.3C1647.8,910.2,1643.1,908.9,1640.5,907.1z"/>
</g>
<g>
	<path class="st2" d="M1224.3,531.4l2.6-6c2.5,1.7,6.1,2.9,9.4,2.9s4.6-1,4.6-2.3c0-4.5-16.2-1.2-16.2-11.8c0-5.1,4.2-9.3,12.7-9.3
		c3.8,0,7.5,0.9,10.4,2.5l-2.5,6c-2.8-1.4-5.4-2.2-7.9-2.2c-3.4,0-4.6,1.1-4.6,2.5c0,4.4,16.2,1.1,16.2,11.6c0,5-4.2,9.3-12.7,9.3
		C1231.7,534.5,1227,533.2,1224.3,531.4z"/>
	<path class="st2" d="M1271.8,528.4h-12l-2.2,5.5h-8.3l12.6-28.6h7.9l12.7,28.6h-8.4L1271.8,528.4z M1269.4,522.4l-3.6-9.2l-3.6,9.2
		H1269.4z"/>
	<path class="st2" d="M1311.9,505.3v28.6h-6.6l-12.6-15.2v15.2h-7.9v-28.6h6.6l12.6,15.2v-15.2H1311.9z"/>
	<path class="st2" d="M1337.6,511.6v6.3h12.6v6.3h-12.6v9.8h-8.1v-28.6h22.4v6.3h-14.3V511.6z"/>
	<path class="st2" d="M1378.6,527.7v6.3h-23v-28.6h22.4v6.3h-14.5v4.9h12.7v6.1h-12.7v5.2h15V527.7z"/>
	<path class="st2" d="M1383.2,505.3h8.1v22.2h13.6v6.4h-21.7v-28.6H1383.2z"/>
	<path class="st2" d="M1408,505.3h8.1v28.6h-8.1V505.3z"/>
	<path class="st2" d="M1447.6,515.9c0,6.5-4.9,10.5-12.7,10.5h-5v7.5h-8.1v-28.6h13C1442.8,505.3,1447.6,509.4,1447.6,515.9z
		 M1439.4,515.9c0-2.6-1.7-4.2-5-4.2h-4.5v8.4h4.5C1437.8,520.1,1439.4,518.6,1439.4,515.9z"/>
	<path class="st2" d="M1474.4,527.7v6.3h-23v-28.6h22.4v6.3h-14.3v4.9h12.7v6.1h-12.7v5.2h14.9V527.7z"/>
</g>
<g>
	<path class="st3" d="M1224.3,531.4l2.6-6c2.5,1.7,6.1,2.9,9.4,2.9s4.6-1,4.6-2.3c0-4.5-16.2-1.2-16.2-11.8c0-5.1,4.2-9.3,12.7-9.3
		c3.8,0,7.5,0.9,10.4,2.5l-2.5,6c-2.8-1.4-5.4-2.2-7.9-2.2c-3.4,0-4.6,1.1-4.6,2.5c0,4.4,16.2,1.1,16.2,11.6c0,5-4.2,9.3-12.7,9.3
		C1231.7,534.5,1227,533.2,1224.3,531.4z"/>
	<path class="st3" d="M1271.8,528.4h-12l-2.2,5.5h-8.3l12.6-28.6h7.9l12.7,28.6h-8.4L1271.8,528.4z M1269.4,522.4l-3.6-9.2l-3.6,9.2
		H1269.4z"/>
	<path class="st3" d="M1311.9,505.3v28.6h-6.6l-12.6-15.2v15.2h-7.9v-28.6h6.6l12.6,15.2v-15.2H1311.9z"/>
	<path class="st3" d="M1337.6,511.6v6.3h12.6v6.3h-12.6v9.8h-8.1v-28.6h22.4v6.3h-14.3V511.6z"/>
	<path class="st3" d="M1378.6,527.7v6.3h-23v-28.6h22.4v6.3h-14.5v4.9h12.7v6.1h-12.7v5.2h15V527.7z"/>
	<path class="st3" d="M1383.2,505.3h8.1v22.2h13.6v6.4h-21.7v-28.6H1383.2z"/>
	<path class="st3" d="M1408,505.3h8.1v28.6h-8.1V505.3z"/>
	<path class="st3" d="M1447.6,515.9c0,6.5-4.9,10.5-12.7,10.5h-5v7.5h-8.1v-28.6h13C1442.8,505.3,1447.6,509.4,1447.6,515.9z
		 M1439.4,515.9c0-2.6-1.7-4.2-5-4.2h-4.5v8.4h4.5C1437.8,520.1,1439.4,518.6,1439.4,515.9z"/>
	<path class="st3" d="M1474.4,527.7v6.3h-23v-28.6h22.4v6.3h-14.3v4.9h12.7v6.1h-12.7v5.2h14.9V527.7z"/>
</g>
<g>
	<path class="st2" d="M638.5,789.4c-1.9,2.3-4.7,3.6-7.9,3.6c-4.6,0-7.7-1.5-12.5-6.6c-7.5-1.2-12.7-7.1-12.7-14.6
		c0-8.6,6.7-14.9,15.9-14.9c9.2,0,15.9,6.3,15.9,14.9c0,6.5-3.9,11.7-9.7,13.8c1.1,1.2,2.1,1.7,3.3,1.7c1.5,0,3.1-0.7,4.3-2
		L638.5,789.4z M621.2,780c4.3,0,7.7-3.2,7.7-8.2s-3.4-8.2-7.7-8.2c-4.3,0-7.7,3.2-7.7,8.2S616.9,780,621.2,780z"/>
	<path class="st2" d="M641.1,773.4v-15.8h8.1v15.6c0,4.9,2,6.8,5.4,6.8c3.3,0,5.4-2,5.4-6.8v-15.6h7.9v15.8c0,8.5-5,13.4-13.5,13.4
		C646,786.7,641.1,781.9,641.1,773.4z"/>
	<path class="st2" d="M673.4,757.6h8.1V786h-8.1V757.6z"/>
	<path class="st2" d="M687.2,757.6h8.1v22.2h13.6v6.4h-21.7v-28.6H687.2z"/>
	<path class="st2" d="M712.1,757.6h8.1v22.2h13.6v6.4H712v-28.6H712.1z"/>
	<path class="st2" d="M735.1,771.8c0-8.6,6.7-14.9,15.9-14.9c9.2,0,15.9,6.3,15.9,14.9c0,8.6-6.7,14.9-15.9,14.9
		C741.8,786.7,735.1,780.4,735.1,771.8z M758.7,771.8c0-5-3.4-8.2-7.7-8.2c-4.3,0-7.7,3.2-7.7,8.2s3.4,8.2,7.7,8.2
		C755.3,780,758.7,776.8,758.7,771.8z"/>
	<path class="st2" d="M776.7,764H768v-6.4h25.6v6.4h-8.7V786h-8.1V764H776.7z"/>
	<path class="st2" d="M814.3,780.5h-12.1L800,786h-8.3l12.6-28.6h7.9l12.7,28.6h-8.4L814.3,780.5z M811.9,774.6l-3.6-9.2l-3.6,9.2
		H811.9z"/>
</g>
<g>
	<path class="st3" d="M638.5,789.4c-1.9,2.3-4.7,3.6-7.9,3.6c-4.6,0-7.7-1.5-12.5-6.6c-7.5-1.2-12.7-7.1-12.7-14.6
		c0-8.6,6.7-14.9,15.9-14.9c9.2,0,15.9,6.3,15.9,14.9c0,6.5-3.9,11.7-9.7,13.8c1.1,1.2,2.1,1.7,3.3,1.7c1.5,0,3.1-0.7,4.3-2
		L638.5,789.4z M621.2,780c4.3,0,7.7-3.2,7.7-8.2s-3.4-8.2-7.7-8.2c-4.3,0-7.7,3.2-7.7,8.2S616.9,780,621.2,780z"/>
	<path class="st3" d="M641.1,773.4v-15.8h8.1v15.6c0,4.9,2,6.8,5.4,6.8c3.3,0,5.4-2,5.4-6.8v-15.6h7.9v15.8c0,8.5-5,13.4-13.5,13.4
		C646,786.7,641.1,781.9,641.1,773.4z"/>
	<path class="st3" d="M673.4,757.6h8.1V786h-8.1V757.6z"/>
	<path class="st3" d="M687.2,757.6h8.1v22.2h13.6v6.4h-21.7v-28.6H687.2z"/>
	<path class="st3" d="M712.1,757.6h8.1v22.2h13.6v6.4H712v-28.6H712.1z"/>
	<path class="st3" d="M735.1,771.8c0-8.6,6.7-14.9,15.9-14.9c9.2,0,15.9,6.3,15.9,14.9c0,8.6-6.7,14.9-15.9,14.9
		C741.8,786.7,735.1,780.4,735.1,771.8z M758.7,771.8c0-5-3.4-8.2-7.7-8.2c-4.3,0-7.7,3.2-7.7,8.2s3.4,8.2,7.7,8.2
		C755.3,780,758.7,776.8,758.7,771.8z"/>
	<path class="st3" d="M776.7,764H768v-6.4h25.6v6.4h-8.7V786h-8.1V764H776.7z"/>
	<path class="st3" d="M814.3,780.5h-12.1L800,786h-8.3l12.6-28.6h7.9l12.7,28.6h-8.4L814.3,780.5z M811.9,774.6l-3.6-9.2l-3.6,9.2
		H811.9z"/>
</g>
<g>
	<path class="st2" d="M254.6,1281l-12.2,28.6h-7.9l-12.2-28.6h8.7l7.7,18.6l7.9-18.6H254.6z"/>
	<path class="st2" d="M274.3,1304h-12l-2.2,5.5h-8.3l12.6-28.6h7.9l12.7,28.6h-8.4L274.3,1304z M272,1298l-3.6-9.2l-3.6,9.2H272z"/>
	<path class="st2" d="M287.3,1281h8.1v22.2h13.6v6.4h-21.7V1281H287.3z"/>
	<path class="st2" d="M337.9,1291.5c0,6.5-4.9,10.5-12.7,10.5h-5v7.5h-8.1v-28.6h13C333,1281,337.9,1285,337.9,1291.5z
		 M329.7,1291.5c0-2.6-1.7-4.2-5-4.2h-4.5v8.4h4.5C328.1,1295.7,329.7,1294.2,329.7,1291.5z"/>
	<path class="st2" d="M359.5,1304h-12l-2.2,5.5H337l12.6-28.6h7.9l12.7,28.6h-8.4L359.5,1304z M357.2,1298l-3.6-9.2l-3.6,9.2H357.2z
		"/>
	<path class="st2" d="M385,1302h-4.4v7.6h-8.1V1281h13c7.8,0,12.7,4.1,12.7,10.6c0,4.2-2,7.3-5.6,9l6.2,8.9h-8.6L385,1302z
		 M385,1287.3h-4.5v8.4h4.5c3.3,0,5-1.5,5-4.2C390.1,1288.9,388.4,1287.3,385,1287.3z"/>
	<path class="st2" d="M421.9,1304h-12l-2.2,5.5h-8.3l12.6-28.6h7.9l12.7,28.6h-8.4L421.9,1304z M419.4,1298l-3.6-9.2l-3.6,9.2H419.4
		z"/>
	<path class="st2" d="M434.8,1281h8.1v28.6h-8.1V1281z M440.3,1272.4h7.7l-7.7,6.2h-5.5L440.3,1272.4z"/>
	<path class="st2" d="M446.6,1307l2.6-6c2.5,1.7,6.1,2.9,9.4,2.9s4.6-1,4.6-2.3c0-4.5-16.2-1.2-16.2-11.8c0-5.1,4.2-9.3,12.7-9.3
		c3.8,0,7.5,0.9,10.4,2.5l-2.5,6c-2.8-1.4-5.4-2.2-7.9-2.2c-3.4,0-4.6,1.1-4.6,2.5c0,4.4,16.2,1.1,16.2,11.6c0,5-4.2,9.3-12.7,9.3
		C454,1310,449.2,1308.8,446.6,1307z"/>
	<path class="st2" d="M473.5,1295.3c0-8.6,6.7-14.9,15.9-14.9s15.9,6.3,15.9,14.9c0,8.6-6.7,14.9-15.9,14.9
		S473.5,1303.9,473.5,1295.3z M497.1,1295.3c0-5-3.4-8.2-7.7-8.2s-7.7,3.2-7.7,8.2c0,5,3.4,8.2,7.7,8.2S497.1,1300.2,497.1,1295.3z"
		/>
</g>
<g>
	<path class="st3" d="M254.6,1281l-12.2,28.6h-7.9l-12.2-28.6h8.7l7.7,18.6l7.9-18.6H254.6z"/>
	<path class="st3" d="M274.3,1304h-12l-2.2,5.5h-8.3l12.6-28.6h7.9l12.7,28.6h-8.4L274.3,1304z M272,1298l-3.6-9.2l-3.6,9.2H272z"/>
	<path class="st3" d="M287.3,1281h8.1v22.2h13.6v6.4h-21.7V1281H287.3z"/>
	<path class="st3" d="M337.9,1291.5c0,6.5-4.9,10.5-12.7,10.5h-5v7.5h-8.1v-28.6h13C333,1281,337.9,1285,337.9,1291.5z
		 M329.7,1291.5c0-2.6-1.7-4.2-5-4.2h-4.5v8.4h4.5C328.1,1295.7,329.7,1294.2,329.7,1291.5z"/>
	<path class="st3" d="M359.5,1304h-12l-2.2,5.5H337l12.6-28.6h7.9l12.7,28.6h-8.4L359.5,1304z M357.2,1298l-3.6-9.2l-3.6,9.2H357.2z
		"/>
	<path class="st3" d="M385,1302h-4.4v7.6h-8.1V1281h13c7.8,0,12.7,4.1,12.7,10.6c0,4.2-2,7.3-5.6,9l6.2,8.9h-8.6L385,1302z
		 M385,1287.3h-4.5v8.4h4.5c3.3,0,5-1.5,5-4.2C390.1,1288.9,388.4,1287.3,385,1287.3z"/>
	<path class="st3" d="M421.9,1304h-12l-2.2,5.5h-8.3l12.6-28.6h7.9l12.7,28.6h-8.4L421.9,1304z M419.4,1298l-3.6-9.2l-3.6,9.2H419.4
		z"/>
	<path class="st3" d="M434.8,1281h8.1v28.6h-8.1V1281z M440.3,1272.4h7.7l-7.7,6.2h-5.5L440.3,1272.4z"/>
	<path class="st3" d="M446.6,1307l2.6-6c2.5,1.7,6.1,2.9,9.4,2.9s4.6-1,4.6-2.3c0-4.5-16.2-1.2-16.2-11.8c0-5.1,4.2-9.3,12.7-9.3
		c3.8,0,7.5,0.9,10.4,2.5l-2.5,6c-2.8-1.4-5.4-2.2-7.9-2.2c-3.4,0-4.6,1.1-4.6,2.5c0,4.4,16.2,1.1,16.2,11.6c0,5-4.2,9.3-12.7,9.3
		C454,1310,449.2,1308.8,446.6,1307z"/>
	<path class="st3" d="M473.5,1295.3c0-8.6,6.7-14.9,15.9-14.9s15.9,6.3,15.9,14.9c0,8.6-6.7,14.9-15.9,14.9
		S473.5,1303.9,473.5,1295.3z M497.1,1295.3c0-5-3.4-8.2-7.7-8.2s-7.7,3.2-7.7,8.2c0,5,3.4,8.2,7.7,8.2S497.1,1300.2,497.1,1295.3z"
		/>
</g>
<g>
	<path class="st2" d="M527.8,1174l-0.1-15.1l-7.4,12.4h-3.5l-7.3-11.9v14.7H502v-28.6h6.6l10,16.4l9.8-16.4h6.6l0.1,28.6H527.8z"/>
	<path class="st2" d="M560.1,1168.5h-12l-2.2,5.5h-8.3l12.6-28.6h7.9l12.7,28.6h-8.4L560.1,1168.5z M557.7,1162.5l-3.6-9.2l-3.6,9.2
		H557.7z"/>
	<path class="st2" d="M585.5,1166.4h-4.4v7.6h-8.1v-28.6h13c7.8,0,12.7,4.1,12.7,10.6c0,4.2-2,7.3-5.6,9l6.2,8.9h-8.6L585.5,1166.4z
		 M585.6,1151.8h-4.5v8.4h4.5c3.3,0,5-1.5,5-4.2C590.6,1153.4,588.9,1151.8,585.6,1151.8z"/>
	<path class="st2" d="M622.4,1159.1h7.2v11.8c-3.3,2.3-7.8,3.6-12,3.6c-9,0-15.8-6.2-15.8-14.9s6.6-14.9,15.9-14.9
		c5.3,0,9.7,1.9,12.5,5.2l-5.2,4.6c-2-2.2-4.2-3.2-7-3.2c-4.9,0-8.2,3.2-8.2,8.2c0,4.9,3.3,8.2,8.1,8.2c1.5,0,3-0.3,4.4-1v-7.6
		H622.4z"/>
	<path class="st2" d="M653.8,1168.5h-12l-2.2,5.5h-8.3l12.6-28.6h7.9l12.7,28.6h-8.4L653.8,1168.5z M651.4,1162.5l-3.6-9.2l-3.6,9.2
		H651.4z"/>
	<path class="st2" d="M704.4,1174l-0.1-15.1l-7.4,12.4h-3.5l-7.3-11.9v14.7h-7.5v-28.6h6.6l10,16.4l9.8-16.4h6.6l0.1,28.6H704.4z"/>
	<path class="st2" d="M736.7,1168.5h-12l-2.2,5.5h-8.3l12.6-28.6h7.9l12.7,28.6H739L736.7,1168.5z M734.3,1162.5l-3.6-9.2l-3.6,9.2
		H734.3z"/>
	<path class="st2" d="M762.1,1166.4h-4.4v7.6h-8.1v-28.6h13c7.8,0,12.7,4.1,12.7,10.6c0,4.2-2,7.3-5.6,9l6.2,8.9h-8.6L762.1,1166.4z
		 M762.2,1151.8h-4.5v8.4h4.5c3.3,0,5-1.5,5-4.2C767.1,1153.4,765.5,1151.8,762.2,1151.8z"/>
	<path class="st2" d="M798.9,1159.1h7.2v11.8c-3.3,2.3-7.8,3.6-12,3.6c-9,0-15.8-6.2-15.8-14.9s6.6-14.9,15.9-14.9
		c5.3,0,9.7,1.9,12.5,5.2l-5.2,4.6c-2-2.2-4.2-3.2-7-3.2c-4.9,0-8.2,3.2-8.2,8.2c0,4.9,3.3,8.2,8.1,8.2c1.5,0,3-0.3,4.4-1v-7.6
		H798.9z"/>
	<path class="st2" d="M830.4,1168.5h-12l-2.2,5.5h-8.3l12.6-28.6h7.9l12.7,28.6h-8.4L830.4,1168.5z M827.9,1162.5l-3.6-9.2l-3.6,9.2
		H827.9z"/>
</g>
<g>
	<path class="st3" d="M527.8,1174l-0.1-15.1l-7.4,12.4h-3.5l-7.3-11.9v14.7H502v-28.6h6.6l10,16.4l9.8-16.4h6.6l0.1,28.6H527.8z"/>
	<path class="st3" d="M560.1,1168.5h-12l-2.2,5.5h-8.3l12.6-28.6h7.9l12.7,28.6h-8.4L560.1,1168.5z M557.7,1162.5l-3.6-9.2l-3.6,9.2
		H557.7z"/>
	<path class="st3" d="M585.5,1166.4h-4.4v7.6h-8.1v-28.6h13c7.8,0,12.7,4.1,12.7,10.6c0,4.2-2,7.3-5.6,9l6.2,8.9h-8.6L585.5,1166.4z
		 M585.6,1151.8h-4.5v8.4h4.5c3.3,0,5-1.5,5-4.2C590.6,1153.4,588.9,1151.8,585.6,1151.8z"/>
	<path class="st3" d="M622.4,1159.1h7.2v11.8c-3.3,2.3-7.8,3.6-12,3.6c-9,0-15.8-6.2-15.8-14.9s6.6-14.9,15.9-14.9
		c5.3,0,9.7,1.9,12.5,5.2l-5.2,4.6c-2-2.2-4.2-3.2-7-3.2c-4.9,0-8.2,3.2-8.2,8.2c0,4.9,3.3,8.2,8.1,8.2c1.5,0,3-0.3,4.4-1v-7.6
		H622.4z"/>
	<path class="st3" d="M653.8,1168.5h-12l-2.2,5.5h-8.3l12.6-28.6h7.9l12.7,28.6h-8.4L653.8,1168.5z M651.4,1162.5l-3.6-9.2l-3.6,9.2
		H651.4z"/>
	<path class="st3" d="M704.4,1174l-0.1-15.1l-7.4,12.4h-3.5l-7.3-11.9v14.7h-7.5v-28.6h6.6l10,16.4l9.8-16.4h6.6l0.1,28.6H704.4z"/>
	<path class="st3" d="M736.7,1168.5h-12l-2.2,5.5h-8.3l12.6-28.6h7.9l12.7,28.6H739L736.7,1168.5z M734.3,1162.5l-3.6-9.2l-3.6,9.2
		H734.3z"/>
	<path class="st3" d="M762.1,1166.4h-4.4v7.6h-8.1v-28.6h13c7.8,0,12.7,4.1,12.7,10.6c0,4.2-2,7.3-5.6,9l6.2,8.9h-8.6L762.1,1166.4z
		 M762.2,1151.8h-4.5v8.4h4.5c3.3,0,5-1.5,5-4.2C767.1,1153.4,765.5,1151.8,762.2,1151.8z"/>
	<path class="st3" d="M798.9,1159.1h7.2v11.8c-3.3,2.3-7.8,3.6-12,3.6c-9,0-15.8-6.2-15.8-14.9s6.6-14.9,15.9-14.9
		c5.3,0,9.7,1.9,12.5,5.2l-5.2,4.6c-2-2.2-4.2-3.2-7-3.2c-4.9,0-8.2,3.2-8.2,8.2c0,4.9,3.3,8.2,8.1,8.2c1.5,0,3-0.3,4.4-1v-7.6
		H798.9z"/>
	<path class="st3" d="M830.4,1168.5h-12l-2.2,5.5h-8.3l12.6-28.6h7.9l12.7,28.6h-8.4L830.4,1168.5z M827.9,1162.5l-3.6-9.2l-3.6,9.2
		H827.9z"/>
</g>
<g>
	<path class="st2" d="M169.8,1675.1l2.6-6c2.5,1.7,6.1,2.9,9.4,2.9s4.6-1,4.6-2.3c0-4.5-16.2-1.2-16.2-11.8c0-5.1,4.2-9.3,12.7-9.3
		c3.8,0,7.5,0.9,10.4,2.5l-2.5,6c-2.8-1.4-5.4-2.2-7.9-2.2c-3.4,0-4.6,1.1-4.6,2.5c0,4.4,16.2,1.1,16.2,11.6c0,5-4.2,9.3-12.7,9.3
		C177.2,1678.1,172.5,1676.9,169.8,1675.1z"/>
	<path class="st2" d="M217.4,1672.1h-12l-2.2,5.5h-8.3l12.6-28.6h7.9l12.7,28.6h-8.4L217.4,1672.1z M214.9,1666.1l-3.6-9.2l-3.6,9.2
		H214.9z"/>
	<path class="st2" d="M257.4,1649v28.6h-6.6l-12.6-15.2v15.2h-7.9V1649h6.6l12.6,15.2V1649H257.4z"/>
	<path class="st2" d="M294.2,1672.1h-12l-2.2,5.5h-8.3l12.6-28.6h7.9l12.7,28.6h-8.4L294.2,1672.1z M291.9,1666.1l-3.6-9.2l-3.6,9.2
		H291.9z"/>
	<path class="st2" d="M334.2,1649v28.6h-6.6l-12.6-15.2v15.2h-7.9V1649h6.6l12.6,15.2V1649H334.2z"/>
	<path class="st2" d="M346,1655.4h-8.7v-6.4h25.6v6.4h-8.7v22.2h-8.1v-22.2H346z"/>
	<path class="st2" d="M364,1663.2c0-8.6,6.7-14.9,15.9-14.9s15.9,6.3,15.9,14.9s-6.7,14.9-15.9,14.9S364,1671.9,364,1663.2z
		 M387.6,1663.2c0-5-3.4-8.2-7.7-8.2s-7.7,3.2-7.7,8.2s3.4,8.2,7.7,8.2S387.6,1668.2,387.6,1663.2z"/>
	<path class="st2" d="M427.1,1649v28.6h-6.6l-12.6-15.2v15.2H400V1649h6.6l12.6,15.2V1649H427.1z"/>
	<path class="st2" d="M432.9,1649h8.1v28.6h-8.1V1649z"/>
	<path class="st2" d="M445.2,1663.2c0-8.6,6.7-14.9,15.9-14.9s15.9,6.3,15.9,14.9s-6.7,14.9-15.9,14.9S445.2,1671.9,445.2,1663.2z
		 M468.8,1663.2c0-5-3.4-8.2-7.7-8.2s-7.7,3.2-7.7,8.2s3.4,8.2,7.7,8.2S468.8,1668.2,468.8,1663.2z"/>
</g>
<g>
	<path class="st3" d="M169.8,1675.1l2.6-6c2.5,1.7,6.1,2.9,9.4,2.9s4.6-1,4.6-2.3c0-4.5-16.2-1.2-16.2-11.8c0-5.1,4.2-9.3,12.7-9.3
		c3.8,0,7.5,0.9,10.4,2.5l-2.5,6c-2.8-1.4-5.4-2.2-7.9-2.2c-3.4,0-4.6,1.1-4.6,2.5c0,4.4,16.2,1.1,16.2,11.6c0,5-4.2,9.3-12.7,9.3
		C177.2,1678.1,172.5,1676.9,169.8,1675.1z"/>
	<path class="st3" d="M217.4,1672.1h-12l-2.2,5.5h-8.3l12.6-28.6h7.9l12.7,28.6h-8.4L217.4,1672.1z M214.9,1666.1l-3.6-9.2l-3.6,9.2
		H214.9z"/>
	<path class="st3" d="M257.4,1649v28.6h-6.6l-12.6-15.2v15.2h-7.9V1649h6.6l12.6,15.2V1649H257.4z"/>
	<path class="st3" d="M294.2,1672.1h-12l-2.2,5.5h-8.3l12.6-28.6h7.9l12.7,28.6h-8.4L294.2,1672.1z M291.9,1666.1l-3.6-9.2l-3.6,9.2
		H291.9z"/>
	<path class="st3" d="M334.2,1649v28.6h-6.6l-12.6-15.2v15.2h-7.9V1649h6.6l12.6,15.2V1649H334.2z"/>
	<path class="st3" d="M346,1655.4h-8.7v-6.4h25.6v6.4h-8.7v22.2h-8.1v-22.2H346z"/>
	<path class="st3" d="M364,1663.2c0-8.6,6.7-14.9,15.9-14.9s15.9,6.3,15.9,14.9s-6.7,14.9-15.9,14.9S364,1671.9,364,1663.2z
		 M387.6,1663.2c0-5-3.4-8.2-7.7-8.2s-7.7,3.2-7.7,8.2s3.4,8.2,7.7,8.2S387.6,1668.2,387.6,1663.2z"/>
	<path class="st3" d="M427.1,1649v28.6h-6.6l-12.6-15.2v15.2H400V1649h6.6l12.6,15.2V1649H427.1z"/>
	<path class="st3" d="M432.9,1649h8.1v28.6h-8.1V1649z"/>
	<path class="st3" d="M445.2,1663.2c0-8.6,6.7-14.9,15.9-14.9s15.9,6.3,15.9,14.9s-6.7,14.9-15.9,14.9S445.2,1671.9,445.2,1663.2z
		 M468.8,1663.2c0-5-3.4-8.2-7.7-8.2s-7.7,3.2-7.7,8.2s3.4,8.2,7.7,8.2S468.8,1668.2,468.8,1663.2z"/>
</g>
<g>
	<path class="st2" d="M855.8,330.1c0,6.5-4.9,10.5-12.7,10.5h-5v7.5h-8.1v-28.6h13C850.8,319.5,855.8,323.5,855.8,330.1z
		 M847.6,330.1c0-2.6-1.7-4.2-5-4.2h-4.5v8.4h4.5C846,334.2,847.6,332.6,847.6,330.1z"/>
	<path class="st2" d="M882.6,341.8v6.3h-23v-28.6h22.4v6.3h-14.5v4.9h12.7v6.1h-12.7v5.2h15V341.8z"/>
	<path class="st2" d="M893.2,325.9h-8.7v-6.4h25.6v6.4h-8.7v22.2h-8.1v-22.2H893.2z"/>
	<path class="st2" d="M911.2,333.7c0-8.6,6.7-14.9,15.9-14.9c9.2,0,15.9,6.3,15.9,14.9s-6.7,14.9-15.9,14.9S911.2,342.4,911.2,333.7
		z M934.7,333.7c0-5-3.4-8.2-7.7-8.2s-7.7,3.2-7.7,8.2s3.4,8.2,7.7,8.2C931.4,341.9,934.7,338.7,934.7,333.7z"/>
	<path class="st2" d="M959.6,340.5h-4.4v7.6h-8.1v-28.6h13c7.8,0,12.7,4.1,12.7,10.6c0,4.2-2,7.3-5.6,9l6.2,8.9h-8.6L959.6,340.5z
		 M959.7,325.8h-4.5v8.4h4.5c3.3,0,5-1.5,5-4.2C964.7,327.5,963,325.8,959.7,325.8z"/>
	<path class="st2" d="M975.8,333.7c0-8.7,6.6-14.9,15.7-14.9c5.3,0,9.5,1.9,12.2,5.4l-5.2,4.6c-1.8-2.2-4-3.3-6.7-3.3
		c-4.7,0-7.9,3.3-7.9,8.2s3.3,8.2,7.9,8.2c2.8,0,5-1.2,6.7-3.3l5.2,4.6c-2.8,3.4-7.1,5.4-12.2,5.4
		C982.5,348.6,975.8,342.5,975.8,333.7z"/>
	<path class="st2" d="M1026,342.5h-12l-2.2,5.5h-8.3l12.6-28.6h7.9l12.7,28.6h-8.4L1026,342.5z M1023.7,336.5l-3.6-9.2l-3.6,9.2
		H1023.7z"/>
</g>
<g>
	<path class="st3" d="M855.8,330.1c0,6.5-4.9,10.5-12.7,10.5h-5v7.5h-8.1v-28.6h13C850.8,319.5,855.8,323.5,855.8,330.1z
		 M847.6,330.1c0-2.6-1.7-4.2-5-4.2h-4.5v8.4h4.5C846,334.2,847.6,332.6,847.6,330.1z"/>
	<path class="st3" d="M882.6,341.8v6.3h-23v-28.6h22.4v6.3h-14.5v4.9h12.7v6.1h-12.7v5.2h15V341.8z"/>
	<path class="st3" d="M893.2,325.9h-8.7v-6.4h25.6v6.4h-8.7v22.2h-8.1v-22.2H893.2z"/>
	<path class="st3" d="M911.2,333.7c0-8.6,6.7-14.9,15.9-14.9c9.2,0,15.9,6.3,15.9,14.9s-6.7,14.9-15.9,14.9S911.2,342.4,911.2,333.7
		z M934.7,333.7c0-5-3.4-8.2-7.7-8.2s-7.7,3.2-7.7,8.2s3.4,8.2,7.7,8.2C931.4,341.9,934.7,338.7,934.7,333.7z"/>
	<path class="st3" d="M959.6,340.5h-4.4v7.6h-8.1v-28.6h13c7.8,0,12.7,4.1,12.7,10.6c0,4.2-2,7.3-5.6,9l6.2,8.9h-8.6L959.6,340.5z
		 M959.7,325.8h-4.5v8.4h4.5c3.3,0,5-1.5,5-4.2C964.7,327.5,963,325.8,959.7,325.8z"/>
	<path class="st3" d="M975.8,333.7c0-8.7,6.6-14.9,15.7-14.9c5.3,0,9.5,1.9,12.2,5.4l-5.2,4.6c-1.8-2.2-4-3.3-6.7-3.3
		c-4.7,0-7.9,3.3-7.9,8.2s3.3,8.2,7.9,8.2c2.8,0,5-1.2,6.7-3.3l5.2,4.6c-2.8,3.4-7.1,5.4-12.2,5.4
		C982.5,348.6,975.8,342.5,975.8,333.7z"/>
	<path class="st3" d="M1026,342.5h-12l-2.2,5.5h-8.3l12.6-28.6h7.9l12.7,28.6h-8.4L1026,342.5z M1023.7,336.5l-3.6-9.2l-3.6,9.2
		H1023.7z"/>
</g>
<g>
	<g>
		<g>
			<path class="st4" d="M1617.8,748.7c0-40.5-32.8-73.3-73.3-73.3s-73.3,32.8-73.3,73.3c0,46.6,73.3,104.3,73.3,104.3
				S1617.8,795.3,1617.8,748.7z"/>
			<g>
				<path class="st5" d="M1544.5,675.4c-40.5,0-73.3,32.8-73.3,73.3c0,20.2,13.8,42.6,29.5,61.4l98.3-110.4
					C1585.5,684.8,1566.1,675.4,1544.5,675.4z"/>
				<path class="st6" d="M1500.7,810.1c20.4,24.5,43.8,42.9,43.8,42.9s73.3-57.7,73.3-104.3c0-18.9-7.1-36.1-18.9-49.1L1500.7,810.1
					z"/>
			</g>
			<g>
				<path class="st7" d="M1517.5,791.1c7.8,5,17,7.8,27,7.8c27.8,0,50.3-22.5,50.3-50.3c0-12-4.2-23.1-11.3-31.7L1517.5,791.1z"/>
				<path class="st8" d="M1544.5,698.3c-27.8,0-50.3,22.5-50.3,50.3c0,17.9,9.3,33.6,23.4,42.5l66.1-74.2
					C1574.3,705.5,1560.2,698.3,1544.5,698.3z"/>
			</g>
			<circle class="st3" cx="1544.5" cy="748.6" r="46.1"/>
			<path class="st9" d="M1598.9,699.6l-3.9,4.3c10.9,12.4,17,28.2,17,44.7c0,17.6-12.1,40.2-35.1,65.6
				c-13.1,14.5-26.3,26.1-32.5,31.2c-7.2-6.1-24.3-21-39.4-39.2c-0.2-0.2-0.4-0.4-0.6-0.7l-3.9,4.4c20.4,24.5,43.8,42.9,43.8,42.9
				s73.3-57.7,73.3-104.3C1617.8,729.8,1610.6,712.6,1598.9,699.6z"/>
			<path class="st10" d="M1476.9,748.7c0-37.3,30.3-67.6,67.6-67.6c19.1,0,37.4,8.1,50.2,22.3c0.1,0.2,0.3,0.3,0.4,0.5l3.9-4.3
				c-13.4-14.9-32.8-24.2-54.5-24.2c-40.5,0-73.3,32.8-73.3,73.3c0,20.2,13.8,42.6,29.5,61.4l3.9-4.4
				C1486.5,783.9,1476.9,764.2,1476.9,748.7z"/>
		</g>
	</g>
	<g>
		<path class="st11" d="M1563.1,745.9c0,15.8-9.8,24.8-24.1,24.8c-5,0-10-1.2-13.3-3.3l4.7-9.2c2.6,1.8,5.4,2.3,8.3,2.3
			c6.4,0,10.7-3.6,11.4-10.5c-2.5,2.1-5.9,3.3-10.1,3.3c-8.5,0-15.6-5.6-15.6-14.3c0-9.4,7.9-15.4,17.7-15.4
			C1554.9,723.6,1563.1,731.2,1563.1,745.9z M1549.3,738.4c0-3.4-2.5-5.7-6.3-5.7c-3.6,0-6.1,2.2-6.1,5.8c0,3.5,2.5,5.7,6.2,5.7
			S1549.3,741.8,1549.3,738.4z"/>
	</g>
</g>
<g>
	<g>
		<g>
			<path class="st4" d="M1514.8,377.7c0-40.5-32.8-73.3-73.3-73.3s-73.3,32.8-73.3,73.3c0,46.6,73.3,104.3,73.3,104.3
				S1514.8,424.3,1514.8,377.7z"/>
			<g>
				<path class="st5" d="M1441.5,304.4c-40.5,0-73.3,32.8-73.3,73.3c0,20.2,13.8,42.6,29.5,61.4l98.3-110.4
					C1482.5,313.8,1463.1,304.4,1441.5,304.4z"/>
				<path class="st6" d="M1397.7,439.1c20.4,24.5,43.8,42.9,43.8,42.9s73.3-57.7,73.3-104.3c0-18.9-7.1-36.1-18.9-49.1L1397.7,439.1
					z"/>
			</g>
			<g>
				<path class="st7" d="M1414.5,420.1c7.8,5,17,7.8,27,7.8c27.8,0,50.3-22.5,50.3-50.3c0-12-4.2-23.1-11.3-31.7L1414.5,420.1z"/>
				<path class="st8" d="M1441.5,327.3c-27.8,0-50.3,22.5-50.3,50.3c0,17.9,9.3,33.6,23.4,42.5l66.1-74.2
					C1471.3,334.5,1457.2,327.3,1441.5,327.3z"/>
			</g>
			<circle class="st3" cx="1441.5" cy="377.6" r="46.1"/>
			<path class="st9" d="M1495.9,328.6l-3.9,4.3c10.9,12.4,17,28.2,17,44.7c0,17.6-12.1,40.2-35.1,65.6
				c-13.1,14.5-26.3,26.1-32.5,31.2c-7.2-6.1-24.3-21-39.4-39.2c-0.2-0.2-0.4-0.4-0.6-0.7l-3.9,4.4c20.4,24.5,43.8,42.9,43.8,42.9
				s73.3-57.7,73.3-104.3C1514.8,358.8,1507.6,341.6,1495.9,328.6z"/>
			<path class="st10" d="M1373.9,377.7c0-37.3,30.3-67.6,67.6-67.6c19.1,0,37.4,8.1,50.2,22.3c0.1,0.2,0.3,0.3,0.4,0.5l3.9-4.3
				c-13.4-14.9-32.8-24.2-54.5-24.2c-40.5,0-73.3,32.8-73.3,73.3c0,20.2,13.8,42.6,29.5,61.4l3.9-4.4
				C1383.5,412.9,1373.9,393.2,1373.9,377.7z"/>
		</g>
	</g>
	<g>
		<path class="st11" d="M1439,353.5v45.2h-12.8v-35.4h-8.4v-9.9L1439,353.5L1439,353.5z"/>
		<path class="st11" d="M1461.9,353.5v45.2h-12.8v-35.4h-8.4v-9.9L1461.9,353.5L1461.9,353.5z"/>
	</g>
</g>
<g>
	<g>
		<g>
			<path class="st4" d="M1009.8,186.7c0-40.5-32.8-73.3-73.3-73.3s-73.3,32.8-73.3,73.3c0,46.6,73.3,104.3,73.3,104.3
				S1009.8,233.3,1009.8,186.7z"/>
			<g>
				<path class="st5" d="M936.5,113.4c-40.5,0-73.3,32.8-73.3,73.3c0,20.2,13.8,42.6,29.5,61.4L991,137.7
					C977.5,122.8,958.1,113.4,936.5,113.4z"/>
				<path class="st6" d="M892.7,248.1c20.4,24.5,43.8,42.9,43.8,42.9s73.3-57.7,73.3-104.3c0-18.9-7.1-36.1-18.9-49.1L892.7,248.1z"
					/>
			</g>
			<g>
				<path class="st7" d="M909.5,229.1c7.8,5,17,7.8,27,7.8c27.8,0,50.3-22.5,50.3-50.3c0-12-4.2-23.1-11.3-31.7L909.5,229.1z"/>
				<path class="st8" d="M936.5,136.3c-27.8,0-50.3,22.5-50.3,50.3c0,17.9,9.3,33.6,23.4,42.5l66.1-74.2
					C966.3,143.5,952.2,136.3,936.5,136.3z"/>
			</g>
			<circle class="st3" cx="936.5" cy="186.6" r="46.1"/>
			<path class="st9" d="M990.9,137.6l-3.9,4.3c10.9,12.4,17,28.2,17,44.7c0,17.6-12.1,40.2-35.1,65.6
				c-13.1,14.5-26.3,26.1-32.5,31.2c-7.2-6.1-24.3-21-39.4-39.2c-0.2-0.2-0.4-0.4-0.5-0.7l-3.9,4.4c20.4,24.5,43.8,42.9,43.8,42.9
				s73.3-57.7,73.3-104.3C1009.8,167.8,1002.6,150.6,990.9,137.6z"/>
			<path class="st10" d="M868.9,186.7c0-37.3,30.3-67.6,67.6-67.6c19.1,0,37.4,8.1,50.2,22.3c0.1,0.2,0.3,0.3,0.4,0.5l3.9-4.3
				c-13.4-14.9-32.8-24.2-54.5-24.2c-40.5,0-73.3,32.8-73.3,73.3c0,20.2,13.8,42.6,29.5,61.4l3.9-4.4
				C878.5,221.9,868.9,202.2,868.9,186.7z"/>
		</g>
	</g>
	<g>
		<path class="st11" d="M956.3,193.2c0,9.4-7.9,15.4-17.8,15.4c-12.7,0-20.9-7.6-20.9-22.3c0-15.8,9.8-24.8,24-24.8
			c5.1,0,10,1.2,13.3,3.3l-4.7,9.2c-2.6-1.8-5.4-2.3-8.3-2.3c-6.5,0-10.8,3.6-11.4,10.5c2.5-2.2,5.9-3.4,10.2-3.4
			C949.3,178.9,956.3,184.5,956.3,193.2z M943.9,193.8c0-3.5-2.5-5.7-6.2-5.7s-6.3,2.3-6.3,5.8c0,3.4,2.5,5.7,6.3,5.7
			C941.4,199.5,943.9,197.3,943.9,193.8z"/>
	</g>
</g>
<g>
	<g>
		<g>
			<path class="st4" d="M789.8,630.7c0-40.5-32.8-73.3-73.3-73.3s-73.3,32.8-73.3,73.3c0,46.6,73.3,104.3,73.3,104.3
				S789.8,677.3,789.8,630.7z"/>
			<g>
				<path class="st5" d="M716.5,557.4c-40.5,0-73.3,32.8-73.3,73.3c0,20.2,13.8,42.6,29.5,61.4L771,581.7
					C757.5,566.8,738.1,557.4,716.5,557.4z"/>
				<path class="st6" d="M672.7,692.1c20.4,24.5,43.8,42.9,43.8,42.9s73.3-57.7,73.3-104.3c0-18.9-7.1-36.1-18.9-49.1L672.7,692.1z"
					/>
			</g>
			<g>
				<path class="st7" d="M689.5,673.1c7.8,5,17,7.8,27,7.8c27.8,0,50.3-22.5,50.3-50.3c0-12-4.2-23.1-11.3-31.7L689.5,673.1z"/>
				<path class="st8" d="M716.5,580.3c-27.8,0-50.3,22.5-50.3,50.3c0,17.9,9.3,33.6,23.4,42.5l66.1-74.2
					C746.3,587.5,732.2,580.3,716.5,580.3z"/>
			</g>
			<circle class="st3" cx="716.5" cy="630.6" r="46.1"/>
			<path class="st9" d="M770.9,581.6l-3.9,4.3c10.9,12.4,17,28.2,17,44.7c0,17.6-12.1,40.2-35.1,65.6
				c-13.1,14.5-26.3,26.1-32.5,31.2c-7.2-6.1-24.3-21-39.4-39.2c-0.2-0.2-0.4-0.4-0.5-0.7l-3.9,4.4c20.4,24.5,43.8,42.9,43.8,42.9
				s73.3-57.7,73.3-104.3C789.8,611.8,782.6,594.6,770.9,581.6z"/>
			<path class="st10" d="M648.9,630.7c0-37.3,30.3-67.6,67.6-67.6c19.1,0,37.4,8.1,50.2,22.3c0.1,0.2,0.3,0.3,0.4,0.5l3.9-4.3
				c-13.4-14.9-32.8-24.2-54.5-24.2c-40.5,0-73.3,32.8-73.3,73.3c0,20.2,13.8,42.6,29.5,61.4l3.9-4.4
				C658.5,665.9,648.9,646.2,648.9,630.7z"/>
		</g>
	</g>
	<g>
		<path class="st11" d="M708,606.5v45.2h-12.8v-35.4h-8.4v-9.9H708V606.5z"/>
		<path class="st11" d="M747.1,637.2c0,8.1-6.1,15.4-19.7,15.4c-6.3,0-12.9-1.6-17.5-4.5l4.6-9.6c3.7,2.5,8.2,3.7,12.5,3.7
			s7.2-1.7,7.2-4.8c0-2.8-1.9-4.6-8.8-4.6h-12.3l2.3-26.4h28.8v9.9H726l-0.6,6.6h3C741.8,623,747.1,629.2,747.1,637.2z"/>
	</g>
</g>
<g>
	<g>
		<g>
			<path class="st4" d="M747.8,1028.7c0-40.5-32.8-73.3-73.3-73.3s-73.3,32.8-73.3,73.3c0,46.6,73.3,104.3,73.3,104.3
				S747.8,1075.3,747.8,1028.7z"/>
			<g>
				<path class="st5" d="M674.5,955.4c-40.5,0-73.3,32.8-73.3,73.3c0,20.2,13.8,42.6,29.5,61.4L729,979.7
					C715.5,964.8,696.1,955.4,674.5,955.4z"/>
				<path class="st6" d="M630.7,1090.1c20.4,24.5,43.8,42.9,43.8,42.9s73.3-57.7,73.3-104.3c0-18.9-7.1-36.1-18.9-49.1L630.7,1090.1
					z"/>
			</g>
			<g>
				<path class="st7" d="M647.5,1071.1c7.8,5,17,7.8,27,7.8c27.8,0,50.3-22.5,50.3-50.3c0-12-4.2-23.1-11.3-31.7L647.5,1071.1z"/>
				<path class="st8" d="M674.5,978.3c-27.8,0-50.3,22.5-50.3,50.3c0,17.9,9.3,33.6,23.4,42.5l66.1-74.2
					C704.3,985.5,690.2,978.3,674.5,978.3z"/>
			</g>
			<circle class="st3" cx="674.5" cy="1028.6" r="46.1"/>
			<path class="st9" d="M728.9,979.6l-3.9,4.3c10.9,12.4,17,28.2,17,44.7c0,17.6-12.1,40.2-35.1,65.6
				c-13.1,14.5-26.3,26.1-32.5,31.2c-7.2-6.1-24.3-21-39.4-39.2c-0.2-0.2-0.4-0.4-0.5-0.7l-3.9,4.4c20.4,24.5,43.8,42.9,43.8,42.9
				s73.3-57.7,73.3-104.3C747.8,1009.8,740.6,992.6,728.9,979.6z"/>
			<path class="st10" d="M606.9,1028.7c0-37.3,30.3-67.6,67.6-67.6c19.1,0,37.4,8.1,50.2,22.3c0.1,0.2,0.3,0.3,0.4,0.5l3.9-4.3
				c-13.4-14.9-32.8-24.2-54.5-24.2c-40.5,0-73.3,32.8-73.3,73.3c0,20.2,13.8,42.6,29.5,61.4l3.9-4.4
				C616.5,1063.9,606.9,1044.2,606.9,1028.7z"/>
		</g>
	</g>
	<g>
		<path class="st11" d="M663,1004.5v45.2h-12.8v-35.4h-8.4v-9.9H663V1004.5z"/>
		<path class="st11" d="M705.6,1036.4c0,8.7-8,14.2-19.6,14.2s-19.6-5.6-19.6-14.2c0-4.7,2.4-8.2,6.5-10.5c-3-2.1-4.8-5.2-4.8-9.1
			c0-8,7.4-13.2,18-13.2s18,5.2,18,13.2c0,3.9-1.8,7-4.8,9.1C703.2,1028.2,705.6,1031.8,705.6,1036.4z M692.7,1036
			c0-3.5-2.7-5.6-6.8-5.6s-6.8,2.1-6.8,5.6s2.7,5.6,6.8,5.6S692.7,1039.5,692.7,1036z M680.6,1017.3c0,3,2.1,4.7,5.4,4.7
			c3.2,0,5.4-1.7,5.4-4.7s-2.3-4.8-5.4-4.8C682.8,1012.6,680.6,1014.3,680.6,1017.3z"/>
	</g>
</g>
<g>
	<g>
		<g>
			<path class="st4" d="M440.8,1158.7c0-40.5-32.8-73.3-73.3-73.3s-73.3,32.8-73.3,73.3c0,46.6,73.3,104.3,73.3,104.3
				S440.8,1205.3,440.8,1158.7z"/>
			<g>
				<path class="st5" d="M367.5,1085.4c-40.5,0-73.3,32.8-73.3,73.3c0,20.2,13.8,42.6,29.5,61.4l98.3-110.4
					C408.5,1094.8,389.1,1085.4,367.5,1085.4z"/>
				<path class="st6" d="M323.7,1220.1c20.4,24.5,43.8,42.9,43.8,42.9s73.3-57.7,73.3-104.3c0-18.9-7.1-36.1-18.9-49.1L323.7,1220.1
					z"/>
			</g>
			<g>
				<path class="st7" d="M340.5,1201.1c7.8,5,17,7.8,27,7.8c27.8,0,50.3-22.5,50.3-50.3c0-12-4.2-23.1-11.3-31.7L340.5,1201.1z"/>
				<path class="st8" d="M367.5,1108.3c-27.8,0-50.3,22.5-50.3,50.3c0,17.9,9.3,33.6,23.4,42.5l66.1-74.2
					C397.3,1115.5,383.2,1108.3,367.5,1108.3z"/>
			</g>
			<circle class="st3" cx="367.5" cy="1158.6" r="46.1"/>
			<path class="st9" d="M421.9,1109.6l-3.9,4.3c10.9,12.4,17,28.2,17,44.7c0,17.6-12.1,40.2-35.1,65.6
				c-13.1,14.5-26.3,26.1-32.5,31.2c-7.2-6.1-24.3-21-39.4-39.2c-0.2-0.2-0.4-0.4-0.5-0.7l-3.9,4.4c20.4,24.5,43.8,42.9,43.8,42.9
				s73.3-57.7,73.3-104.3C440.8,1139.8,433.6,1122.6,421.9,1109.6z"/>
			<path class="st10" d="M299.9,1158.7c0-37.3,30.3-67.6,67.6-67.6c19.1,0,37.4,8.1,50.2,22.3c0.1,0.2,0.3,0.3,0.4,0.5l3.9-4.3
				c-13.4-14.9-32.8-24.2-54.5-24.2c-40.5,0-73.3,32.8-73.3,73.3c0,20.2,13.8,42.6,29.5,61.4l3.9-4.4
				C309.5,1193.9,299.9,1174.2,299.9,1158.7z"/>
		</g>
	</g>
	<g>
		<path class="st11" d="M367.6,1169.6v10.1h-35.2v-8l16.9-15.8c3.6-3.4,4.1-5.4,4.1-7.3c0-2.9-1.9-4.7-5.8-4.7
			c-3.3,0-6.3,1.5-8.1,4.4l-9.5-5.3c3.4-5.7,9.8-9.4,18.7-9.4c10.4,0,17.6,5.4,17.6,13.8c0,4.4-1.2,8.4-7.7,14.3l-8.5,7.9H367.6z"/>
		<path class="st11" d="M403,1169.6v10.1h-35.2v-8l16.9-15.8c3.6-3.4,4.1-5.4,4.1-7.3c0-2.9-1.9-4.7-5.8-4.7c-3.3,0-6.3,1.5-8.1,4.4
			l-9.5-5.3c3.4-5.7,9.8-9.4,18.7-9.4c10.4,0,17.6,5.4,17.6,13.8c0,4.4-1.2,8.4-7.7,14.3l-8.5,7.9H403z"/>
	</g>
</g>
<g>
	<g>
		<g>
			<path class="st4" d="M384.8,1770.7c0-40.5-32.8-73.3-73.3-73.3s-73.3,32.8-73.3,73.3c0,46.6,73.3,104.3,73.3,104.3
				S384.8,1817.3,384.8,1770.7z"/>
			<g>
				<path class="st5" d="M311.5,1697.4c-40.5,0-73.3,32.8-73.3,73.3c0,20.2,13.8,42.6,29.5,61.4l98.3-110.4
					C352.5,1706.8,333.1,1697.4,311.5,1697.4z"/>
				<path class="st6" d="M267.7,1832.1c20.4,24.5,43.8,42.9,43.8,42.9s73.3-57.7,73.3-104.3c0-18.9-7.1-36.1-18.9-49.1L267.7,1832.1
					z"/>
			</g>
			<g>
				<path class="st7" d="M284.5,1813.1c7.8,5,17,7.8,27,7.8c27.8,0,50.3-22.5,50.3-50.3c0-12-4.2-23.1-11.3-31.7L284.5,1813.1z"/>
				<path class="st8" d="M311.5,1720.3c-27.8,0-50.3,22.5-50.3,50.3c0,17.9,9.3,33.6,23.4,42.5l66.1-74.2
					C341.3,1727.5,327.2,1720.3,311.5,1720.3z"/>
			</g>
			<circle class="st3" cx="311.5" cy="1770.6" r="46.1"/>
			<path class="st9" d="M365.9,1721.6l-3.9,4.3c10.9,12.4,17,28.2,17,44.7c0,17.6-12.1,40.2-35.1,65.6
				c-13.1,14.5-26.3,26.1-32.5,31.2c-7.2-6.1-24.3-21-39.4-39.2c-0.2-0.2-0.4-0.4-0.5-0.7l-3.9,4.4c20.4,24.5,43.8,42.9,43.8,42.9
				s73.3-57.7,73.3-104.3C384.8,1751.8,377.6,1734.6,365.9,1721.6z"/>
			<path class="st10" d="M243.9,1770.7c0-37.3,30.3-67.6,67.6-67.6c19.1,0,37.4,8.1,50.2,22.3c0.1,0.2,0.3,0.3,0.4,0.5l3.9-4.3
				c-13.4-14.9-32.8-24.2-54.5-24.2c-40.5,0-73.3,32.8-73.3,73.3c0,20.2,13.8,42.6,29.5,61.4l3.9-4.4
				C253.5,1805.9,243.9,1786.2,243.9,1770.7z"/>
		</g>
	</g>
	<g>
		<path class="st11" d="M303,1746.5v45.2h-12.8v-35.4h-8.4v-9.9H303V1746.5z"/>
		<path class="st11" d="M341.5,1781.6v10.1h-35.2v-8l16.9-15.8c3.6-3.4,4.1-5.4,4.1-7.3c0-2.9-1.9-4.7-5.8-4.7
			c-3.3,0-6.3,1.5-8.1,4.4l-9.5-5.3c3.4-5.7,9.8-9.4,18.7-9.4c10.4,0,17.6,5.4,17.6,13.8c0,4.4-1.2,8.4-7.7,14.3l-8.5,7.9H341.5z"/>
	</g>
</g>
</svg>
