<?xml version="1.0" encoding="utf-8"?>
<!-- Generator: Adobe Illustrator 24.0.0, SVG Export Plug-In . SVG Version: 6.00 Build 0)  -->
<svg version="1.1" id="Capa_1" xmlns="http://www.w3.org/2000/svg" xmlns:xlink="http://www.w3.org/1999/xlink" x="0px" y="0px"
	 viewBox="0 0 1920 2314" style="enable-background:new 0 0 1920 2314;" xml:space="preserve">
<style type="text/css">
	.st0{fill:#BFBFBF;}
	.st1{fill:#8E8E8E;}
	.st2{fill:#FFFFFF;stroke:#000000;stroke-width:6;stroke-miterlimit:10;}
	.st3{fill:#FFFFFF;}
	.st4{fill:#D4353F;}
	.st5{fill:#FF6D00;}
	.st6{fill:#FF8500;}
	.st7{fill:#D7D9D9;}
	.st8{fill:#C5C7C8;}
	.st9{opacity:0.4;fill:#DA5D68;}
	.st10{opacity:0.4;fill:#D4353F;}
	.st11{fill:#444444;}
</style>
<path class="st0" d="M343.9,225.9c12.8-10.7,11.6-23.5-2.1-40.5c17.7-11.8,35.5-23.6,53.2-35.4c3.3,26.9,30,22.5,45.2,29.4
	c24.6,11,53.6,16.1,80.8,16.3c28,0.2,58.9,2.3,80.8-24.3c5-6.1,16.4-7,26.6-11c-0.7-6.5-1.6-13.8-2.6-22.5c9.2-4.5,19-9.2,28.5-13.8
	c33,40.5,34.7,40.4,76.7,7.3c33.8-26.7,68.2-52.7,104.8-80.9c-3.5-7.2-9.5-19.6-15.6-32.1c32.4,17.7,80.5-12.8,102.7,39
	c38.3-12.9,75.8-25.6,113.3-38c4.6-1.5,11.4-3.4,14.5-1.2c20.3,14.1,38.5,1.4,55.9-5.2C1134,2.7,1149.4,8,1159,37.5
	c5.1-0.3,10.7-0.9,16.3-1.1c25.5-0.9,32.4,8.8,23.3,32.8c-12.5,32.8-2.8,52.5,31.2,64.1c21.1,7.2,43,12.8,62.8,22.6
	c21.1,10.5,33.6,9.6,35.2-13c20.7,6.8,40.3,13.2,54.4,17.8c11.9,20.3,23.5,37.7,32.2,56.4c3.5,7.4-0.2,17.9,1,26.7
	c1.1,7.9,2.8,16.4,7,22.9c4.9,7.7,19.5,16.9,18.2,19.5c-7.8,14.9-16,34.5-29.5,40.6c-31.9,14.5-66.4,23.9-100.7,32.2
	c-22.9,5.6-47.2,5.7-72.3,8.5c1.5,15.3,2.9,29.7,4.2,44.1c2,23.5-15.2,35-31.2,45.5c-5.7,3.7-19.6,3.3-24.4-1.1
	c-29.4-26.8-67.1-14.9-100.4-22.3c-9.3-2.1-23.8,6.5-31.9,14.4c-11.9,11.6-21.2,26.4-29.7,41c-10.2,17.7,7.9,57.1,28.5,64.2
	c8.6,2.9,17.5,5,23.9,6.8c8.8,27.1-36.6,34.9-16.1,64c-16.3,11.8-28.3,26.1-53.9,7.8c-13.4-9.5-40.5-2.4-60.7,0.9
	c-27.2,4.5-53.2,20.9-81.5,3.3c-3.9-2.4-10.9-3.2-14.9-1.3c-18.2,8.4-34.6,15.3-38.4-14.6c-0.1-0.6-15.2-2.3-17.9,1
	c-20.7,25.2-41.6,7.2-60-0.9c-25.7-11.3-91-7.7-108.7,12.5c-13.2,15.1-37.7,21.4-37.4,48.7c0.1,5.6-17.1,15.6-26.4,15.8
	c-7.5,0.1-16.1-10.8-22.6-18.2c-3.6-4.1-4-10.9-5.6-15.8c-27.1-5.4-52.9-10.6-77.4-15.5c-11.8-23.4-24.5-48-36.4-72.9
	c-4.4-9.2-8.4-19.2-9.3-29.2c-0.5-6,4.7-17.7,8.2-18.1c20-2,23.7-16.6,28.1-31.4c8.5-28.6,20.3-56.8,24.4-86
	c1.7-11.9-10.4-33.8-21.2-38c-46.3-17.7-42.2-55.3-43.7-92.6c-1.2-31.2-18.8-45.1-50.8-44.5C351.4,235.1,347.6,229.1,343.9,225.9z"
	/>
<path class="st0" d="M1143.1,833.8c-2.6,8.4-0.9,7.8,1.8,11.6c5.9,8.5,16.9,19.9,24.8,19.2c20.4-1.9,40.7-8.7,60.3-15.5
	c34.2-11.9,32.9-43.7,34.6-71c1.5-24.6,10.3-40.7,32-52c5.6-2.9,10.1-13.4,10.2-20.5c0.2-13.5-3.2-27.1-4.7-37.9
	c10.7-10.1,20.9-18.4,29.4-28c16-18,36.1-25.8,59.4-25.8c26.1,0,52.6,3.4,78.4,0.4c27.1-3.2,45.5-22,57.6-46.4
	c9.4-18.9,17.4-38.6,28.3-56.6c5.5-9.1,14.9-19.2,24.4-21.7c21.6-5.7,42-9.4,44.8-37.3c0.1-1.5,13.2-3.8,19.1-2.1
	c18,5.3,35.6,12,52.9,19.3c5.6,2.4,12.6,7.7,13.8,12.9c5.1,20.7,9.2,41.8,11.7,63c2.4,20.2-0.5,37.2-20.8,50.9
	c-22.5,15.2-20.6,40.1-1.7,60.3c4.6,4.9,7,13.4,7.4,20.5c1,18,0.6,36.2,0.4,54.2c-0.6,43.5,22.4,74.2,50.5,104.8
	c14.2,15.4,35.1,26.6,39.1,53.3c1.8,12.2,23.2,22.8,37.3,31.4c13.2,8,25.1,12.6,10.1,30.2c-5.3,6.2-5,17.3-7.1,26.3
	c-1.6,7.1-3.1,14.2-4.4,21.3c-1.5,8.4-5,17.1-3.7,25.1c5,31.3-5.4,43.5-37.3,44.7c-8.1,0.3-18.1,4.8-23.3,10.7
	c-10.6,12.1-20,25.8-27.2,40.2c-17.9,35.6-51.1,46.6-85.4,56.5c-14.5,4.2-26.5,9.1-28.4,28.1c-1.1,10.9-10.3,20.9-18.2,35.9
	c-4.1-10.9-7.4-18.2-9.6-25.7c-3-10.4-1.6-25.5-8.3-30.8c-17.3-13.6-37.9-23.1-57.4-33.7c-2.3-1.2-6.5,0.9-9.7,1.9
	c-32.7,10.2-54.6-8.6-52.8-43.5c0.5-10.4-3.2-29.4-7.6-30.2c-13.6-2.5-31.4-2.5-42.3,4.6c-15.9,10.5-28.2,27.1-40.3,42.6
	c-15.2,19.4-24.8,20-35.7-1.3c-8.9-17.4-18.2-34.9-24.3-53.4c-7.4-22.5-18.7-40.3-41.5-49.2c-3-1.2-7.7-3.4-7.9-5.4
	c-2.9-40.3-32.4-22.8-52.4-23.5c-10.8-0.4-21.7,4.7-32.6,6.9c-23.5,4.7-33.7-7.1-39.6-28.7c-8.1-30-18.3-59.4-28.7-88.7
	C1110.8,860.3,1121,838.1,1143.1,833.8z"/>
<path class="st1" d="M829.3,667c11.1-8.1,18.6-13.6,26.4-19.3c34.7,19.6,67.5,8.4,102.5-2.9c17.8-5.7,41.3-0.1,60.4,6
	c16.7,5.3,57.3-2.7,61.7-18.9c1.7-6.2-2.8-14-4-19.1c5.5-10,11.3-19.2,15.6-29.1c6.9-15.8,1.2-25.7-15-31.8
	c-38.5-14.6-43.8-31.8-22.2-65.3c3.1-4.8,2.3-13.1,6.2-16.5c10.9-9.5,27.1-26.9,34.6-24c31.6,12,69.7-2.2,97.4,26.2
	c11.8,12.1,27.3,6.4,38.4-6.4c16.2-18.6,35.4-35.2,25.1-65.1c-4.5-13,5-17.7,18.6-20.9c51-11.8,102.1-24,151.7-40.7
	c13.4-4.5,23.1-24.5,31.2-39.2c15.1-27.6,14.1-28.1,36.5-45c32.2,12.2,64,20.5,91.7,36.1c16.8,9.4,27.1,30.2,41.2,46.9
	c-0.7,12.1-1.7,29.8-3,52c-10.8,7-19.5,18.6-13,41.2c5,17.5,0.8,35.6-24.8,42.1c-40.4,10.3-53.5,49-69.8,81.1
	c-11.3,22.4-26.9,40.9-51.7,41.9c-18,0.7-36.3,1-54.2-0.9c-33.6-3.5-60.1,11.4-85.2,30.3c-12.9,9.7-25,20.4-39.8,32.6
	c1.4,5.9,4.6,14.7,5.7,23.8c1.7,15.4,5.5,28-14,40.9c-17.1,11.3-33.4,31.6-27.1,61.2c7.3,34.2-39.6,75.9-74.3,68.9
	c-4.8-1-8.6-10.7-11.3-17.1c-3.5-8.1-5.4-16.8-7.9-25.3c-12.2,4-27.3,4.8-36.1,12.6c-28.9,25.7-24.1,55.8-6.3,86.3
	c6.1,10.3,11.3,21.4,15.3,32.6c7.3,19.9,0.6,30.2-20.8,30c-23.9-0.2-47.7-3.9-71.6-4c-34.1-0.2-66.7-0.2-92.5,31.8
	c-10.6,13.2-36.9,13.7-60.3,21.4c0.6-11.7,2.2-18.3,0.8-24.4c-1.4-6.4-3.9-15.1-8.7-17.9c-34.2-20-41.7-77.1-11.3-101.6
	c12.4-10,11.9-18.5,8.8-33.1c-7.6-36.5-43.7-63.6-33.3-105.5c1.8-7.4,0-16.8,3.9-22.4C859.5,695.5,854.2,680.2,829.3,667z"/>
<path class="st1" d="M229.6,1359.7c-13.2-13.9-33.9-22.7-13.3-42.7c-17.6-23.9-7.5-49.4-7.2-75.1c0.1-13-20.4-26-30.9-39.5
	c-6.4-8.3-11.6-17.6-21.5-32.8c17.7,1.8,27.6,2.1,37.2,4c31.2,6.1,46.4-7.1,45-39.2c-0.6-14.2-0.1-28.4-0.1-46.5
	c16.1,2.6,28.4,4.5,40.6,6.5c47.7,8.1,66.3-7.1,66.5-54.2c0.1-12.9-1.6-26.2,0.8-38.6c1.4-7.3,9.2-13.4,14.1-20.1
	c5.8-8,16.7-16.1,16.4-23.9c-0.9-25.6-5.8-51-9.6-76.5c-0.5-3.1-2.7-7.3-5.3-8.5c-26.1-12.4-20.8-31.3-11.1-51.9
	c5.7,1.6,12.7,6,16.9,4.2c12.6-5.5,24.9-12.6,35.3-21.4c1.4-1.2-8.5-15.9-13.3-24.2c-4-7.1-8.2-14-12.1-20.6
	c3.3-2.9,4.4-4.7,5.6-4.8c38.6-3.7,49.5-14.9,58.1-59.7c5.8-30.3,27.6-41.7,54.3-25.2c27.8,17.1,53.5,37.7,80,56.9
	c13.3,9.7,13.3,20.2-0.8,28.3c-15.8,9.1-16.1,20-8,34.3c11.9,21.1,17.4,40.1-9.8,56.6c-11.8,7.1-16,26.5-27.6,34.5
	c-24.5,16.8-52.1,29.1-77.6,44.6c-10,6.1-26.5,18.1-25.1,23.4c4,15.2,13.7,30.3,25,41.7c12,12.1,28.3,19.9,38.1,26.4
	c-18.1,12.6-34.5,24.3-51.1,35.6c-6.1,4.1-12.3,8.7-19.2,11c-23.6,7.7-33.9,26.6-37.4,48.2c-1.3,7.9,8.1,17.5,13.5,27.9
	c-18.8,24.4,4,80.8,37.5,91.4c32.1,10.1,62.1,26.5,93.5,39c17.4,7,35.5,15.4,53.7,16.8c29,2.1,45.9,20.5,64.1,38.2
	c3.7,3.6,6,10.4,6.1,15.7c0.2,21.9,5.1,40.6,27.4,48.2c-6.6,18.2-12.3,35.1-18.8,51.6c-2.4,6.2-5.7,15.5-10.4,16.7
	c-31,8.3-49.1,41.5-85.1,40.9c-22-0.3-26.8,10.5-23.7,37.9c-1.2,1.2-2.3,3.2-3.6,3.4c-29,3-55.3,8.9-74.8,35.1
	c-5,6.8-24.9,6.1-36.9,3.6c-37.3-8-74.1-18.5-111.1-28.1c-8.6-2.2-17.1-4.4-18.4-4.8c4.7-14.6,6.8-26.3,12.1-36.3
	c4-7.6,11-15.4,18.6-18.7c9-3.9,20-2.9,23.9-3.3c6.1-24.5,11.8-45.5,16.3-66.8c1.7-8.2,1.2-17,0.8-25.5c-0.5-11.8-0.5-23.9-3.2-35.3
	c-1.6-6.6-6.7-14.9-12.4-17.5C308.2,1320.6,267.4,1328.1,229.6,1359.7z"/>
<path class="st0" d="M517.2,1870.1c-29.8,35-62.9,38.8-105.5,19.1c-18.2-8.4-41.3-7.1-62.3-7.7c-4.2-0.1-11.1,10.8-12.6,17.5
	c-2.6,11.6-3.9,24.2-2.2,35.8c5.8,41.6-23.6,56.3-52.2,73.6c-27.8,16.8-54.6,35.4-80.5,55.1c-16.7,12.7-30.3,21.6-42.6-3.8
	c-1.3-2.8-5.9-7-7-6.5c-27,13.4-39.1-17.8-61.3-18.5c-5.6-45.9,18.5-83,30.5-122.9c1.6-5.4,13.3-10,20.8-11
	c59.4-7.9,121-64.1,132.2-121.8c0.8-4.2,1.9-8.5,1.8-12.7c-0.5-30-1.5-59.9-1.7-89.9c0-3.8,2.2-8.4,4.9-11.2
	c23.6-24.1,16.6-36.8-3.6-62.6c-19.6-25-46.8-40.2-64.8-63.5c-11.5-14.8-6.7-42.3-9.1-63c31.8-12.2,49-46.1,42.5-74.2
	c-2.4-10.4-4.3-28.4,0.9-31.8c16.2-10.6,35.5-17,54.3-22.5c7.2-2.1,16.4,3.1,24.8,4.4c14.3,2.2,15,11.7,21,23.5
	c16.7,32.3-6.7,55.3-8.6,82.4c-1,14-6.6,18.7-20.5,20.2c-7.7,0.9-16.3,9.2-21.1,16.4c-8,11.8-12.2,26.1-20,38
	c-9.4,14.5-5.4,22.4,9.9,26.4c46.2,12.1,92.5,24.2,138.9,35.6c24.4,6,42.1-6.4,59.9-21.9c8.9-7.7,23.5-8.7,35.5-12.8
	c2.6,10.9,8.6,22.3,6.9,32.5c-3.2,18.9,1.4,32.8,13.9,47c23.3,26.3,11.5,69.9-20.6,83.2c-9.2,3.8-17.4,10.4-25.5,16.5
	c-10.9,8.2-20.9,17.7-32.1,25.6c-12.4,8.8-22.4,16.1-8,32.4c10.7,12.1,17.4,27.7,27.9,40C492.4,1849.3,505.4,1859.2,517.2,1870.1z"
	/>
<path class="st0" d="M517.5,1023.1c-17.5-15.4-34.3-30.1-51.2-44.9c29.9-15,43.3-12.7,62.6,9.5c3.8,4.4,8.5,9.5,13.8,11
	c43.7,12.8,84.8,38.1,133.3,29.2c25.5-4.7,51-10,76.7-13.3c6.3-0.8,13.5,4.8,20.2,7.7c14.7,6.4,29,17.7,43.9,18.5
	c22.2,1.2,31.1,13.5,38.2,30.2c5.7,13.2,10.3,26.8,16.1,42.1c-33.5,25-6,61.5-12.8,92.9c-0.9,3.9,7.7,10.1,12.2,15
	c15.6,16.8,12.2,35.4-8.4,45.9c-16.2,8.2-32.1,16.9-48.7,24.3c-3.9,1.7-9.8-1-14.7-1.8c-5.8-1-14.2-5.2-17-2.8c-25,21-52,9.1-78.9,8
	c-16.4-0.6-33.2,7.5-53.9,12.7c-14.3-24.5-43.2-32-75.2-33.3c-5-0.2-10.2-1.9-14.9-3.9c-41.1-17.6-82.2-35.2-123.1-53.3
	c-20-8.9-29.6-54-21.4-72.4c3.9-8.8-5.9-23.8-14.6-37.2C427.7,1070.9,470.5,1049.2,517.5,1023.1z"/>
<path class="st0" d="M586.2,711.2c20.1-23.6,38.1-44.7,56.2-65.7c10.7-12.4,67.2-22.1,82.7-15.3c21.6,9.4,43.7,17.8,66.6,27
	c4.9-8.7,8.5-15,12.7-22.4c1.9,2.1,4.2,3.5,4.8,5.4c2.3,8,1.9,17.7,6.4,24c17.8,25.4,13.2,52.2,10.6,80.3
	c-1.7,18.5,2.3,38.6,8.3,56.5c6.6,19.9,18.2,38.1,27.5,56.8c-34.8,22.7-44,93.9-9.4,127c6.6,6.3,12.6,22,9.2,27.8
	c-4.9,8.4-19.7,17.8-28.2,16.2c-21-4-41.9-12.1-60.7-22.4c-12.4-6.9-20.7-8.8-35-4c-41.9,14.2-85,18.8-128.4,4
	c-12.9-4.4-26.6-6.7-39.6-11c-8.8-2.9-20.1-5.3-25.1-11.9c-22.2-29.2-51.2-34.8-84.8-29.1c-3.6,0.6-7.7-1.3-19.7-3.6
	c25.4-14.2,45.4-23.2,63-35.6c22.6-15.9,42-36.7,65.3-51.3c23-14.4,30.5-32.3,24.6-57.2c-1.9-8-6.5-15.5-7.9-23.5
	c-1-5.8-1.1-15.8,2.1-17.7C617.1,747.8,615.2,729.8,586.2,711.2z"/>
<g>
	<path class="st2" d="M1435.3,880.6h7.3v20.1h12.3v5.8h-19.7V880.6z"/>
	<path class="st2" d="M1456.1,893.6c0-7.8,6.1-13.5,14.4-13.5c8.3,0,14.4,5.7,14.4,13.5c0,7.8-6.1,13.5-14.4,13.5
		C1462.2,907,1456.1,901.3,1456.1,893.6z M1477.5,893.6c0-4.5-3.1-7.4-7-7.4c-3.9,0-7,2.9-7,7.4s3.1,7.4,7,7.4
		C1474.4,901,1477.5,898.1,1477.5,893.6z"/>
	<path class="st2" d="M1486.9,904.2l2.4-5.4c2.3,1.5,5.5,2.6,8.5,2.6c3,0,4.2-0.9,4.2-2.1c0-4.1-14.7-1.1-14.7-10.7
		c0-4.6,3.8-8.4,11.5-8.4c3.4,0,6.8,0.8,9.4,2.3l-2.3,5.4c-2.5-1.3-4.9-2-7.2-2c-3.1,0-4.2,1-4.2,2.3c0,4,14.7,1,14.7,10.5
		c0,4.5-3.8,8.4-11.5,8.4C1493.6,907,1489.3,905.9,1486.9,904.2z"/>
	<path class="st2" d="M1540.7,901.5h-10.9l-2,5h-7.5l11.4-25.9h7.2l11.5,25.9h-7.6L1540.7,901.5z M1538.6,896.1l-3.3-8.3l-3.3,8.3
		H1538.6z"/>
	<path class="st2" d="M1577.1,880.6v25.9h-6l-11.4-13.8v13.8h-7.2v-25.9h6l11.4,13.8v-13.8H1577.1z"/>
	<path class="st2" d="M1582.3,880.6h12.2c8.6,0,14.5,5,14.5,12.9c0,7.9-5.9,12.9-14.5,12.9h-12.2V880.6z M1594.2,900.7
		c4.4,0,7.4-2.6,7.4-7.1s-3-7.1-7.4-7.1h-4.6v14.2H1594.2z"/>
	<path class="st2" d="M1633.6,900.9v5.7h-20.8v-25.9h20.3v5.7h-13.1v4.4h11.5v5.5h-11.5v4.7H1633.6z"/>
	<path class="st2" d="M1635.9,904.2l2.4-5.4c2.3,1.5,5.5,2.6,8.5,2.6c3,0,4.2-0.9,4.2-2.1c0-4.1-14.7-1.1-14.7-10.7
		c0-4.6,3.8-8.4,11.5-8.4c3.4,0,6.8,0.8,9.4,2.3l-2.3,5.4c-2.5-1.3-4.9-2-7.2-2c-3.1,0-4.2,1-4.2,2.3c0,4,14.7,1,14.7,10.5
		c0,4.5-3.8,8.4-11.5,8.4C1642.5,907,1638.3,905.9,1635.9,904.2z"/>
</g>
<g>
	<path class="st3" d="M1435.3,880.6h7.3v20.1h12.3v5.8h-19.7V880.6z"/>
	<path class="st3" d="M1456.1,893.6c0-7.8,6.1-13.5,14.4-13.5c8.3,0,14.4,5.7,14.4,13.5c0,7.8-6.1,13.5-14.4,13.5
		C1462.2,907,1456.1,901.3,1456.1,893.6z M1477.5,893.6c0-4.5-3.1-7.4-7-7.4c-3.9,0-7,2.9-7,7.4s3.1,7.4,7,7.4
		C1474.4,901,1477.5,898.1,1477.5,893.6z"/>
	<path class="st3" d="M1486.9,904.2l2.4-5.4c2.3,1.5,5.5,2.6,8.5,2.6c3,0,4.2-0.9,4.2-2.1c0-4.1-14.7-1.1-14.7-10.7
		c0-4.6,3.8-8.4,11.5-8.4c3.4,0,6.8,0.8,9.4,2.3l-2.3,5.4c-2.5-1.3-4.9-2-7.2-2c-3.1,0-4.2,1-4.2,2.3c0,4,14.7,1,14.7,10.5
		c0,4.5-3.8,8.4-11.5,8.4C1493.6,907,1489.3,905.9,1486.9,904.2z"/>
	<path class="st3" d="M1540.7,901.5h-10.9l-2,5h-7.5l11.4-25.9h7.2l11.5,25.9h-7.6L1540.7,901.5z M1538.6,896.1l-3.3-8.3l-3.3,8.3
		H1538.6z"/>
	<path class="st3" d="M1577.1,880.6v25.9h-6l-11.4-13.8v13.8h-7.2v-25.9h6l11.4,13.8v-13.8H1577.1z"/>
	<path class="st3" d="M1582.3,880.6h12.2c8.6,0,14.5,5,14.5,12.9c0,7.9-5.9,12.9-14.5,12.9h-12.2V880.6z M1594.2,900.7
		c4.4,0,7.4-2.6,7.4-7.1s-3-7.1-7.4-7.1h-4.6v14.2H1594.2z"/>
	<path class="st3" d="M1633.6,900.9v5.7h-20.8v-25.9h20.3v5.7h-13.1v4.4h11.5v5.5h-11.5v4.7H1633.6z"/>
	<path class="st3" d="M1635.9,904.2l2.4-5.4c2.3,1.5,5.5,2.6,8.5,2.6c3,0,4.2-0.9,4.2-2.1c0-4.1-14.7-1.1-14.7-10.7
		c0-4.6,3.8-8.4,11.5-8.4c3.4,0,6.8,0.8,9.4,2.3l-2.3,5.4c-2.5-1.3-4.9-2-7.2-2c-3.1,0-4.2,1-4.2,2.3c0,4,14.7,1,14.7,10.5
		c0,4.5-3.8,8.4-11.5,8.4C1642.5,907,1638.3,905.9,1635.9,904.2z"/>
</g>
<g>
	<path class="st2" d="M1146.8,563l2.4-5.4c2.3,1.5,5.5,2.6,8.5,2.6c3,0,4.2-0.9,4.2-2.1c0-4.1-14.7-1.1-14.7-10.7
		c0-4.6,3.8-8.4,11.5-8.4c3.4,0,6.8,0.8,9.4,2.3l-2.3,5.4c-2.5-1.3-4.9-2-7.2-2c-3.1,0-4.2,1-4.2,2.3c0,4,14.7,1,14.7,10.5
		c0,4.5-3.8,8.4-11.5,8.4C1153.5,565.8,1149.3,564.7,1146.8,563z"/>
	<path class="st2" d="M1189.9,560.3h-10.9l-2,5h-7.5l11.4-25.9h7.2l11.5,25.9h-7.6L1189.9,560.3z M1187.7,554.9l-3.3-8.3l-3.3,8.3
		H1187.7z"/>
	<path class="st2" d="M1226.2,539.4v25.9h-6l-11.4-13.8v13.8h-7.2v-25.9h6l11.4,13.8v-13.8H1226.2z"/>
	<path class="st2" d="M1249.5,545.1v5.7h11.4v5.7h-11.4v8.9h-7.3v-25.9h20.3v5.7H1249.5z"/>
	<path class="st2" d="M1286.7,559.7v5.7h-20.8v-25.9h20.3v5.7h-13.1v4.4h11.5v5.5h-11.5v4.7H1286.7z"/>
	<path class="st2" d="M1290.8,539.4h7.3v20.1h12.3v5.8h-19.7V539.4z"/>
	<path class="st2" d="M1313.3,539.4h7.3v25.9h-7.3V539.4z"/>
	<path class="st2" d="M1349.2,549c0,5.9-4.4,9.5-11.5,9.5h-4.5v6.8h-7.3v-25.9h11.8C1344.8,539.4,1349.2,543.1,1349.2,549z
		 M1341.8,549c0-2.4-1.5-3.8-4.5-3.8h-4.1v7.6h4.1C1340.3,552.8,1341.8,551.4,1341.8,549z"/>
	<path class="st2" d="M1373.5,559.7v5.7h-20.8v-25.9h20.3v5.7H1360v4.4h11.5v5.5H1360v4.7H1373.5z"/>
</g>
<g>
	<path class="st3" d="M1146.8,563l2.4-5.4c2.3,1.5,5.5,2.6,8.5,2.6c3,0,4.2-0.9,4.2-2.1c0-4.1-14.7-1.1-14.7-10.7
		c0-4.6,3.8-8.4,11.5-8.4c3.4,0,6.8,0.8,9.4,2.3l-2.3,5.4c-2.5-1.3-4.9-2-7.2-2c-3.1,0-4.2,1-4.2,2.3c0,4,14.7,1,14.7,10.5
		c0,4.5-3.8,8.4-11.5,8.4C1153.5,565.8,1149.3,564.7,1146.8,563z"/>
	<path class="st3" d="M1189.9,560.3h-10.9l-2,5h-7.5l11.4-25.9h7.2l11.5,25.9h-7.6L1189.9,560.3z M1187.7,554.9l-3.3-8.3l-3.3,8.3
		H1187.7z"/>
	<path class="st3" d="M1226.2,539.4v25.9h-6l-11.4-13.8v13.8h-7.2v-25.9h6l11.4,13.8v-13.8H1226.2z"/>
	<path class="st3" d="M1249.5,545.1v5.7h11.4v5.7h-11.4v8.9h-7.3v-25.9h20.3v5.7H1249.5z"/>
	<path class="st3" d="M1286.7,559.7v5.7h-20.8v-25.9h20.3v5.7h-13.1v4.4h11.5v5.5h-11.5v4.7H1286.7z"/>
	<path class="st3" d="M1290.8,539.4h7.3v20.1h12.3v5.8h-19.7V539.4z"/>
	<path class="st3" d="M1313.3,539.4h7.3v25.9h-7.3V539.4z"/>
	<path class="st3" d="M1349.2,549c0,5.9-4.4,9.5-11.5,9.5h-4.5v6.8h-7.3v-25.9h11.8C1344.8,539.4,1349.2,543.1,1349.2,549z
		 M1341.8,549c0-2.4-1.5-3.8-4.5-3.8h-4.1v7.6h4.1C1340.3,552.8,1341.8,551.4,1341.8,549z"/>
	<path class="st3" d="M1373.5,559.7v5.7h-20.8v-25.9h20.3v5.7H1360v4.4h11.5v5.5H1360v4.7H1373.5z"/>
</g>
<g>
	<path class="st2" d="M651.7,806c-1.7,2.1-4.3,3.3-7.2,3.3c-4.2,0-7-1.4-11.3-6c-6.8-1.1-11.5-6.4-11.5-13.2
		c0-7.8,6.1-13.5,14.4-13.5s14.4,5.7,14.4,13.5c0,5.9-3.5,10.6-8.8,12.5c1,1.1,1.9,1.5,3,1.5c1.4,0,2.8-0.6,3.9-1.8L651.7,806z
		 M636,797.5c3.9,0,7-2.9,7-7.4s-3.1-7.4-7-7.4s-7,2.9-7,7.4S632.1,797.5,636,797.5z"/>
	<path class="st2" d="M654,791.5v-14.3h7.3v14.1c0,4.4,1.8,6.2,4.9,6.2c3,0,4.9-1.8,4.9-6.2v-14.1h7.2v14.3
		c0,7.7-4.5,12.1-12.2,12.1C658.5,803.6,654,799.2,654,791.5z"/>
	<path class="st2" d="M683.3,777.2h7.3V803h-7.3V777.2z"/>
	<path class="st2" d="M695.8,777.2h7.3v20.1h12.3v5.8h-19.7V777.2z"/>
	<path class="st2" d="M718.4,777.2h7.3v20.1H738v5.8h-19.7V777.2z"/>
	<path class="st2" d="M739.2,790.1c0-7.8,6.1-13.5,14.4-13.5s14.4,5.7,14.4,13.5c0,7.8-6.1,13.5-14.4,13.5S739.2,797.9,739.2,790.1z
		 M760.6,790.1c0-4.5-3.1-7.4-7-7.4s-7,2.9-7,7.4s3.1,7.4,7,7.4S760.6,794.6,760.6,790.1z"/>
	<path class="st2" d="M776.9,783H769v-5.8h23.2v5.8h-7.9V803h-7.3V783z"/>
	<path class="st2" d="M811,798H800l-2,5h-7.5l11.4-25.9h7.2l11.5,25.9H813L811,798z M808.8,792.6l-3.3-8.3l-3.3,8.3H808.8z"/>
</g>
<g>
	<path class="st3" d="M651.7,806c-1.7,2.1-4.3,3.3-7.2,3.3c-4.2,0-7-1.4-11.3-6c-6.8-1.1-11.5-6.4-11.5-13.2
		c0-7.8,6.1-13.5,14.4-13.5s14.4,5.7,14.4,13.5c0,5.9-3.5,10.6-8.8,12.5c1,1.1,1.9,1.5,3,1.5c1.4,0,2.8-0.6,3.9-1.8L651.7,806z
		 M636,797.5c3.9,0,7-2.9,7-7.4s-3.1-7.4-7-7.4s-7,2.9-7,7.4S632.1,797.5,636,797.5z"/>
	<path class="st3" d="M654,791.5v-14.3h7.3v14.1c0,4.4,1.8,6.2,4.9,6.2c3,0,4.9-1.8,4.9-6.2v-14.1h7.2v14.3
		c0,7.7-4.5,12.1-12.2,12.1C658.5,803.6,654,799.2,654,791.5z"/>
	<path class="st3" d="M683.3,777.2h7.3V803h-7.3V777.2z"/>
	<path class="st3" d="M695.8,777.2h7.3v20.1h12.3v5.8h-19.7V777.2z"/>
	<path class="st3" d="M718.4,777.2h7.3v20.1H738v5.8h-19.7V777.2z"/>
	<path class="st3" d="M739.2,790.1c0-7.8,6.1-13.5,14.4-13.5s14.4,5.7,14.4,13.5c0,7.8-6.1,13.5-14.4,13.5S739.2,797.9,739.2,790.1z
		 M760.6,790.1c0-4.5-3.1-7.4-7-7.4s-7,2.9-7,7.4s3.1,7.4,7,7.4S760.6,794.6,760.6,790.1z"/>
	<path class="st3" d="M776.9,783H769v-5.8h23.2v5.8h-7.9V803h-7.3V783z"/>
	<path class="st3" d="M811,798H800l-2,5h-7.5l11.4-25.9h7.2l11.5,25.9H813L811,798z M808.8,792.6l-3.3-8.3l-3.3,8.3H808.8z"/>
</g>
<g>
	<path class="st2" d="M258.3,1289.2l-11.1,25.9h-7.2l-11.1-25.9h7.9l7,16.9l7.2-16.9H258.3z"/>
	<path class="st2" d="M276.2,1310h-10.9l-2,5h-7.5l11.4-25.9h7.2l11.5,25.9h-7.6L276.2,1310z M274.1,1304.6l-3.3-8.3l-3.3,8.3H274.1
		z"/>
	<path class="st2" d="M287.9,1289.2h7.3v20.1h12.3v5.8h-19.7V1289.2z"/>
	<path class="st2" d="M333.8,1298.7c0,5.9-4.4,9.5-11.5,9.5h-4.5v6.8h-7.3v-25.9h11.8C329.4,1289.2,333.8,1292.8,333.8,1298.7z
		 M326.4,1298.7c0-2.4-1.5-3.8-4.5-3.8h-4.1v7.6h4.1C324.9,1302.5,326.4,1301.1,326.4,1298.7z"/>
	<path class="st2" d="M353.4,1310h-10.9l-2,5H333l11.4-25.9h7.2l11.5,25.9h-7.6L353.4,1310z M351.3,1304.6l-3.3-8.3l-3.3,8.3H351.3z
		"/>
	<path class="st2" d="M376.5,1308.2h-4v6.9h-7.3v-25.9H377c7.1,0,11.5,3.7,11.5,9.6c0,3.8-1.8,6.6-5.1,8.2l5.6,8.1h-7.8
		L376.5,1308.2z M376.5,1294.9h-4.1v7.6h4.1c3,0,4.5-1.4,4.5-3.8C381.1,1296.3,379.6,1294.9,376.5,1294.9z"/>
	<path class="st2" d="M409.9,1310h-10.9l-2,5h-7.5l11.4-25.9h7.2l11.5,25.9h-7.6L409.9,1310z M407.7,1304.6l-3.3-8.3l-3.3,8.3H407.7
		z"/>
	<path class="st2" d="M421.6,1289.2h7.3v25.9h-7.3V1289.2z M426.6,1281.4h7l-7,5.6h-5L426.6,1281.4z"/>
	<path class="st2" d="M432.3,1312.7l2.4-5.4c2.3,1.5,5.5,2.6,8.5,2.6c3,0,4.2-0.9,4.2-2.1c0-4.1-14.7-1.1-14.7-10.7
		c0-4.6,3.8-8.4,11.5-8.4c3.4,0,6.8,0.8,9.4,2.3l-2.3,5.4c-2.5-1.3-4.9-2-7.2-2c-3.1,0-4.2,1-4.2,2.3c0,4,14.7,1,14.7,10.5
		c0,4.5-3.8,8.4-11.5,8.4C439,1315.5,434.7,1314.4,432.3,1312.7z"/>
	<path class="st2" d="M456.7,1302.1c0-7.8,6.1-13.5,14.4-13.5s14.4,5.7,14.4,13.5c0,7.8-6.1,13.5-14.4,13.5
		S456.7,1309.9,456.7,1302.1z M478.1,1302.1c0-4.5-3.1-7.4-7-7.4s-7,2.9-7,7.4s3.1,7.4,7,7.4S478.1,1306.6,478.1,1302.1z"/>
</g>
<g>
	<path class="st3" d="M258.3,1289.2l-11.1,25.9h-7.2l-11.1-25.9h7.9l7,16.9l7.2-16.9H258.3z"/>
	<path class="st3" d="M276.2,1310h-10.9l-2,5h-7.5l11.4-25.9h7.2l11.5,25.9h-7.6L276.2,1310z M274.1,1304.6l-3.3-8.3l-3.3,8.3H274.1
		z"/>
	<path class="st3" d="M287.9,1289.2h7.3v20.1h12.3v5.8h-19.7V1289.2z"/>
	<path class="st3" d="M333.8,1298.7c0,5.9-4.4,9.5-11.5,9.5h-4.5v6.8h-7.3v-25.9h11.8C329.4,1289.2,333.8,1292.8,333.8,1298.7z
		 M326.4,1298.7c0-2.4-1.5-3.8-4.5-3.8h-4.1v7.6h4.1C324.9,1302.5,326.4,1301.1,326.4,1298.7z"/>
	<path class="st3" d="M353.4,1310h-10.9l-2,5H333l11.4-25.9h7.2l11.5,25.9h-7.6L353.4,1310z M351.3,1304.6l-3.3-8.3l-3.3,8.3H351.3z
		"/>
	<path class="st3" d="M376.5,1308.2h-4v6.9h-7.3v-25.9H377c7.1,0,11.5,3.7,11.5,9.6c0,3.8-1.8,6.6-5.1,8.2l5.6,8.1h-7.8
		L376.5,1308.2z M376.5,1294.9h-4.1v7.6h4.1c3,0,4.5-1.4,4.5-3.8C381.1,1296.3,379.6,1294.9,376.5,1294.9z"/>
	<path class="st3" d="M409.9,1310h-10.9l-2,5h-7.5l11.4-25.9h7.2l11.5,25.9h-7.6L409.9,1310z M407.7,1304.6l-3.3-8.3l-3.3,8.3H407.7
		z"/>
	<path class="st3" d="M421.6,1289.2h7.3v25.9h-7.3V1289.2z M426.6,1281.4h7l-7,5.6h-5L426.6,1281.4z"/>
	<path class="st3" d="M432.3,1312.7l2.4-5.4c2.3,1.5,5.5,2.6,8.5,2.6c3,0,4.2-0.9,4.2-2.1c0-4.1-14.7-1.1-14.7-10.7
		c0-4.6,3.8-8.4,11.5-8.4c3.4,0,6.8,0.8,9.4,2.3l-2.3,5.4c-2.5-1.3-4.9-2-7.2-2c-3.1,0-4.2,1-4.2,2.3c0,4,14.7,1,14.7,10.5
		c0,4.5-3.8,8.4-11.5,8.4C439,1315.5,434.7,1314.4,432.3,1312.7z"/>
	<path class="st3" d="M456.7,1302.1c0-7.8,6.1-13.5,14.4-13.5s14.4,5.7,14.4,13.5c0,7.8-6.1,13.5-14.4,13.5
		S456.7,1309.9,456.7,1302.1z M478.1,1302.1c0-4.5-3.1-7.4-7-7.4s-7,2.9-7,7.4s3.1,7.4,7,7.4S478.1,1306.6,478.1,1302.1z"/>
</g>
<g>
	<path class="st2" d="M545,1189.3l-0.1-13.7l-6.7,11.2H535l-6.6-10.8v13.3h-6.8v-25.9h6l9.1,14.9l8.9-14.9h6l0.1,25.9H545z"/>
	<path class="st2" d="M574.3,1184.3h-10.9l-2,5h-7.5l11.4-25.9h7.2l11.5,25.9h-7.6L574.3,1184.3z M572.1,1178.9l-3.3-8.3l-3.3,8.3
		H572.1z"/>
	<path class="st2" d="M597.3,1182.4h-4v6.9H586v-25.9h11.8c7.1,0,11.5,3.7,11.5,9.6c0,3.8-1.8,6.6-5.1,8.2l5.6,8.1H602L597.3,1182.4
		z M597.4,1169.2h-4.1v7.6h4.1c3,0,4.5-1.4,4.5-3.8C601.9,1170.6,600.4,1169.2,597.4,1169.2z"/>
	<path class="st2" d="M630.7,1175.8h6.5v10.7c-3,2.1-7.1,3.3-10.9,3.3c-8.2,0-14.3-5.6-14.3-13.5c0-7.9,6-13.5,14.4-13.5
		c4.8,0,8.8,1.7,11.3,4.7l-4.7,4.2c-1.8-2-3.8-2.9-6.3-2.9c-4.4,0-7.4,2.9-7.4,7.4c0,4.4,3,7.4,7.3,7.4c1.4,0,2.7-0.3,4-0.9V1175.8z
		"/>
	<path class="st2" d="M659.2,1184.3h-10.9l-2,5h-7.5l11.4-25.9h7.2l11.5,25.9h-7.6L659.2,1184.3z M657,1178.9l-3.3-8.3l-3.3,8.3H657
		z"/>
	<path class="st2" d="M705,1189.3l-0.1-13.7l-6.7,11.2H695l-6.6-10.8v13.3h-6.8v-25.9h6l9.1,14.9l8.9-14.9h6l0.1,25.9H705z"/>
	<path class="st2" d="M734.3,1184.3h-10.9l-2,5h-7.5l11.4-25.9h7.2l11.5,25.9h-7.6L734.3,1184.3z M732.1,1178.9l-3.3-8.3l-3.3,8.3
		H732.1z"/>
	<path class="st2" d="M757.3,1182.4h-4v6.9H746v-25.9h11.8c7.1,0,11.5,3.7,11.5,9.6c0,3.8-1.8,6.6-5.1,8.2l5.6,8.1H762L757.3,1182.4
		z M757.4,1169.2h-4.1v7.6h4.1c3,0,4.5-1.4,4.5-3.8C761.9,1170.6,760.4,1169.2,757.4,1169.2z"/>
	<path class="st2" d="M790.7,1175.8h6.5v10.7c-3,2.1-7.1,3.3-10.9,3.3c-8.2,0-14.3-5.6-14.3-13.5c0-7.9,6-13.5,14.4-13.5
		c4.8,0,8.8,1.7,11.3,4.7l-4.7,4.2c-1.8-2-3.8-2.9-6.3-2.9c-4.4,0-7.4,2.9-7.4,7.4c0,4.4,3,7.4,7.3,7.4c1.4,0,2.7-0.3,4-0.9V1175.8z
		"/>
	<path class="st2" d="M819.2,1184.3h-10.9l-2,5h-7.5l11.4-25.9h7.2l11.5,25.9h-7.6L819.2,1184.3z M817,1178.9l-3.3-8.3l-3.3,8.3H817
		z"/>
</g>
<g>
	<path class="st3" d="M545,1189.3l-0.1-13.7l-6.7,11.2H535l-6.6-10.8v13.3h-6.8v-25.9h6l9.1,14.9l8.9-14.9h6l0.1,25.9H545z"/>
	<path class="st3" d="M574.3,1184.3h-10.9l-2,5h-7.5l11.4-25.9h7.2l11.5,25.9h-7.6L574.3,1184.3z M572.1,1178.9l-3.3-8.3l-3.3,8.3
		H572.1z"/>
	<path class="st3" d="M597.3,1182.4h-4v6.9H586v-25.9h11.8c7.1,0,11.5,3.7,11.5,9.6c0,3.8-1.8,6.6-5.1,8.2l5.6,8.1H602L597.3,1182.4
		z M597.4,1169.2h-4.1v7.6h4.1c3,0,4.5-1.4,4.5-3.8C601.9,1170.6,600.4,1169.2,597.4,1169.2z"/>
	<path class="st3" d="M630.7,1175.8h6.5v10.7c-3,2.1-7.1,3.3-10.9,3.3c-8.2,0-14.3-5.6-14.3-13.5c0-7.9,6-13.5,14.4-13.5
		c4.8,0,8.8,1.7,11.3,4.7l-4.7,4.2c-1.8-2-3.8-2.9-6.3-2.9c-4.4,0-7.4,2.9-7.4,7.4c0,4.4,3,7.4,7.3,7.4c1.4,0,2.7-0.3,4-0.9V1175.8z
		"/>
	<path class="st3" d="M659.2,1184.3h-10.9l-2,5h-7.5l11.4-25.9h7.2l11.5,25.9h-7.6L659.2,1184.3z M657,1178.9l-3.3-8.3l-3.3,8.3H657
		z"/>
	<path class="st3" d="M705,1189.3l-0.1-13.7l-6.7,11.2H695l-6.6-10.8v13.3h-6.8v-25.9h6l9.1,14.9l8.9-14.9h6l0.1,25.9H705z"/>
	<path class="st3" d="M734.3,1184.3h-10.9l-2,5h-7.5l11.4-25.9h7.2l11.5,25.9h-7.6L734.3,1184.3z M732.1,1178.9l-3.3-8.3l-3.3,8.3
		H732.1z"/>
	<path class="st3" d="M757.3,1182.4h-4v6.9H746v-25.9h11.8c7.1,0,11.5,3.7,11.5,9.6c0,3.8-1.8,6.6-5.1,8.2l5.6,8.1H762L757.3,1182.4
		z M757.4,1169.2h-4.1v7.6h4.1c3,0,4.5-1.4,4.5-3.8C761.9,1170.6,760.4,1169.2,757.4,1169.2z"/>
	<path class="st3" d="M790.7,1175.8h6.5v10.7c-3,2.1-7.1,3.3-10.9,3.3c-8.2,0-14.3-5.6-14.3-13.5c0-7.9,6-13.5,14.4-13.5
		c4.8,0,8.8,1.7,11.3,4.7l-4.7,4.2c-1.8-2-3.8-2.9-6.3-2.9c-4.4,0-7.4,2.9-7.4,7.4c0,4.4,3,7.4,7.3,7.4c1.4,0,2.7-0.3,4-0.9V1175.8z
		"/>
	<path class="st3" d="M819.2,1184.3h-10.9l-2,5h-7.5l11.4-25.9h7.2l11.5,25.9h-7.6L819.2,1184.3z M817,1178.9l-3.3-8.3l-3.3,8.3H817
		z"/>
</g>
<g>
	<path class="st2" d="M235.5,1668.8l2.4-5.4c2.3,1.5,5.5,2.6,8.5,2.6c3,0,4.2-0.9,4.2-2.1c0-4.1-14.7-1.1-14.7-10.7
		c0-4.6,3.8-8.4,11.5-8.4c3.4,0,6.8,0.8,9.4,2.3l-2.3,5.4c-2.5-1.3-4.9-2-7.2-2c-3.1,0-4.2,1-4.2,2.3c0,4,14.7,1,14.7,10.5
		c0,4.5-3.8,8.4-11.5,8.4C242.2,1671.6,237.9,1670.5,235.5,1668.8z"/>
	<path class="st2" d="M278.6,1666.1h-10.9l-2,5h-7.5l11.4-25.9h7.2l11.5,25.9h-7.6L278.6,1666.1z M276.4,1660.7l-3.3-8.3l-3.3,8.3
		H276.4z"/>
	<path class="st2" d="M314.9,1645.2v25.9h-6l-11.4-13.8v13.8h-7.2v-25.9h6l11.4,13.8v-13.8H314.9z"/>
	<path class="st2" d="M348.2,1666.1h-10.9l-2,5h-7.5l11.4-25.9h7.2l11.5,25.9h-7.6L348.2,1666.1z M346.1,1660.7l-3.3-8.3l-3.3,8.3
		H346.1z"/>
	<path class="st2" d="M384.5,1645.2v25.9h-6l-11.4-13.8v13.8h-7.2v-25.9h6l11.4,13.8v-13.8H384.5z"/>
	<path class="st2" d="M395.2,1651h-7.9v-5.8h23.2v5.8h-7.9v20.1h-7.3V1651z"/>
	<path class="st2" d="M411.5,1658.1c0-7.8,6.1-13.5,14.4-13.5s14.4,5.7,14.4,13.5c0,7.8-6.1,13.5-14.4,13.5
		S411.5,1665.9,411.5,1658.1z M432.9,1658.1c0-4.5-3.1-7.4-7-7.4s-7,2.9-7,7.4s3.1,7.4,7,7.4S432.9,1662.6,432.9,1658.1z"/>
	<path class="st2" d="M468.7,1645.2v25.9h-6l-11.4-13.8v13.8h-7.2v-25.9h6l11.4,13.8v-13.8H468.7z"/>
	<path class="st2" d="M473.9,1645.2h7.3v25.9h-7.3V1645.2z"/>
	<path class="st2" d="M485.1,1658.1c0-7.8,6.1-13.5,14.4-13.5s14.4,5.7,14.4,13.5c0,7.8-6.1,13.5-14.4,13.5
		S485.1,1665.9,485.1,1658.1z M506.5,1658.1c0-4.5-3.1-7.4-7-7.4s-7,2.9-7,7.4s3.1,7.4,7,7.4S506.5,1662.6,506.5,1658.1z"/>
</g>
<g>
	<path class="st3" d="M235.5,1668.8l2.4-5.4c2.3,1.5,5.5,2.6,8.5,2.6c3,0,4.2-0.9,4.2-2.1c0-4.1-14.7-1.1-14.7-10.7
		c0-4.6,3.8-8.4,11.5-8.4c3.4,0,6.8,0.8,9.4,2.3l-2.3,5.4c-2.5-1.3-4.9-2-7.2-2c-3.1,0-4.2,1-4.2,2.3c0,4,14.7,1,14.7,10.5
		c0,4.5-3.8,8.4-11.5,8.4C242.2,1671.6,237.9,1670.5,235.5,1668.8z"/>
	<path class="st3" d="M278.6,1666.1h-10.9l-2,5h-7.5l11.4-25.9h7.2l11.5,25.9h-7.6L278.6,1666.1z M276.4,1660.7l-3.3-8.3l-3.3,8.3
		H276.4z"/>
	<path class="st3" d="M314.9,1645.2v25.9h-6l-11.4-13.8v13.8h-7.2v-25.9h6l11.4,13.8v-13.8H314.9z"/>
	<path class="st3" d="M348.2,1666.1h-10.9l-2,5h-7.5l11.4-25.9h7.2l11.5,25.9h-7.6L348.2,1666.1z M346.1,1660.7l-3.3-8.3l-3.3,8.3
		H346.1z"/>
	<path class="st3" d="M384.5,1645.2v25.9h-6l-11.4-13.8v13.8h-7.2v-25.9h6l11.4,13.8v-13.8H384.5z"/>
	<path class="st3" d="M395.2,1651h-7.9v-5.8h23.2v5.8h-7.9v20.1h-7.3V1651z"/>
	<path class="st3" d="M411.5,1658.1c0-7.8,6.1-13.5,14.4-13.5s14.4,5.7,14.4,13.5c0,7.8-6.1,13.5-14.4,13.5
		S411.5,1665.9,411.5,1658.1z M432.9,1658.1c0-4.5-3.1-7.4-7-7.4s-7,2.9-7,7.4s3.1,7.4,7,7.4S432.9,1662.6,432.9,1658.1z"/>
	<path class="st3" d="M468.7,1645.2v25.9h-6l-11.4-13.8v13.8h-7.2v-25.9h6l11.4,13.8v-13.8H468.7z"/>
	<path class="st3" d="M473.9,1645.2h7.3v25.9h-7.3V1645.2z"/>
	<path class="st3" d="M485.1,1658.1c0-7.8,6.1-13.5,14.4-13.5s14.4,5.7,14.4,13.5c0,7.8-6.1,13.5-14.4,13.5
		S485.1,1665.9,485.1,1658.1z M506.5,1658.1c0-4.5-3.1-7.4-7-7.4s-7,2.9-7,7.4s3.1,7.4,7,7.4S506.5,1662.6,506.5,1658.1z"/>
</g>
<g>
	<path class="st2" d="M865.6,324.3c0,5.9-4.4,9.5-11.5,9.5h-4.5v6.8h-7.3v-25.9h11.8C861.1,314.7,865.6,318.3,865.6,324.3z
		 M858.2,324.3c0-2.4-1.5-3.8-4.5-3.8h-4.1v7.6h4.1C856.7,328,858.2,326.6,858.2,324.3z"/>
	<path class="st2" d="M889.9,334.9v5.7h-20.8v-25.9h20.3v5.7h-13.1v4.4h11.5v5.5h-11.5v4.7H889.9z"/>
	<path class="st2" d="M899.5,320.5h-7.9v-5.8h23.2v5.8h-7.9v20.1h-7.3V320.5z"/>
	<path class="st2" d="M915.8,327.6c0-7.8,6.1-13.5,14.4-13.5c8.3,0,14.4,5.7,14.4,13.5c0,7.8-6.1,13.5-14.4,13.5
		C921.9,341.1,915.8,335.4,915.8,327.6z M937.1,327.6c0-4.5-3.1-7.4-7-7.4c-3.9,0-7,2.9-7,7.4s3.1,7.4,7,7.4
		C934.1,335,937.1,332.1,937.1,327.6z"/>
	<path class="st2" d="M959.7,333.7h-4v6.9h-7.3v-25.9h11.8c7.1,0,11.5,3.7,11.5,9.6c0,3.8-1.8,6.6-5.1,8.2l5.6,8.1h-7.8L959.7,333.7
		z M959.8,320.4h-4.1v7.6h4.1c3,0,4.5-1.4,4.5-3.8C964.3,321.9,962.8,320.4,959.8,320.4z"/>
	<path class="st2" d="M974.4,327.6c0-7.9,6-13.5,14.2-13.5c4.8,0,8.6,1.7,11.1,4.9l-4.7,4.2c-1.6-2-3.6-3-6.1-3
		c-4.3,0-7.2,3-7.2,7.4c0,4.4,3,7.4,7.2,7.4c2.5,0,4.5-1.1,6.1-3l4.7,4.2c-2.5,3.1-6.4,4.9-11.1,4.9
		C980.4,341.1,974.4,335.5,974.4,327.6z"/>
	<path class="st2" d="M1019.9,335.5H1009l-2,5h-7.5l11.4-25.9h7.2l11.5,25.9h-7.6L1019.9,335.5z M1017.8,330.1l-3.3-8.3l-3.3,8.3
		H1017.8z"/>
</g>
<g>
	<path class="st3" d="M865.6,324.3c0,5.9-4.4,9.5-11.5,9.5h-4.5v6.8h-7.3v-25.9h11.8C861.1,314.7,865.6,318.3,865.6,324.3z
		 M858.2,324.3c0-2.4-1.5-3.8-4.5-3.8h-4.1v7.6h4.1C856.7,328,858.2,326.6,858.2,324.3z"/>
	<path class="st3" d="M889.9,334.9v5.7h-20.8v-25.9h20.3v5.7h-13.1v4.4h11.5v5.5h-11.5v4.7H889.9z"/>
	<path class="st3" d="M899.5,320.5h-7.9v-5.8h23.2v5.8h-7.9v20.1h-7.3V320.5z"/>
	<path class="st3" d="M915.8,327.6c0-7.8,6.1-13.5,14.4-13.5c8.3,0,14.4,5.7,14.4,13.5c0,7.8-6.1,13.5-14.4,13.5
		C921.9,341.1,915.8,335.4,915.8,327.6z M937.1,327.6c0-4.5-3.1-7.4-7-7.4c-3.9,0-7,2.9-7,7.4s3.1,7.4,7,7.4
		C934.1,335,937.1,332.1,937.1,327.6z"/>
	<path class="st3" d="M959.7,333.7h-4v6.9h-7.3v-25.9h11.8c7.1,0,11.5,3.7,11.5,9.6c0,3.8-1.8,6.6-5.1,8.2l5.6,8.1h-7.8L959.7,333.7
		z M959.8,320.4h-4.1v7.6h4.1c3,0,4.5-1.4,4.5-3.8C964.3,321.9,962.8,320.4,959.8,320.4z"/>
	<path class="st3" d="M974.4,327.6c0-7.9,6-13.5,14.2-13.5c4.8,0,8.6,1.7,11.1,4.9l-4.7,4.2c-1.6-2-3.6-3-6.1-3
		c-4.3,0-7.2,3-7.2,7.4c0,4.4,3,7.4,7.2,7.4c2.5,0,4.5-1.1,6.1-3l4.7,4.2c-2.5,3.1-6.4,4.9-11.1,4.9
		C980.4,341.1,974.4,335.5,974.4,327.6z"/>
	<path class="st3" d="M1019.9,335.5H1009l-2,5h-7.5l11.4-25.9h7.2l11.5,25.9h-7.6L1019.9,335.5z M1017.8,330.1l-3.3-8.3l-3.3,8.3
		H1017.8z"/>
</g>
<g>
	<g>
		<g>
			<path class="st4" d="M1617.8,748.7c0-40.5-32.8-73.3-73.3-73.3c-40.5,0-73.3,32.8-73.3,73.3c0,46.6,73.3,104.3,73.3,104.3
				S1617.8,795.3,1617.8,748.7z"/>
			<g>
				<path class="st5" d="M1544.5,675.4c-40.5,0-73.3,32.8-73.3,73.3c0,20.2,13.8,42.6,29.5,61.4l98.3-110.4
					C1585.5,684.8,1566.1,675.4,1544.5,675.4z"/>
				<path class="st6" d="M1500.7,810.1c20.4,24.5,43.8,42.9,43.8,42.9s73.3-57.7,73.3-104.3c0-18.9-7.1-36.1-18.9-49.1L1500.7,810.1
					z"/>
			</g>
			<g>
				<path class="st7" d="M1517.5,791.1c7.8,5,17,7.8,27,7.8c27.8,0,50.3-22.5,50.3-50.3c0-12-4.2-23.1-11.3-31.7L1517.5,791.1z"/>
				<path class="st8" d="M1544.5,698.3c-27.8,0-50.3,22.5-50.3,50.3c0,17.9,9.3,33.6,23.4,42.5l66.1-74.2
					C1574.3,705.5,1560.2,698.3,1544.5,698.3z"/>
			</g>
			<circle class="st3" cx="1544.5" cy="748.6" r="46.1"/>
			<path class="st9" d="M1598.9,699.6l-3.9,4.3c10.9,12.4,17,28.2,17,44.7c0,17.6-12.1,40.2-35.1,65.6
				c-13.1,14.5-26.3,26.1-32.5,31.2c-7.2-6.1-24.3-21-39.4-39.2c-0.2-0.2-0.4-0.4-0.6-0.7l-3.9,4.4c20.4,24.5,43.8,42.9,43.8,42.9
				s73.3-57.7,73.3-104.3C1617.8,729.8,1610.6,712.6,1598.9,699.6z"/>
			<path class="st10" d="M1476.9,748.7c0-37.3,30.3-67.6,67.6-67.6c19.1,0,37.4,8.1,50.2,22.3c0.1,0.2,0.3,0.3,0.4,0.5l3.9-4.3
				c-13.4-14.9-32.8-24.2-54.5-24.2c-40.5,0-73.3,32.8-73.3,73.3c0,20.2,13.8,42.6,29.5,61.4l3.9-4.4
				C1486.5,783.9,1476.9,764.2,1476.9,748.7z"/>
		</g>
	</g>
	<g>
		<path class="st11" d="M1563.1,745.9c0,15.8-9.8,24.8-24.1,24.8c-5,0-10-1.2-13.3-3.3l4.7-9.2c2.6,1.8,5.4,2.3,8.3,2.3
			c6.4,0,10.7-3.6,11.4-10.5c-2.5,2.1-5.9,3.3-10.1,3.3c-8.5,0-15.6-5.6-15.6-14.3c0-9.4,7.9-15.4,17.7-15.4
			C1554.9,723.6,1563.1,731.2,1563.1,745.9z M1549.3,738.4c0-3.4-2.5-5.7-6.3-5.7c-3.6,0-6.1,2.2-6.1,5.8c0,3.5,2.5,5.7,6.2,5.7
			S1549.3,741.8,1549.3,738.4z"/>
	</g>
</g>
<g>
	<g>
		<g>
			<path class="st4" d="M1514.8,377.7c0-40.5-32.8-73.3-73.3-73.3c-40.5,0-73.3,32.8-73.3,73.3c0,46.6,73.3,104.3,73.3,104.3
				S1514.8,424.3,1514.8,377.7z"/>
			<g>
				<path class="st5" d="M1441.5,304.4c-40.5,0-73.3,32.8-73.3,73.3c0,20.2,13.8,42.6,29.5,61.4l98.3-110.4
					C1482.5,313.8,1463.1,304.4,1441.5,304.4z"/>
				<path class="st6" d="M1397.7,439.1c20.4,24.5,43.8,42.9,43.8,42.9s73.3-57.7,73.3-104.3c0-18.9-7.1-36.1-18.9-49.1L1397.7,439.1
					z"/>
			</g>
			<g>
				<path class="st7" d="M1414.5,420.1c7.8,5,17,7.8,27,7.8c27.8,0,50.3-22.5,50.3-50.3c0-12-4.2-23.1-11.3-31.7L1414.5,420.1z"/>
				<path class="st8" d="M1441.5,327.3c-27.8,0-50.3,22.5-50.3,50.3c0,17.9,9.3,33.6,23.4,42.5l66.1-74.2
					C1471.3,334.5,1457.2,327.3,1441.5,327.3z"/>
			</g>
			<circle class="st3" cx="1441.5" cy="377.6" r="46.1"/>
			<path class="st9" d="M1495.9,328.6l-3.9,4.3c10.9,12.4,17,28.2,17,44.7c0,17.6-12.1,40.2-35.1,65.6
				c-13.1,14.5-26.3,26.1-32.5,31.2c-7.2-6.1-24.3-21-39.4-39.2c-0.2-0.2-0.4-0.4-0.6-0.7l-3.9,4.4c20.4,24.5,43.8,42.9,43.8,42.9
				s73.3-57.7,73.3-104.3C1514.8,358.8,1507.6,341.6,1495.9,328.6z"/>
			<path class="st10" d="M1373.9,377.7c0-37.3,30.3-67.6,67.6-67.6c19.1,0,37.4,8.1,50.2,22.3c0.1,0.2,0.3,0.3,0.4,0.5l3.9-4.3
				c-13.4-14.9-32.8-24.2-54.5-24.2c-40.5,0-73.3,32.8-73.3,73.3c0,20.2,13.8,42.6,29.5,61.4l3.9-4.4
				C1383.5,412.9,1373.9,393.2,1373.9,377.7z"/>
		</g>
	</g>
	<g>
		<path class="st11" d="M1439,353.5v45.2h-12.8v-35.4h-8.4v-9.9H1439z"/>
		<path class="st11" d="M1461.9,353.5v45.2h-12.8v-35.4h-8.4v-9.9H1461.9z"/>
	</g>
</g>
<g>
	<g>
		<g>
			<path class="st4" d="M1009.8,186.7c0-40.5-32.8-73.3-73.3-73.3s-73.3,32.8-73.3,73.3c0,46.6,73.3,104.3,73.3,104.3
				S1009.8,233.3,1009.8,186.7z"/>
			<g>
				<path class="st5" d="M936.5,113.4c-40.5,0-73.3,32.8-73.3,73.3c0,20.2,13.8,42.6,29.5,61.4l98.3-110.4
					C977.5,122.8,958.1,113.4,936.5,113.4z"/>
				<path class="st6" d="M892.7,248.1c20.4,24.5,43.8,42.9,43.8,42.9s73.3-57.7,73.3-104.3c0-18.9-7.1-36.1-18.9-49.1L892.7,248.1z"
					/>
			</g>
			<g>
				<path class="st7" d="M909.5,229.1c7.8,5,17,7.8,27,7.8c27.8,0,50.3-22.5,50.3-50.3c0-12-4.2-23.1-11.3-31.7L909.5,229.1z"/>
				<path class="st8" d="M936.5,136.3c-27.8,0-50.3,22.5-50.3,50.3c0,17.9,9.3,33.6,23.4,42.5l66.1-74.2
					C966.3,143.5,952.2,136.3,936.5,136.3z"/>
			</g>
			<circle class="st3" cx="936.5" cy="186.6" r="46.1"/>
			<path class="st9" d="M990.9,137.6l-3.9,4.3c10.9,12.4,17,28.2,17,44.7c0,17.6-12.1,40.2-35.1,65.6
				c-13.1,14.5-26.3,26.1-32.5,31.2c-7.2-6.1-24.3-21-39.4-39.2c-0.2-0.2-0.4-0.4-0.5-0.7l-3.9,4.4c20.4,24.5,43.8,42.9,43.8,42.9
				s73.3-57.7,73.3-104.3C1009.8,167.8,1002.6,150.6,990.9,137.6z"/>
			<path class="st10" d="M868.9,186.7c0-37.3,30.3-67.6,67.6-67.6c19.1,0,37.4,8.1,50.2,22.3c0.1,0.2,0.3,0.3,0.4,0.5l3.9-4.3
				c-13.4-14.9-32.8-24.2-54.5-24.2c-40.5,0-73.3,32.8-73.3,73.3c0,20.2,13.8,42.6,29.5,61.4l3.9-4.4
				C878.5,221.9,868.9,202.2,868.9,186.7z"/>
		</g>
	</g>
	<g>
		<path class="st11" d="M956.3,193.2c0,9.4-7.9,15.4-17.8,15.4c-12.7,0-20.9-7.6-20.9-22.3c0-15.8,9.8-24.8,24-24.8
			c5.1,0,10,1.2,13.3,3.3l-4.7,9.2c-2.6-1.8-5.4-2.3-8.3-2.3c-6.5,0-10.8,3.6-11.4,10.5c2.5-2.2,5.9-3.4,10.2-3.4
			C949.3,178.9,956.3,184.5,956.3,193.2z M943.9,193.8c0-3.5-2.5-5.7-6.2-5.7c-3.7,0-6.3,2.3-6.3,5.8c0,3.4,2.5,5.7,6.3,5.7
			C941.4,199.5,943.9,197.3,943.9,193.8z"/>
	</g>
</g>
<g>
	<g>
		<g>
			<path class="st4" d="M789.8,630.7c0-40.5-32.8-73.3-73.3-73.3s-73.3,32.8-73.3,73.3c0,46.6,73.3,104.3,73.3,104.3
				S789.8,677.3,789.8,630.7z"/>
			<g>
				<path class="st5" d="M716.5,557.4c-40.5,0-73.3,32.8-73.3,73.3c0,20.2,13.8,42.6,29.5,61.4l98.3-110.4
					C757.5,566.8,738.1,557.4,716.5,557.4z"/>
				<path class="st6" d="M672.7,692.1c20.4,24.5,43.8,42.9,43.8,42.9s73.3-57.7,73.3-104.3c0-18.9-7.1-36.1-18.9-49.1L672.7,692.1z"
					/>
			</g>
			<g>
				<path class="st7" d="M689.5,673.1c7.8,5,17,7.8,27,7.8c27.8,0,50.3-22.5,50.3-50.3c0-12-4.2-23.1-11.3-31.7L689.5,673.1z"/>
				<path class="st8" d="M716.5,580.3c-27.8,0-50.3,22.5-50.3,50.3c0,17.9,9.3,33.6,23.4,42.5l66.1-74.2
					C746.3,587.5,732.2,580.3,716.5,580.3z"/>
			</g>
			<circle class="st3" cx="716.5" cy="630.6" r="46.1"/>
			<path class="st9" d="M770.9,581.6l-3.9,4.3c10.9,12.4,17,28.2,17,44.7c0,17.6-12.1,40.2-35.1,65.6
				c-13.1,14.5-26.3,26.1-32.5,31.2c-7.2-6.1-24.3-21-39.4-39.2c-0.2-0.2-0.4-0.4-0.5-0.7l-3.9,4.4c20.4,24.5,43.8,42.9,43.8,42.9
				s73.3-57.7,73.3-104.3C789.8,611.8,782.6,594.6,770.9,581.6z"/>
			<path class="st10" d="M648.9,630.7c0-37.3,30.3-67.6,67.6-67.6c19.1,0,37.4,8.1,50.2,22.3c0.1,0.2,0.3,0.3,0.4,0.5l3.9-4.3
				c-13.4-14.9-32.8-24.2-54.5-24.2c-40.5,0-73.3,32.8-73.3,73.3c0,20.2,13.8,42.6,29.5,61.4l3.9-4.4
				C658.5,665.9,648.9,646.2,648.9,630.7z"/>
		</g>
	</g>
	<g>
		<path class="st11" d="M708,606.5v45.2h-12.8v-35.4h-8.4v-9.9H708z"/>
		<path class="st11" d="M747.1,637.2c0,8.1-6.1,15.4-19.7,15.4c-6.3,0-12.9-1.6-17.5-4.5l4.6-9.6c3.7,2.5,8.2,3.7,12.5,3.7
			c4.3,0,7.2-1.7,7.2-4.8c0-2.8-1.9-4.6-8.8-4.6h-12.3l2.3-26.4h28.8v9.9H726l-0.6,6.6h3C741.8,623,747.1,629.2,747.1,637.2z"/>
	</g>
</g>
<g>
	<g>
		<g>
			<path class="st4" d="M747.8,1028.7c0-40.5-32.8-73.3-73.3-73.3s-73.3,32.8-73.3,73.3c0,46.6,73.3,104.3,73.3,104.3
				S747.8,1075.3,747.8,1028.7z"/>
			<g>
				<path class="st5" d="M674.5,955.4c-40.5,0-73.3,32.8-73.3,73.3c0,20.2,13.8,42.6,29.5,61.4l98.3-110.4
					C715.5,964.8,696.1,955.4,674.5,955.4z"/>
				<path class="st6" d="M630.7,1090.1c20.4,24.5,43.8,42.9,43.8,42.9s73.3-57.7,73.3-104.3c0-18.9-7.1-36.1-18.9-49.1L630.7,1090.1
					z"/>
			</g>
			<g>
				<path class="st7" d="M647.5,1071.1c7.8,5,17,7.8,27,7.8c27.8,0,50.3-22.5,50.3-50.3c0-12-4.2-23.1-11.3-31.7L647.5,1071.1z"/>
				<path class="st8" d="M674.5,978.3c-27.8,0-50.3,22.5-50.3,50.3c0,17.9,9.3,33.6,23.4,42.5l66.1-74.2
					C704.3,985.5,690.2,978.3,674.5,978.3z"/>
			</g>
			<circle class="st3" cx="674.5" cy="1028.6" r="46.1"/>
			<path class="st9" d="M728.9,979.6l-3.9,4.3c10.9,12.4,17,28.2,17,44.7c0,17.6-12.1,40.2-35.1,65.6
				c-13.1,14.5-26.3,26.1-32.5,31.2c-7.2-6.1-24.3-21-39.4-39.2c-0.2-0.2-0.4-0.4-0.5-0.7l-3.9,4.4c20.4,24.5,43.8,42.9,43.8,42.9
				s73.3-57.7,73.3-104.3C747.8,1009.8,740.6,992.6,728.9,979.6z"/>
			<path class="st10" d="M606.9,1028.7c0-37.3,30.3-67.6,67.6-67.6c19.1,0,37.4,8.1,50.2,22.3c0.1,0.2,0.3,0.3,0.4,0.5l3.9-4.3
				c-13.4-14.9-32.8-24.2-54.5-24.2c-40.5,0-73.3,32.8-73.3,73.3c0,20.2,13.8,42.6,29.5,61.4l3.9-4.4
				C616.5,1063.9,606.9,1044.2,606.9,1028.7z"/>
		</g>
	</g>
	<g>
		<path class="st11" d="M663,1004.5v45.2h-12.8v-35.4h-8.4v-9.9H663z"/>
		<path class="st11" d="M705.6,1036.4c0,8.7-8,14.2-19.6,14.2s-19.6-5.6-19.6-14.2c0-4.7,2.4-8.2,6.5-10.5c-3-2.1-4.8-5.2-4.8-9.1
			c0-8,7.4-13.2,18-13.2s18,5.2,18,13.2c0,3.9-1.8,7-4.8,9.1C703.2,1028.2,705.6,1031.8,705.6,1036.4z M692.7,1036
			c0-3.5-2.7-5.6-6.8-5.6c-4.1,0-6.8,2.1-6.8,5.6c0,3.5,2.7,5.6,6.8,5.6C690,1041.6,692.7,1039.5,692.7,1036z M680.6,1017.3
			c0,3,2.1,4.7,5.4,4.7c3.2,0,5.4-1.7,5.4-4.7c0-3-2.3-4.8-5.4-4.8C682.8,1012.6,680.6,1014.3,680.6,1017.3z"/>
	</g>
</g>
<g>
	<g>
		<g>
			<path class="st4" d="M440.8,1158.7c0-40.5-32.8-73.3-73.3-73.3s-73.3,32.8-73.3,73.3c0,46.6,73.3,104.3,73.3,104.3
				S440.8,1205.3,440.8,1158.7z"/>
			<g>
				<path class="st5" d="M367.5,1085.4c-40.5,0-73.3,32.8-73.3,73.3c0,20.2,13.8,42.6,29.5,61.4l98.3-110.4
					C408.5,1094.8,389.1,1085.4,367.5,1085.4z"/>
				<path class="st6" d="M323.7,1220.1c20.4,24.5,43.8,42.9,43.8,42.9s73.3-57.7,73.3-104.3c0-18.9-7.1-36.1-18.9-49.1L323.7,1220.1
					z"/>
			</g>
			<g>
				<path class="st7" d="M340.5,1201.1c7.8,5,17,7.8,27,7.8c27.8,0,50.3-22.5,50.3-50.3c0-12-4.2-23.1-11.3-31.7L340.5,1201.1z"/>
				<path class="st8" d="M367.5,1108.3c-27.8,0-50.3,22.5-50.3,50.3c0,17.9,9.3,33.6,23.4,42.5l66.1-74.2
					C397.3,1115.5,383.2,1108.3,367.5,1108.3z"/>
			</g>
			<circle class="st3" cx="367.5" cy="1158.6" r="46.1"/>
			<path class="st9" d="M421.9,1109.6l-3.9,4.3c10.9,12.4,17,28.2,17,44.7c0,17.6-12.1,40.2-35.1,65.6
				c-13.1,14.5-26.3,26.1-32.5,31.2c-7.2-6.1-24.3-21-39.4-39.2c-0.2-0.2-0.4-0.4-0.5-0.7l-3.9,4.4c20.4,24.5,43.8,42.9,43.8,42.9
				s73.3-57.7,73.3-104.3C440.8,1139.8,433.6,1122.6,421.9,1109.6z"/>
			<path class="st10" d="M299.9,1158.7c0-37.3,30.3-67.6,67.6-67.6c19.1,0,37.4,8.1,50.2,22.3c0.1,0.2,0.3,0.3,0.4,0.5l3.9-4.3
				c-13.4-14.9-32.8-24.2-54.5-24.2c-40.5,0-73.3,32.8-73.3,73.3c0,20.2,13.8,42.6,29.5,61.4l3.9-4.4
				C309.5,1193.9,299.9,1174.2,299.9,1158.7z"/>
		</g>
	</g>
	<g>
		<path class="st11" d="M367.6,1169.6v10.1h-35.2v-8l16.9-15.8c3.6-3.4,4.1-5.4,4.1-7.3c0-2.9-1.9-4.7-5.8-4.7
			c-3.3,0-6.3,1.5-8.1,4.4l-9.5-5.3c3.4-5.7,9.8-9.4,18.7-9.4c10.4,0,17.6,5.4,17.6,13.8c0,4.4-1.2,8.4-7.7,14.3l-8.5,7.9H367.6z"/>
		<path class="st11" d="M403,1169.6v10.1h-35.2v-8l16.9-15.8c3.6-3.4,4.1-5.4,4.1-7.3c0-2.9-1.9-4.7-5.8-4.7c-3.3,0-6.3,1.5-8.1,4.4
			l-9.5-5.3c3.4-5.7,9.8-9.4,18.7-9.4c10.4,0,17.6,5.4,17.6,13.8c0,4.4-1.2,8.4-7.7,14.3l-8.5,7.9H403z"/>
	</g>
</g>
<g>
	<g>
		<g>
			<path class="st4" d="M384.8,1770.7c0-40.5-32.8-73.3-73.3-73.3s-73.3,32.8-73.3,73.3c0,46.6,73.3,104.3,73.3,104.3
				S384.8,1817.3,384.8,1770.7z"/>
			<g>
				<path class="st5" d="M311.5,1697.4c-40.5,0-73.3,32.8-73.3,73.3c0,20.2,13.8,42.6,29.5,61.4l98.3-110.4
					C352.5,1706.8,333.1,1697.4,311.5,1697.4z"/>
				<path class="st6" d="M267.7,1832.1c20.4,24.5,43.8,42.9,43.8,42.9s73.3-57.7,73.3-104.3c0-18.9-7.1-36.1-18.9-49.1L267.7,1832.1
					z"/>
			</g>
			<g>
				<path class="st7" d="M284.5,1813.1c7.8,5,17,7.8,27,7.8c27.8,0,50.3-22.5,50.3-50.3c0-12-4.2-23.1-11.3-31.7L284.5,1813.1z"/>
				<path class="st8" d="M311.5,1720.3c-27.8,0-50.3,22.5-50.3,50.3c0,17.9,9.3,33.6,23.4,42.5l66.1-74.2
					C341.3,1727.5,327.2,1720.3,311.5,1720.3z"/>
			</g>
			<circle class="st3" cx="311.5" cy="1770.6" r="46.1"/>
			<path class="st9" d="M365.9,1721.6l-3.9,4.3c10.9,12.4,17,28.2,17,44.7c0,17.6-12.1,40.2-35.1,65.6
				c-13.1,14.5-26.3,26.1-32.5,31.2c-7.2-6.1-24.3-21-39.4-39.2c-0.2-0.2-0.4-0.4-0.5-0.7l-3.9,4.4c20.4,24.5,43.8,42.9,43.8,42.9
				s73.3-57.7,73.3-104.3C384.8,1751.8,377.6,1734.6,365.9,1721.6z"/>
			<path class="st10" d="M243.9,1770.7c0-37.3,30.3-67.6,67.6-67.6c19.1,0,37.4,8.1,50.2,22.3c0.1,0.2,0.3,0.3,0.4,0.5l3.9-4.3
				c-13.4-14.9-32.8-24.2-54.5-24.2c-40.5,0-73.3,32.8-73.3,73.3c0,20.2,13.8,42.6,29.5,61.4l3.9-4.4
				C253.5,1805.9,243.9,1786.2,243.9,1770.7z"/>
		</g>
	</g>
	<g>
		<path class="st11" d="M303,1746.5v45.2h-12.8v-35.4h-8.4v-9.9H303z"/>
		<path class="st11" d="M341.5,1781.6v10.1h-35.2v-8l16.9-15.8c3.6-3.4,4.1-5.4,4.1-7.3c0-2.9-1.9-4.7-5.8-4.7
			c-3.3,0-6.3,1.5-8.1,4.4l-9.5-5.3c3.4-5.7,9.8-9.4,18.7-9.4c10.4,0,17.6,5.4,17.6,13.8c0,4.4-1.2,8.4-7.7,14.3l-8.5,7.9H341.5z"/>
	</g>
</g>
</svg>
