<?xml version="1.0" encoding="utf-8"?>
<!-- Generator: Adobe Illustrator 24.0.0, SVG Export Plug-In . SVG Version: 6.00 Build 0)  -->
<svg version="1.1" id="Capa_1" xmlns="http://www.w3.org/2000/svg" xmlns:xlink="http://www.w3.org/1999/xlink" x="0px" y="0px"
	 viewBox="0 0 1920 2314" style="enable-background:new 0 0 1920 2314;" xml:space="preserve">
<style type="text/css">
	.st0{fill:#BFBFBF;stroke:#000000;stroke-width:0.25;stroke-miterlimit:10;}
	.st1{fill:#8E8E8E;}
	.st2{fill:#D4353F;}
	.st3{fill:#FF6D00;}
	.st4{fill:#FF8500;}
	.st5{fill:#D7D9D9;}
	.st6{fill:#C5C7C8;}
	.st7{fill:#FFFFFF;}
	.st8{fill:none;}
	.st9{opacity:0.4;fill:#D4353F;enable-background:new    ;}
	.st10{stroke:#000000;stroke-width:6;stroke-miterlimit:10;}
	.st11{fill:#444444;}
</style>
<path class="st0" d="M987.9,152.9c-2.6,31.4-10.5,62.2-11.8,93.6c-1.1,27.6,1.6,55.6-1.7,83.1c-2.8,23.8-11.4,46.3-21.7,67.8
	c-18.9,39.5-44.7,76.3-57.8,118.4c-10,32-8.3,65.3-5.5,99.2c1.1,13,1.2,28,7.8,39.6c8.9,15.6,24.4,26.8,38.7,37.1
	c15.5,11.1,31.7,21.6,45.8,34.6s25.7,30.1,35.2,46.7c5.1,8.9,9.3,18.4,11.5,28.4c2,9,0.6,18.3-0.1,27.4c-0.5,6.6-2.1,17.4,4.6,21.2
	c4.3,2.4,10.5,2.1,15.2,1.9c16.3-0.5,32.7-5.4,47.9-11c10.8-4,26.3-9.3,34.1-18.4c6.6-7.7,5.7-20.7,5.7-30.2c0-9.8-0.7-20.1,2-29.7
	c5.6-20.4,26.2-34.1,41.1-47.4c34.9-31.3,50-77.6,71.7-117.8c3.1-5.7,10.6-5.8,15-1.9c18.2,16.1,38.7-1.3,54.4-12.6
	c14.3-10.2,29.6-20.9,46.5-25.3c-3.8-17.2-5.8-34.9-5.3-53.3c0.5-21-5.8-39.9-21.8-53.6c-9.4-8-16.1-16.6-20.7-25.8
	c-30.1,0.1-60-2.7-86.8-16.5c-14.4-7.4-26.8-18.6-34.1-33.1c-6.6-13.1-9.4-27.5-12.5-41.7c-3.8-16.8-9.2-31.7-17.9-46.6
	c-9.1-15.6-19.4-30.6-27.9-46.6c-7.9-14.9-13.6-30.5-15.7-47.3c-2.6-20.5,0.9-40.7,5.2-60.7c3.3-15.6,7.1-31.6,5.6-47.6
	c-1.5-15.6-9.2-28.8-18.9-40.5c-41.5,24.6-83,49.4-125.7,71.5C989.5,128.1,988.9,140.5,987.9,152.9z"/>
<path class="st0" d="M1697.1,811.5c-16-15.2-31.9-30.6-46.4-47.2c-10.8-12.4-22.6-14.7-38-11.8c-39.9,7.6-79.8,15.5-120,20.7
	c-18.4,2.4-38.3,1.5-56.3-3c-47.4-11.7-45.9-12.7-41.3-62.2c2.3-24.8,6.6-53.3-2.6-74.6c-8.2-19-15.6-37.8-21.2-57.1
	c-37.9,10.4-71.2,60.7-109,39.9c-10.8,21.2-20.3,43.1-32.2,63.8c-13.4,23.3-29.8,41.8-50,59.2c-8.8,7.6-20.2,17-23.8,28.5
	c-3.6,11.2-0.8,24.6-1.5,36.2c-0.7,11.1-2.9,23.9-11.1,32.2c-4.9,5-11.3,8.8-17.4,12.1c-9.9,5.3-20.4,9.8-31.2,13.4
	c-4.3,31.7-10.2,63.1-15.6,94.6c-2.5,14.9-5.8,30-6.1,45.2c-0.3,15.3,1.3,30.5,3.5,45.6c3.6,25.2,6.6,50.6,10.3,75.7
	c1.8,12.3,4.6,26.8,14.9,34.9c9.3,7.3,22.3,9.4,33.4,12.1c18.7,4.5,36.5,9.1,53.5,18.6c35.6,20,64.4,52,85.7,86.4
	c14.5,23.5,26.4,49.7,32.5,77c3.4-1.4,6.8-2.8,10.2-4.2c83-34.1,166.1-68.1,249.5-101.3c15.6-6.2,23.6-15.7,28.1-31.4
	c36.3-124.4,73-248.7,110.1-372.9C1708.8,829.1,1706.4,820.4,1697.1,811.5z"/>
<path class="st0" d="M589.8,756.1c16.9-14.1,16.2-48.4,14.7-67.6c-1.4-18.5-5-36.9-10.2-54.7c-3.4-11.6-7.3-23.7-13.6-34.2
	c-13.5,11.6-29.8,20.1-43.2,31.9c-19.7,17.3-39.5,34.8-61.2,49.7c-1.6,1.1-3.2,2.1-4.8,3.2c-3.7,26.4-8.3,52.9-8.3,79.3
	c0,31.8-7.5,56.1-34.9,74.7c-11.7,7.9-19,12.4-31.3,3c-4.7-3.6-16-6.1-18.5-3.5c-6.4,6.6-10.7,16.1-13.6,25.1
	c-1.8,5.5,2.5,13.1,0.6,18.5c-9.2,25.9-11.4,52.2-11.3,78.7c1.7,0,3.5,0,5.3-0.2c15.5-1.6,30.2-8.4,44.9-13
	c30.8-9.7,63.4-3.5,94.4-12.6c21.3-6.3,39-19,49.4-38.9c19.4-37,13.7-83.2,15.5-123.4c0.2-5.4,4.2-9.2,9.5-9.5
	c4.4-0.3,8.1-1.3,11.4-3C586,757.8,587.7,756.5,589.8,756.1z"/>
<path class="st1" d="M944.7,1851.2c17.5-12.4,21.3-28.5,15.7-48.3c-19-13.5-36.4-29.5-51.5-46.8c-23.7-27.1-43.9-59.6-48-96
	c-1.6-14.4-0.9-30.2,5.6-43.3c4.7-9.5,12.7-15.6,20.9-21.8c7.4-5.6,15-12.6,17-22.2c2.2-10.6-1.7-23.5-4.6-33.5
	c-2.8-9.8-6.2-23-13.6-30.5c-6.1-6.2-16.7-8.7-24.9-10.7c-26.7-6.5-54.9-7.3-82.3-8c-64.1-1.7-128-4.7-192.1-6
	c-71.2-1.5-143.7-4.9-211.8-26.6c-0.1,25.7,3.2,50.7,12.3,75.5c4.9,13.3,9.2,27.1,11.8,41c2.4,12.9,2.1,26.4,3,39.6
	c1.5,20.1,2.8,40.3,4.5,60.4c3.7,43.8,8.6,87.5-17.3,127.5c-26.3,40.7-51.2,82.3-77.3,123c-7.4,11.5-8,21-1.8,33.5
	c10.9,22.2,19.5,45.6,29.2,68.4c2.8,6.5,4.9,14.2,9.8,18.6c3.3,3,12.6,3.9,16.4,1.4c18.1-11.9,35.4-24.9,52.7-38.1
	c30.5-23.3,62.4-25.3,97.7-11.1c14.7,5.9,34.3,12.1,47.3,7c24.9-9.9,47-12.8,74-8.6c33.3,5.2,68.2,1.2,102.4,0.1
	c10.4-0.3,22.9-1.3,30.5-7.1c17.7-13.5,37-17.9,58.1-17.2c40.2,1.2,75.7-9.7,104-39.5c1.9-2,4.4-3.6,6.6-5.4
	c23-18.5,23.3-18.7,5.5-43C936.6,1872.4,929.8,1861.8,944.7,1851.2z"/>
<path class="st0" d="M1242.4,1261.4c-24.8-32.3-57-59.7-97-69.7c-19.4-4.9-41.9-8.1-57.1-21.2c-30.7,1.7-61.6-1.2-90.6-12
	c-14.1-5.2-27.7-11.9-40.6-19.7c-11.9-7.2-22.5-16.7-33.9-24.8c-14.5-10.2-29.6-19-47-22.8c-21.9-4.8-44.9-2.5-67-0.8
	c-57,4.2-118.3,14.8-174.6,0.1c-14.5-3.8-28.2-10.6-37.2-23c-10-13.8-12.7-31.6-14.2-48.2c-4.3-46.3,14.4-99.2-8.1-141.9
	c-3.5,13.8-8.7,27.1-17.2,38.7c-15.9,21.9-40,34.2-66.1,39.7c-16.4,3.5-32.9,3.2-49.5,4c-18.9,0.9-35.5,6.7-53.3,12.5
	c-11,3.6-22.6,6.9-34.3,7c0.4,11.7,1,23.4,1.4,35.2c0.6,16.8,9.1,20.6,22,12c20.4-13.6,37.3-4.4,52.5,7.7c15.2,12.3,1.5,26.4-1.9,39
	c-10.8,40.5-28,80.1-33.1,121.2c-9.6,76.9-11.1,154.8-18.5,232c-0.4,3.9-0.7,7.7-0.9,11.5c79.8,26.3,165.1,26.4,248.5,28
	c34.8,0.7,69.5,3.2,104.2,4.3c26.4,0.9,52.9,0.6,79.3,2.1c25.3,1.5,52.8,3.2,76.3,13.4c21.7,9.4,29.5,31.4,35.1,53.1
	c6.1,23.8,7,46.8-12.4,64.8c-6.6,6.2-15.4,10.4-21,17.7c-8.3,10.7-7.8,27.4-6,40.1c4.7,33,25,62.7,47.1,86.7
	c11.2,12.2,23.5,23.5,36.7,33.7c22.1,0,42.2,0.2,62.3-0.1c9.1-0.1,20,1.7,27.1-2.5c38.3-22.2,81.7-39.4,96.4-87.9
	c4.3-14.3,13.5-24.5,29.5-27.6c14-2.7,17.4-10.6,13-25.1c-10.3-33.9-23-65.9-50.9-89.5c-13.4-11.3-12.9-22.2-4.3-37
	c14.9-25.9,26.4-53.7,41.4-79.5c4.4-7.6,15.2-14.6,24-15.8c15.5-2.1,26.5-7.1,34.2-21.3c4.2-7.7,11-15.5,18.6-19.5
	c11.2-5.9,22.6-11.3,34.1-16.4C1282.2,1323.7,1264.1,1289.7,1242.4,1261.4z"/>
<path class="st0" d="M611,761.6c46.7,11.9,96.3,5.9,141.5-10.3c48.8-17.5,95.5-48.2,126.3-90.5c-1.3-2.7-2.4-5.4-3.3-8.3
	c-4.2-14.1-4.8-29.8-5.8-44.4c-2.5-36-2.8-71,9.4-105.5c15.3-43.2,41.9-81,60.7-122.6c9.5-21.1,15.7-42.8,16.7-65.9
	c1.2-27.1-1-54.3,1.3-81.4c2.5-29.2,9.4-57.7,11.5-87c0.5-6.7,0.8-13.5,1.1-20.2c-12.4,6.1-25,12-37.7,17.5
	c-56.8,24.8-108.2,52.3-148.8,99c-8.1,9.4-18.1,17.1-29.2,27.5c-9-17.2-16-31.8-24.2-45.8c-3.8-6.5-8.8-14.7-15-16.9
	c-22.7-7.7-45.7-14-69-17.5c0.7,22.3,0.6,44.7-0.1,67c-0.5,14.6-0.4,29.7-2.7,44.2c-2.1,13.3-7.1,25.9-11,38.8
	c-2.1,6.9-6.1,16.4-1.9,21.9c6,7.9,13.7,14.6,20.4,21.9c15.4,16.8,25.2,36.5,29.4,59c3.9,21,1.5,51.3-21.1,61.2
	c-8.3,3.7-17,2.3-25.7,3.2c-10.3,1-20.1,9.6-23.2,19.4c-2.7,8.8-0.6,18.7-2.1,27.8c-1.8,11.3-7.5,22.4-14.3,31.6
	c8.1,11.6,13,25.7,17.2,39.1C621.6,657.3,635.3,727.2,611,761.6z"/>
<path class="st1" d="M1054.7,1018.3c-1.6-26.3,3.7-51.8,8.2-77.6c4.3-24.5,8.7-49,12.3-73.6c-14.2,3.3-30.2,6.1-44.4,2.2
	c-16.6-4.5-22.2-19.3-21.8-35.4c0.3-10.6,2.7-21.2-0.1-31.6c-2.7-10-7.4-18.6-13-27.4c-10.9-17.1-22.9-32.3-39-44.8
	c-16.2-12.7-33.8-23.5-49.8-36.6c-5.9-4.8-11.8-10.2-17-16.2c-12.9,16.5-27.8,31.1-44.3,44c-68.6,53.5-167,83.1-252,55
	c-3.4,1.6-7,2.9-11.1,3.8c-0.7,23.9-0.1,47.8-3,71.6c0,0.4-0.1,0.8-0.1,1.1c1.9,0.6,3.7,1.7,5.2,3.7c36.2,48.9,11.9,110.9,18,166.1
	c1.5,13.4,4.2,29,14.6,38.6c11.1,10.1,28.1,12.6,42.3,14.6c59.5,8.2,119.8-4.9,179.3-6.4c18.5-0.5,37.5,0.7,55,6.9
	c17.6,6.3,33,16.6,47.9,27.7c21.4,15.9,42.4,30.2,68,38.5c21.2,6.9,43,9.4,65.1,9.2c-6.7-16-7.3-33.6-9.3-50.7
	C1062.5,1073.5,1056.4,1046.2,1054.7,1018.3z"/>
<path class="st1" d="M474.8,659c0.8-0.6,1.5-1.1,2.3-1.7c23.4-17.4,43.3-39.7,67.5-55.8c19.1-12.6,39.9-25.1,45-49.5
	c1.8-8.6,0.3-17.6,1.7-26.3c1.8-10.8,7.8-19.9,16-27c7.9-6.8,16.1-10.5,26.5-11.2c7.7-0.6,16.8,1.6,22.4-5
	c15.4-18.3,4.3-50-5.2-68.4c-8.7-16.9-25.8-27.8-36.7-43.2c-11-15.4,0.7-38.5,5.7-54.3c7.8-24.9,7.4-51.2,7.8-77
	c0.3-17.4,0.2-34.9-0.4-52.3c-18.6-1.4-37.4-0.6-56.5,3c-6,1.1-13.8,6.4-16.1,11.8c-15.4,35.2-35.4,69.7-42.9,106.7
	c-17.2,84.9-32.5,170.4-28.3,258.3C484.9,597.6,478.6,628.4,474.8,659z"/>
<path class="st1" d="M1152.3,75.4c3.2,17.4,0.6,34.7-2.8,51.8c-3.9,19.2-8.6,38.1-7.4,57.9c1,16.6,6.6,32.1,14.4,46.6
	c16.4,30.4,37.7,57,45.9,91.2c3.2,13.6,5.1,28,11,40.8c7,15.3,20.3,25.4,35.7,31.6c19.9,8,41.4,10.3,63.1,10.6
	c-3-14.3-2.5-29.7,0-46c1.8-11.6,0-26.9-6.4-36.1c-26.8-38.6-37.1-80.5-34.6-126.8c2.2-41.8-8.2-79.6-37.3-111.9
	c-15.1-16.8-26.3-37.2-39.3-55.9c-16.8-24.1-16.2-21.7-41.3-7.1c-7,4.1-14,8.2-21,12.3C1141.8,46.5,1149.4,60,1152.3,75.4z"/>
<g>
	<g>
		<g>
			<path class="st2" d="M812.7,1210.3c0-27.9-22.6-50.6-50.6-50.6s-50.6,22.6-50.6,50.6c0,32.1,50.6,72,50.6,72
				S812.7,1242.5,812.7,1210.3z"/>
			<g>
				<path class="st3" d="M762.1,1159.8c-27.9,0-50.6,22.6-50.6,50.6c0,13.9,9.5,29.4,20.4,42.4l67.8-76.2
					C790.4,1166.2,777,1159.8,762.1,1159.8z"/>
				<path class="st4" d="M731.9,1252.7c14.1,16.9,30.2,29.6,30.2,29.6s50.6-39.8,50.6-72c0-13-4.9-24.9-13-33.9L731.9,1252.7z"/>
			</g>
			<g>
				<path class="st5" d="M743.5,1239.6c5.4,3.4,11.7,5.4,18.6,5.4c19.2,0,34.7-15.5,34.7-34.7c0-8.3-2.9-15.9-7.8-21.9L743.5,1239.6
					z"/>
				<path class="st6" d="M762.1,1175.6c-19.2,0-34.7,15.5-34.7,34.7c0,12.3,6.4,23.2,16.1,29.3l45.6-51.2
					C782.7,1180.5,772.9,1175.6,762.1,1175.6z"/>
			</g>
			<circle class="st7" cx="762.1" cy="1210.3" r="31.8"/>
			<path class="st8" d="M799.6,1176.5l-2.7,3c7.5,8.6,11.7,19.5,11.7,30.8c0,12.1-8.3,27.7-24.2,45.3c-9,10-18.1,18-22.4,21.5
				c-5-4.2-16.8-14.5-27.2-27c-0.1-0.1-0.3-0.3-0.4-0.5l-2.7,3c14.1,16.9,30.2,29.6,30.2,29.6s50.6-39.8,50.6-72
				C812.7,1197.3,807.7,1185.4,799.6,1176.5z"/>
			<path class="st9" d="M715.5,1210.3c0-25.7,20.9-46.6,46.6-46.6c13.2,0,25.8,5.6,34.6,15.4c0.1,0.1,0.2,0.2,0.3,0.3l2.7-3
				c-9.2-10.3-22.6-16.7-37.6-16.7c-27.9,0-50.6,22.6-50.6,50.6c0,13.9,9.5,29.4,20.4,42.4l2.7-3
				C722.1,1234.6,715.5,1221,715.5,1210.3z"/>
		</g>
	</g>
</g>
<g>
	<path class="st10" d="M621.2,1347.4h-11.9l-2.1,5.5h-10.7l13.8-31.4h10.4l13.8,31.4h-10.9L621.2,1347.4z M618.3,1339.7l-3.1-7.9
		l-3.1,7.9H618.3z"/>
	<path class="st10" d="M666.9,1321.4v31.4h-8.6l-11.9-14.3v14.3h-10.4v-31.4h8.6l11.9,14.3v-14.3H666.9z"/>
	<path class="st10" d="M678.9,1329.6h-9.1v-8.3h29v8.3h-9.1v23.1H679v-23.1H678.9z"/>
	<path class="st10" d="M699.6,1337.1c0-9.5,7.4-16.4,17.8-16.4c10.4,0,17.8,6.9,17.8,16.4s-7.4,16.4-17.8,16.4
		C707,1353.5,699.6,1346.7,699.6,1337.1z M724.4,1337.1c0-4.8-3.1-7.8-7.1-7.8c-4,0-7.1,2.9-7.1,7.8c0,4.8,3.1,7.8,7.1,7.8
		C721.3,1344.8,724.4,1342.1,724.4,1337.1z"/>
	<path class="st10" d="M749.4,1329.5v5.3h13.1v7.9h-13.1v10h-10.5v-31.4h25.5v7.9h-15V1329.5z"/>
	<path class="st10" d="M788.1,1347.4h-11.9l-2.1,5.5h-10.7l13.8-31.4h10.4l13.8,31.4h-10.9L788.1,1347.4z M785.2,1339.7l-3.1-7.9
		l-3.1,7.9H785.2z"/>
	<path class="st10" d="M823.1,1336.2h9.1v13.3c-3.8,2.6-9,4-13.6,4c-10.2,0-17.6-6.7-17.6-16.4c0-9.7,7.4-16.4,17.8-16.4
		c6.2,0,11.2,2.1,14.3,6l-6.7,6c-1.9-2.2-4.3-3.5-7.1-3.5c-4.7,0-7.6,2.9-7.6,7.8c0,4.7,2.9,7.8,7.4,7.8c1.4,0,2.6-0.2,3.8-0.7v-7.9
		H823.1z"/>
	<path class="st10" d="M858.3,1347.4h-11.9l-2.1,5.5h-10.7l13.8-31.4h10.4l13.8,31.4h-10.9L858.3,1347.4z M855.4,1339.7l-3.1-7.9
		l-3.1,7.9H855.4z"/>
	<path class="st10" d="M871.1,1350.4l3.5-7.8c2.9,1.7,6.9,2.9,10.4,2.9c2.9,0,4.1-0.7,4.1-1.7c0-4-17.4-0.7-17.4-12.4
		c0-5.9,4.8-10.5,14.7-10.5c4.1,0,8.6,0.9,11.9,2.8l-3.1,7.6c-3.1-1.6-6-2.4-8.8-2.4c-3.1,0-4.1,0.9-4.1,1.9
		c0,3.8,17.4,0.7,17.4,12.3c0,5.7-4.8,10.5-14.7,10.5C879.4,1353.6,874.2,1352.2,871.1,1350.4z"/>
	<path class="st10" d="M908.9,1329.6h-9.1v-8.3h29v8.3h-9.1v23.1h-10.7V1329.6z"/>
	<path class="st10" d="M951.2,1347.4h-11.9l-2.1,5.5h-10.7l13.8-31.4h10.4l13.8,31.4h-10.9L951.2,1347.4z M948.2,1339.7l-3.1-7.9
		l-3.1,7.9H948.2z"/>
</g>
<g>
	<path class="st7" d="M621.2,1347.4h-11.9l-2.1,5.5h-10.7l13.8-31.4h10.4l13.8,31.4h-10.9L621.2,1347.4z M618.3,1339.7l-3.1-7.9
		l-3.1,7.9H618.3z"/>
	<path class="st7" d="M666.9,1321.4v31.4h-8.6l-11.9-14.3v14.3h-10.4v-31.4h8.6l11.9,14.3v-14.3H666.9z"/>
	<path class="st7" d="M678.9,1329.6h-9.1v-8.3h29v8.3h-9.1v23.1H679v-23.1H678.9z"/>
	<path class="st7" d="M699.6,1337.1c0-9.5,7.4-16.4,17.8-16.4c10.4,0,17.8,6.9,17.8,16.4s-7.4,16.4-17.8,16.4
		C707,1353.5,699.6,1346.7,699.6,1337.1z M724.4,1337.1c0-4.8-3.1-7.8-7.1-7.8c-4,0-7.1,2.9-7.1,7.8c0,4.8,3.1,7.8,7.1,7.8
		C721.3,1344.8,724.4,1342.1,724.4,1337.1z"/>
	<path class="st7" d="M749.4,1329.5v5.3h13.1v7.9h-13.1v10h-10.5v-31.4h25.5v7.9h-15V1329.5z"/>
	<path class="st7" d="M788.1,1347.4h-11.9l-2.1,5.5h-10.7l13.8-31.4h10.4l13.8,31.4h-10.9L788.1,1347.4z M785.2,1339.7l-3.1-7.9
		l-3.1,7.9H785.2z"/>
	<path class="st7" d="M823.1,1336.2h9.1v13.3c-3.8,2.6-9,4-13.6,4c-10.2,0-17.6-6.7-17.6-16.4c0-9.7,7.4-16.4,17.8-16.4
		c6.2,0,11.2,2.1,14.3,6l-6.7,6c-1.9-2.2-4.3-3.5-7.1-3.5c-4.7,0-7.6,2.9-7.6,7.8c0,4.7,2.9,7.8,7.4,7.8c1.4,0,2.6-0.2,3.8-0.7v-7.9
		H823.1z"/>
	<path class="st7" d="M858.3,1347.4h-11.9l-2.1,5.5h-10.7l13.8-31.4h10.4l13.8,31.4h-10.9L858.3,1347.4z M855.4,1339.7l-3.1-7.9
		l-3.1,7.9H855.4z"/>
	<path class="st7" d="M871.1,1350.4l3.5-7.8c2.9,1.7,6.9,2.9,10.4,2.9c2.9,0,4.1-0.7,4.1-1.7c0-4-17.4-0.7-17.4-12.4
		c0-5.9,4.8-10.5,14.7-10.5c4.1,0,8.6,0.9,11.9,2.8l-3.1,7.6c-3.1-1.6-6-2.4-8.8-2.4c-3.1,0-4.1,0.9-4.1,1.9
		c0,3.8,17.4,0.7,17.4,12.3c0,5.7-4.8,10.5-14.7,10.5C879.4,1353.6,874.2,1352.2,871.1,1350.4z"/>
	<path class="st7" d="M908.9,1329.6h-9.1v-8.3h29v8.3h-9.1v23.1h-10.7V1329.6z"/>
	<path class="st7" d="M951.2,1347.4h-11.9l-2.1,5.5h-10.7l13.8-31.4h10.4l13.8,31.4h-10.9L951.2,1347.4z M948.2,1339.7l-3.1-7.9
		l-3.1,7.9H948.2z"/>
</g>
<g>
	<path class="st10" d="M540,1737.1h-9.2v-8.3h29.1v8.3h-9.2v23.2h-10.6v-23.2H540z"/>
	<path class="st10" d="M582.4,1755h-11.9l-2.1,5.5h-10.7l13.9-31.5h10.4l13.9,31.5h-11.3L582.4,1755z M579.4,1747.3l-3.1-8l-3.1,8
		H579.4z"/>
	<path class="st10" d="M597.3,1728.8h10.6v23.2H622v8.3h-24.8V1728.8z"/>
	<path class="st10" d="M645.4,1737.1h-9.2v-8.3h29.1v8.3h-9.2v23.2h-10.6v-23.2H645.4z"/>
	<path class="st10" d="M687.8,1755h-11.9l-2.1,5.5h-10.7l13.9-31.5h10.4l13.9,31.5h-10.9L687.8,1755z M684.9,1747.3l-3.1-8l-3.1,8
		H684.9z"/>
	<path class="st10" d="M702.6,1728.8h10.6v23.2h14.2v8.3h-24.8V1728.8z"/>
</g>
<g>
	<path class="st7" d="M540,1737.1h-9.2v-8.3h29.1v8.3h-9.2v23.2h-10.6v-23.2H540z"/>
	<path class="st7" d="M582.4,1755h-11.9l-2.1,5.5h-10.7l13.9-31.5h10.4l13.9,31.5h-11.3L582.4,1755z M579.4,1747.3l-3.1-8l-3.1,8
		H579.4z"/>
	<path class="st7" d="M597.3,1728.8h10.6v23.2H622v8.3h-24.8V1728.8z"/>
	<path class="st7" d="M645.4,1737.1h-9.2v-8.3h29.1v8.3h-9.2v23.2h-10.6v-23.2H645.4z"/>
	<path class="st7" d="M687.8,1755h-11.9l-2.1,5.5h-10.7l13.9-31.5h10.4l13.9,31.5h-10.9L687.8,1755z M684.9,1747.3l-3.1-8l-3.1,8
		H684.9z"/>
	<path class="st7" d="M702.6,1728.8h10.6v23.2h14.2v8.3h-24.8V1728.8z"/>
</g>
<g>
	<path class="st10" d="M1213.5,1013.5l3.5-7.8c2.9,1.7,6.9,2.9,10.4,2.9c2.9,0,4.1-0.7,4.1-1.7c0-4-17.4-0.7-17.4-12.4
		c0-5.9,4.8-10.5,14.7-10.5c4.1,0,8.6,0.9,11.9,2.8l-3.1,7.6c-3.1-1.6-6-2.4-8.8-2.4c-3.1,0-4.1,0.9-4.1,1.9
		c0,3.8,17.4,0.7,17.4,12.3c0,5.7-4.8,10.5-14.7,10.5C1221.9,1016.7,1216.6,1015.4,1213.5,1013.5z"/>
	<path class="st10" d="M1266.3,1010.5h-11.9l-2.1,5.5h-10.7l13.8-31.4h10.4l13.8,31.4h-10.9L1266.3,1010.5z M1263.3,1002.9l-3.1-7.9
		l-3.1,7.9H1263.3z"/>
	<path class="st10" d="M1312,984.6v31.4h-8.6l-11.9-14.3v14.3h-10.4v-31.4h8.6l11.9,14.3v-14.3H1312z"/>
	<path class="st10" d="M1360,996.6c0,7.2-5.5,11.9-14.3,11.9h-4.5v7.8h-10.5v-31.4h15.2C1354.3,984.6,1360,989.1,1360,996.6z
		 M1349.3,996.6c0-2.2-1.4-3.6-4.3-3.6h-3.8v7.4h3.8C1347.9,1000.2,1349.3,998.8,1349.3,996.6z"/>
	<path class="st10" d="M1389.5,1008.1v7.9h-26.1v-31.4h25.5v7.9h-15.2v3.6h13.3v7.6h-13.3v4.1h15.7V1008.1z"/>
	<path class="st10" d="M1393.6,984.6h15.5c10.5,0,17.8,6,17.8,15.7s-7.2,15.7-17.8,15.7h-15.5V984.6z M1408.6,1007.8
		c4.5,0,7.4-2.6,7.4-7.4s-3.1-7.4-7.4-7.4h-4.5v14.8H1408.6z"/>
	<path class="st10" d="M1444,1008.1h-2.9v7.9h-10.5v-31.4h15.2c8.8,0,14.3,4.7,14.3,11.9c0,4.5-2.1,7.9-5.9,9.8l6.6,9.7h-11.2
		L1444,1008.1z M1445.1,992.8h-3.8v7.4h3.8c2.9,0,4.3-1.4,4.3-3.6C1449.4,994.1,1448,992.8,1445.1,992.8z"/>
	<path class="st10" d="M1462.8,1000.4c0-9.5,7.4-16.4,17.8-16.4c10.4,0,17.8,6.9,17.8,16.4s-7.4,16.4-17.8,16.4
		C1470.2,1016.7,1462.8,1009.8,1462.8,1000.4z M1487.5,1000.4c0-4.8-3.1-7.8-7.1-7.8c-4,0-7.1,2.9-7.1,7.8s3.1,7.8,7.1,7.8
		C1484.4,1008.1,1487.5,1005.2,1487.5,1000.4z"/>
	<path class="st10" d="M1515.5,984.6h15.5c10.5,0,17.8,6,17.8,15.7s-7.2,15.7-17.8,15.7h-15.5V984.6z M1530.5,1007.8
		c4.5,0,7.4-2.6,7.4-7.4s-3.1-7.4-7.4-7.4h-4.5v14.8H1530.5z"/>
	<path class="st10" d="M1578.6,1008.1v7.9h-26.1v-31.4h25.5v7.9h-15.2v3.6h13.3v7.6h-13.3v4.1h15.7V1008.1z"/>
	<path class="st10" d="M1617.6,1010.5h-11.9l-2.1,5.5h-10.7l13.8-31.4h10.4l13.8,31.4H1620L1617.6,1010.5z M1614.7,1002.9l-3.1-7.9
		l-3.1,7.9H1614.7z"/>
	<path class="st10" d="M1637.6,992.9h-9.1v-8.3h29v8.3h-9.1v23.1h-10.5v-23.1H1637.6z"/>
	<path class="st10" d="M1679.9,1010.5H1668l-2.1,5.5h-10.7l13.8-31.4h10.4l13.8,31.4h-10.9L1679.9,1010.5z M1677,1002.9l-3.1-7.9
		l-3.1,7.9H1677z"/>
	<path class="st10" d="M1693,1000.4c0-9.7,7.4-16.4,17.4-16.4c6.2,0,11,2.2,14.2,6.2l-6.7,6c-1.9-2.4-4-3.6-6.9-3.6
		c-4.3,0-7.4,3.1-7.4,7.8c0,4.8,2.9,7.8,7.4,7.8c2.8,0,5-1.4,6.9-3.6l6.7,6c-3.1,4-7.9,6.2-14.2,6.2
		C1700.3,1016.7,1693,1010,1693,1000.4z"/>
	<path class="st10" d="M1748.4,1010.5h-11.9l-2.1,5.5h-10.7l13.8-31.4h10.4l13.8,31.4h-10.9L1748.4,1010.5z M1745.7,1002.9l-3.1-7.9
		l-3.1,7.9H1745.7z"/>
	<path class="st10" d="M1791.2,1016.1l-0.2-14.3l-6.7,11.6h-4.7l-6.7-11v13.8h-9.7v-31.4h8.6l10.2,16.7l10-16.7h8.6l0.2,31.4H1791.2
		z"/>
	<path class="st10" d="M1827.5,1010.5h-11.9l-2.1,5.5h-10.7l13.8-31.4h10.4l13.8,31.4h-10.9L1827.5,1010.5z M1824.5,1002.9l-3.1-7.9
		l-3.1,7.9H1824.5z"/>
</g>
<g>
	<path class="st7" d="M1213.5,1013.5l3.5-7.8c2.9,1.7,6.9,2.9,10.4,2.9c2.9,0,4.1-0.7,4.1-1.7c0-4-17.4-0.7-17.4-12.4
		c0-5.9,4.8-10.5,14.7-10.5c4.1,0,8.6,0.9,11.9,2.8l-3.1,7.6c-3.1-1.6-6-2.4-8.8-2.4c-3.1,0-4.1,0.9-4.1,1.9
		c0,3.8,17.4,0.7,17.4,12.3c0,5.7-4.8,10.5-14.7,10.5C1221.9,1016.7,1216.6,1015.4,1213.5,1013.5z"/>
	<path class="st7" d="M1266.3,1010.5h-11.9l-2.1,5.5h-10.7l13.8-31.4h10.4l13.8,31.4h-10.9L1266.3,1010.5z M1263.3,1002.9l-3.1-7.9
		l-3.1,7.9H1263.3z"/>
	<path class="st7" d="M1312,984.6v31.4h-8.6l-11.9-14.3v14.3h-10.4v-31.4h8.6l11.9,14.3v-14.3H1312z"/>
	<path class="st7" d="M1360,996.6c0,7.2-5.5,11.9-14.3,11.9h-4.5v7.8h-10.5v-31.4h15.2C1354.3,984.6,1360,989.1,1360,996.6z
		 M1349.3,996.6c0-2.2-1.4-3.6-4.3-3.6h-3.8v7.4h3.8C1347.9,1000.2,1349.3,998.8,1349.3,996.6z"/>
	<path class="st7" d="M1389.5,1008.1v7.9h-26.1v-31.4h25.5v7.9h-15.2v3.6h13.3v7.6h-13.3v4.1h15.7V1008.1z"/>
	<path class="st7" d="M1393.6,984.6h15.5c10.5,0,17.8,6,17.8,15.7s-7.2,15.7-17.8,15.7h-15.5V984.6z M1408.6,1007.8
		c4.5,0,7.4-2.6,7.4-7.4s-3.1-7.4-7.4-7.4h-4.5v14.8H1408.6z"/>
	<path class="st7" d="M1444,1008.1h-2.9v7.9h-10.5v-31.4h15.2c8.8,0,14.3,4.7,14.3,11.9c0,4.5-2.1,7.9-5.9,9.8l6.6,9.7h-11.2
		L1444,1008.1z M1445.1,992.8h-3.8v7.4h3.8c2.9,0,4.3-1.4,4.3-3.6C1449.4,994.1,1448,992.8,1445.1,992.8z"/>
	<path class="st7" d="M1462.8,1000.4c0-9.5,7.4-16.4,17.8-16.4c10.4,0,17.8,6.9,17.8,16.4s-7.4,16.4-17.8,16.4
		C1470.2,1016.7,1462.8,1009.8,1462.8,1000.4z M1487.5,1000.4c0-4.8-3.1-7.8-7.1-7.8c-4,0-7.1,2.9-7.1,7.8s3.1,7.8,7.1,7.8
		C1484.4,1008.1,1487.5,1005.2,1487.5,1000.4z"/>
	<path class="st7" d="M1515.5,984.6h15.5c10.5,0,17.8,6,17.8,15.7s-7.2,15.7-17.8,15.7h-15.5V984.6z M1530.5,1007.8
		c4.5,0,7.4-2.6,7.4-7.4s-3.1-7.4-7.4-7.4h-4.5v14.8H1530.5z"/>
	<path class="st7" d="M1578.6,1008.1v7.9h-26.1v-31.4h25.5v7.9h-15.2v3.6h13.3v7.6h-13.3v4.1h15.7V1008.1z"/>
	<path class="st7" d="M1617.6,1010.5h-11.9l-2.1,5.5h-10.7l13.8-31.4h10.4l13.8,31.4H1620L1617.6,1010.5z M1614.7,1002.9l-3.1-7.9
		l-3.1,7.9H1614.7z"/>
	<path class="st7" d="M1637.6,992.9h-9.1v-8.3h29v8.3h-9.1v23.1h-10.5v-23.1H1637.6z"/>
	<path class="st7" d="M1679.9,1010.5H1668l-2.1,5.5h-10.7l13.8-31.4h10.4l13.8,31.4h-10.9L1679.9,1010.5z M1677,1002.9l-3.1-7.9
		l-3.1,7.9H1677z"/>
	<path class="st7" d="M1693,1000.4c0-9.7,7.4-16.4,17.4-16.4c6.2,0,11,2.2,14.2,6.2l-6.7,6c-1.9-2.4-4-3.6-6.9-3.6
		c-4.3,0-7.4,3.1-7.4,7.8c0,4.8,2.9,7.8,7.4,7.8c2.8,0,5-1.4,6.9-3.6l6.7,6c-3.1,4-7.9,6.2-14.2,6.2
		C1700.3,1016.7,1693,1010,1693,1000.4z"/>
	<path class="st7" d="M1748.4,1010.5h-11.9l-2.1,5.5h-10.7l13.8-31.4h10.4l13.8,31.4h-10.9L1748.4,1010.5z M1745.7,1002.9l-3.1-7.9
		l-3.1,7.9H1745.7z"/>
	<path class="st7" d="M1791.2,1016.1l-0.2-14.3l-6.7,11.6h-4.7l-6.7-11v13.8h-9.7v-31.4h8.6l10.2,16.7l10-16.7h8.6l0.2,31.4H1791.2z
		"/>
	<path class="st7" d="M1827.5,1010.5h-11.9l-2.1,5.5h-10.7l13.8-31.4h10.4l13.8,31.4h-10.9L1827.5,1010.5z M1824.5,1002.9l-3.1-7.9
		l-3.1,7.9H1824.5z"/>
</g>
<g>
	<path class="st10" d="M1229.5,199.6c0-9.5,7.4-16.4,17.8-16.4c10.4,0,17.8,6.9,17.8,16.4c0,9.5-7.4,16.4-17.8,16.4
		C1236.9,216,1229.5,209.3,1229.5,199.6z M1254.4,199.6c0-4.8-3.1-7.8-7.1-7.8c-4,0-7.1,2.9-7.1,7.8s3.1,7.8,7.1,7.8
		C1251.2,207.4,1254.4,204.6,1254.4,199.6z"/>
	<path class="st10" d="M1268.8,184.1h10.5v23.1h14.2v8.3h-24.7V184.1z"/>
	<path class="st10" d="M1296.5,184.1h10.5v23.1h14.2v8.3h-24.7V184.1z"/>
	<path class="st10" d="M1346,210h-11.9l-2.1,5.5h-10.7l13.8-31.4h10.4l13.8,31.4h-10.9L1346,210z M1343.1,202.4l-3.1-7.9l-3.1,7.9
		H1343.1z"/>
	<path class="st10" d="M1381.2,199h9.1v13.3c-3.8,2.6-9,4-13.6,4c-10.2,0-17.6-6.7-17.6-16.4c0-9.7,7.4-16.4,17.8-16.4
		c6.2,0,11.2,2.1,14.3,6l-6.7,6c-1.9-2.2-4.3-3.5-7.1-3.5c-4.7,0-7.6,2.9-7.6,7.8c0,4.7,2.9,7.8,7.4,7.8c1.4,0,2.6-0.2,3.8-0.7V199
		H1381.2z"/>
	<path class="st10" d="M1394.5,201.4v-17.3h10.5V201c0,4.8,1.9,6.6,4.8,6.6c2.9,0,4.8-1.7,4.8-6.6v-16.9h10.4v17.3
		c0,9.5-5.7,14.8-15.4,14.8S1394.5,210.7,1394.5,201.4z"/>
	<path class="st10" d="M1456.1,207.4v7.9H1430v-31.4h25.5v7.9h-15.2v3.6h13.3v7.6h-13.3v4.1h15.7V207.4z"/>
</g>
<g>
	<path class="st7" d="M1229.3,199.1c0-9.5,7.4-16.4,17.8-16.4c10.4,0,17.8,6.9,17.8,16.4s-7.4,16.4-17.8,16.4
		C1236.8,215.5,1229.3,208.6,1229.3,199.1z M1254.2,199.1c0-4.8-3.1-7.8-7.1-7.8c-4,0-7.1,2.9-7.1,7.8s3.1,7.8,7.1,7.8
		C1251.1,206.9,1254.2,204.1,1254.2,199.1z"/>
	<path class="st7" d="M1268.7,183.4h10.5v23.1h14.2v8.3h-24.7L1268.7,183.4L1268.7,183.4z"/>
	<path class="st7" d="M1296.3,183.4h10.5v23.1h14.2v8.3h-24.7L1296.3,183.4L1296.3,183.4z"/>
	<path class="st7" d="M1345.8,209.5h-11.9l-2.1,5.5h-10.7l13.8-31.4h10.4l13.8,31.4h-10.9L1345.8,209.5z M1342.9,201.7l-3.1-7.9
		l-3.1,7.9H1342.9z"/>
	<path class="st7" d="M1380.8,198.3h9.1v13.3c-3.8,2.6-9,4-13.6,4c-10.2,0-17.6-6.7-17.6-16.4s7.4-16.4,17.8-16.4
		c6.2,0,11.2,2.1,14.3,6l-6.7,6c-1.9-2.2-4.3-3.5-7.1-3.5c-4.7,0-7.6,2.9-7.6,7.8c0,4.7,2.9,7.8,7.4,7.8c1.4,0,2.6-0.2,3.8-0.7v-7.9
		H1380.8z"/>
	<path class="st7" d="M1394.3,200.7v-17.3h10.5v16.9c0,4.8,1.9,6.6,4.8,6.6c2.9,0,4.8-1.7,4.8-6.6v-16.9h10.4v17.3
		c0,9.5-5.7,14.8-15.4,14.8C1399.8,215.5,1394.3,210.2,1394.3,200.7z"/>
	<path class="st7" d="M1455.9,206.9v7.9h-26.1v-31.4h25.5v7.9h-15.2v3.6h13.3v7.6h-13.3v4.1h15.7V206.9z"/>
</g>
<g>
	<path class="st10" d="M652.4,942.4l3.5-7.8c2.9,1.7,6.9,2.9,10.4,2.9c2.9,0,4.1-0.7,4.1-1.7c0-4-17.4-0.7-17.4-12.4
		c0-5.9,4.8-10.5,14.7-10.5c4.1,0,8.6,0.9,11.9,2.8l-3.1,7.6c-3.1-1.6-6-2.4-8.8-2.4c-3.1,0-4.1,0.9-4.1,1.9
		c0,3.8,17.4,0.7,17.4,12.3c0,5.7-4.8,10.5-14.7,10.5C660.8,945.7,655.5,944.3,652.4,942.4z"/>
	<path class="st10" d="M683.8,913.6h10.5V945h-10.5V913.6z"/>
	<path class="st10" d="M725.7,937.1v7.9h-26.1v-31.4h25.5v7.9H710v3.6h13.3v7.6H710v4.1h15.7V937.1z"/>
	<path class="st10" d="M743.1,937.1h-2.9v7.9h-10.5v-31.4h15.2c8.8,0,14.3,4.7,14.3,11.9c0,4.5-2.1,7.9-5.9,9.8l6.6,9.7h-11.2
		L743.1,937.1z M744.2,921.7h-3.8v7.4h3.8c2.9,0,4.3-1.4,4.3-3.6C748.5,923.1,747.1,921.7,744.2,921.7z"/>
	<path class="st10" d="M776.6,937.1h-2.9v7.9h-10.5v-31.4h15.2c8.8,0,14.3,4.7,14.3,11.9c0,4.5-2.1,7.9-5.9,9.8l6.6,9.7h-11.2
		L776.6,937.1z M777.7,921.7h-3.8v7.4h3.8c2.9,0,4.3-1.4,4.3-3.6C782,923.1,780.4,921.7,777.7,921.7z"/>
	<path class="st10" d="M817.9,939.5H806l-2.1,5.5h-10.7l13.8-31.4h10.4l13.8,31.4h-10.9L817.9,939.5z M815.1,931.9L812,924l-3.1,7.9
		H815.1z"/>
	<path class="st10" d="M866.9,928.5h9.1v13.3c-3.8,2.6-9,4-13.6,4c-10.2,0-17.6-6.7-17.6-16.4c0-9.7,7.4-16.4,17.8-16.4
		c6.2,0,11.2,2.1,14.3,6l-6.7,6c-1.9-2.2-4.3-3.5-7.1-3.5c-4.7,0-7.6,2.9-7.6,7.8c0,4.7,2.9,7.8,7.4,7.8c1.4,0,2.6-0.2,3.8-0.7v-7.9
		H866.9z"/>
	<path class="st10" d="M879.5,929.3c0-9.5,7.4-16.4,17.8-16.4s17.8,6.9,17.8,16.4s-7.4,16.4-17.8,16.4S879.5,938.8,879.5,929.3z
		 M904.1,929.3c0-4.8-3.1-7.8-7.1-7.8c-4,0-7.1,2.9-7.1,7.8c0,4.8,3.1,7.8,7.1,7.8C901,937.1,904.1,934.2,904.1,929.3z"/>
	<path class="st10" d="M932.1,937.1h-2.9v7.9h-10.5v-31.4h15.2c8.8,0,14.3,4.7,14.3,11.9c0,4.5-2.1,7.9-5.9,9.8l6.6,9.7h-11.2
		L932.1,937.1z M933.1,921.7h-3.8v7.4h3.8c2.9,0,4.3-1.4,4.3-3.6C937.5,923.1,936.1,921.7,933.1,921.7z"/>
	<path class="st10" d="M952.1,913.6h15.5c10.5,0,17.8,6,17.8,15.7c0,9.7-7.2,15.7-17.8,15.7h-15.5V913.6z M967.1,936.8
		c4.5,0,7.4-2.6,7.4-7.4c0-4.8-3.1-7.4-7.4-7.4h-4.5v14.8H967.1z"/>
	<path class="st10" d="M1010.1,939.5h-11.9l-2.1,5.5h-10.9l13.8-31.4h10.4l13.8,31.4h-10.9L1010.1,939.5z M1007.2,931.9l-3.1-7.9
		l-3.1,7.9H1007.2z"/>
</g>
<g>
	<path class="st7" d="M651.7,942.4l3.5-7.8c2.9,1.7,6.9,2.9,10.4,2.9c2.9,0,4.1-0.7,4.1-1.7c0-4-17.4-0.7-17.4-12.4
		c0-5.9,4.8-10.5,14.7-10.5c4.1,0,8.6,0.9,11.9,2.8l-3.1,7.6c-3.1-1.6-6-2.4-8.8-2.4c-3.1,0-4.1,0.9-4.1,1.9
		c0,3.8,17.4,0.7,17.4,12.3c0,5.7-4.8,10.5-14.7,10.5C660.1,945.7,655,944.3,651.7,942.4z"/>
	<path class="st7" d="M683.3,913.6h10.5V945h-10.5V913.6z"/>
	<path class="st7" d="M725,937.1v7.9H699v-31.4h25.5v7.9h-15.2v3.6h13.3v7.6h-13.3v4.1H725V937.1z"/>
	<path class="st7" d="M742.5,937.1h-2.9v7.9H729v-31.4h15.2c8.8,0,14.3,4.7,14.3,11.9c0,4.5-2.1,7.9-5.9,9.8l6.6,9.7H748
		L742.5,937.1z M743.5,921.7h-3.8v7.4h3.8c2.9,0,4.3-1.4,4.3-3.6C747.8,923.1,746.4,921.7,743.5,921.7z"/>
	<path class="st7" d="M775.9,937.1H773v7.9h-10.5v-31.4h15.2c8.8,0,14.3,4.7,14.3,11.9c0,4.5-2.1,7.9-5.9,9.8l6.6,9.7h-11.2
		L775.9,937.1z M777,921.7h-4v7.4h3.8c2.9,0,4.3-1.4,4.3-3.6C781.3,923.1,779.9,921.7,777,921.7z"/>
	<path class="st7" d="M817.3,939.5h-11.9l-2.1,5.5h-10.7l13.8-31.4h10.4l13.8,31.4h-10.9L817.3,939.5z M814.4,931.9l-3.1-7.9
		l-3.1,7.9H814.4z"/>
	<path class="st7" d="M866.2,928.5h9.1v13.3c-3.8,2.6-9,4-13.6,4c-10.2,0-17.6-6.7-17.6-16.4c0-9.7,7.4-16.4,17.8-16.4
		c6.2,0,11.2,2.1,14.3,6l-6.7,6c-1.9-2.2-4.3-3.5-7.1-3.5c-4.7,0-7.6,2.9-7.6,7.8c0,4.7,2.9,7.8,7.4,7.8c1.4,0,2.6-0.2,3.8-0.7v-7.9
		H866.2z"/>
	<path class="st7" d="M878.8,929.3c0-9.5,7.4-16.4,17.8-16.4s17.8,6.9,17.8,16.4s-7.4,16.4-17.8,16.4S878.8,938.8,878.8,929.3z
		 M903.5,929.3c0-4.8-3.1-7.8-7.1-7.8c-4,0-7.1,2.9-7.1,7.8c0,4.8,3.1,7.8,7.1,7.8C900.4,937.1,903.5,934.2,903.5,929.3z"/>
	<path class="st7" d="M931.4,937.1h-2.9v7.9H918v-31.4h15.2c8.8,0,14.3,4.7,14.3,11.9c0,4.5-2.1,7.9-5.9,9.8l6.6,9.7h-11.2
		L931.4,937.1z M932.5,921.7h-3.8v7.4h3.8c2.9,0,4.3-1.4,4.3-3.6C936.8,923.1,935.4,921.7,932.5,921.7z"/>
	<path class="st7" d="M951.4,913.6H967c10.5,0,17.8,6,17.8,15.7c0,9.7-7.2,15.7-17.8,15.7h-15.5V913.6z M966.4,936.8
		c4.5,0,7.4-2.6,7.4-7.4c0-4.8-3.1-7.4-7.4-7.4H962v14.8H966.4z"/>
	<path class="st7" d="M1009.4,939.5h-11.9l-2.1,5.5h-10.7l13.8-31.4h10.4l13.8,31.4h-10.9L1009.4,939.5z M1006.5,931.9l-3.1-7.9
		l-3.1,7.9H1006.5z"/>
</g>
<g>
	<path class="st10" d="M1012,528.8c0-9.7,7.4-16.4,17.4-16.4c6.2,0,11,2.2,14.2,6.2l-6.7,6c-1.9-2.4-4-3.6-6.9-3.6
		c-4.3,0-7.4,3.1-7.4,7.8c0,4.8,2.9,7.8,7.4,7.8c2.8,0,5-1.4,6.9-3.6l6.7,6c-3.1,4-7.9,6.2-14.2,6.2
		C1019.4,545.2,1012,538.3,1012,528.8z"/>
	<path class="st10" d="M1067.6,538.9h-11.9l-2.1,5.5h-10.9l13.8-31.4h10.4l13.8,31.4h-10.9L1067.6,538.9z M1064.7,531.4l-3.1-7.9
		l-3.1,7.9H1064.7z"/>
	<path class="st10" d="M1082.3,513.1h10.5v23.1h14.2v8.3h-24.7L1082.3,513.1L1082.3,513.1z"/>
	<path class="st10" d="M1131.8,538.9h-11.9l-2.1,5.5h-10.7l13.8-31.4h10.4l13.8,31.4h-10.9L1131.8,538.9z M1128.8,531.4l-3.1-7.9
		l-3.1,7.9H1128.8z"/>
	<path class="st10" d="M1174.6,544.5l-0.2-14.3l-6.7,11.6h-4.7l-6.7-11v13.8h-9.7v-31.4h8.6l10.2,16.7l10-16.7h8.6l0.2,31.4H1174.6z
		"/>
	<path class="st10" d="M1210.8,538.9h-11.9l-2.1,5.5h-10.7l13.8-31.4h10.4l13.8,31.4h-10.9L1210.8,538.9z M1207.9,531.4l-3.1-7.9
		l-3.1,7.9H1207.9z"/>
</g>
<g>
	<path class="st7" d="M1011.3,528.8c0-9.7,7.4-16.4,17.4-16.4c6.2,0,11,2.2,14.2,6.2l-6.7,6c-1.9-2.4-4-3.6-6.9-3.6
		c-4.3,0-7.4,3.1-7.4,7.8c0,4.8,2.9,7.8,7.4,7.8c2.8,0,5-1.4,6.9-3.6l6.7,6c-3.1,4-7.9,6.2-14.2,6.2
		C1018.7,545.2,1011.3,538.3,1011.3,528.8z"/>
	<path class="st7" d="M1066.9,538.9H1055l-2.1,5.5h-10.7l13.8-31.4h10.4l13.8,31.4h-10.9L1066.9,538.9z M1064,531.4l-3.1-7.9
		l-3.1,7.9H1064z"/>
	<path class="st7" d="M1081.7,513.1h10.5v23.1h14.2v8.3h-24.7L1081.7,513.1L1081.7,513.1z"/>
	<path class="st7" d="M1131.1,538.9h-11.9l-2.1,5.5h-10.7l13.8-31.4h10.4l13.8,31.4h-10.9L1131.1,538.9z M1128.3,531.4l-3.1-7.9
		l-3.1,7.9H1128.3z"/>
	<path class="st7" d="M1173.9,544.5l-0.2-14.3l-6.7,11.6h-4.7l-6.7-11v13.8h-9.7v-31.4h8.6l10.2,16.7l10-16.7h8.6l0.2,31.4H1173.9z"
		/>
	<path class="st7" d="M1210.1,538.9h-11.9l-2.1,5.5h-10.7l13.8-31.4h10.4l13.8,31.4h-10.9L1210.1,538.9z M1207.2,531.4l-3.1-7.9
		l-3.1,7.9H1207.2z"/>
</g>
<g>
	<path class="st10" d="M673.3,343.2l-0.2-14.3l-6.7,11.6h-4.7l-6.7-11v13.8h-9.7v-31.4h8.6l10.2,16.7l10-16.7h8.6l0.2,31.4H673.3z"
		/>
	<path class="st10" d="M709.6,337.7h-11.9l-2.1,5.5h-10.7l13.8-31.4h10.4l13.8,31.4H712L709.6,337.7z M706.6,330.1l-3.1-7.9
		l-3.1,7.9H706.6z"/>
	<path class="st10" d="M737.7,335.3h-2.9v7.9h-10.5v-31.4h15.2c8.8,0,14.3,4.7,14.3,11.9c0,4.5-2.1,7.9-5.9,9.8l6.6,9.7h-11.4
		L737.7,335.3z M738.7,319.9h-3.8v7.4h3.8c2.9,0,4.3-1.4,4.3-3.6C743.1,321.3,741.7,319.9,738.7,319.9z"/>
	<path class="st10" d="M757.7,311.8h10.5v31.4h-10.5V311.8z"/>
	<path class="st10" d="M794.8,337.7h-11.9l-2.1,5.5h-10.7l13.8-31.4h10.4l13.8,31.4h-10.9L794.8,337.7z M791.9,330.1l-3.1-7.9
		l-3.1,7.9H791.9z"/>
	<path class="st10" d="M849.2,335.3v7.9h-26.1v-31.4h25.5v7.9h-15.2v3.6h13.3v7.6h-13.3v4.1h15.7V335.3z"/>
	<path class="st10" d="M853.2,311.8h10.5v23.1h14.2v8.3h-24.7V311.8z"/>
	<path class="st10" d="M907,335.3v7.9h-26.1v-31.4h25.5v7.9h-15.2v3.6h13.3v7.6h-13.3v4.1H907V335.3z"/>
	<path class="st10" d="M942,311.8v31.4h-8.6l-11.9-14.3v14.3h-10.4v-31.4h8.6l11.9,14.3v-14.3H942z"/>
	<path class="st10" d="M968.4,337.7h-11.9l-2.1,5.5h-10.7l13.8-31.4h10.4l13.8,31.4h-10.9L968.4,337.7z M965.7,330.1l-3.1-7.9
		l-3.1,7.9H965.7z"/>
</g>
<g>
	<path class="st7" d="M672.8,343.2l-0.2-14.3l-6.7,11.6h-4.7l-6.7-11v13.8h-9.8v-31.4h8.6l10.2,16.7l10-16.7h8.6l0.2,31.4H672.8z"/>
	<path class="st7" d="M708.9,337.7H697l-2.1,5.5h-10.7l13.8-31.4h10.4l13.8,31.4h-10.9L708.9,337.7z M706,330.1l-3.1-7.9l-3.1,7.9
		H706z"/>
	<path class="st7" d="M737.2,335.3h-2.9v7.9h-10.5v-31.4h15.2c8.8,0,14.3,4.7,14.3,11.9c0,4.5-2.1,7.9-5.9,9.8l6.6,9.7h-11.2
		L737.2,335.3z M738.1,319.9h-3.8v7.4h3.8c2.9,0,4.3-1.4,4.3-3.6C742.4,321.3,741,319.9,738.1,319.9z"/>
	<path class="st7" d="M757,311.8h10.5v31.4H757V311.8z"/>
	<path class="st7" d="M794.1,337.7h-11.9l-2.1,5.5h-10.7l13.8-31.4h10.4l13.8,31.4h-10.9L794.1,337.7z M791.2,330.1l-3.1-7.9
		l-3.1,7.9H791.2z"/>
	<path class="st7" d="M848.5,335.3v7.9h-26.1v-31.4H848v7.9h-15.2v3.6h13.3v7.6h-13.3v4.1h15.7V335.3z"/>
	<path class="st7" d="M852.6,311.8h10.5v23.1h14.2v8.3h-24.7V311.8z"/>
	<path class="st7" d="M906.3,335.3v7.9h-26.1v-31.4h25.5v7.9h-15.2v3.6h13.3v7.6h-13.3v4.1h15.7V335.3z"/>
	<path class="st7" d="M941.3,311.8v31.4h-8.6l-11.9-14.3v14.3h-10.4v-31.4h8.6l11.9,14.3v-14.3H941.3z"/>
	<path class="st7" d="M967.9,337.7H956l-2.1,5.5h-10.7l13.8-31.4h10.4l13.8,31.4h-10.9L967.9,337.7z M965,330.1l-3.1-7.9l-3.1,7.9
		H965z"/>
</g>
<g>
	<path class="st10" d="M304.9,465h-9.1v-8.3h29v8.3h-9.1v23.1h-10.5V465H304.9z"/>
	<path class="st10" d="M325.8,472.4c0-9.5,7.4-16.4,17.8-16.4s17.8,6.9,17.8,16.4c0,9.5-7.4,16.4-17.8,16.4S325.8,482.1,325.8,472.4
		z M350.5,472.4c0-4.8-3.1-7.8-7.1-7.8s-7.1,2.9-7.1,7.8c0,4.8,3.1,7.8,7.1,7.8S350.5,477.4,350.5,472.4z"/>
	<path class="st10" d="M363.8,472.4c0-9.7,7.4-16.4,17.4-16.4c6.2,0,11,2.2,14.2,6.2l-6.7,6c-1.9-2.4-4-3.6-6.9-3.6
		c-4.3,0-7.4,3.1-7.4,7.8c0,4.8,2.9,7.8,7.4,7.8c2.8,0,5-1.4,6.9-3.6l6.7,6c-3.1,4-7.9,6.2-14.2,6.2
		C371.2,489,363.8,482.1,363.8,472.4z"/>
	<path class="st10" d="M396.4,472.4c0-9.5,7.4-16.4,17.8-16.4c10.4,0,17.8,6.9,17.8,16.4c0,9.5-7.4,16.4-17.8,16.4
		C403.8,488.8,396.4,482.1,396.4,472.4z M421.3,472.4c0-4.8-3.1-7.8-7.1-7.8s-7.1,2.9-7.1,7.8c0,4.8,3.1,7.8,7.1,7.8
		S421.3,477.4,421.3,472.4z"/>
	<path class="st10" d="M465.1,468.6c0,7.2-5.5,11.9-14.3,11.9h-4.5v7.8h-10.5v-31.4h15.2C459.6,456.7,465.1,461.4,465.1,468.6z
		 M454.6,468.6c0-2.2-1.4-3.6-4.3-3.6h-3.8v7.4h3.8C453.2,472.3,454.6,470.9,454.6,468.6z"/>
	<path class="st10" d="M468.5,456.7h10.5v31.4h-10.5V456.7z"/>
	<path class="st10" d="M484.2,456.7h10.5v23.1h14.2v8.3h-24.7V456.7z"/>
	<path class="st10" d="M512,456.7h10.5v23.1h14.2v8.3H512V456.7z"/>
	<path class="st10" d="M561.5,482.8h-11.9l-2.1,5.5h-10.9l13.8-31.4h10.4l13.8,31.4h-10.9L561.5,482.8z M558.6,475l-3.1-7.9
		l-3.1,7.9H558.6z"/>
</g>
<g>
	<path class="st7" d="M304.3,465h-9.1v-8.3h29v8.3h-9.1v23.1h-10.5V465H304.3z"/>
	<path class="st7" d="M325.1,472.4c0-9.5,7.4-16.4,17.8-16.4c10.4,0,17.8,6.9,17.8,16.4c0,9.5-7.4,16.4-17.8,16.4
		C332.6,488.8,325.1,482.1,325.1,472.4z M349.8,472.4c0-4.8-3.1-7.8-7.1-7.8s-7.1,2.9-7.1,7.8c0,4.8,3.1,7.8,7.1,7.8
		S349.8,477.4,349.8,472.4z"/>
	<path class="st7" d="M363.1,472.4c0-9.7,7.4-16.4,17.4-16.4c6.2,0,11,2.2,14.2,6.2l-6.7,6c-1.9-2.4-4-3.6-6.9-3.6
		c-4.3,0-7.4,3.1-7.4,7.8c0,4.8,2.9,7.8,7.4,7.8c2.8,0,5-1.4,6.9-3.6l6.7,6c-3.1,4-7.9,6.2-14.2,6.2
		C370.5,489,363.1,482.1,363.1,472.4z"/>
	<path class="st7" d="M395.9,472.4c0-9.5,7.4-16.4,17.8-16.4c10.4,0,17.8,6.9,17.8,16.4c0,9.5-7.4,16.4-17.8,16.4
		S395.9,482.1,395.9,472.4z M420.6,472.4c0-4.8-3.1-7.8-7.1-7.8s-7.1,2.9-7.1,7.8c0,4.8,3.1,7.8,7.1,7.8S420.6,477.4,420.6,472.4z"
		/>
	<path class="st7" d="M464.6,468.6c0,7.2-5.5,11.9-14.3,11.9h-4.5v7.8h-10.5v-31.4h15.2C458.9,456.7,464.6,461.4,464.6,468.6z
		 M453.9,468.6c0-2.2-1.4-3.6-4.3-3.6h-3.8v7.4h3.8C452.5,472.3,453.9,470.9,453.9,468.6z"/>
	<path class="st7" d="M468,456.7h10.5v31.4H468V456.7z"/>
	<path class="st7" d="M483.7,456.7h10.5v23.1h14.2v8.3h-24.7V456.7z"/>
	<path class="st7" d="M511.3,456.7h10.5v23.1H536v8.3h-24.7V456.7z"/>
	<path class="st7" d="M560.9,482.8H549l-2.1,5.5h-10.7l13.8-31.4h10.4l13.8,31.4h-10.9L560.9,482.8z M557.9,475l-3.1-7.9l-3.1,7.9
		H557.9z"/>
</g>
<g>
	<path class="st10" d="M222,859.8l-0.2-14.3l-6.7,11.6h-4.7l-6.7-11v13.8h-9.7v-31.4h8.6l10.2,16.7l10-16.7h8.6l0.2,31.4H222z"/>
	<path class="st10" d="M262.9,851.8v7.9h-26.1v-31.4h25.5v7.9h-15.2v3.6h13.3v7.6h-13.3v4.1h15.7V851.8z"/>
	<path class="st10" d="M263.4,855.8l5.7-6.7c1.7,2.1,3.3,3.1,5,3.1c2.2,0,3.5-1.4,3.5-4v-11.9h-10.7v-7.9h21.1v19.3
		c0,8.6-4.5,12.8-12.9,12.8C270,860.5,266,858.9,263.4,855.8z"/>
	<path class="st10" d="M292.8,828.4h10.5v31.4h-10.5V828.4z"/>
	<path class="st10" d="M308.5,828.4H319v23.1h14.2v8.3h-24.7L308.5,828.4L308.5,828.4z"/>
	<path class="st10" d="M336.1,828.4h10.5v23.1h14.2v8.3h-24.7L336.1,828.4L336.1,828.4z"/>
	<path class="st10" d="M362.1,844.1c0-9.5,7.4-16.4,17.8-16.4s17.8,6.9,17.8,16.4s-7.4,16.4-17.8,16.4S362.1,853.6,362.1,844.1z
		 M386.8,844.1c0-4.8-3.1-7.8-7.1-7.8s-7.1,2.9-7.1,7.8c0,4.8,3.1,7.8,7.1,7.8S386.8,848.9,386.8,844.1z"/>
	<path class="st10" d="M432.4,828.4v31.4h-8.6l-11.9-14.3v14.3h-10.4v-31.4h8.6l11.9,14.3v-14.3H432.4z"/>
	<path class="st10" d="M463.4,851.8v7.9h-26.1v-31.4h25.5v7.9h-15.2v3.6H461v7.6h-13.3v4.1h15.7V851.8z"/>
	<path class="st10" d="M465.7,857.4l3.5-7.8c2.9,1.7,6.9,2.9,10.4,2.9c2.9,0,4.1-0.7,4.1-1.7c0-4-17.4-0.7-17.4-12.4
		c0-5.9,4.8-10.5,14.7-10.5c4.1,0,8.6,0.9,11.9,2.8l-3.1,7.6c-3.1-1.6-6-2.4-8.8-2.4c-3.1,0-4.1,0.9-4.1,1.9
		c0,3.8,17.4,0.7,17.4,12.3c0,5.7-4.8,10.5-14.7,10.5C474,860.5,468.8,859.3,465.7,857.4z"/>
</g>
<g>
	<path class="st7" d="M221.3,859.8l-0.2-14.3l-6.7,11.6h-4.7l-6.7-11v13.8h-9.7v-31.4h8.6l10.2,16.7l10-16.7h8.6l0.2,31.4H221.3z"/>
	<path class="st7" d="M262.2,851.8v7.9h-26.1v-31.4h25.5v7.9h-15.2v3.6h13.3v7.6h-13.3v4.1h15.7V851.8z"/>
	<path class="st7" d="M262.7,855.8l5.7-6.7c1.7,2.1,3.3,3.1,5,3.1c2.2,0,3.5-1.4,3.5-4v-11.9h-10.7v-7.9h21.1v19.3
		c0,8.6-4.5,12.8-12.9,12.8C269.3,860.5,265.3,858.9,262.7,855.8z"/>
	<path class="st7" d="M292.1,828.4h10.5v31.4h-10.5V828.4z"/>
	<path class="st7" d="M307.8,828.4h10.5v23.1h14.2v8.3h-24.7V828.4z"/>
	<path class="st7" d="M335.4,828.4h10.5v23.1h14.2v8.3h-24.7V828.4z"/>
	<path class="st7" d="M361.4,844.1c0-9.5,7.4-16.4,17.8-16.4c10.4,0,17.8,6.9,17.8,16.4s-7.4,16.4-17.8,16.4
		C368.9,860.5,361.4,853.6,361.4,844.1z M386.1,844.1c0-4.8-3.1-7.8-7.1-7.8c-4,0-7.1,2.9-7.1,7.8c0,4.8,3.1,7.8,7.1,7.8
		C383,851.8,386.1,848.9,386.1,844.1z"/>
	<path class="st7" d="M431.7,828.4v31.4h-8.6l-11.9-14.3v14.3h-10.4v-31.4h8.6l11.9,14.3v-14.3H431.7z"/>
	<path class="st7" d="M462.9,851.8v7.9h-26.1v-31.4h25.5v7.9h-15.2v3.6h13.3v7.6h-13.3v4.1h15.7V851.8z"/>
	<path class="st7" d="M465,857.4l3.5-7.8c2.9,1.7,6.9,2.9,10.4,2.9c2.9,0,4.1-0.7,4.1-1.7c0-4-17.4-0.7-17.4-12.4
		c0-5.9,4.8-10.5,14.7-10.5c4.1,0,8.6,0.9,11.9,2.8l-3.1,7.6c-3.1-1.6-6-2.4-8.8-2.4c-3.1,0-4.1,0.9-4.1,1.9
		c0,3.8,17.4,0.7,17.4,12.3c0,5.7-4.8,10.5-14.7,10.5C473.4,860.5,468.1,859.3,465,857.4z"/>
</g>
<g>
	<path class="st11" d="M775,1216.1v8.1h-24.8v-6.4l11.2-10.4c2.1-2,2.4-3.2,2.4-4.2c0-1.5-1-2.4-3-2.4c-1.9,0-3.6,1-4.6,2.9
		l-7.9-3.9c2.3-4.2,6.7-7.2,13.4-7.2c7.3,0,12.5,3.8,12.5,9.7c0,3.1-0.8,5.8-5.3,9.9l-4.4,4L775,1216.1L775,1216.1z"/>
</g>
</svg>
