<?xml version="1.0" encoding="utf-8"?>
<!-- Generator: Adobe Illustrator 24.0.0, SVG Export Plug-In . SVG Version: 6.00 Build 0)  -->
<svg version="1.1" id="Capa_1" xmlns="http://www.w3.org/2000/svg" xmlns:xlink="http://www.w3.org/1999/xlink" x="0px" y="0px"
	 viewBox="0 0 1920 2314" style="enable-background:new 0 0 1920 2314;" xml:space="preserve">
<style type="text/css">
	.st0{fill:#8E8E8E;}
	.st1{fill:#BFBFBF;}
	.st2{stroke:#000000;stroke-width:6;stroke-miterlimit:10;}
	.st3{fill:#FFFFFF;}
	.st4{fill:#FFFFFF;stroke:#000000;stroke-width:6;stroke-miterlimit:10;}
	.st5{fill:#D4353F;}
	.st6{fill:#FF6D00;}
	.st7{fill:#FF8500;}
	.st8{fill:#D7D9D9;}
	.st9{fill:#C5C7C8;}
	.st10{opacity:0.4;fill:#DA5D68;enable-background:new    ;}
	.st11{opacity:0.4;fill:#D4353F;enable-background:new    ;}
	.st12{enable-background:new    ;}
	.st13{fill:#444444;}
</style>
<path class="st0" d="M962.6,397.1c-11.5,24.3-24.1,50.1-41.3,71.1c-27.9,34-100.8,67.4-82,121.7c7.3,21,25.8,36.3,40.2,52.3
	c17.4,19.4,30.2,40.1,32.8,66.5c3,29.3-9.7,59.5-3.7,88.4c4.3,20.7,27.8,36.4,45.1,46.5c22.5,13.2,36.8-5.4,54.3-17
	c19.4-12.9,40.9-19.1,61.7-6.9c18.9,11.2,38.9,11.4,53.2-6.5c16.3-20.3,29.9-40.8,50.5-57.4c20-16.1,44-30,70.4-31.1
	c24.6-1,49.5,10.8,59.1,34.1c2.4,5.8,3.7,14,8,18.8c2.5,2.8,5.9,3.9,6.6,3.9c3.1,0.1,7.3-2,10.5-2.3c6.3-0.5,12.4,0.6,18.6,1.6
	c29.9,4.9,58.1,9.2,85.7,22.5c11.7,5.6,26.5,14.6,39.7,8c3.6-1.8,6.5-5.5,10-7.6c5-2.9,10.5-4.7,16-6.4c28.5-8.9,56.8-9.5,86.4-8.7
	c33.4,0.9,66.7,0.9,99.8-1.3c-14.9-22.6-29.9-45.2-44.5-67.9c-53.5-83.1-44.2-137.8,28.6-206.2c15.2-14.3,29-43.3,25.5-62.3
	c-22.2-122.2-49.4-243.5-76.9-374.4c0.1-0.1,0.3-0.2,0.4-0.2c30.6-16.9,23.8-43.7,9.3-62.7c-5.9-7.7-34-2.4-50.3,2.5
	c-28.9,8.6-56.3,29.8-84.9,30.9c-74.3,2.8-74.2-0.4-98.4,65.7c-3.1,8.5-11.2,15.2-14,23.7c-5,15.4-11.9,31.9-10.6,47.2
	c5.1,59.6-10.6,83.3-69.4,99.4c-40.1,11-87.4,13.1-118.3,36.5c-64.7,49.1-129.6,26.3-195.1,18.2
	C980.4,358.2,971.6,378.1,962.6,397.1z"/>
<path class="st1" d="M1616.7,76.5C1612.2,82.9,1613.5,78.7,1616.7,76.5L1616.7,76.5z"/>
<path class="st1" d="M560.9,705.2c35.3,17.4,72.7,29.8,109.2,44.7c20.7,8.4,41.3,17.5,60.5,29.1c13.3,8.1,24,19.2,34.7,30.4
	c11.8,12.4,23.2,26,36.8,36.4c2.6,2,6.4,3.4,8.6,5.6c0.7,0.5,1.5,0.8,2.4,1.1c4.3-1.4,8.4-3.1,12.5-5c20.8-9.7,42.5-20.6,61.7-33.7
	c-5-11.8-6.7-24.9-5.7-39.7c2-29,11.8-60.6-2.3-88.1c-21.4-41.9-74.2-65.6-68.6-119.6c5.5-53.1,56.3-76.5,88.1-112.2
	c16.1-18,27.2-42,37.8-63.5c8.5-17.3,17.7-36.2,22.9-55.5c-19.4-1.2-38.9-1.6-58.3-0.6c-10.3,0.5-23.2,12.6-30,9.3
	c-76.5-36.9-140.8-8.5-203.2,34.4c-1.2,0.8-3,0.8-4.5,1.2c-60.4,16.8-79.6,40.7-72,103.7c5.9,48.7,16.6,93.1-5.3,143.8
	C575.4,652.1,567.5,678.4,560.9,705.2z"/>
<path class="st0" d="M1375,1144.1c-19-27.3-30.9-59.1-53.3-84.1c-19.9-22.2-50-43.9-81.2-32.8c-35.9,12.8-51.1,53.2-59.4,86.9
	c-8.3,33.7-13.8,69.2-34.1,98.4c-18,25.8-44.3,44.1-75.7,49.3c-31.1,5.1-63.2-2.5-88.4-21.6c-6.6-5-12.4-10.2-17.3-16.9
	c-3.5-4.9-6.1-10.6-11.2-14.2c-13.7-9.6-33.3,0.1-48.8-2c-35.4-4.8-58.5-38.6-93.4-43.4c-21.1-2.9-32.8,9.4-37.9,28.8
	c-5.8,21.8-4.3,45.7-1.7,67.9c3.6,31.5,0.3,67.5,18.5,94.9c9.8,14.8,24.1,26.2,36.9,38.3c13.1,12.3,24,25.7,34.1,40.5
	c11.9,17.4,23.3,35.5,31.8,54.9c5.2,12.1,8.8,21.9,6.1,34.8c-1.2,5.8-3.6,12.5-3.6,18.5c0.2,0.2,0.4,0.6,0.8,1.4
	c1.5,3,3.5,5.9,5.4,8.7c6.9,10.6,16.4,20.5,20.1,32.7c8.3,27.8,6.7,58,7.7,86.7c0.8,24.2,1.6,55.4,21.9,72.3
	c25.2,21,66.1,23.3,97.2,25.9c13.7,1.2,27.5,2.7,41.3,4.3c3.7-19.7,7.4-39.5,11.4-59.2c5.3-26.4,17.7-53.8,34.3-74.9
	c25.9-32.9,36-87.1,95.4-81.7c37.4-58.1,93.9-112.1,107.7-175.4c15.4-70.7,47.4-131.6,77.2-193.7
	C1400.7,1176.3,1386.9,1161.2,1375,1144.1z"/>
<path class="st0" d="M456.9,1265.2C456.8,1265.2,456.8,1265.2,456.9,1265.2c1.4,3,2.7,6.1,3.9,9.3c7.7,20.4,8.9,44.2,20.5,63
	c3.9,6.3,9.5,13.1,17,14.4c8.9,1.5,20-1.3,28.7-3.4c8.2-2,21.9-4.6,28-11.1c3.6-3.9,3.8-11.4,4.1-17.5c1.5-23.4,0.9-47.9,0.2-71.3
	c-1.1-35.7-6.6-71.4-4-107.2c2-27.7,9.9-51.7,27.5-73.5c16.9-20.9,38.9-36.9,58.5-55c50.3-46.6,100.3-94.4,146.3-145.4
	c-0.1-0.1-0.3-0.2-0.4-0.3c-22.1-16.8-38.4-39.7-59.2-57.9c-11.9-10.4-27.5-17.3-41.7-24c-17.8-8.3-36.1-15.4-54.4-22.3
	c-26-9.9-52-19.7-77-31.6c-5.6,25.9-10.6,52.1-16.2,77.9c-5.4,24.6-5,50.7-5.3,76.2c-0.5,40.1,5.1,81-49.4,94.8
	c-11.8,3-28.2,25.6-26.6,36.8c8,53.9,22,107,33,160.5C497.8,1213.4,512.9,1251.2,456.9,1265.2z"/>
<path class="st1" d="M323.4,1761.7c1.6,0.2,3.1,0.3,4.7,0.5c15.9,1.3,37.1,2,48-12c11.1-14.3,12.9-33.8,23.7-48.3
	c10.3-13.7,21.5-25.5,29.4-40.9c8.4-16.4,15.3-32.6,30.6-44c11.2-8.4,24.4-11.7,38.2-12.6c9.9-0.6,22.2,1.7,31.5-2.6
	c10.6-4.9,11-19.7,11.7-29.8c2-26.8-1.3-53.4-1.8-80.2c-6.1,1.4-12.3,2.6-18.5,3.3c-18.1,2.1-35.8-0.4-53.4-4.6
	c-20.6-4.9-40.4-11.9-61-16.7c-6.6-1.6-13.2-3.2-19.6-5.2c-3.5,16.3-6.8,32.6-9.8,48.9c-13.6,72.9-2,151.4-50.2,216.3
	c-1.8,2.4-3.1,5.8-3,8.7C324,1749,323.9,1755.4,323.4,1761.7z"/>
<path class="st1" d="M676.6,1987.3c4.5-10,8.4-22.3,5-33.2c-3.1-9.8-13.4-16.6-20.3-23.7c-15.4-15.9-20.6-33.1-19.8-55
	c0.6-19-2.8-35.9-5.6-54.5c-2.1-14.2-2.7-29.7,7-41.4c11-13.2,29.7-15.9,46-16c24.4-0.2,45.8,10.9,68.3,18.8
	c11,3.9,22.9,7.5,34.7,5.6c10-1.6,18.8-8.2,26.6-14.3c16-12.5,33.6-23.7,54.9-20.6c8.1,1.2,15.5,4.4,23.4,6.2
	c8.3,1.9,12.5-2.5,17.5-9.1c1.6-2.1,3.6-3.6,5.7-4.5c-2.1-3.4-4-7-5.6-10.9c-11.4-27.6-10.1-58.8-10.9-88.1
	c-0.4-15.2-0.8-30.6-3.9-45.5c-2.9-14.1-11.9-23.6-19.6-35.5c-5.3-8.2-8.3-14.5-8.8-22.2c-27.5,11.2-61.9,3.5-90.1-0.3
	c-16.8-2.3-32.8-1.1-49.6-1.7c-17.6-0.6-34.4-4.3-50.6-11c-19.5-8.1-37.4-19.4-55.8-29.5c-13.9-7.7-28.1-14.9-44.3-15.3
	c-5.2-0.1-10.2,0.3-15.3,1c0.1,0.5,0.1,1,0.1,1.6c0.3,34.7,6.5,70.1-0.8,104.5c-2.1,9.7-6.1,18.5-12.9,25.2c0.4,2,0.1,4.2-0.9,6.7
	c-21.7,51.8-27.5,114.9-66.7,157.5c-12.4,13.5-29.5,25.8-37.6,42.6c-7.4,15.3,1.5,21.6,10.2,32.8c11.2,14.5,12.7,34.6,7,51.7
	c-3.4,10.4-9.8,19.7-12.7,30.3c-2.8,10.1-0.8,20.4,1.6,30.4c9,38.7,27.3,86.7-15,112.5c-18.8,11.4-45.3,13.7-65,24.4
	c9.4,9,18.3,20.4,26.7,34.1c22.2,36.5,40.5,25.3,71-6.8c39.4-41.5,84.4-80,133.1-109.8c21.4-13.1,41-15,57.3-7.6
	C666.2,2006.8,672.1,1997.4,676.6,1987.3z"/>
<path class="st0" d="M983.1,1786.2c-17.3-4.6-33.7-11.4-46.8-22.2c-13,16.7-27.3,25.8-48.8,19.7c-9.8-2.8-18.4-6.9-28.8-4.1
	c-10.3,2.9-18.2,9.7-26.5,16.1c-17.9,13.8-36.5,21-59.2,17.6c-23.3-3.5-43.8-16-66.5-21.6c-10.8-2.7-39.3-6.6-45,7.3
	c-4.6,11.2,2.3,29.1,4.2,40.3c1.7,10.2,2.6,19.9,2.2,30.2c-0.4,10.2-1.7,21.2,2.8,30.7c8.2,17.2,28.5,25.2,35.1,43.9
	c12,33.7-10.6,60.1-24.6,88.6c7.2,8.6,13.3,19.8,17.9,33.3c10.3,29.9,11.5,63.3,23.7,92.2c6.7,15.9,31.6,38.8,41.7,35.8
	c29.9-8.8,43.8,5.1,57.2,24.8c26.8,39.2,62.8,42.6,106.2,34.3c37.3-7.2,44.5-25.9,27.3-54.6c-14.9-24.9-15.6-44.2,4.8-65.6
	c6.5-6.8,9.9-19.8,9.2-29.5c-2.5-32,13.8-46,41.5-57.5c15.4-6.4,33.9-23.4,37-38.5c14.2-69.1,25.8-138.7,38.3-208.2
	C1051.7,1796,1016.6,1795,983.1,1786.2z"/>
<path class="st0" d="M366.5,2080.5c17.5-7.6,37.3-9.9,54.2-18.9c40.6-21.6,1.1-80.7,2.7-114.8c1-21.1,17.2-37.7,17.1-58.5
	c0-16.3-14.9-22.6-20.4-36.7c-14.5-37.4,25-65.8,46.6-89.7c16.5-18.2,23.8-40.4,31.2-63.4c7.4-23,14.1-46.2,22.7-68.8
	c-5.5,0.4-11,0.3-16.5,0.5c-15.7,0.4-28.6,4.1-38.4,17.2c-11.4,15.2-16.7,34-28.3,49.4c-6.4,8.4-14.4,16-19.6,25.1
	c-4.5,7.9-7.1,16.8-10.7,25.2c-7.4,17.1-18.1,30.6-36,37.1c-16.5,6-34.2,6-51.9,3.8c-12,51.4-45.9,92.4-79.7,134
	c-8.8,10.8-16.6,28.5-14.3,41c7.8,41.6,20.5,82.3,32.4,127.6c35.5-14,65.9-14.7,92.3-0.6C355,2086.3,360.5,2083.2,366.5,2080.5z"/>
<path class="st1" d="M1720.3,843.6c-6.4-10.4-13-20.7-19.6-31c-6.3,0.6-12.5,1-18.8,1.4c-40.8,2.4-81.4,0-122.2,0.2
	c-16.3,0.1-31.9,1.8-47.6,6.2c-6.5,1.9-13.1,3.6-18.9,7.2c-3.6,2.3-6.5,5.5-10.3,7.5c-31.6,16.3-66.1-13.4-96-20.8
	c-14-3.5-28.5-5.2-42.7-7.5c-6.7-1.1-11.9-1.7-18.4-0.6c-3,0.5-5.5,1.8-8.8,1.7c-11.7-0.1-23.6-8.4-29.5-18.2
	c-5.7-9.6-6.5-23.5-15.4-30.7c-22.5-18.1-53.5-3.7-73.7,10.4c-23.1,16.2-38.1,38.2-55.2,60c-14.1,17.9-33.4,26.6-56.4,24.2
	c-12.2-1.3-21.6-7-32.1-12.5c-9.4-4.9-18-0.8-27.1,4.1c-21.7,11.8-34.4,31.1-61.9,28.9c-22.8-1.8-41.9-18.3-58.3-33
	c-2.1-1.8-3.9-3.7-5.7-5.6c-18.5,12.7-39.3,23.2-59.4,32.9c-7.8,3.8-16.3,8.5-25,10c-1.6,0.3-3.2,0.4-4.7,0.3
	c-28.6,32.2-59,62.6-90,92.5c-27.6,26.5-54.7,53.5-83.6,78.5c-19.8,17.1-41.6,35.1-51.3,60.2c-11.7,30.4-6.8,67.4-4.5,99.1
	c2.2,30,2.2,59.7,2.5,89.7c0.2,18.4,1.4,43.6-12,56.9c-15,14.9-41.1,19.5-61.2,21.8c-21.7,2.4-38.2-4.3-51.1-22.6
	c-14-19.9-16-48.7-25.3-72c-4.1,6.1-7.4,12.9-8.9,18.8c-12.2,46.8-24.2,93.8-34.8,141.1c10.7,3.3,21.8,5.7,33,8.5
	c21.3,5.3,41.8,13.4,63.6,17c35.6,5.9,68.9-13.4,104.4-7.9c34.5,5.4,62.8,30.4,94,44.3c30.6,13.6,61.7,7.8,93.8,12
	c16,2.1,31.9,4.8,48,5.5c12.2,0.6,28.8,1.5,39-6.8c2.1-1.7,4.4-2.7,6.6-3c-1.6-3.8-2.6-8.1-4.3-12c-16.2-37.7-41.4-70.3-71.2-97.9
	c-13.3-12.3-25.9-25.1-34.9-40.9c-9.4-16.6-12.4-34.6-13.8-53.4c-2-27.7-6.6-55.8-6.2-83.6c0.3-22.7,3.3-47.9,17.3-66.5
	c15.6-20.7,40.8-24.3,64.8-18.3c18.3,4.6,33.8,16.2,49.5,26.2c8,5.1,16.3,10.2,25.5,13.2c9,2.9,17.3,1.9,26.4,0.8
	c17.2-2.1,33.1-0.8,46.4,11.5c5.5,5,8.6,11.4,13.1,17.3c4.7,6.1,11.2,10.9,17.8,15c28.3,17.6,64.5,17.8,93,0.5
	c32.4-19.7,43.8-57.2,51.8-92c8.4-36.3,16.6-73.4,42.1-102c22.6-25.4,55.9-38.8,89.3-28.8c33,9.9,59,36.5,77.8,64.4
	c18.3,27.2,30.3,57.9,52.3,82.7c5.2,5.9,10.8,11.2,16.6,16.3c2.8-6.1,5.5-12.1,8.2-18.3c12.5-28.6,34.2-53.2,53.3-82.1
	c-28.7-17.6-33.5-47.2-7.7-66.3c15-11.1,45.6-2.2,69.1-0.2c13.1,1.1,27.1,11.9,38.5,9.1c28.2-7,55-19.5,82.6-29.3
	C1746.9,951.4,1761.9,911.1,1720.3,843.6z"/>
<g>
	<path class="st2" d="M536.8,867.7c0-9.5,7.2-16.2,17.1-16.2c5.7,0,10.3,2.1,13.4,5.9l-5.6,5.1c-2-2.4-4.3-3.6-7.3-3.6
		c-5.1,0-8.7,3.5-8.7,8.9c0,5.3,3.5,8.9,8.7,8.9c3,0,5.4-1.3,7.3-3.6l5.6,5.1c-3,3.8-7.6,5.9-13.4,5.9
		C544,883.8,536.8,877.1,536.8,867.7z"/>
	<path class="st2" d="M591.4,877.2h-13.1l-2.4,6h-9l13.7-31.1h8.7l13.8,31.1H594L591.4,877.2z M588.8,870.7l-4-9.9l-4,9.9H588.8z"/>
	<path class="st2" d="M605.4,852.1h8.8v24.1H629v7h-23.6V852.1z"/>
	<path class="st2" d="M632.5,852.1h14.7c10.3,0,17.4,6,17.4,15.5s-7.1,15.5-17.4,15.5h-14.7V852.1z M646.8,876.2
		c5.3,0,8.8-3.2,8.8-8.5s-3.5-8.5-8.8-8.5h-5.5v17H646.8z"/>
	<path class="st2" d="M694.1,876.4v6.8h-24.9v-31.1h24.4v6.8h-15.7v5.2h13.8v6.6h-13.8v5.7H694.1z"/>
	<path class="st2" d="M712.5,874.9h-4.8v8.3H699v-31.1h14.2c8.5,0,13.8,4.4,13.8,11.5c0,4.6-2.2,7.9-6.1,9.8l6.7,9.8h-9.4
		L712.5,874.9z M712.6,859.1h-4.9v9.1h4.9c3.6,0,5.5-1.7,5.5-4.5C718.1,860.7,716.3,859.1,712.6,859.1z"/>
	<path class="st2" d="M752.6,877.2h-13.1l-2.4,6h-9l13.7-31.1h8.7l13.8,31.1H755L752.6,877.2z M750,870.7l-4-9.9l-4,9.9H750z"/>
</g>
<g>
	<path class="st2" d="M609.8,448.7c0-9.5,7.2-16.2,17.1-16.2c5.7,0,10.3,2.1,13.4,5.9l-5.6,5.1c-2-2.4-4.3-3.6-7.3-3.6
		c-5.1,0-8.7,3.5-8.7,8.9c0,5.3,3.5,8.9,8.7,8.9c3,0,5.4-1.3,7.3-3.6l5.6,5.1c-3,3.8-7.6,5.9-13.4,5.9
		C617,464.8,609.8,458.1,609.8,448.7z"/>
	<path class="st2" d="M673.7,433.1v31.1h-8.8v-12.1h-12v12.1h-8.8v-31.1h8.8v11.7h12v-11.7H673.7z"/>
	<path class="st2" d="M700.7,458.2h-13.1l-2.4,6h-9l13.7-31.1h8.7l13.8,31.1h-9.1L700.7,458.2z M698.1,451.7l-4-9.9l-4,9.9H698.1z"
		/>
	<path class="st2" d="M744.3,433.1v31.1H737l-13.7-16.6v16.6h-8.6v-31.1h7.2l13.7,16.6v-16.6H744.3z M724.5,430.5h-4.1
		c0.1-4.3,2.2-7.1,5.6-7.1c3.2,0,4.8,2.7,6.4,2.7c1.2,0,2-0.8,2-2.2h4.1c-0.1,4.2-2.2,7-5.6,7c-3.2,0-4.8-2.8-6.4-2.8
		C725.4,428.2,724.6,429,724.5,430.5z"/>
	<path class="st2" d="M771.3,458.2h-13.1l-2.4,6h-9l13.7-31.1h8.7l13.8,31.1h-9.1L771.3,458.2z M768.7,451.7l-4-9.9l-4,9.9H768.7z"
		/>
	<path class="st2" d="M798.9,455.9h-4.8v8.3h-8.8v-31.1h14.2c8.5,0,13.8,4.4,13.8,11.5c0,4.6-2.2,7.9-6.1,9.8l6.7,9.8h-9.4
		L798.9,455.9z M799,440.1h-4.9v9.1h4.9c3.6,0,5.5-1.7,5.5-4.5C804.5,441.7,802.7,440.1,799,440.1z"/>
	<path class="st2" d="M839,458.2h-13.1l-2.4,6h-9l13.7-31.1h8.7l13.8,31.1h-9.1L839,458.2z M836.4,451.7l-4-9.9l-4,9.9H836.4z"/>
	<path class="st2" d="M853.1,433.1h8.8v24.1h14.8v7h-23.6V433.1z"/>
</g>
<g>
	<path class="st3" d="M536.8,867.7c0-9.5,7.2-16.2,17.1-16.2c5.7,0,10.3,2.1,13.4,5.9l-5.6,5.1c-2-2.4-4.3-3.6-7.3-3.6
		c-5.1,0-8.7,3.5-8.7,8.9c0,5.3,3.5,8.9,8.7,8.9c3,0,5.4-1.3,7.3-3.6l5.6,5.1c-3,3.8-7.6,5.9-13.4,5.9
		C544,883.8,536.8,877.1,536.8,867.7z"/>
	<path class="st3" d="M591.4,877.2h-13.1l-2.4,6h-9l13.7-31.1h8.7l13.8,31.1H594L591.4,877.2z M588.8,870.7l-4-9.9l-4,9.9H588.8z"/>
	<path class="st3" d="M605.4,852.1h8.8v24.1H629v7h-23.6V852.1z"/>
	<path class="st3" d="M632.5,852.1h14.7c10.3,0,17.4,6,17.4,15.5s-7.1,15.5-17.4,15.5h-14.7V852.1z M646.8,876.2
		c5.3,0,8.8-3.2,8.8-8.5s-3.5-8.5-8.8-8.5h-5.5v17H646.8z"/>
	<path class="st3" d="M694.1,876.4v6.8h-24.9v-31.1h24.4v6.8h-15.7v5.2h13.8v6.6h-13.8v5.7H694.1z"/>
	<path class="st3" d="M712.5,874.9h-4.8v8.3H699v-31.1h14.2c8.5,0,13.8,4.4,13.8,11.5c0,4.6-2.2,7.9-6.1,9.8l6.7,9.8h-9.4
		L712.5,874.9z M712.6,859.1h-4.9v9.1h4.9c3.6,0,5.5-1.7,5.5-4.5C718.1,860.7,716.3,859.1,712.6,859.1z"/>
	<path class="st3" d="M752.6,877.2h-13.1l-2.4,6h-9l13.7-31.1h8.7l13.8,31.1H755L752.6,877.2z M750,870.7l-4-9.9l-4,9.9H750z"/>
</g>
<g>
	<path class="st4" d="M894.8,1012.7c0-9.5,7.2-16.2,17.1-16.2c5.7,0,10.3,2.1,13.4,5.9l-5.6,5.1c-2-2.4-4.3-3.6-7.3-3.6
		c-5.1,0-8.7,3.5-8.7,8.9c0,5.3,3.5,8.9,8.7,8.9c3,0,5.4-1.3,7.3-3.6l5.6,5.1c-3,3.8-7.6,5.9-13.4,5.9
		C902,1028.8,894.8,1022.1,894.8,1012.7z"/>
	<path class="st4" d="M926.8,1012.7c0-9.3,7.3-16.2,17.3-16.2s17.3,6.8,17.3,16.2s-7.3,16.2-17.3,16.2S926.8,1022,926.8,1012.7z
		 M952.5,1012.7c0-5.4-3.7-8.9-8.4-8.9s-8.4,3.5-8.4,8.9s3.7,8.9,8.4,8.9S952.5,1018,952.5,1012.7z"/>
	<path class="st4" d="M994,1008.6c0,7.1-5.3,11.4-13.8,11.4h-5.4v8.1H966V997h14.2C988.6,997.1,994,1001.5,994,1008.6z
		 M985.1,1008.6c0-2.9-1.8-4.6-5.5-4.6h-4.9v9.1h4.9C983.3,1013.1,985.1,1011.5,985.1,1008.6z"/>
	<path class="st4" d="M998.2,997.1h8.8v31.1h-8.8V997.1z"/>
	<path class="st4" d="M1034.1,1022.2H1021l-2.4,6h-9l13.7-31.1h8.7l13.8,31.1h-9.1L1034.1,1022.2z M1031.5,1015.7l-4-9.9l-4,9.9
		H1031.5z"/>
	<path class="st4" d="M1076.1,1008.6c0,7.1-5.3,11.4-13.8,11.4h-5.4v8.1h-8.8V997h14.2C1070.8,997.1,1076.1,1001.5,1076.1,1008.6z
		 M1067.3,1008.6c0-2.9-1.8-4.6-5.5-4.6h-4.9v9.1h4.9C1065.4,1013.1,1067.3,1011.5,1067.3,1008.6z"/>
	<path class="st4" d="M1079.2,1012.7c0-9.3,7.3-16.2,17.3-16.2s17.3,6.8,17.3,16.2s-7.3,16.2-17.3,16.2S1079.2,1022,1079.2,1012.7z
		 M1104.9,1012.7c0-5.4-3.7-8.9-8.4-8.9s-8.4,3.5-8.4,8.9s3.7,8.9,8.4,8.9S1104.9,1018,1104.9,1012.7z"/>
</g>
<g>
	<path class="st3" d="M894.8,1012.7c0-9.5,7.2-16.2,17.1-16.2c5.7,0,10.3,2.1,13.4,5.9l-5.6,5.1c-2-2.4-4.3-3.6-7.3-3.6
		c-5.1,0-8.7,3.5-8.7,8.9c0,5.3,3.5,8.9,8.7,8.9c3,0,5.4-1.3,7.3-3.6l5.6,5.1c-3,3.8-7.6,5.9-13.4,5.9
		C902,1028.8,894.8,1022.1,894.8,1012.7z"/>
	<path class="st3" d="M926.8,1012.7c0-9.3,7.3-16.2,17.3-16.2s17.3,6.8,17.3,16.2s-7.3,16.2-17.3,16.2S926.8,1022,926.8,1012.7z
		 M952.5,1012.7c0-5.4-3.7-8.9-8.4-8.9s-8.4,3.5-8.4,8.9s3.7,8.9,8.4,8.9S952.5,1018,952.5,1012.7z"/>
	<path class="st3" d="M994,1008.6c0,7.1-5.3,11.4-13.8,11.4h-5.4v8.1H966V997h14.2C988.6,997.1,994,1001.5,994,1008.6z
		 M985.1,1008.6c0-2.9-1.8-4.6-5.5-4.6h-4.9v9.1h4.9C983.3,1013.1,985.1,1011.5,985.1,1008.6z"/>
	<path class="st3" d="M998.2,997.1h8.8v31.1h-8.8V997.1z"/>
	<path class="st3" d="M1034.1,1022.2H1021l-2.4,6h-9l13.7-31.1h8.7l13.8,31.1h-9.1L1034.1,1022.2z M1031.5,1015.7l-4-9.9l-4,9.9
		H1031.5z"/>
	<path class="st3" d="M1076.1,1008.6c0,7.1-5.3,11.4-13.8,11.4h-5.4v8.1h-8.8V997h14.2C1070.8,997.1,1076.1,1001.5,1076.1,1008.6z
		 M1067.3,1008.6c0-2.9-1.8-4.6-5.5-4.6h-4.9v9.1h4.9C1065.4,1013.1,1067.3,1011.5,1067.3,1008.6z"/>
	<path class="st3" d="M1079.2,1012.7c0-9.3,7.3-16.2,17.3-16.2s17.3,6.8,17.3,16.2s-7.3,16.2-17.3,16.2S1079.2,1022,1079.2,1012.7z
		 M1104.9,1012.7c0-5.4-3.7-8.9-8.4-8.9s-8.4,3.5-8.4,8.9s3.7,8.9,8.4,8.9S1104.9,1018,1104.9,1012.7z"/>
</g>
<g>
	<path class="st4" d="M857,1341.1h-9.5v-7h27.8v7h-9.5v24.1H857V1341.1z"/>
	<path class="st4" d="M878.5,1334.1h8.8v31.1h-8.8V1334.1z"/>
	<path class="st4" d="M918.5,1358.4v6.8h-24.9v-31.1H918v6.8h-15.7v5.2h13.8v6.6h-13.8v5.7H918.5z"/>
	<path class="st4" d="M937,1356.9h-4.8v8.3h-8.8v-31.1h14.2c8.5,0,13.8,4.4,13.8,11.5c0,4.6-2.2,7.9-6.1,9.8l6.7,9.8h-9.4
		L937,1356.9z M937,1341.1h-4.9v9.1h4.9c3.6,0,5.5-1.7,5.5-4.5C942.5,1342.7,940.7,1341.1,937,1341.1z"/>
	<path class="st4" d="M969.8,1356.9H965v8.3h-8.8v-31.1h14.2c8.5,0,13.8,4.4,13.8,11.5c0,4.6-2.2,7.9-6.1,9.8l6.7,9.8h-9.4
		L969.8,1356.9z M969.9,1341.1H965v9.1h4.9c3.6,0,5.5-1.7,5.5-4.5C975.3,1342.7,973.5,1341.1,969.9,1341.1z"/>
	<path class="st4" d="M1009.9,1359.2h-13.1l-2.4,6h-9l13.7-31.1h8.7l13.8,31.1h-9.1L1009.9,1359.2z M1007.3,1352.7l-4-9.9l-4,9.9
		H1007.3z"/>
	<path class="st4" d="M1057.6,1359.2h-13.1l-2.4,6h-9l13.7-31.1h8.7l13.8,31.1h-9.1L1057.6,1359.2z M1055.1,1352.7l-4-9.9l-4,9.9
		H1055.1z"/>
	<path class="st4" d="M1099.7,1365.2l-0.1-16.5l-8,13.4h-3.9l-7.9-13v16h-8.1V1334h7.2l10.9,17.9l10.6-17.9h7.2l0.1,31.1
		L1099.7,1365.2L1099.7,1365.2z"/>
	<path class="st4" d="M1134.8,1359.2h-13.1l-2.4,6h-9l13.7-31.1h8.7l13.8,31.1h-9.1L1134.8,1359.2z M1132.3,1352.7l-4-9.9l-4,9.9
		H1132.3z"/>
	<path class="st4" d="M1162.5,1356.9h-4.8v8.3h-8.8v-31.1h14.2c8.5,0,13.8,4.4,13.8,11.5c0,4.6-2.2,7.9-6.1,9.8l6.7,9.8h-9.4
		L1162.5,1356.9z M1162.6,1341.1h-4.9v9.1h4.9c3.6,0,5.5-1.7,5.5-4.5C1168,1342.7,1166.2,1341.1,1162.6,1341.1z"/>
	<path class="st4" d="M1181.7,1334.1h8.8v31.1h-8.8V1334.1z"/>
	<path class="st4" d="M1196.8,1334.1h8.8v24.1h14.8v7h-23.6L1196.8,1334.1L1196.8,1334.1z"/>
	<path class="st4" d="M1223.8,1334.1h8.8v24.1h14.8v7h-23.6L1223.8,1334.1L1223.8,1334.1z"/>
	<path class="st4" d="M1272,1359.2h-13.1l-2.4,6h-9l13.7-31.1h8.7l13.8,31.1h-9.1L1272,1359.2z M1269.5,1352.7l-4-9.9l-4,9.9H1269.5
		z"/>
</g>
<g>
	<path class="st3" d="M857,1341.1h-9.5v-7h27.8v7h-9.5v24.1H857V1341.1z"/>
	<path class="st3" d="M878.5,1334.1h8.8v31.1h-8.8V1334.1z"/>
	<path class="st3" d="M918.5,1358.4v6.8h-24.9v-31.1H918v6.8h-15.7v5.2h13.8v6.6h-13.8v5.7H918.5z"/>
	<path class="st3" d="M937,1356.9h-4.8v8.3h-8.8v-31.1h14.2c8.5,0,13.8,4.4,13.8,11.5c0,4.6-2.2,7.9-6.1,9.8l6.7,9.8h-9.4
		L937,1356.9z M937,1341.1h-4.9v9.1h4.9c3.6,0,5.5-1.7,5.5-4.5C942.5,1342.7,940.7,1341.1,937,1341.1z"/>
	<path class="st3" d="M969.8,1356.9H965v8.3h-8.8v-31.1h14.2c8.5,0,13.8,4.4,13.8,11.5c0,4.6-2.2,7.9-6.1,9.8l6.7,9.8h-9.4
		L969.8,1356.9z M969.9,1341.1H965v9.1h4.9c3.6,0,5.5-1.7,5.5-4.5C975.3,1342.7,973.5,1341.1,969.9,1341.1z"/>
	<path class="st3" d="M1009.9,1359.2h-13.1l-2.4,6h-9l13.7-31.1h8.7l13.8,31.1h-9.1L1009.9,1359.2z M1007.3,1352.7l-4-9.9l-4,9.9
		H1007.3z"/>
	<path class="st3" d="M1057.6,1359.2h-13.1l-2.4,6h-9l13.7-31.1h8.7l13.8,31.1h-9.1L1057.6,1359.2z M1055.1,1352.7l-4-9.9l-4,9.9
		H1055.1z"/>
	<path class="st3" d="M1099.7,1365.2l-0.1-16.5l-8,13.4h-3.9l-7.9-13v16h-8.1V1334h7.2l10.9,17.9l10.6-17.9h7.2l0.1,31.1
		L1099.7,1365.2L1099.7,1365.2z"/>
	<path class="st3" d="M1134.8,1359.2h-13.1l-2.4,6h-9l13.7-31.1h8.7l13.8,31.1h-9.1L1134.8,1359.2z M1132.3,1352.7l-4-9.9l-4,9.9
		H1132.3z"/>
	<path class="st3" d="M1162.5,1356.9h-4.8v8.3h-8.8v-31.1h14.2c8.5,0,13.8,4.4,13.8,11.5c0,4.6-2.2,7.9-6.1,9.8l6.7,9.8h-9.4
		L1162.5,1356.9z M1162.6,1341.1h-4.9v9.1h4.9c3.6,0,5.5-1.7,5.5-4.5C1168,1342.7,1166.2,1341.1,1162.6,1341.1z"/>
	<path class="st3" d="M1181.7,1334.1h8.8v31.1h-8.8V1334.1z"/>
	<path class="st3" d="M1196.8,1334.1h8.8v24.1h14.8v7h-23.6L1196.8,1334.1L1196.8,1334.1z"/>
	<path class="st3" d="M1223.8,1334.1h8.8v24.1h14.8v7h-23.6L1223.8,1334.1L1223.8,1334.1z"/>
	<path class="st3" d="M1272,1359.2h-13.1l-2.4,6h-9l13.7-31.1h8.7l13.8,31.1h-9.1L1272,1359.2z M1269.5,1352.7l-4-9.9l-4,9.9H1269.5
		z"/>
</g>
<g>
	<path class="st4" d="M1083.4,480.1h14.7c10.3,0,17.3,6,17.3,15.5s-7.1,15.5-17.3,15.5h-14.7V480.1z M1097.7,504.2
		c5.3,0,8.8-3.2,8.8-8.5s-3.5-8.5-8.8-8.5h-5.5v17H1097.7z"/>
	<path class="st4" d="M1120,480.1h8.8v31.1h-8.8V480.1z"/>
	<path class="st4" d="M1160,504.4v6.8h-25v-31.1h24.4v6.8h-15.7v5.2h13.8v6.6h-13.8v5.7H1160z"/>
	<path class="st4" d="M1185.6,495h7.8v12.9c-3.6,2.6-8.5,3.9-13,3.9c-9.9,0-17.1-6.7-17.1-16.2s7.2-16.2,17.3-16.2
		c5.8,0,10.5,2,13.6,5.7l-5.6,5.1c-2.1-2.4-4.6-3.5-7.5-3.5c-5.3,0-8.9,3.5-8.9,8.9c0,5.2,3.5,8.9,8.8,8.9c1.6,0,3.2-0.3,4.7-1V495
		H1185.6z"/>
	<path class="st4" d="M1197.4,495.7c0-9.3,7.3-16.2,17.3-16.2s17.3,6.8,17.3,16.2s-7.3,16.2-17.3,16.2S1197.4,505,1197.4,495.7z
		 M1223,495.7c0-5.4-3.7-8.9-8.4-8.9s-8.4,3.5-8.4,8.9s3.7,8.9,8.4,8.9S1223,501,1223,495.7z"/>
	<path class="st4" d="M1249.4,480.1h14.7c10.3,0,17.4,6,17.4,15.5s-7.1,15.5-17.4,15.5h-14.7V480.1z M1263.7,504.2
		c5.3,0,8.8-3.2,8.8-8.5s-3.5-8.5-8.8-8.5h-5.5v17H1263.7z"/>
	<path class="st4" d="M1311,504.4v6.8h-24.9v-31.1h24.4v6.8h-15.7v5.2h13.8v6.6h-13.8v5.7H1311z"/>
	<path class="st4" d="M1349.6,505.2h-13.1l-2.4,6h-9l13.7-31.1h8.7l13.8,31.1h-9.1L1349.6,505.2z M1347,498.7l-4-9.9l-4,9.9H1347z"
		/>
	<path class="st4" d="M1363.7,480.1h8.8v24.1h14.8v7h-23.6L1363.7,480.1L1363.7,480.1z"/>
	<path class="st4" d="M1418.8,511.2l-0.1-16.5l-8,13.4h-3.9l-7.9-13v16h-8.1V480h7.2l10.9,17.9l10.6-17.9h7.2l0.1,31.1h-8V511.2z"/>
	<path class="st4" d="M1453.9,505.2h-13.1l-2.4,6h-9l13.7-31.1h8.7l13.8,31.1h-9.1L1453.9,505.2z M1451.3,498.7l-4-9.9l-4,9.9
		H1451.3z"/>
	<path class="st4" d="M1488.3,495h7.8v12.9c-3.6,2.6-8.5,3.9-13,3.9c-9.9,0-17.1-6.7-17.1-16.2s7.2-16.2,17.3-16.2
		c5.8,0,10.5,2,13.6,5.7l-5.6,5.1c-2.1-2.4-4.6-3.5-7.5-3.5c-5.3,0-8.9,3.5-8.9,8.9c0,5.2,3.5,8.9,8.8,8.9c1.6,0,3.2-0.3,4.7-1V495
		H1488.3z"/>
	<path class="st4" d="M1515.2,502.9h-4.8v8.3h-8.8v-31.1h14.2c8.5,0,13.8,4.4,13.8,11.5c0,4.6-2.2,7.9-6.1,9.8l6.7,9.8h-9.4
		L1515.2,502.9z M1515.3,487.1h-4.9v9.1h4.9c3.6,0,5.5-1.7,5.5-4.5C1520.8,488.7,1518.9,487.1,1515.3,487.1z"/>
	<path class="st4" d="M1532.9,495.7c0-9.3,7.3-16.2,17.3-16.2s17.3,6.8,17.3,16.2s-7.3,16.2-17.3,16.2S1532.9,505,1532.9,495.7z
		 M1558.5,495.7c0-5.4-3.7-8.9-8.4-8.9s-8.4,3.5-8.4,8.9s3.7,8.9,8.4,8.9S1558.5,501,1558.5,495.7z"/>
</g>
<g>
	<path class="st3" d="M1083.4,480.1h14.7c10.3,0,17.3,6,17.3,15.5s-7.1,15.5-17.3,15.5h-14.7V480.1z M1097.7,504.2
		c5.3,0,8.8-3.2,8.8-8.5s-3.5-8.5-8.8-8.5h-5.5v17H1097.7z"/>
	<path class="st3" d="M1120,480.1h8.8v31.1h-8.8V480.1z"/>
	<path class="st3" d="M1160,504.4v6.8h-25v-31.1h24.4v6.8h-15.7v5.2h13.8v6.6h-13.8v5.7H1160z"/>
	<path class="st3" d="M1185.6,495h7.8v12.9c-3.6,2.6-8.5,3.9-13,3.9c-9.9,0-17.1-6.7-17.1-16.2s7.2-16.2,17.3-16.2
		c5.8,0,10.5,2,13.6,5.7l-5.6,5.1c-2.1-2.4-4.6-3.5-7.5-3.5c-5.3,0-8.9,3.5-8.9,8.9c0,5.2,3.5,8.9,8.8,8.9c1.6,0,3.2-0.3,4.7-1V495
		H1185.6z"/>
	<path class="st3" d="M1197.4,495.7c0-9.3,7.3-16.2,17.3-16.2s17.3,6.8,17.3,16.2s-7.3,16.2-17.3,16.2S1197.4,505,1197.4,495.7z
		 M1223,495.7c0-5.4-3.7-8.9-8.4-8.9s-8.4,3.5-8.4,8.9s3.7,8.9,8.4,8.9S1223,501,1223,495.7z"/>
	<path class="st3" d="M1249.4,480.1h14.7c10.3,0,17.4,6,17.4,15.5s-7.1,15.5-17.4,15.5h-14.7V480.1z M1263.7,504.2
		c5.3,0,8.8-3.2,8.8-8.5s-3.5-8.5-8.8-8.5h-5.5v17H1263.7z"/>
	<path class="st3" d="M1311,504.4v6.8h-24.9v-31.1h24.4v6.8h-15.7v5.2h13.8v6.6h-13.8v5.7H1311z"/>
	<path class="st3" d="M1349.6,505.2h-13.1l-2.4,6h-9l13.7-31.1h8.7l13.8,31.1h-9.1L1349.6,505.2z M1347,498.7l-4-9.9l-4,9.9H1347z"
		/>
	<path class="st3" d="M1363.7,480.1h8.8v24.1h14.8v7h-23.6L1363.7,480.1L1363.7,480.1z"/>
	<path class="st3" d="M1418.8,511.2l-0.1-16.5l-8,13.4h-3.9l-7.9-13v16h-8.1V480h7.2l10.9,17.9l10.6-17.9h7.2l0.1,31.1h-8V511.2z"/>
	<path class="st3" d="M1453.9,505.2h-13.1l-2.4,6h-9l13.7-31.1h8.7l13.8,31.1h-9.1L1453.9,505.2z M1451.3,498.7l-4-9.9l-4,9.9
		H1451.3z"/>
	<path class="st3" d="M1488.3,495h7.8v12.9c-3.6,2.6-8.5,3.9-13,3.9c-9.9,0-17.1-6.7-17.1-16.2s7.2-16.2,17.3-16.2
		c5.8,0,10.5,2,13.6,5.7l-5.6,5.1c-2.1-2.4-4.6-3.5-7.5-3.5c-5.3,0-8.9,3.5-8.9,8.9c0,5.2,3.5,8.9,8.8,8.9c1.6,0,3.2-0.3,4.7-1V495
		H1488.3z"/>
	<path class="st3" d="M1515.2,502.9h-4.8v8.3h-8.8v-31.1h14.2c8.5,0,13.8,4.4,13.8,11.5c0,4.6-2.2,7.9-6.1,9.8l6.7,9.8h-9.4
		L1515.2,502.9z M1515.3,487.1h-4.9v9.1h4.9c3.6,0,5.5-1.7,5.5-4.5C1520.8,488.7,1518.9,487.1,1515.3,487.1z"/>
	<path class="st3" d="M1532.9,495.7c0-9.3,7.3-16.2,17.3-16.2s17.3,6.8,17.3,16.2s-7.3,16.2-17.3,16.2S1532.9,505,1532.9,495.7z
		 M1558.5,495.7c0-5.4-3.7-8.9-8.4-8.9s-8.4,3.5-8.4,8.9s3.7,8.9,8.4,8.9S1558.5,501,1558.5,495.7z"/>
</g>
<g>
	<path class="st4" d="M649.9,1647.1l-13.3,31.1h-8.7l-13.3-31.1h9.5l8.4,20.2l8.6-20.2H649.9z"/>
	<path class="st4" d="M671.4,1672.2h-13.1l-2.4,6h-9l13.7-31.1h8.7l13.8,31.1H674L671.4,1672.2z M668.9,1665.7l-4-9.9l-4,9.9H668.9z
		"/>
	<path class="st4" d="M685.5,1647.1h8.8v24.1h14.8v7h-23.6V1647.1z"/>
	<path class="st4" d="M712.5,1647.1h8.8v24.1h14.8v7h-23.6V1647.1z"/>
	<path class="st4" d="M764.5,1671.4v6.8h-24.9v-31.1H764v6.8h-15.7v5.2h13.8v6.6h-13.8v5.7H764.5z"/>
	<path class="st4" d="M799,1647.1v31.1h-7.2l-13.7-16.6v16.6h-8.6v-31.1h7.2l13.7,16.6v-16.6H799z"/>
	<path class="st4" d="M826,1672.2h-13.1l-2.4,6h-9l13.7-31.1h8.7l13.8,31.1h-9.1L826,1672.2z M823.4,1665.7l-4-9.9l-4,9.9H823.4z"/>
	<path class="st4" d="M853.6,1669.9h-4.8v8.3H840v-31.1h14.2c8.5,0,13.8,4.4,13.8,11.5c0,4.6-2.2,7.9-6.1,9.8l6.7,9.8h-9.4
		L853.6,1669.9z M853.7,1654.1h-4.9v9.1h4.9c3.6,0,5.5-1.7,5.5-4.5C859.2,1655.7,857.4,1654.1,853.7,1654.1z"/>
</g>
<g>
	<path class="st3" d="M649.9,1647.1l-13.3,31.1h-8.7l-13.3-31.1h9.5l8.4,20.2l8.6-20.2H649.9z"/>
	<path class="st3" d="M671.4,1672.2h-13.1l-2.4,6h-9l13.7-31.1h8.7l13.8,31.1H674L671.4,1672.2z M668.9,1665.7l-4-9.9l-4,9.9H668.9z
		"/>
	<path class="st3" d="M685.5,1647.1h8.8v24.1h14.8v7h-23.6V1647.1z"/>
	<path class="st3" d="M712.5,1647.1h8.8v24.1h14.8v7h-23.6V1647.1z"/>
	<path class="st3" d="M764.5,1671.4v6.8h-24.9v-31.1H764v6.8h-15.7v5.2h13.8v6.6h-13.8v5.7H764.5z"/>
	<path class="st3" d="M799,1647.1v31.1h-7.2l-13.7-16.6v16.6h-8.6v-31.1h7.2l13.7,16.6v-16.6H799z"/>
	<path class="st3" d="M826,1672.2h-13.1l-2.4,6h-9l13.7-31.1h8.7l13.8,31.1h-9.1L826,1672.2z M823.4,1665.7l-4-9.9l-4,9.9H823.4z"/>
	<path class="st3" d="M853.6,1669.9h-4.8v8.3H840v-31.1h14.2c8.5,0,13.8,4.4,13.8,11.5c0,4.6-2.2,7.9-6.1,9.8l6.7,9.8h-9.4
		L853.6,1669.9z M853.7,1654.1h-4.9v9.1h4.9c3.6,0,5.5-1.7,5.5-4.5C859.2,1655.7,857.4,1654.1,853.7,1654.1z"/>
</g>
<g>
	<path class="st4" d="M775.2,1911.2H762l-2.4,6h-9l13.7-31.1h8.7l13.8,31.1h-9.1L775.2,1911.2z M772.6,1904.7l-4-9.9l-4,9.9H772.6z"
		/>
	<path class="st4" d="M789.2,1886.1h8.8v24.1h14.8v7h-23.6V1886.1z"/>
	<path class="st4" d="M820,1893.1h-9.5v-7h27.8v7h-9.5v24.1H820V1893.1z"/>
	<path class="st4" d="M839.5,1901.7c0-9.3,7.3-16.2,17.3-16.2s17.3,6.8,17.3,16.2s-7.3,16.2-17.3,16.2S839.5,1911,839.5,1901.7z
		 M865.2,1901.7c0-5.4-3.7-8.9-8.4-8.9s-8.4,3.5-8.4,8.9s3.7,8.9,8.4,8.9S865.2,1907,865.2,1901.7z"/>
	<path class="st4" d="M891.6,1886.1h14.7c10.3,0,17.4,6,17.4,15.5s-7.1,15.5-17.4,15.5h-14.7V1886.1z M905.9,1910.2
		c5.3,0,8.8-3.2,8.8-8.5s-3.5-8.5-8.8-8.5h-5.5v17H905.9z"/>
	<path class="st4" d="M953.2,1910.4v6.8h-24.9v-31.1h24.4v6.8H937v5.2h13.8v6.6H937v5.7H953.2z"/>
	<path class="st4" d="M958,1886.1h8.8v24.1h14.8v7H958V1886.1z"/>
	<path class="st4" d="M996.4,1901.7c0-9.5,7.2-16.2,17.1-16.2c5.7,0,10.3,2.1,13.4,5.9l-5.6,5.1c-2-2.4-4.3-3.6-7.3-3.6
		c-5.1,0-8.7,3.5-8.7,8.9s3.5,8.9,8.7,8.9c3,0,5.4-1.3,7.3-3.6l5.6,5.1c-3,3.8-7.6,5.9-13.4,5.9
		C1003.6,1917.8,996.4,1911.1,996.4,1901.7z"/>
	<path class="st4" d="M1051,1911.2h-13.1l-2.4,6h-9l13.7-31.1h8.7l13.8,31.1h-9.1L1051,1911.2z M1048.5,1904.7l-4-9.9l-4,9.9H1048.5
		z"/>
	<path class="st4" d="M1078.7,1908.9h-4.8v8.3h-8.8v-31.1h14.2c8.5,0,13.8,4.4,13.8,11.5c0,4.6-2.2,7.9-6.1,9.8l6.7,9.8h-9.4
		L1078.7,1908.9z M1078.8,1893.1h-4.9v9.1h4.9c3.6,0,5.5-1.7,5.5-4.5C1084.2,1894.7,1082.4,1893.1,1078.8,1893.1z"/>
	<path class="st4" d="M1126,1917.2l-0.1-16.5l-8,13.4h-3.9l-7.9-13v16h-8.1V1886h7.2l10.9,17.9l10.6-17.9h7.2l0.1,31.1L1126,1917.2
		L1126,1917.2z"/>
	<path class="st4" d="M1165.2,1910.4v6.8h-24.9v-31.1h24.4v6.8H1149v5.2h13.8v6.6H1149v5.7H1165.2z"/>
	<path class="st4" d="M1199.6,1886.1v31.1h-7.2l-13.7-16.6v16.6h-8.6v-31.1h7.2l13.7,16.6v-16.6H1199.6z"/>
</g>
<g>
	<path class="st3" d="M775.2,1911.2H762l-2.4,6h-9l13.7-31.1h8.7l13.8,31.1h-9.1L775.2,1911.2z M772.6,1904.7l-4-9.9l-4,9.9H772.6z"
		/>
	<path class="st3" d="M789.2,1886.1h8.8v24.1h14.8v7h-23.6V1886.1z"/>
	<path class="st3" d="M820,1893.1h-9.5v-7h27.8v7h-9.5v24.1H820V1893.1z"/>
	<path class="st3" d="M839.5,1901.7c0-9.3,7.3-16.2,17.3-16.2s17.3,6.8,17.3,16.2s-7.3,16.2-17.3,16.2S839.5,1911,839.5,1901.7z
		 M865.2,1901.7c0-5.4-3.7-8.9-8.4-8.9s-8.4,3.5-8.4,8.9s3.7,8.9,8.4,8.9S865.2,1907,865.2,1901.7z"/>
	<path class="st3" d="M891.6,1886.1h14.7c10.3,0,17.4,6,17.4,15.5s-7.1,15.5-17.4,15.5h-14.7V1886.1z M905.9,1910.2
		c5.3,0,8.8-3.2,8.8-8.5s-3.5-8.5-8.8-8.5h-5.5v17H905.9z"/>
	<path class="st3" d="M953.2,1910.4v6.8h-24.9v-31.1h24.4v6.8H937v5.2h13.8v6.6H937v5.7H953.2z"/>
	<path class="st3" d="M958,1886.1h8.8v24.1h14.8v7H958V1886.1z"/>
	<path class="st3" d="M996.4,1901.7c0-9.5,7.2-16.2,17.1-16.2c5.7,0,10.3,2.1,13.4,5.9l-5.6,5.1c-2-2.4-4.3-3.6-7.3-3.6
		c-5.1,0-8.7,3.5-8.7,8.9s3.5,8.9,8.7,8.9c3,0,5.4-1.3,7.3-3.6l5.6,5.1c-3,3.8-7.6,5.9-13.4,5.9
		C1003.6,1917.8,996.4,1911.1,996.4,1901.7z"/>
	<path class="st3" d="M1051,1911.2h-13.1l-2.4,6h-9l13.7-31.1h8.7l13.8,31.1h-9.1L1051,1911.2z M1048.5,1904.7l-4-9.9l-4,9.9H1048.5
		z"/>
	<path class="st3" d="M1078.7,1908.9h-4.8v8.3h-8.8v-31.1h14.2c8.5,0,13.8,4.4,13.8,11.5c0,4.6-2.2,7.9-6.1,9.8l6.7,9.8h-9.4
		L1078.7,1908.9z M1078.8,1893.1h-4.9v9.1h4.9c3.6,0,5.5-1.7,5.5-4.5C1084.2,1894.7,1082.4,1893.1,1078.8,1893.1z"/>
	<path class="st3" d="M1126,1917.2l-0.1-16.5l-8,13.4h-3.9l-7.9-13v16h-8.1V1886h7.2l10.9,17.9l10.6-17.9h7.2l0.1,31.1L1126,1917.2
		L1126,1917.2z"/>
	<path class="st3" d="M1165.2,1910.4v6.8h-24.9v-31.1h24.4v6.8H1149v5.2h13.8v6.6H1149v5.7H1165.2z"/>
	<path class="st3" d="M1199.6,1886.1v31.1h-7.2l-13.7-16.6v16.6h-8.6v-31.1h7.2l13.7,16.6v-16.6H1199.6z"/>
</g>
<g>
	<path class="st4" d="M148.1,1941.9v6.8h13.7v6.8h-13.7v10.6h-8.8V1935h24.4v6.8L148.1,1941.9L148.1,1941.9z"/>
	<path class="st4" d="M181.4,1957.9h-4.8v8.3h-8.8v-31.1H182c8.5,0,13.8,4.4,13.8,11.5c0,4.6-2.2,7.9-6.1,9.8l6.7,9.8H187
		L181.4,1957.9z M181.5,1942.1h-4.9v9.1h4.9c3.6,0,5.5-1.7,5.5-4.5C187,1943.7,185.1,1942.1,181.5,1942.1z"/>
	<path class="st4" d="M225.6,1959.4v6.8h-24.9v-31.1H225v6.8h-15.7v5.2h13.8v6.6h-13.8v5.7H225.6z"/>
	<path class="st4" d="M230.5,1935.1h8.8v31.1h-8.8V1935.1z"/>
	<path class="st4" d="M259.1,1957.9h-4.8v8.3h-8.8v-31.1h14.2c8.5,0,13.8,4.4,13.8,11.5c0,4.6-2.2,7.9-6.1,9.8l6.7,9.8h-9.4
		L259.1,1957.9z M259.2,1942.1h-4.9v9.1h4.9c3.6,0,5.5-1.7,5.5-4.5C264.6,1943.7,262.8,1942.1,259.2,1942.1z"/>
	<path class="st4" d="M278.4,1935.1h8.8v31.1h-8.8V1935.1z"/>
	<path class="st4" d="M322.9,1935.1v31.1h-7.2l-13.7-16.6v16.6h-8.6v-31.1h7.2l13.7,16.6v-16.6H322.9z"/>
	<path class="st4" d="M350,1960.2h-13.1l-2.4,6h-9l13.7-31.1h8.7l13.8,31.1h-9.1L350,1960.2z M347.4,1953.7l-4-9.9l-4,9.9H347.4z"/>
</g>
<g>
	<path class="st3" d="M148.1,1941.9v6.8h13.7v6.8h-13.7v10.6h-8.8V1935h24.4v6.8L148.1,1941.9L148.1,1941.9z"/>
	<path class="st3" d="M181.4,1957.9h-4.8v8.3h-8.8v-31.1H182c8.5,0,13.8,4.4,13.8,11.5c0,4.6-2.2,7.9-6.1,9.8l6.7,9.8H187
		L181.4,1957.9z M181.5,1942.1h-4.9v9.1h4.9c3.6,0,5.5-1.7,5.5-4.5C187,1943.7,185.1,1942.1,181.5,1942.1z"/>
	<path class="st3" d="M225.6,1959.4v6.8h-24.9v-31.1H225v6.8h-15.7v5.2h13.8v6.6h-13.8v5.7H225.6z"/>
	<path class="st3" d="M230.5,1935.1h8.8v31.1h-8.8V1935.1z"/>
	<path class="st3" d="M259.1,1957.9h-4.8v8.3h-8.8v-31.1h14.2c8.5,0,13.8,4.4,13.8,11.5c0,4.6-2.2,7.9-6.1,9.8l6.7,9.8h-9.4
		L259.1,1957.9z M259.2,1942.1h-4.9v9.1h4.9c3.6,0,5.5-1.7,5.5-4.5C264.6,1943.7,262.8,1942.1,259.2,1942.1z"/>
	<path class="st3" d="M278.4,1935.1h8.8v31.1h-8.8V1935.1z"/>
	<path class="st3" d="M322.9,1935.1v31.1h-7.2l-13.7-16.6v16.6h-8.6v-31.1h7.2l13.7,16.6v-16.6H322.9z"/>
	<path class="st3" d="M350,1960.2h-13.1l-2.4,6h-9l13.7-31.1h8.7l13.8,31.1h-9.1L350,1960.2z M347.4,1953.7l-4-9.9l-4,9.9H347.4z"/>
</g>
<g>
	<path class="st4" d="M259.9,1540.1v31.1h-8.8v-12.1h-12v12.1h-8.8v-31.1h8.8v11.7h12v-11.7H259.9z"/>
	<path class="st4" d="M265.9,1557.3v-17.2h8.8v17c0,5.3,2.2,7.5,5.9,7.5c3.6,0,5.9-2.1,5.9-7.5v-17h8.7v17.2
		c0,9.3-5.4,14.5-14.6,14.5C271.3,1571.8,265.9,1566.6,265.9,1557.3z"/>
	<path class="st4" d="M321.1,1565.2H308l-2.4,6h-9l13.7-31.1h8.7l13.8,31.1h-9.1L321.1,1565.2z M318.6,1558.7l-4-9.9l-4,9.9H318.6z"
		/>
	<path class="st4" d="M333,1568.4l2.9-6.5c2.8,1.8,6.7,3.1,10.3,3.1c3.6,0,5.1-1,5.1-2.5c0-4.9-17.7-1.3-17.7-12.9
		c0-5.5,4.5-10.1,13.8-10.1c4,0,8.2,0.9,11.3,2.7l-2.7,6.5c-3-1.6-5.9-2.4-8.6-2.4c-3.7,0-5,1.2-5,2.8c0,4.7,17.6,1.2,17.6,12.6
		c0,5.4-4.5,10-13.8,10C341,1571.8,335.9,1570.4,333,1568.4z"/>
	<path class="st4" d="M362.3,1555.7c0-9.5,7.2-16.2,17.1-16.2c5.7,0,10.3,2.1,13.4,5.9l-5.6,5.1c-2-2.4-4.3-3.6-7.3-3.6
		c-5.1,0-8.7,3.5-8.7,8.9s3.5,8.9,8.7,8.9c3,0,5.4-1.3,7.3-3.6l5.6,5.1c-3,3.8-7.6,5.9-13.4,5.9
		C369.5,1571.8,362.3,1565.1,362.3,1555.7z"/>
	<path class="st4" d="M394.4,1555.7c0-9.3,7.3-16.2,17.3-16.2s17.3,6.8,17.3,16.2s-7.3,16.2-17.3,16.2S394.4,1565,394.4,1555.7z
		 M420,1555.7c0-5.4-3.7-8.9-8.4-8.9s-8.4,3.5-8.4,8.9s3.7,8.9,8.4,8.9S420,1561,420,1555.7z"/>
</g>
<g>
	<path class="st3" d="M259.9,1540.1v31.1h-8.8v-12.1h-12v12.1h-8.8v-31.1h8.8v11.7h12v-11.7H259.9z"/>
	<path class="st3" d="M265.9,1557.3v-17.2h8.8v17c0,5.3,2.2,7.5,5.9,7.5c3.6,0,5.9-2.1,5.9-7.5v-17h8.7v17.2
		c0,9.3-5.4,14.5-14.6,14.5C271.3,1571.8,265.9,1566.6,265.9,1557.3z"/>
	<path class="st3" d="M321.1,1565.2H308l-2.4,6h-9l13.7-31.1h8.7l13.8,31.1h-9.1L321.1,1565.2z M318.6,1558.7l-4-9.9l-4,9.9H318.6z"
		/>
	<path class="st3" d="M333,1568.4l2.9-6.5c2.8,1.8,6.7,3.1,10.3,3.1c3.6,0,5.1-1,5.1-2.5c0-4.9-17.7-1.3-17.7-12.9
		c0-5.5,4.5-10.1,13.8-10.1c4,0,8.2,0.9,11.3,2.7l-2.7,6.5c-3-1.6-5.9-2.4-8.6-2.4c-3.7,0-5,1.2-5,2.8c0,4.7,17.6,1.2,17.6,12.6
		c0,5.4-4.5,10-13.8,10C341,1571.8,335.9,1570.4,333,1568.4z"/>
	<path class="st3" d="M362.3,1555.7c0-9.5,7.2-16.2,17.1-16.2c5.7,0,10.3,2.1,13.4,5.9l-5.6,5.1c-2-2.4-4.3-3.6-7.3-3.6
		c-5.1,0-8.7,3.5-8.7,8.9s3.5,8.9,8.7,8.9c3,0,5.4-1.3,7.3-3.6l5.6,5.1c-3,3.8-7.6,5.9-13.4,5.9
		C369.5,1571.8,362.3,1565.1,362.3,1555.7z"/>
	<path class="st3" d="M394.4,1555.7c0-9.3,7.3-16.2,17.3-16.2s17.3,6.8,17.3,16.2s-7.3,16.2-17.3,16.2S394.4,1565,394.4,1555.7z
		 M420,1555.7c0-5.4-3.7-8.9-8.4-8.9s-8.4,3.5-8.4,8.9s3.7,8.9,8.4,8.9S420,1561,420,1555.7z"/>
</g>
<g>
	<path class="st3" d="M609.8,448.7c0-9.5,7.2-16.2,17.1-16.2c5.7,0,10.3,2.1,13.4,5.9l-5.6,5.1c-2-2.4-4.3-3.6-7.3-3.6
		c-5.1,0-8.7,3.5-8.7,8.9c0,5.3,3.5,8.9,8.7,8.9c3,0,5.4-1.3,7.3-3.6l5.6,5.1c-3,3.8-7.6,5.9-13.4,5.9
		C617,464.8,609.8,458.1,609.8,448.7z"/>
	<path class="st3" d="M673.7,433.1v31.1h-8.8v-12.1h-12v12.1h-8.8v-31.1h8.8v11.7h12v-11.7H673.7z"/>
	<path class="st3" d="M700.7,458.2h-13.1l-2.4,6h-9l13.7-31.1h8.7l13.8,31.1h-9.1L700.7,458.2z M698.1,451.7l-4-9.9l-4,9.9H698.1z"
		/>
	<path class="st3" d="M744.3,433.1v31.1H737l-13.7-16.6v16.6h-8.6v-31.1h7.2l13.7,16.6v-16.6H744.3z M724.5,430.5h-4.1
		c0.1-4.3,2.2-7.1,5.6-7.1c3.2,0,4.8,2.7,6.4,2.7c1.2,0,2-0.8,2-2.2h4.1c-0.1,4.2-2.2,7-5.6,7c-3.2,0-4.8-2.8-6.4-2.8
		C725.4,428.2,724.6,429,724.5,430.5z"/>
	<path class="st3" d="M771.3,458.2h-13.1l-2.4,6h-9l13.7-31.1h8.7l13.8,31.1h-9.1L771.3,458.2z M768.7,451.7l-4-9.9l-4,9.9H768.7z"
		/>
	<path class="st3" d="M798.9,455.9h-4.8v8.3h-8.8v-31.1h14.2c8.5,0,13.8,4.4,13.8,11.5c0,4.6-2.2,7.9-6.1,9.8l6.7,9.8h-9.4
		L798.9,455.9z M799,440.1h-4.9v9.1h4.9c3.6,0,5.5-1.7,5.5-4.5C804.5,441.7,802.7,440.1,799,440.1z"/>
	<path class="st3" d="M839,458.2h-13.1l-2.4,6h-9l13.7-31.1h8.7l13.8,31.1h-9.1L839,458.2z M836.4,451.7l-4-9.9l-4,9.9H836.4z"/>
	<path class="st3" d="M853.1,433.1h8.8v24.1h14.8v7h-23.6V433.1z"/>
</g>
<g>
	<g>
		<g>
			<path class="st5" d="M774.3,1039.7c0-40.5-32.8-73.3-73.3-73.3s-73.3,32.8-73.3,73.3c0,46.6,73.3,104.3,73.3,104.3
				S774.3,1086.3,774.3,1039.7z"/>
			<g>
				<path class="st6" d="M701,966.4c-40.5,0-73.3,32.8-73.3,73.3c0,20.2,13.8,42.6,29.5,61.4l98.3-110.4
					C742,975.7,722.6,966.4,701,966.4z"/>
				<path class="st7" d="M657.2,1101.1c20.4,24.5,43.8,42.9,43.8,42.9s73.3-57.7,73.3-104.3c0-18.9-7.1-36.1-18.9-49.1L657.2,1101.1
					z"/>
			</g>
			<g>
				<path class="st8" d="M674.1,1082.1c7.8,5,17,7.8,27,7.8c27.8,0,50.3-22.5,50.3-50.3c0-12-4.2-23.1-11.3-31.7L674.1,1082.1z"/>
				<path class="st9" d="M701,989.2c-27.8,0-50.3,22.5-50.3,50.3c0,17.9,9.3,33.6,23.4,42.5l66.1-74.2
					C730.9,996.5,716.8,989.2,701,989.2z"/>
			</g>
			<circle class="st3" cx="701" cy="1039.6" r="46.1"/>
			<path class="st10" d="M755.5,990.6l-3.9,4.3c10.9,12.4,17,28.2,17,44.7c0,17.6-12.1,40.2-35.1,65.6
				c-13.1,14.5-26.3,26.1-32.5,31.2c-7.2-6.1-24.3-21-39.4-39.2c-0.2-0.2-0.4-0.4-0.5-0.7l-3.9,4.4c20.4,24.5,43.8,42.9,43.8,42.9
				s73.3-57.7,73.3-104.3C774.3,1020.8,767.2,1003.6,755.5,990.6z"/>
			<path class="st11" d="M633.5,1039.7c0-37.3,30.3-67.6,67.6-67.6c19.1,0,37.4,8.1,50.2,22.3c0.1,0.2,0.3,0.3,0.4,0.5l3.9-4.3
				c-13.4-14.9-32.8-24.2-54.5-24.2c-40.5,0-73.3,32.8-73.3,73.3c0,20.2,13.8,42.6,29.5,61.4l3.9-4.4
				C643,1074.9,633.5,1055.2,633.5,1039.7z"/>
		</g>
	</g>
	<g class="st12">
		<path class="st13" d="M709.5,1015.5v45.2h-12.8v-35.4h-8.4v-9.9H709.5z"/>
	</g>
</g>
<g>
	<g>
		<g>
			<path class="st5" d="M578.3,963.7c0-40.5-32.8-73.3-73.3-73.3s-73.3,32.8-73.3,73.3c0,46.6,73.3,104.3,73.3,104.3
				S578.3,1010.3,578.3,963.7z"/>
			<g>
				<path class="st6" d="M505,890.4c-40.5,0-73.3,32.8-73.3,73.3c0,20.2,13.8,42.6,29.5,61.4l98.3-110.4
					C546,899.7,526.6,890.4,505,890.4z"/>
				<path class="st7" d="M461.2,1025.1c20.4,24.5,43.8,42.9,43.8,42.9s73.3-57.7,73.3-104.3c0-18.9-7.1-36.1-18.9-49.1L461.2,1025.1
					z"/>
			</g>
			<g>
				<path class="st8" d="M478.1,1006.1c7.8,5,17,7.8,27,7.8c27.8,0,50.3-22.5,50.3-50.3c0-12-4.2-23.1-11.3-31.7L478.1,1006.1z"/>
				<path class="st9" d="M505,913.2c-27.8,0-50.3,22.5-50.3,50.3c0,17.9,9.3,33.6,23.4,42.5l66.1-74.2
					C534.9,920.5,520.8,913.2,505,913.2z"/>
			</g>
			<circle class="st3" cx="505" cy="963.6" r="46.1"/>
			<path class="st10" d="M559.5,914.6l-3.9,4.3c10.9,12.4,17,28.2,17,44.7c0,17.6-12.1,40.2-35.1,65.6
				c-13.1,14.5-26.3,26.1-32.5,31.2c-7.2-6.1-24.3-21-39.4-39.2c-0.2-0.2-0.4-0.4-0.5-0.7l-3.9,4.4c20.4,24.5,43.8,42.9,43.8,42.9
				s73.3-57.7,73.3-104.3C578.3,944.8,571.2,927.6,559.5,914.6z"/>
			<path class="st11" d="M437.5,963.7c0-37.3,30.3-67.6,67.6-67.6c19.1,0,37.4,8.1,50.2,22.3c0.1,0.2,0.3,0.3,0.4,0.5l3.9-4.3
				c-13.4-14.9-32.8-24.2-54.5-24.2c-40.5,0-73.3,32.8-73.3,73.3c0,20.2,13.8,42.6,29.5,61.4l3.9-4.4
				C447,998.9,437.5,979.2,437.5,963.7z"/>
		</g>
	</g>
	<g class="st12">
		<path class="st13" d="M513.5,939.5v45.2h-12.8v-35.4h-8.4v-9.9H513.5z"/>
	</g>
</g>
<g>
	<g>
		<g>
			<path class="st5" d="M636.3,1815.7c0-40.5-32.8-73.3-73.3-73.3s-73.3,32.8-73.3,73.3c0,46.6,73.3,104.3,73.3,104.3
				S636.3,1862.3,636.3,1815.7z"/>
			<g>
				<path class="st6" d="M563,1742.4c-40.5,0-73.3,32.8-73.3,73.3c0,20.2,13.8,42.6,29.5,61.4l98.3-110.4
					C604,1751.7,584.6,1742.4,563,1742.4z"/>
				<path class="st7" d="M519.2,1877.1c20.4,24.5,43.8,42.9,43.8,42.9s73.3-57.7,73.3-104.3c0-18.9-7.1-36.1-18.9-49.1L519.2,1877.1
					z"/>
			</g>
			<g>
				<path class="st8" d="M536.1,1858.1c7.8,5,17,7.8,27,7.8c27.8,0,50.3-22.5,50.3-50.3c0-12-4.2-23.1-11.3-31.7L536.1,1858.1z"/>
				<path class="st9" d="M563,1765.2c-27.8,0-50.3,22.5-50.3,50.3c0,17.9,9.3,33.6,23.4,42.5l66.1-74.2
					C592.9,1772.5,578.8,1765.2,563,1765.2z"/>
			</g>
			<circle class="st3" cx="563" cy="1815.6" r="46.1"/>
			<path class="st10" d="M617.5,1766.6l-3.9,4.3c10.9,12.4,17,28.2,17,44.7c0,17.6-12.1,40.2-35.1,65.6
				c-13.1,14.5-26.3,26.1-32.5,31.2c-7.2-6.1-24.3-21-39.4-39.2c-0.2-0.2-0.4-0.4-0.5-0.7l-3.9,4.4c20.4,24.5,43.8,42.9,43.8,42.9
				s73.3-57.7,73.3-104.3C636.3,1796.8,629.2,1779.6,617.5,1766.6z"/>
			<path class="st11" d="M495.5,1815.7c0-37.3,30.3-67.6,67.6-67.6c19.1,0,37.4,8.1,50.2,22.3c0.1,0.2,0.3,0.3,0.4,0.5l3.9-4.3
				c-13.4-14.9-32.8-24.2-54.5-24.2c-40.5,0-73.3,32.8-73.3,73.3c0,20.2,13.8,42.6,29.5,61.4l3.9-4.4
				C505,1850.9,495.5,1831.2,495.5,1815.7z"/>
		</g>
	</g>
	<g class="st12">
		<path class="st13" d="M571.5,1791.5v45.2h-12.8v-35.4h-8.4v-9.9H571.5z"/>
	</g>
</g>
</svg>
