<?xml version="1.0" encoding="utf-8"?>
<!-- Generator: Adobe Illustrator 24.0.0, SVG Export Plug-In . SVG Version: 6.00 Build 0)  -->
<svg version="1.1" id="Capa_1" xmlns="http://www.w3.org/2000/svg" xmlns:xlink="http://www.w3.org/1999/xlink" x="0px" y="0px"
	 viewBox="0 0 1920 2314" style="enable-background:new 0 0 1920 2314;" xml:space="preserve">
<style type="text/css">
	.st0{fill:#8E8E8E;}
	.st1{fill:#BFBFBF;}
	.st2{fill:#D4353F;}
	.st3{fill:#FF6D00;}
	.st4{fill:#FF8500;}
	.st5{fill:#D7D9D9;}
	.st6{fill:#C5C7C8;}
	.st7{fill:#FFFFFF;}
	.st8{opacity:0.4;fill:#DA5D68;enable-background:new    ;}
	.st9{opacity:0.4;fill:#D4353F;enable-background:new    ;}
	.st10{fill:#444444;}
	.st11{enable-background:new    ;}
	.st12{fill:none;stroke:#000000;stroke-width:6;stroke-miterlimit:10;}
</style>
<path class="st0" d="M1659.5,1130.4c-20.4-26-30.4-56.5-32.4-89c-11.6,0.1-23.3,0.4-34.9,0.5c-33.9,0.1-70-0.7-102.3-12.4
	c-29.9-10.8-53.9-33.3-71.6-59.3c-19.9-29.1-33.1-62.2-51-92.5c-8.3-14.2-17.7-28-29.6-39.4c-12.2-11.7-28-20.6-42.3-29.6
	c-68.7-43-143.1-77.4-218.5-106.8c-35.3-13.8-71.1-26.5-107.5-37.4c-36.9-11.1-71.7-25.8-106.3-42.9
	C795,587.9,728.5,548,653.3,532.3c-33.3-6.9-69.1-9.9-102.6-3.3c-25.4,5-50.7,11.4-75,20.6c-22.2,8.3-49.4,19.9-62.7,40.7
	c-11.3,17.6-5.5,31.1,5.9,47.6c31.5,46,76.8,80.4,115.1,120.3c11.5,12,21,26.7,31.6,39.6c8.6,10.4,17.3,20.8,24.7,32.1
	c14.9,22.8,19.4,48.4,16.2,75.3c-7.9,67-38.5,128.3-64.3,190.6c9.4,1.9,18.6,5.5,28.3,9c44,15.9,88.5,30.6,132.9,45.5
	c64.3,21.7,128.8,43.1,193.1,64.8c46.3,15.6,90,39.9,140.7,40.5c6.9,0.1,16.7,3.7,20.3,8.9c20.7,30.1,50.8,47.3,81.6,64.5
	c29,16.2,39.8,14.3,59.2-12.8c4.6-6.4,15.4-14.9,20.7-13.3c30.6,8.9,49.1-8.9,68.3-26.8c7.2-6.6,14.8-13.3,23.3-17.9
	c14.7-7.8,29.5-2.8,32,11.4c4.7,25.8,6.8,52.1,11.1,78c1.2,7.4,4.3,16.4,9.6,20.8c24.8,20.3,50.3,17.5,77.9,2.8
	c23.5-12.6,27-31.9,27.5-54.4c0-1.7,1.7-3.3,2.6-5c0.1,2,0.2,4.1,0.3,6.1c44.7,3,89.3,7.1,134,8.7c18.4,0.6,31.1-20.6,22.5-38.3
	c-11.2-23.3-23-45.3-8.6-71c3.5-6.3,7.1-14.6,12.8-17.2c22.4-9.9,40.9-22.9,53.9-41.7C1676.7,1149.8,1667.5,1140.6,1659.5,1130.4z"
	/>
<path class="st1" d="M1885.2,850.8c-5.9-10-9.6-21.4-14.1-32.2c-7.3-17.7-14.4-35.5-21.6-53.3c-2.6-6.4-6.9-12.8-7.5-19.4
	c-1.1-12.5-1.9-25.1-2.6-37.7c-55.8-17.4-111.4-37.4-169.5-44.3c-33.8-4-67.8-3-101.3,3c-23.2,4.1-46,10-69.7,8.8
	c-31.7-1.6-62.5-11.9-92.3-22.2c-27.8-9.6-55.3-21.1-80-37.2c-24.4-16-47.6-36.2-63.8-60.6c-15.3-23-26.2-48.8-38.7-73.3
	c-12.9-25.3-27.3-52.1-49.5-70.5c-16.9-14-36.5-24.6-58.5-18c-21,6.3-39.9,16.1-61.9,19.2c-26.2,3.7-53.8,2.8-79.2-4.6
	c-44.5-12.9-79.4-44.1-112-75.6c-30.8-29.8-62.4-63.3-104.1-77.1c-55.3-18.3-111.4,3.4-163.5,22c-27.7,9.9-55.6,19.3-84.9,22.8
	c-18.8,2.2-37.2,1.3-55.2-2.6c-0.6,4.1-1.1,8.2-1.7,12.3c-1.3,9.1-10.2,19.4-18.5,24.9c-36.7,24.2-75.2,45.7-111.5,70.5
	c-24.4,16.7-34,41.7-26.9,71.4c-5.1,3.2-10.8,6-15.5,9.9c-13.8,11.3-27.2,23.1-41,34.5c-12.6,10.4-19.1,23.1-12.7,38.9
	c9.7,24.1,4.3,36.1-20.7,55.2c-7.3,5.6-14.6,11-22,16.5c14.3-1.4,28.7-2.8,42.9-1.7c18.5,1.4,45,10.9,51.1,30.7
	c1.9,6.1,1.9,12.3,5.3,17.9c7.6,12.8,21.9,20.6,34,28.4c26,16.6,53.7,30.9,83.8,38.1c29.6,7.1,60,6.4,89.7,0.6
	c-4.2-4-8.3-7.9-12.5-11.9c-22.2-21.4-44.4-43.2-63.9-67.1c-12.7-15.6-29.7-35.4-28.9-56.9c2-54.8,71.1-77.8,115-90.3
	c23.9-6.8,48.8-13,73.7-14.1c39.8-1.8,79.6,4.3,117.6,15.9c74,22.7,139.9,64.6,209.9,96.6c34.7,15.9,70.8,25.8,106.9,37.9
	c38,12.7,75.4,26.9,112.4,42.4c73.5,30.9,146.6,65.9,212.2,111.6c59.2,41.2,69.2,117.9,116.6,168.8c23.5,25.2,52.9,36.6,86.6,40.3
	c33.1,3.7,66.3,1.9,99.5,1.9c5.6,0,10.1,4.7,10.2,10.2c0.2,32.4,9.1,63.4,29.9,88.7c6,7.2,12.5,13.9,19.4,20.1
	c3.7-8.6,6.6-18.1,8.5-28.8c15.5,8.9,30,16.4,43.7,25.2c17,10.8,33.6,20.7,54.7,11c20.5-9.5,23.7-26.8,24.9-47
	c0.7-12,3.7-26.5,11.2-35c21.3-24.5,18.4-47.8,4.2-73.6c-2.9-5.3-3.8-16-0.5-19.8c15.3-17.8,9.1-30.4-13.2-45.4
	c15.6-13,27.2-26.2,41.7-33.9C1890.7,882.8,1896.3,869.6,1885.2,850.8z"/>
<path class="st1" d="M535.5,792.7c-8.5-10.8-16.5-20.9-26.4-30.4c-1,0.8-2.3,1.4-3.8,1.7c-36.8,8.3-74.5,9.7-111.3,0.3
	c-30.7-7.8-59.3-22.5-85.8-39.5c-20.3-12.9-42.2-26.8-47.3-52c-1.4-7.2-2.1-9.7-9-13.7c-12.3-7.3-23.9-9-37.8-8.7
	c-19.5,0.5-39.2,3.3-58.7,3.6c-3.8,2.9-7.7,5.8-11.5,8.8c-22.6,17.8-25.1,37-11.9,62.2c11.7,22.3,22.6,45.1,31.7,68.6
	c15.5,39.9,9.7,57.3-22.7,76.2c-4.2,2.4-9.8,2.9-13.4,5.9C112,888.3,92.8,899.1,83,915.3c-10.9,18.1-23.1,30.4-42.2,38.3
	c-8.5,3.5-16.6,10.5-22.1,17.9c-8.7,11.7-3.6,20.7,10.4,21.7c28.4,2.1,54.8-0.8,83,17.5c24,15.6,60.2,12.7,91.1,17.6
	c11.9,1.9,23.1,1.6,26.6,18c1.3,5.8,13,12.4,20.6,13.3c27.4,3.5,55.1,4.7,86,7c-18.5,5.3-39.6,4-35.2,29.7
	c3,17.4,22.5,27.7,45.1,24.4c4.2-0.6,8.2-2.4,12.3-2.6c6.2-0.3,13.3-1.6,18.5,0.8c21.8,10.1,38.3,2.8,51.8-14.4
	c7.7-9.8,14.4-10.3,26.8-7c16.2,4.4,36.4,7.6,50.8,1.5c4.8-2,9.4-3.3,13.8-4c0.6-1.5,1.2-3.1,1.9-4.6
	c17.8-43.6,37.4-86.6,51.4-131.7c9.5-30.7,20.3-67.5,9.1-99.3C573.8,834,551.9,813.5,535.5,792.7z"/>
<path class="st0" d="M479.4,281.1c58.7,3.8,112.9-26.7,167.9-42.4c50.7-14.5,103.4-15,149.8,12.2c76.7,44.9,124,142.3,222.6,143.6
	c26.2,0.3,49.6-4.4,73.9-14c17.6-7,35-12.6,54-7.2c55.6,15.9,83.3,76.2,106.6,123.5c12,24.3,23.8,48.8,42.8,68.5
	c21.4,22.2,46.7,39.4,74.6,52.4c28.5,13.4,59.4,23.4,89.9,31.2c25.7,6.6,50.6,8,76.7,3.1c29.1-5.5,57.9-10.8,87.6-11
	c34.3-0.3,68.4,4.8,101.7,12.8c37.5,8.9,74.2,21,111,32.4c-0.4-7.6-0.8-15.1-1.1-22.7c-0.1-2.6,1.6-5.3,2.8-7.9
	c7.8-17.3,2.7-30.4-11.4-42.7c-25.1-21.8-26.7-31.8-13.8-62.7c16.3-39-5.1-71.7-48-73.1c-9.1-0.3-18.4,0.8-27.3-0.8
	c-26-4.7-35.9-21.6-25.2-45c3-6.5,12.4-13,19.7-14.1c18.6-3,38.2-0.6,56.4-4.8c15.4-3.5,29.6-12.8,43.9-20.3
	c4.7-2.5,7.5-8.4,12.1-11.3c22.3-14.6,30.5-32.5,22.3-56.6s-12-47.2,0.7-71.2c2-3.9-2.5-15.1-7.1-17.9c-29.9-17.8-60.6-34.2-91-51.2
	c-24.9-13.9-43.7-11.8-64.5,7.6c-6.7,6.2-12.2,15.1-20.1,18.2c-9.3,3.6-23.6,6.9-30.2,2.3c-18.1-12.5-35.3-27.6-49.3-44.6
	c-24.9-30.5-58.2-37.8-94.1-38.1c-30.4-0.3-52.5-9.6-69.4-37.1c-22-35.8-42-39-82-23.2c-7.4,2.9-20.4,4-24.9-0.3
	c-20.9-20.2-41.9-14-63.8-4.2c-15.6,6.9-28.8,5-42.7-6.2c-21.9-17.8-35.3-15.1-57,4.8c-10.1,9.2-21.7,18.8-34.4,22.8
	c-18.4,5.8-38.7,5-57.3,10.2c-12.6,3.5-26.6,10.3-34.4,20.1c-4.3,5.3,3,19.9,5.1,30.3c-3.5,1.1-11.5,1.1-15,5.1
	c-16,18.2-32.8,14.6-50.8,4.5c-2.9-1.6-6.7-1.9-10.2-2.5c-35.1-6.1-70.2-12.4-105.4-18.2c-14.2-2.3-26.1,1.3-33.9,15.1
	c-13.3,23.4-18.4,24.5-40.3,8.4c-7.8-5.7-13.3-14.4-21.2-19.9c-13.3-9.4-26.7-19.3-41.6-25.3c-14-5.7-30-6.7-45.1-9.7
	c-20.4-4-36.4-12.5-44.5-33.8c-3.2-8.4-11.8-15.6-19.6-21.2c-15.3-10.9-32.3-19.5-47.4-30.6c-12.7-9.3-18-3.2-24.7,7.1
	c-13.9,21.5-29.6,41.9-43.1,63.6c-5.7,9.1-7.9,20.3-11.5,30.7c-3.4,9.6-3.9,23.4-10.7,28.2c-19.6,13.9-21.4,32.5-22.7,53.5
	c-1.7,25.4-3.8,50.9-6.7,76.2C464.9,279.5,472.1,280.7,479.4,281.1z"/>
<g>
	<g>
		<g>
			<path class="st2" d="M1553.3,314.8c0-40.5-32.8-73.3-73.3-73.3s-73.3,32.8-73.3,73.3c0,46.6,73.3,104.3,73.3,104.3
				S1553.3,361.4,1553.3,314.8z"/>
			<g>
				<path class="st3" d="M1480,241.5c-40.5,0-73.3,32.8-73.3,73.3c0,20.2,13.8,42.6,29.5,61.4l98.3-110.4
					C1521,250.9,1501.6,241.5,1480,241.5z"/>
				<path class="st4" d="M1436.2,376.2c20.4,24.5,43.8,42.9,43.8,42.9s73.3-57.7,73.3-104.3c0-18.9-7.1-36.1-18.9-49.1L1436.2,376.2
					z"/>
			</g>
			<g>
				<path class="st5" d="M1453,357.2c7.8,5,17,7.8,27,7.8c27.8,0,50.3-22.5,50.3-50.3c0-12-4.2-23.1-11.3-31.7L1453,357.2z"/>
				<path class="st6" d="M1480,264.4c-27.8,0-50.3,22.5-50.3,50.3c0,17.9,9.3,33.6,23.4,42.5l66.1-74.2
					C1509.8,271.6,1495.7,264.4,1480,264.4z"/>
			</g>
			<circle class="st7" cx="1480" cy="314.7" r="46.1"/>
			<path class="st8" d="M1534.4,265.7l-3.9,4.3c10.9,12.4,17,28.2,17,44.7c0,17.6-12.1,40.2-35.1,65.6
				c-13.1,14.5-26.3,26.1-32.5,31.2c-7.2-6.1-24.3-21-39.4-39.2c-0.2-0.2-0.4-0.4-0.5-0.7l-3.9,4.4c20.4,24.5,43.8,42.9,43.8,42.9
				s73.3-57.7,73.3-104.3C1553.3,295.9,1546.1,278.7,1534.4,265.7z"/>
			<path class="st9" d="M1412.4,314.8c0-37.3,30.3-67.6,67.6-67.6c19.1,0,37.4,8.1,50.2,22.3c0.1,0.2,0.3,0.3,0.4,0.5l3.9-4.3
				c-13.4-14.9-32.8-24.2-54.5-24.2c-40.5,0-73.3,32.8-73.3,73.3c0,20.2,13.8,42.6,29.5,61.4l3.9-4.4
				C1422,350,1412.4,330.3,1412.4,314.8z"/>
		</g>
	</g>
</g>
<g>
	<path class="st10" d="M1501.2,321.2c0,9.9-8.3,16.3-18.7,16.3c-13.4,0-22.1-8-22.1-23.5c0-16.6,10.3-26.1,25.3-26.1
		c5.4,0,10.6,1.2,14,3.5l-4.9,9.7c-2.7-1.9-5.7-2.5-8.8-2.5c-6.8,0-11.4,3.8-12.1,11.1c2.7-2.3,6.3-3.5,10.8-3.5
		C1493.8,306.1,1501.2,312.1,1501.2,321.2z M1488.1,321.8c0-3.7-2.7-6-6.5-6c-3.9,0-6.6,2.5-6.6,6.1c0,3.5,2.6,6,6.7,6
		C1485.5,327.9,1488.1,325.6,1488.1,321.8z"/>
</g>
<g>
	<g>
		<g>
			<path class="st2" d="M906.3,410.8c0-40.5-32.8-73.3-73.3-73.3s-73.3,32.8-73.3,73.3c0,46.6,73.3,104.3,73.3,104.3
				S906.3,457.4,906.3,410.8z"/>
			<g>
				<path class="st3" d="M833,337.5c-40.5,0-73.3,32.8-73.3,73.3c0,20.2,13.8,42.6,29.5,61.4l98.3-110.4
					C874,346.9,854.6,337.5,833,337.5z"/>
				<path class="st4" d="M789.2,472.2c20.4,24.5,43.8,42.9,43.8,42.9s73.3-57.7,73.3-104.3c0-18.9-7.1-36.1-18.9-49.1L789.2,472.2z"
					/>
			</g>
			<g>
				<path class="st5" d="M806,453.2c7.8,5,17,7.8,27,7.8c27.8,0,50.3-22.5,50.3-50.3c0-12-4.2-23.1-11.3-31.7L806,453.2z"/>
				<path class="st6" d="M833,360.4c-27.8,0-50.3,22.5-50.3,50.3c0,17.9,9.3,33.6,23.4,42.5l66.1-74.2
					C862.8,367.6,848.7,360.4,833,360.4z"/>
			</g>
			<circle class="st7" cx="833" cy="410.7" r="46.1"/>
			<path class="st8" d="M887.4,361.7l-3.9,4.3c10.9,12.4,17,28.2,17,44.7c0,17.6-12.1,40.2-35.1,65.6
				c-13.1,14.5-26.3,26.1-32.5,31.2c-7.2-6.1-24.3-21-39.4-39.2c-0.2-0.2-0.4-0.4-0.5-0.7l-3.9,4.4c20.4,24.5,43.8,42.9,43.8,42.9
				s73.3-57.7,73.3-104.3C906.3,391.9,899.1,374.7,887.4,361.7z"/>
			<path class="st9" d="M765.4,410.8c0-37.3,30.3-67.6,67.6-67.6c19.1,0,37.4,8.1,50.2,22.3c0.1,0.2,0.3,0.3,0.4,0.5l3.9-4.3
				c-13.4-14.9-32.8-24.2-54.5-24.2c-40.5,0-73.3,32.8-73.3,73.3c0,20.2,13.8,42.6,29.5,61.4l3.9-4.4
				C775,446,765.4,426.3,765.4,410.8z"/>
		</g>
	</g>
</g>
<g>
	<path class="st10" d="M854.2,384.8v8.5l-16.8,39.3h-14.7l16.1-37h-12.5v7.4h-11.5v-18.1L854.2,384.8L854.2,384.8z"/>
</g>
<g>
	<g>
		<g>
			<path class="st2" d="M1094.3,789.8c0-40.5-32.8-73.3-73.3-73.3s-73.3,32.8-73.3,73.3c0,46.6,73.3,104.3,73.3,104.3
				S1094.3,836.4,1094.3,789.8z"/>
			<g>
				<path class="st3" d="M1021,716.5c-40.5,0-73.3,32.8-73.3,73.3c0,20.2,13.8,42.6,29.5,61.4l98.3-110.4
					C1062,725.9,1042.6,716.5,1021,716.5z"/>
				<path class="st4" d="M977.2,851.2c20.4,24.5,43.8,42.9,43.8,42.9s73.3-57.7,73.3-104.3c0-18.9-7.1-36.1-18.9-49.1L977.2,851.2z"
					/>
			</g>
			<g>
				<path class="st5" d="M994,832.2c7.8,5,17,7.8,27,7.8c27.8,0,50.3-22.5,50.3-50.3c0-12-4.2-23.1-11.3-31.7L994,832.2z"/>
				<path class="st6" d="M1021,739.4c-27.8,0-50.3,22.5-50.3,50.3c0,17.9,9.3,33.6,23.4,42.5l66.1-74.2
					C1050.8,746.6,1036.7,739.4,1021,739.4z"/>
			</g>
			<circle class="st7" cx="1021" cy="789.7" r="46.1"/>
			<path class="st8" d="M1075.4,740.7l-3.9,4.3c10.9,12.4,17,28.2,17,44.7c0,17.6-12.1,40.2-35.1,65.6
				c-13.1,14.5-26.3,26.1-32.5,31.2c-7.2-6.1-24.3-21-39.4-39.2c-0.2-0.2-0.4-0.4-0.5-0.7l-3.9,4.4c20.4,24.5,43.8,42.9,43.8,42.9
				s73.3-57.7,73.3-104.3C1094.3,770.9,1087.1,753.7,1075.4,740.7z"/>
			<path class="st9" d="M953.4,789.8c0-37.3,30.3-67.6,67.6-67.6c19.1,0,37.4,8.1,50.2,22.3c0.1,0.2,0.3,0.3,0.4,0.5l3.9-4.3
				c-13.4-14.9-32.8-24.2-54.5-24.2c-40.5,0-73.3,32.8-73.3,73.3c0,20.2,13.8,42.6,29.5,61.4l3.9-4.4
				C963,825,953.4,805.3,953.4,789.8z"/>
		</g>
	</g>
</g>
<g>
	<path class="st10" d="M1040.9,796.2c0,8.5-6.4,16.3-20.8,16.3c-6.6,0-13.6-1.6-18.5-4.7l4.8-10.2c3.9,2.6,8.7,4,13.2,4
		c4.6,0,7.6-1.8,7.6-5c0-2.9-2-4.8-9.3-4.8H1005l2.4-27.9h30.4v10.4h-19.2l-0.6,7h3.2C1035.4,781.2,1040.9,787.7,1040.9,796.2z"/>
</g>
<g>
	<g>
		<g>
			<path class="st2" d="M461.3,734.8c0-40.5-32.8-73.3-73.3-73.3s-73.3,32.8-73.3,73.3c0,46.6,73.3,104.3,73.3,104.3
				S461.3,781.4,461.3,734.8z"/>
			<g>
				<path class="st3" d="M388,661.5c-40.5,0-73.3,32.8-73.3,73.3c0,20.2,13.8,42.6,29.5,61.4l98.3-110.4
					C429,670.9,409.6,661.5,388,661.5z"/>
				<path class="st4" d="M344.2,796.2c20.4,24.5,43.8,42.9,43.8,42.9s73.3-57.7,73.3-104.3c0-18.9-7.1-36.1-18.9-49.1L344.2,796.2z"
					/>
			</g>
			<g>
				<path class="st5" d="M361,777.2c7.8,5,17,7.8,27,7.8c27.8,0,50.3-22.5,50.3-50.3c0-12-4.2-23.1-11.3-31.7L361,777.2z"/>
				<path class="st6" d="M388,684.4c-27.8,0-50.3,22.5-50.3,50.3c0,17.9,9.3,33.6,23.4,42.5l66.1-74.2
					C417.8,691.6,403.7,684.4,388,684.4z"/>
			</g>
			<circle class="st7" cx="388" cy="734.7" r="46.1"/>
			<path class="st8" d="M442.4,685.7l-3.9,4.3c10.9,12.4,17,28.2,17,44.7c0,17.6-12.1,40.2-35.1,65.6
				c-13.1,14.5-26.3,26.1-32.5,31.2c-7.2-6.1-24.3-21-39.4-39.2c-0.2-0.2-0.4-0.4-0.5-0.7l-3.9,4.4c20.4,24.5,43.8,42.9,43.8,42.9
				s73.3-57.7,73.3-104.3C461.3,715.9,454.1,698.7,442.4,685.7z"/>
			<path class="st9" d="M320.4,734.8c0-37.3,30.3-67.6,67.6-67.6c19.1,0,37.4,8.1,50.2,22.3c0.1,0.2,0.3,0.3,0.4,0.5l3.9-4.3
				c-13.4-14.9-32.8-24.2-54.5-24.2c-40.5,0-73.3,32.8-73.3,73.3c0,20.2,13.8,42.6,29.5,61.4l3.9-4.4
				C330,770,320.4,750.3,320.4,734.8z"/>
		</g>
	</g>
</g>
<g>
	<path class="st10" d="M407.1,741.6c0,8.1-6.4,15.9-20.8,15.9c-6.6,0-13.6-1.6-18.5-4.7l4.9-10.2c3.8,2.6,8.7,4,13.2,4
		c4.6,0,7.6-1.8,7.6-5c0-2.9-2.1-4.6-7.3-4.6h-5.7v-8.5l8.5-9.2h-18.8v-10.4h34.5v8.5l-9.9,10.6
		C402.9,729.6,407.1,734.8,407.1,741.6z"/>
</g>
<g class="st11">
	<path d="M1149.8,244.7c0-9.5,7.2-16.2,17.1-16.2c5.7,0,10.3,2.1,13.4,5.9l-5.6,5.1c-2-2.4-4.3-3.6-7.3-3.6c-5.1,0-8.7,3.5-8.7,8.9
		c0,5.3,3.5,8.9,8.7,8.9c3,0,5.4-1.3,7.3-3.6l5.6,5.1c-3,3.8-7.6,5.9-13.4,5.9C1157.1,260.8,1149.8,254.1,1149.8,244.7z"/>
	<path d="M1183.5,246.4v-17.2h8.8v17c0,5.3,2.2,7.5,5.9,7.5c3.6,0,5.9-2.1,5.9-7.5v-17h8.7v17.2c0,9.3-5.4,14.5-14.6,14.5
		C1189,260.8,1183.5,255.7,1183.5,246.4z"/>
	<path d="M1232.3,252h-4.8v8.3h-8.8v-31.1h14.2c8.5,0,13.8,4.4,13.8,11.5c0,4.6-2.2,7.9-6.1,9.8l6.7,9.8h-9.4L1232.3,252z
		 M1232.3,236.1h-4.9v9.1h4.9c3.6,0,5.5-1.7,5.5-4.5C1237.8,237.8,1236,236.1,1232.3,236.1z"/>
	<path d="M1251.5,229.2h8.8v31.1h-8.8V229.2z"/>
	<path d="M1265,244.7c0-9.5,7.2-16.2,17.1-16.2c5.7,0,10.3,2.1,13.4,5.9l-5.6,5.1c-2-2.4-4.3-3.6-7.3-3.6c-5.1,0-8.7,3.5-8.7,8.9
		c0,5.3,3.5,8.9,8.7,8.9c3,0,5.4-1.3,7.3-3.6l5.6,5.1c-3,3.8-7.6,5.9-13.4,5.9C1272.2,260.8,1265,254.1,1265,244.7z"/>
	<path d="M1297,244.7c0-9.3,7.3-16.2,17.3-16.2s17.3,6.8,17.3,16.2s-7.3,16.2-17.3,16.2S1297,254,1297,244.7z M1322.7,244.7
		c0-5.4-3.7-8.9-8.4-8.9c-4.7,0-8.4,3.5-8.4,8.9s3.7,8.9,8.4,8.9C1319,253.6,1322.7,250.1,1322.7,244.7z"/>
</g>
<g class="st11">
	<path class="st12" d="M1149.8,244.7c0-9.5,7.2-16.2,17.1-16.2c5.7,0,10.3,2.1,13.4,5.9l-5.6,5.1c-2-2.4-4.3-3.6-7.3-3.6
		c-5.1,0-8.7,3.5-8.7,8.9c0,5.3,3.5,8.9,8.7,8.9c3,0,5.4-1.3,7.3-3.6l5.6,5.1c-3,3.8-7.6,5.9-13.4,5.9
		C1157.1,260.8,1149.8,254.1,1149.8,244.7z"/>
	<path class="st12" d="M1183.5,246.4v-17.2h8.8v17c0,5.3,2.2,7.5,5.9,7.5c3.6,0,5.9-2.1,5.9-7.5v-17h8.7v17.2
		c0,9.3-5.4,14.5-14.6,14.5C1189,260.8,1183.5,255.7,1183.5,246.4z"/>
	<path class="st12" d="M1232.3,252h-4.8v8.3h-8.8v-31.1h14.2c8.5,0,13.8,4.4,13.8,11.5c0,4.6-2.2,7.9-6.1,9.8l6.7,9.8h-9.4
		L1232.3,252z M1232.3,236.1h-4.9v9.1h4.9c3.6,0,5.5-1.7,5.5-4.5C1237.8,237.8,1236,236.1,1232.3,236.1z"/>
	<path class="st12" d="M1251.5,229.2h8.8v31.1h-8.8V229.2z"/>
	<path class="st12" d="M1265,244.7c0-9.5,7.2-16.2,17.1-16.2c5.7,0,10.3,2.1,13.4,5.9l-5.6,5.1c-2-2.4-4.3-3.6-7.3-3.6
		c-5.1,0-8.7,3.5-8.7,8.9c0,5.3,3.5,8.9,8.7,8.9c3,0,5.4-1.3,7.3-3.6l5.6,5.1c-3,3.8-7.6,5.9-13.4,5.9
		C1272.2,260.8,1265,254.1,1265,244.7z"/>
	<path class="st12" d="M1297,244.7c0-9.3,7.3-16.2,17.3-16.2s17.3,6.8,17.3,16.2s-7.3,16.2-17.3,16.2S1297,254,1297,244.7z
		 M1322.7,244.7c0-5.4-3.7-8.9-8.4-8.9c-4.7,0-8.4,3.5-8.4,8.9s3.7,8.9,8.4,8.9C1319,253.6,1322.7,250.1,1322.7,244.7z"/>
</g>
<g class="st11">
	<path class="st7" d="M1149.8,244.7c0-9.5,7.2-16.2,17.1-16.2c5.7,0,10.3,2.1,13.4,5.9l-5.6,5.1c-2-2.4-4.3-3.6-7.3-3.6
		c-5.1,0-8.7,3.5-8.7,8.9c0,5.3,3.5,8.9,8.7,8.9c3,0,5.4-1.3,7.3-3.6l5.6,5.1c-3,3.8-7.6,5.9-13.4,5.9
		C1157.1,260.8,1149.8,254.1,1149.8,244.7z"/>
	<path class="st7" d="M1183.5,246.4v-17.2h8.8v17c0,5.3,2.2,7.5,5.9,7.5c3.6,0,5.9-2.1,5.9-7.5v-17h8.7v17.2
		c0,9.3-5.4,14.5-14.6,14.5C1189,260.8,1183.5,255.7,1183.5,246.4z"/>
	<path class="st7" d="M1232.3,252h-4.8v8.3h-8.8v-31.1h14.2c8.5,0,13.8,4.4,13.8,11.5c0,4.6-2.2,7.9-6.1,9.8l6.7,9.8h-9.4
		L1232.3,252z M1232.3,236.1h-4.9v9.1h4.9c3.6,0,5.5-1.7,5.5-4.5C1237.8,237.8,1236,236.1,1232.3,236.1z"/>
	<path class="st7" d="M1251.5,229.2h8.8v31.1h-8.8V229.2z"/>
	<path class="st7" d="M1265,244.7c0-9.5,7.2-16.2,17.1-16.2c5.7,0,10.3,2.1,13.4,5.9l-5.6,5.1c-2-2.4-4.3-3.6-7.3-3.6
		c-5.1,0-8.7,3.5-8.7,8.9c0,5.3,3.5,8.9,8.7,8.9c3,0,5.4-1.3,7.3-3.6l5.6,5.1c-3,3.8-7.6,5.9-13.4,5.9
		C1272.2,260.8,1265,254.1,1265,244.7z"/>
	<path class="st7" d="M1297,244.7c0-9.3,7.3-16.2,17.3-16.2s17.3,6.8,17.3,16.2s-7.3,16.2-17.3,16.2S1297,254,1297,244.7z
		 M1322.7,244.7c0-5.4-3.7-8.9-8.4-8.9c-4.7,0-8.4,3.5-8.4,8.9s3.7,8.9,8.4,8.9C1319,253.6,1322.7,250.1,1322.7,244.7z"/>
</g>
<g class="st11">
	<path d="M999,540.1h-9.5v-7h27.8v7h-9.5v24.1H999V540.1z"/>
	<path d="M1039.9,558.2h-13.1l-2.4,6h-9l13.7-31.1h8.7l13.8,31.1h-9.1L1039.9,558.2z M1037.3,551.7l-4-9.9l-4,9.9H1037.3z"/>
	<path d="M1053.9,533.2h8.8v24.1h14.8v7h-23.6V533.2z"/>
	<path d="M1078.9,548.7c0-9.5,7.2-16.2,17.1-16.2c5.7,0,10.3,2.1,13.4,5.9l-5.6,5.1c-2-2.4-4.3-3.6-7.3-3.6c-5.1,0-8.7,3.5-8.7,8.9
		c0,5.3,3.5,8.9,8.7,8.9c3,0,5.4-1.3,7.3-3.6l5.6,5.1c-3,3.8-7.6,5.9-13.4,5.9C1086.1,564.8,1078.9,558.1,1078.9,548.7z"/>
	<path d="M1133.5,558.2h-13.1l-2.4,6h-9l13.7-31.1h8.7l13.8,31.1h-9.1L1133.5,558.2z M1130.9,551.7l-4-9.9l-4,9.9H1130.9z"/>
</g>
<g class="st11">
	<path class="st12" d="M999,540.1h-9.5v-7h27.8v7h-9.5v24.1H999V540.1z"/>
	<path class="st12" d="M1039.9,558.2h-13.1l-2.4,6h-9l13.7-31.1h8.7l13.8,31.1h-9.1L1039.9,558.2z M1037.3,551.7l-4-9.9l-4,9.9
		H1037.3z"/>
	<path class="st12" d="M1053.9,533.2h8.8v24.1h14.8v7h-23.6V533.2z"/>
	<path class="st12" d="M1078.9,548.7c0-9.5,7.2-16.2,17.1-16.2c5.7,0,10.3,2.1,13.4,5.9l-5.6,5.1c-2-2.4-4.3-3.6-7.3-3.6
		c-5.1,0-8.7,3.5-8.7,8.9c0,5.3,3.5,8.9,8.7,8.9c3,0,5.4-1.3,7.3-3.6l5.6,5.1c-3,3.8-7.6,5.9-13.4,5.9
		C1086.1,564.8,1078.9,558.1,1078.9,548.7z"/>
	<path class="st12" d="M1133.5,558.2h-13.1l-2.4,6h-9l13.7-31.1h8.7l13.8,31.1h-9.1L1133.5,558.2z M1130.9,551.7l-4-9.9l-4,9.9
		H1130.9z"/>
</g>
<g class="st11">
	<path class="st7" d="M999,540.1h-9.5v-7h27.8v7h-9.5v24.1H999V540.1z"/>
	<path class="st7" d="M1039.9,558.2h-13.1l-2.4,6h-9l13.7-31.1h8.7l13.8,31.1h-9.1L1039.9,558.2z M1037.3,551.7l-4-9.9l-4,9.9
		H1037.3z"/>
	<path class="st7" d="M1053.9,533.2h8.8v24.1h14.8v7h-23.6V533.2z"/>
	<path class="st7" d="M1078.9,548.7c0-9.5,7.2-16.2,17.1-16.2c5.7,0,10.3,2.1,13.4,5.9l-5.6,5.1c-2-2.4-4.3-3.6-7.3-3.6
		c-5.1,0-8.7,3.5-8.7,8.9c0,5.3,3.5,8.9,8.7,8.9c3,0,5.4-1.3,7.3-3.6l5.6,5.1c-3,3.8-7.6,5.9-13.4,5.9
		C1086.1,564.8,1078.9,558.1,1078.9,548.7z"/>
	<path class="st7" d="M1133.5,558.2h-13.1l-2.4,6h-9l13.7-31.1h8.7l13.8,31.1h-9.1L1133.5,558.2z M1130.9,551.7l-4-9.9l-4,9.9
		H1130.9z"/>
</g>
<g class="st11">
	<path d="M937.4,912.2h8.8v24.1H961v7h-23.6V912.2z"/>
	<path d="M964.5,912.2h8.8v31.1h-8.8V912.2z"/>
	<path d="M1009.1,912.2v31.1h-7.2l-13.7-16.6v16.6h-8.6v-31.1h7.2l13.7,16.6v-16.6H1009.1z"/>
	<path d="M1036.1,937.2H1023l-2.4,6h-9l13.7-31.1h8.7l13.8,31.1h-9.1L1036.1,937.2z M1033.5,930.7l-4-9.9l-4,9.9H1033.5z"/>
	<path d="M1063.7,935h-4.8v8.3h-8.8v-31.1h14.2c8.5,0,13.8,4.4,13.8,11.5c0,4.6-2.2,7.9-6.1,9.8l6.7,9.8h-9.4L1063.7,935z
		 M1063.8,919.1h-4.9v9.1h4.9c3.6,0,5.5-1.7,5.5-4.5C1069.3,920.8,1067.5,919.1,1063.8,919.1z"/>
	<path d="M1107.9,936.4v6.8H1083v-31.1h24.4v6.8h-15.7v5.2h13.8v6.6h-13.8v5.7H1107.9z"/>
	<path d="M1110.6,940.4l2.9-6.5c2.8,1.8,6.7,3.1,10.3,3.1c3.6,0,5.1-1,5.1-2.5c0-4.9-17.7-1.3-17.7-12.9c0-5.5,4.5-10.1,13.8-10.1
		c4,0,8.2,0.9,11.3,2.7l-2.7,6.5c-3-1.6-5.9-2.4-8.6-2.4c-3.7,0-5,1.2-5,2.8c0,4.7,17.6,1.2,17.6,12.6c0,5.4-4.5,10-13.8,10
		C1118.6,943.8,1113.5,942.5,1110.6,940.4z"/>
</g>
<g class="st11">
	<path class="st12" d="M937.4,912.2h8.8v24.1H961v7h-23.6V912.2z"/>
	<path class="st12" d="M964.5,912.2h8.8v31.1h-8.8V912.2z"/>
	<path class="st12" d="M1009.1,912.2v31.1h-7.2l-13.7-16.6v16.6h-8.6v-31.1h7.2l13.7,16.6v-16.6H1009.1z"/>
	<path class="st12" d="M1036.1,937.2H1023l-2.4,6h-9l13.7-31.1h8.7l13.8,31.1h-9.1L1036.1,937.2z M1033.5,930.7l-4-9.9l-4,9.9
		H1033.5z"/>
	<path class="st12" d="M1063.7,935h-4.8v8.3h-8.8v-31.1h14.2c8.5,0,13.8,4.4,13.8,11.5c0,4.6-2.2,7.9-6.1,9.8l6.7,9.8h-9.4
		L1063.7,935z M1063.8,919.1h-4.9v9.1h4.9c3.6,0,5.5-1.7,5.5-4.5C1069.3,920.8,1067.5,919.1,1063.8,919.1z"/>
	<path class="st12" d="M1107.9,936.4v6.8H1083v-31.1h24.4v6.8h-15.7v5.2h13.8v6.6h-13.8v5.7H1107.9z"/>
	<path class="st12" d="M1110.6,940.4l2.9-6.5c2.8,1.8,6.7,3.1,10.3,3.1c3.6,0,5.1-1,5.1-2.5c0-4.9-17.7-1.3-17.7-12.9
		c0-5.5,4.5-10.1,13.8-10.1c4,0,8.2,0.9,11.3,2.7l-2.7,6.5c-3-1.6-5.9-2.4-8.6-2.4c-3.7,0-5,1.2-5,2.8c0,4.7,17.6,1.2,17.6,12.6
		c0,5.4-4.5,10-13.8,10C1118.6,943.8,1113.5,942.5,1110.6,940.4z"/>
</g>
<g class="st11">
	<path class="st7" d="M937.4,912.2h8.8v24.1H961v7h-23.6V912.2z"/>
	<path class="st7" d="M964.5,912.2h8.8v31.1h-8.8V912.2z"/>
	<path class="st7" d="M1009.1,912.2v31.1h-7.2l-13.7-16.6v16.6h-8.6v-31.1h7.2l13.7,16.6v-16.6H1009.1z"/>
	<path class="st7" d="M1036.1,937.2H1023l-2.4,6h-9l13.7-31.1h8.7l13.8,31.1h-9.1L1036.1,937.2z M1033.5,930.7l-4-9.9l-4,9.9H1033.5
		z"/>
	<path class="st7" d="M1063.7,935h-4.8v8.3h-8.8v-31.1h14.2c8.5,0,13.8,4.4,13.8,11.5c0,4.6-2.2,7.9-6.1,9.8l6.7,9.8h-9.4
		L1063.7,935z M1063.8,919.1h-4.9v9.1h4.9c3.6,0,5.5-1.7,5.5-4.5C1069.3,920.8,1067.5,919.1,1063.8,919.1z"/>
	<path class="st7" d="M1107.9,936.4v6.8H1083v-31.1h24.4v6.8h-15.7v5.2h13.8v6.6h-13.8v5.7H1107.9z"/>
	<path class="st7" d="M1110.6,940.4l2.9-6.5c2.8,1.8,6.7,3.1,10.3,3.1c3.6,0,5.1-1,5.1-2.5c0-4.9-17.7-1.3-17.7-12.9
		c0-5.5,4.5-10.1,13.8-10.1c4,0,8.2,0.9,11.3,2.7l-2.7,6.5c-3-1.6-5.9-2.4-8.6-2.4c-3.7,0-5,1.2-5,2.8c0,4.7,17.6,1.2,17.6,12.6
		c0,5.4-4.5,10-13.8,10C1118.6,943.8,1113.5,942.5,1110.6,940.4z"/>
</g>
<g class="st11">
	<path d="M236.8,898.7c0-9.5,7.2-16.2,17.1-16.2c5.7,0,10.3,2.1,13.4,5.9l-5.6,5.1c-2-2.4-4.3-3.6-7.3-3.6c-5.1,0-8.7,3.5-8.7,8.9
		c0,5.3,3.5,8.9,8.7,8.9c3,0,5.4-1.3,7.3-3.6l5.6,5.1c-3,3.8-7.6,5.9-13.4,5.9C244.1,914.8,236.8,908.1,236.8,898.7z"/>
	<path d="M291.4,908.2h-13.1l-2.4,6h-9l13.7-31.1h8.7l13.8,31.1h-9.1L291.4,908.2z M288.9,901.7l-4-9.9l-4,9.9H288.9z"/>
	<path d="M304.6,900.4v-17.2h8.8v17c0,5.3,2.2,7.5,5.9,7.5c3.6,0,5.9-2.1,5.9-7.5v-17h8.7v17.2c0,9.3-5.4,14.5-14.6,14.5
		S304.6,909.7,304.6,900.4z"/>
	<path d="M374.2,917.8c-2.1,2.5-5.1,3.9-8.7,3.9c-5.1,0-8.4-1.7-13.6-7.1c-8.2-1.4-13.8-7.7-13.8-15.9c0-9.3,7.3-16.2,17.3-16.2
		s17.3,6.8,17.3,16.2c0,7.1-4.2,12.7-10.6,15c1.2,1.3,2.3,1.8,3.6,1.8c1.7,0,3.3-0.8,4.7-2.2L374.2,917.8z M355.4,907.6
		c4.7,0,8.4-3.5,8.4-8.9s-3.7-8.9-8.4-8.9s-8.4,3.5-8.4,8.9S350.7,907.6,355.4,907.6z"/>
	<path d="M377,900.4v-17.2h8.8v17c0,5.3,2.2,7.5,5.9,7.5c3.6,0,5.9-2.1,5.9-7.5v-17h8.7v17.2c0,9.3-5.4,14.5-14.6,14.5
		S377,909.7,377,900.4z"/>
	<path d="M437,907.4v6.8h-24.9v-31.1h24.4v6.8h-15.7v5.2h13.8v6.6h-13.8v5.7H437z"/>
	<path d="M471.5,883.2v31.1h-7.2l-13.7-16.6v16.6h-8.6v-31.1h7.2l13.7,16.6v-16.6H471.5z"/>
	<path d="M502.6,907.4v6.8h-24.9v-31.1H502v6.8h-15.7v5.2h13.8v6.6h-13.8v5.7H502.6z"/>
	<path d="M505.3,911.4l2.9-6.5c2.8,1.8,6.7,3.1,10.3,3.1c3.6,0,5.1-1,5.1-2.5c0-4.9-17.7-1.3-17.7-12.9c0-5.5,4.5-10.1,13.8-10.1
		c4,0,8.2,0.9,11.3,2.7l-2.7,6.5c-3-1.6-5.9-2.4-8.6-2.4c-3.7,0-5,1.2-5,2.8c0,4.7,17.6,1.2,17.6,12.6c0,5.4-4.5,10-13.8,10
		C513.3,914.8,508.2,913.5,505.3,911.4z"/>
</g>
<g class="st11">
	<path class="st12" d="M236.8,898.7c0-9.5,7.2-16.2,17.1-16.2c5.7,0,10.3,2.1,13.4,5.9l-5.6,5.1c-2-2.4-4.3-3.6-7.3-3.6
		c-5.1,0-8.7,3.5-8.7,8.9c0,5.3,3.5,8.9,8.7,8.9c3,0,5.4-1.3,7.3-3.6l5.6,5.1c-3,3.8-7.6,5.9-13.4,5.9
		C244.1,914.8,236.8,908.1,236.8,898.7z"/>
	<path class="st12" d="M291.4,908.2h-13.1l-2.4,6h-9l13.7-31.1h8.7l13.8,31.1h-9.1L291.4,908.2z M288.9,901.7l-4-9.9l-4,9.9H288.9z"
		/>
	<path class="st12" d="M304.6,900.4v-17.2h8.8v17c0,5.3,2.2,7.5,5.9,7.5c3.6,0,5.9-2.1,5.9-7.5v-17h8.7v17.2
		c0,9.3-5.4,14.5-14.6,14.5S304.6,909.7,304.6,900.4z"/>
	<path class="st12" d="M374.2,917.8c-2.1,2.5-5.1,3.9-8.7,3.9c-5.1,0-8.4-1.7-13.6-7.1c-8.2-1.4-13.8-7.7-13.8-15.9
		c0-9.3,7.3-16.2,17.3-16.2s17.3,6.8,17.3,16.2c0,7.1-4.2,12.7-10.6,15c1.2,1.3,2.3,1.8,3.6,1.8c1.7,0,3.3-0.8,4.7-2.2L374.2,917.8z
		 M355.4,907.6c4.7,0,8.4-3.5,8.4-8.9s-3.7-8.9-8.4-8.9s-8.4,3.5-8.4,8.9S350.7,907.6,355.4,907.6z"/>
	<path class="st12" d="M377,900.4v-17.2h8.8v17c0,5.3,2.2,7.5,5.9,7.5c3.6,0,5.9-2.1,5.9-7.5v-17h8.7v17.2c0,9.3-5.4,14.5-14.6,14.5
		S377,909.7,377,900.4z"/>
	<path class="st12" d="M437,907.4v6.8h-24.9v-31.1h24.4v6.8h-15.7v5.2h13.8v6.6h-13.8v5.7H437z"/>
	<path class="st12" d="M471.5,883.2v31.1h-7.2l-13.7-16.6v16.6h-8.6v-31.1h7.2l13.7,16.6v-16.6H471.5z"/>
	<path class="st12" d="M502.6,907.4v6.8h-24.9v-31.1H502v6.8h-15.7v5.2h13.8v6.6h-13.8v5.7H502.6z"/>
	<path class="st12" d="M505.3,911.4l2.9-6.5c2.8,1.8,6.7,3.1,10.3,3.1c3.6,0,5.1-1,5.1-2.5c0-4.9-17.7-1.3-17.7-12.9
		c0-5.5,4.5-10.1,13.8-10.1c4,0,8.2,0.9,11.3,2.7l-2.7,6.5c-3-1.6-5.9-2.4-8.6-2.4c-3.7,0-5,1.2-5,2.8c0,4.7,17.6,1.2,17.6,12.6
		c0,5.4-4.5,10-13.8,10C513.3,914.8,508.2,913.5,505.3,911.4z"/>
</g>
<g class="st11">
	<path class="st7" d="M236.8,898.7c0-9.5,7.2-16.2,17.1-16.2c5.7,0,10.3,2.1,13.4,5.9l-5.6,5.1c-2-2.4-4.3-3.6-7.3-3.6
		c-5.1,0-8.7,3.5-8.7,8.9c0,5.3,3.5,8.9,8.7,8.9c3,0,5.4-1.3,7.3-3.6l5.6,5.1c-3,3.8-7.6,5.9-13.4,5.9
		C244.1,914.8,236.8,908.1,236.8,898.7z"/>
	<path class="st7" d="M291.4,908.2h-13.1l-2.4,6h-9l13.7-31.1h8.7l13.8,31.1h-9.1L291.4,908.2z M288.9,901.7l-4-9.9l-4,9.9H288.9z"
		/>
	<path class="st7" d="M304.6,900.4v-17.2h8.8v17c0,5.3,2.2,7.5,5.9,7.5c3.6,0,5.9-2.1,5.9-7.5v-17h8.7v17.2
		c0,9.3-5.4,14.5-14.6,14.5S304.6,909.7,304.6,900.4z"/>
	<path class="st7" d="M374.2,917.8c-2.1,2.5-5.1,3.9-8.7,3.9c-5.1,0-8.4-1.7-13.6-7.1c-8.2-1.4-13.8-7.7-13.8-15.9
		c0-9.3,7.3-16.2,17.3-16.2s17.3,6.8,17.3,16.2c0,7.1-4.2,12.7-10.6,15c1.2,1.3,2.3,1.8,3.6,1.8c1.7,0,3.3-0.8,4.7-2.2L374.2,917.8z
		 M355.4,907.6c4.7,0,8.4-3.5,8.4-8.9s-3.7-8.9-8.4-8.9s-8.4,3.5-8.4,8.9S350.7,907.6,355.4,907.6z"/>
	<path class="st7" d="M377,900.4v-17.2h8.8v17c0,5.3,2.2,7.5,5.9,7.5c3.6,0,5.9-2.1,5.9-7.5v-17h8.7v17.2c0,9.3-5.4,14.5-14.6,14.5
		S377,909.7,377,900.4z"/>
	<path class="st7" d="M437,907.4v6.8h-24.9v-31.1h24.4v6.8h-15.7v5.2h13.8v6.6h-13.8v5.7H437z"/>
	<path class="st7" d="M471.5,883.2v31.1h-7.2l-13.7-16.6v16.6h-8.6v-31.1h7.2l13.7,16.6v-16.6H471.5z"/>
	<path class="st7" d="M502.6,907.4v6.8h-24.9v-31.1H502v6.8h-15.7v5.2h13.8v6.6h-13.8v5.7H502.6z"/>
	<path class="st7" d="M505.3,911.4l2.9-6.5c2.8,1.8,6.7,3.1,10.3,3.1c3.6,0,5.1-1,5.1-2.5c0-4.9-17.7-1.3-17.7-12.9
		c0-5.5,4.5-10.1,13.8-10.1c4,0,8.2,0.9,11.3,2.7l-2.7,6.5c-3-1.6-5.9-2.4-8.6-2.4c-3.7,0-5,1.2-5,2.8c0,4.7,17.6,1.2,17.6,12.6
		c0,5.4-4.5,10-13.8,10C513.3,914.8,508.2,913.5,505.3,911.4z"/>
</g>
</svg>
