<?xml version="1.0" encoding="utf-8"?>
<!-- Generator: Adobe Illustrator 24.0.0, SVG Export Plug-In . SVG Version: 6.00 Build 0)  -->
<svg version="1.1" id="Capa_1" xmlns="http://www.w3.org/2000/svg" xmlns:xlink="http://www.w3.org/1999/xlink" x="0px" y="0px"
	 viewBox="0 0 1920 2314" style="enable-background:new 0 0 1920 2314;" xml:space="preserve">
<style type="text/css">
	.st0{fill:#8E8E8E;}
	.st1{fill:#BFBFBF;}
	.st2{stroke:#000000;stroke-width:6;stroke-miterlimit:10;}
	.st3{fill:#FFFFFF;}
	.st4{fill:#D4353F;}
	.st5{fill:#FF6D00;}
	.st6{fill:#FF8500;}
	.st7{fill:#D7D9D9;}
	.st8{fill:#C5C7C8;}
	.st9{opacity:0.4;fill:#DA5D68;enable-background:new    ;}
	.st10{opacity:0.4;fill:#D4353F;enable-background:new    ;}
	.st11{fill:#444444;}
</style>
<path class="st0" d="M625.2,198.8c-4.9,11.9-10,23.7-15,35.5c16,12.9,29.9,30,41.3,44.2c59.1,73.2,104.3,159.3,140.2,246
	c16.2,39,30.9,79.3,38.5,120.9c3.9,21,8.3,48.8-0.5,70.1c31,9.6,64.3-15.5,96.3-13.1c36.1,2.7,63,31.7,84.3,58
	c10.3,12.8,20.3,25.9,31.8,37.6c11.2,11.3,23.7,17.8,37.1,25.9c35.2,21.3,75.7,29.6,116.3,31.9c42,2.3,84-0.8,125.9-1.8
	c44.5-1,89-3.1,133.5-4.5c82.2-2.6,164.6-3.2,246.5,4.8c34.4,3.4,68.5,8.3,102.3,14.6c6-19.6,7.5-41.2,28.3-54.1
	c3.3-2.1,4.5-14,1.8-18.3c-15.3-24.5-32.1-48.2-48.8-72.7c10.4-2.1,21.7-1.5,28.6-6.7c7.8-5.8,17.8-18.7,16-25.5
	c-6.7-24.8-17.9-48.5-27.2-72c10.1-30.7,20.6-62.6,31.3-94.9c40.2,3.5,56.2-19,48.7-61.5c-4.8-27.2-0.8-55.9,0.3-83.9
	c0.1-3.7,5.9-9.1,10.1-10.5c22.4-7.6,19.7-22.5,14.1-40.1c-6.2-19.7-9.6-40.4-16-60c-2.6-8-8.5-17.9-15.5-20.8
	c-24.1-10.1-50.7-3.3-65.4,18.3c-11.6,17.1-25.9,19.1-44.4,20.7c-13.7,1.2-31.8,8.3-38.8,18.8c-14.5,21.8-28.9,20.2-45.7,7.6
	c-18.8-14.1-35.3-31.2-54.3-45.1c-12.1-8.9-26.2-15.8-40.4-20.8c-21.9-7.7-45.1-11.8-67.1-19.4c-46.8-16.1-92.5-35.5-139.8-49.9
	c-54-16.3-109.2-28.4-163.8-42.9c-9.1-2.4-17.2-8.3-26-11.8c-17.6-6.8-34.9-15.7-53.2-19c-26.2-4.7-53.1-6-79.7-7
	c-9.5-0.3-25.1,1.9-27.9,7.8c-17.4,37.2-49.2,22.4-75.8,21.6c-6.5-0.2-19.8-20.6-17.6-24.2c17.5-28.7-3.4-28.2-21.2-31.4
	c-14.3-2.6-35.9-1.2-41.4-9.8c-17.7-27.7-43.8-24.5-69.2-27.3c-12.8-1.4-27.9,0.2-37.8-6.1c-35.2-22.3-73-11.3-109.8-12
	c-3.7-0.1-9.7,3-10.8,6c-10.8,29-27,57.9-29.1,87.7c-1.8,25.1-16.8,55.2,7.9,79.1C626.3,190.4,626.4,195.9,625.2,198.8z"/>
<path class="st0" d="M524,1015.9c-0.9-0.5-1.7-1-2.5-1.7c-0.3-0.3-0.7-0.7-1.1-1.1c-0.2-0.1-0.4-0.2-0.7-0.4
	c-1.2-0.8-2.4-1.6-3.6-2.4c-2.6-1.7-5.1-3.5-7.4-5.6c-23.6-16.9-36-39.4-34.8-69.4c1-25.6,6.7-51.4-6-75.2
	c-5.5-10.3-11.4-17.7-21.7-22.8c-9.1-4.5-19.1-7.4-28.9-10.1c-16.5-4.4-33.3-7.5-50.2-10.2c-4.9,14.8-10.6,28.9-19.6,40.5
	c-27,34.7-106.2,41.1-147.1,22.6c-14.1-6.4-32.5-8.8-47.7-6c-22.4,4.1-35.6-3.1-46.6-21c-3.1-5.1-9.7-10.9-15.1-11.3
	c-22.7-1.6-43.5,17.9-47.2,41.1c-1.4,8.5-5.2,16.5-7.6,24.8c-6.6,22.7-13.8,45.3-19.4,68.3c-3.4,13.7-3.6,25.8,17.3,26.8
	c6.9,0.3,18.1,11.2,19,18.3c5.8,43.7,14.5,88.4-22.5,125c-4.8,4.8-7.1,14.6-6.6,21.8c0.8,12.8,9.5,26.7,6.4,37.8
	c-8.9,31.8,6.3,45.6,27,68.7c38.3,42.7,64.6,96.5,94.7,146.4c27.7,45.9,19.4,96.3,13.4,145.4c-1.4,11.8-15.2,21.8-21.8,33.4
	c-3.8,6.6-8.4,16.3-6.1,22c10.9,27.9,2.6,51.4-8.1,77.5c-6.7,16.3-6.5,41,1.5,56.3c10.4,19.7,80.8,18.2,99.8,2.4
	c17.2-14.4,44.8-11.6,47.5,6.4c5.7,37.1,35.1,50.9,62.2,65.2c8.6,4.5,35.1-4.3,35.2-7.4c0.7-26.3,17.2-56.4-11.6-78
	c-22.5-16.8-46.3-31.9-51.3-63.1c-0.6-3.8-7.5-7-11.9-9.7c-20.7-12.6-15.2-29.9-2.9-41.6c17.2-16.5,37.9-29.5,58.1-42.4
	c32.2-20.6,67.2-37.1,84.5-75c10.7-23.6,5.1-34.7-21.4-34.4c-17.9,0.2-35.7,2.3-60,3.9c7.7-12.2,10.5-21.8,16.8-25.6
	c19.3-11.5,19.3-27.3,18.3-47c-0.7-12.7,6.4-27.3,13.8-38.5c13.7-20.6,28.1-41.6,45.9-58.5c30.6-29.1-5.4-46.1-9.5-68.7
	c-0.2-0.8-0.5-1.8-1.1-2.4c-11.2-12.7-7.3-25.6,3.2-34.7c7.8-6.8,17-16.3,25.8-23.8c-4-7.4-7-15.4-8.5-24.1
	c-4.6-27.1,4-54.1,16.3-78.1C491.9,1057.3,507.1,1036,524,1015.9z"/>
<path class="st1" d="M495.5,924.9c-0.9,11.1-1.8,22.5,1.3,33.3c4.1,14.2,15.1,24,27.2,31.8c1,0.7,1.9,1.4,2.6,2.3
	c0.5,0.3,1,0.7,1.5,1c2.8,1.9,5.7,3.8,8.1,6.2c0.4,0.4,0.7,0.8,1,1.2c16.4-18.1,33.9-35.3,51-52c16.2-15.7,32.3-31.6,48.9-46.9
	c10.4-9.7,23.8-14.3,36.9-19.2c10.3-3.8,28.7-8.9,32.3-21.2c5.8-20.1-27.5-32-40-39.7c-8.3-5.2-16.7-11.4-21.1-20.4
	c-6.1-12.6-0.8-23.9,4.8-35.6c12.5-26,29.5-50.8,54.4-66.3c27.7-17.1,61-19.6,92.7-16.3c2.9,0.3,5.2,1.6,6.9,3.4h9.5
	c0-0.9,0-1.7,0-2.6c-0.1-17.2-3.3-34.2-7.2-50.9c-20.6-86.7-61.7-170-106.6-246.5c-20.9-35.5-43.5-70.6-70.2-102.1
	c-8.8-10.3-18-20.4-28.2-29.4c-4.4,10.3-8.8,20.6-13.2,30.9c-12.7,30.1-46.3,51.1-38.2,89.5c-50.1,13.5-73,53-44.5,101.9
	c-2.3,19.5-4.9,32-5.1,44.7c-0.3,16.9-7.7,24.3-24.2,21.6c-37.3-6.2-46.4-20.6-40.8-58.1c1.4-9.3-1-25.7-6.6-28.3
	c-15.5-7.3-23.6,5.5-27.6,19.1c-7.2,24.6-13.5,49.5-20.6,75.6c-5.3-0.5-14.4-4.3-18.6-1.3c-10.7,7.7-19.2,18.4-28.6,27.9
	c7,5,14.3,9.4,20.8,15c7.5,6.4,19.2,13.2,20.2,20.9c2.5,20.8,3.4,42.8-0.8,63.1c-6.4,30.9-26.7,61.3,6.4,89c1.1,0.9,2,3.5,1.6,4.8
	c-3,8.2-5.6,16.8-8.1,25.4c20,3.4,40,7.3,59.4,13.3c23,7.1,40.5,16.5,52.5,38.3C498.7,872.5,497.7,898.2,495.5,924.9z"/>
<path class="st1" d="M1883.9,1459.7c-30.1-43.8-62-86.4-93.1-129.1c28-17.4,27.8-17.3,8.7-52.8c-5.7-10.7-9.8-22.3-15.5-33
	c-14.6-27.7-11.4-48.6,11.4-69.5c26.9-24.6,30.4-40.4,14.4-67.7c16.8-18.2,27-39.6,12.2-63.3c-14.5-23.2-30.1-46.5-48.9-66.2
	c-18.1-18.9-12.4-32.8-0.2-50.4c8.6-12.3,16.3-25.5,23-39c-44-8.1-88.5-13.7-133.4-16.7c-83.8-5.6-167.9-3.2-251.7,0
	c-44.1,1.7-88.2,2.7-132.3,4.3c-41,1.5-82.2,2.6-122.8-3.8c-20-3.1-39.6-8.3-58.3-16.2c-9.3-3.9-18.3-8.3-27-13.4
	c-7.1-4.2-14.6-7.7-21.5-12.3c-26.7-17.4-44-45.5-64.6-69.1c-20.5-23.6-46.3-43.6-79.2-36.4c-32.6,7.2-63.1,22.5-95.2,4.4
	c-4.5-2.6-7-9.7-3.7-14.2c1.8-2.5,3.2-5.2,4.3-7.9h-8.8c-3.2,0-5.9-1.5-7.8-3.7c-31.8-2.9-65.2,0.2-90.2,22.1
	c-11.2,9.8-19.9,21.7-27.3,34.5c-4.3,7.5-8.5,15.3-11.8,23.3c-1.6,4-2.1,6.5,0.2,10.3c4.4,7.1,14.3,11.4,21.3,15.3
	c9.2,5.2,18.5,10.2,26.4,17.3c18.3,16.4,20.2,43.4,0.5,59.6c-10.7,8.8-24.1,13.1-36.9,17.8c-11.8,4.4-20.7,9.1-29.7,17.9
	c-15.9,15.6-32.3,30.7-48.3,46.2c-37.9,37.1-77.2,76.8-101.2,124.7c-9.3,18.5-16.5,40.1-13.1,61c1,6.4,3.1,12.3,5.9,17.7
	c2.4-0.7,4.7-0.9,6.7-0.4c32.3,8.3,54.3-3.1,77.4-19.1c22.7-15.8,46.4-16.8,72-8.2c18.1,6,37.3,8.7,55.2,15.1
	c15,5.4,31.4,11.3,42.7,21.9c16,15,30.6,18.3,49.2,7.9c10.1-5.6,20.3-11,33.4-18c-2.6,14.5-4.9,26.4-6.8,38.2
	c-3.7,22.6,1.3,41.3,22.8,53.6c55.1,31.7,109.2,65.2,165.2,95.4c40.1,21.6,82.3,39.5,124,58c15.7,6.9,32.4,13.2,49.2,15.5
	c46.3,6.1,91.6,12.6,133.4,37c16.6,9.7,39.6,9,59.8,11.5c14.6,1.8,29.6-0.2,44.2,1.7c25.2,3.2,39.3,16.6,37.3,44
	c-2.1,29-2.5,57.6,28.1,75.1c4.2,2.4,3.8,11.7,7.6,15.8c6.5,6.9,14.4,16.2,22.3,16.8c7.9,0.6,21.3-6.3,24-13.1
	c12.6-32,45.2-41.2,66.7-62.6c10.1-10,22.2-19,29.2-30.9c12-20.5,25.2-35.6,50.2-41.5c59.6-13.9,117.4,4,176.1,6.3
	c9.6,0.4,19.1-0.2,28.7-0.3C1887.2,1480.6,1889.3,1467.5,1883.9,1459.7z"/>
<g>
	<path class="st2" d="M1243.4,471.6v31.1h-7.2l-13.7-16.6v16.6h-8.6v-31.1h7.2l13.7,16.6v-16.6H1243.4z M1223.6,468.9h-4.1
		c0.1-4.3,2.2-7.1,5.6-7.1c3.2,0,4.8,2.7,6.4,2.7c1.2,0,2-0.8,2-2.2h4.1c-0.1,4.2-2.2,7-5.6,7c-3.2,0-4.8-2.8-6.4-2.8
		C1224.5,466.6,1223.7,467.5,1223.6,468.9z"/>
	<path class="st2" d="M1249.3,488.8v-17.2h8.8v17c0,5.3,2.2,7.5,5.9,7.5c3.6,0,5.9-2.1,5.9-7.5v-17h8.7v17.2
		c0,9.3-5.4,14.5-14.6,14.5C1254.7,503.2,1249.3,498,1249.3,488.8z"/>
	<path class="st2" d="M1314,494.1c0,5.4-4.4,8.5-12.8,8.5h-16.8v-31.1h15.9c8.2,0,12.2,3.3,12.2,8.1c0,3-1.5,5.4-4.2,6.7
		C1311.8,487.7,1314,490.3,1314,494.1z M1293.2,477.9v6h6c2.9,0,4.4-1,4.4-3c0-2-1.5-3-4.4-3H1293.2z M1305.1,493.1
		c0-2.1-1.6-3.2-4.6-3.2h-7.4v6.3h7.4C1303.5,496.3,1305.1,495.2,1305.1,493.1z"/>
	<path class="st2" d="M1318.6,471.6h8.8v24.1h14.8v7h-23.6V471.6z"/>
	<path class="st2" d="M1370.6,495.8v6.8h-24.9v-31.1h24.4v6.8h-15.7v5.2h13.8v6.6h-13.8v5.7H1370.6z"/>
</g>
<g>
	<path class="st3" d="M1243.4,471.6v31.1h-7.2l-13.7-16.6v16.6h-8.6v-31.1h7.2l13.7,16.6v-16.6H1243.4z M1223.6,468.9h-4.1
		c0.1-4.3,2.2-7.1,5.6-7.1c3.2,0,4.8,2.7,6.4,2.7c1.2,0,2-0.8,2-2.2h4.1c-0.1,4.2-2.2,7-5.6,7c-3.2,0-4.8-2.8-6.4-2.8
		C1224.5,466.6,1223.7,467.5,1223.6,468.9z"/>
	<path class="st3" d="M1249.3,488.8v-17.2h8.8v17c0,5.3,2.2,7.5,5.9,7.5c3.6,0,5.9-2.1,5.9-7.5v-17h8.7v17.2
		c0,9.3-5.4,14.5-14.6,14.5C1254.7,503.2,1249.3,498,1249.3,488.8z"/>
	<path class="st3" d="M1314,494.1c0,5.4-4.4,8.5-12.8,8.5h-16.8v-31.1h15.9c8.2,0,12.2,3.3,12.2,8.1c0,3-1.5,5.4-4.2,6.7
		C1311.8,487.7,1314,490.3,1314,494.1z M1293.2,477.9v6h6c2.9,0,4.4-1,4.4-3c0-2-1.5-3-4.4-3H1293.2z M1305.1,493.1
		c0-2.1-1.6-3.2-4.6-3.2h-7.4v6.3h7.4C1303.5,496.3,1305.1,495.2,1305.1,493.1z"/>
	<path class="st3" d="M1318.6,471.6h8.8v24.1h14.8v7h-23.6V471.6z"/>
	<path class="st3" d="M1370.6,495.8v6.8h-24.9v-31.1h24.4v6.8h-15.7v5.2h13.8v6.6h-13.8v5.7H1370.6z"/>
</g>
<g>
	<path class="st2" d="M1269.4,1083.1c0,5.4-4.4,8.5-12.8,8.5h-16.8v-31.1h15.9c8.2,0,12.2,3.3,12.2,8.1c0,3-1.5,5.4-4.2,6.7
		C1267.2,1076.7,1269.4,1079.3,1269.4,1083.1z M1248.5,1066.9v6h6c2.9,0,4.4-1,4.4-3c0-2-1.5-3-4.4-3H1248.5z M1260.5,1082.1
		c0-2.1-1.6-3.2-4.6-3.2h-7.4v6.3h7.4C1258.9,1085.3,1260.5,1084.2,1260.5,1082.1z"/>
	<path class="st2" d="M1273.9,1060.6h8.8v31.1h-8.8V1060.6z M1279.9,1051.3h8.4l-8.3,6.7h-6L1279.9,1051.3z"/>
	<path class="st2" d="M1287.4,1076.1c0-9.3,7.3-16.2,17.3-16.2s17.3,6.8,17.3,16.2s-7.3,16.2-17.3,16.2S1287.4,1085.4,1287.4,1076.1
		z M1313,1076.1c0-5.4-3.7-8.9-8.4-8.9s-8.4,3.5-8.4,8.9s3.7,8.9,8.4,8.9S1313,1081.5,1313,1076.1z"/>
	<path class="st2" d="M1369,1083.1c0,5.4-4.4,8.5-12.8,8.5h-16.8v-31.1h15.9c8.2,0,12.2,3.3,12.2,8.1c0,3-1.5,5.4-4.2,6.7
		C1366.8,1076.7,1369,1079.3,1369,1083.1z M1348.1,1066.9v6h6c2.9,0,4.4-1,4.4-3c0-2-1.5-3-4.4-3H1348.1z M1360.1,1082.1
		c0-2.1-1.6-3.2-4.6-3.2h-7.4v6.3h7.4C1358.5,1085.3,1360.1,1084.2,1360.1,1082.1z"/>
	<path class="st2" d="M1373.5,1060.6h8.8v31.1h-8.8V1060.6z M1379.5,1051.3h8.4l-8.3,6.7h-6L1379.5,1051.3z"/>
	<path class="st2" d="M1387,1076.1c0-9.3,7.3-16.2,17.3-16.2s17.3,6.8,17.3,16.2s-7.3,16.2-17.3,16.2S1387,1085.4,1387,1076.1z
		 M1412.6,1076.1c0-5.4-3.7-8.9-8.4-8.9s-8.4,3.5-8.4,8.9s3.7,8.9,8.4,8.9S1412.6,1081.5,1412.6,1076.1z"/>
</g>
<g>
	<path class="st3" d="M1269.4,1083.1c0,5.4-4.4,8.5-12.8,8.5h-16.8v-31.1h15.9c8.2,0,12.2,3.3,12.2,8.1c0,3-1.5,5.4-4.2,6.7
		C1267.2,1076.7,1269.4,1079.3,1269.4,1083.1z M1248.5,1066.9v6h6c2.9,0,4.4-1,4.4-3c0-2-1.5-3-4.4-3H1248.5z M1260.5,1082.1
		c0-2.1-1.6-3.2-4.6-3.2h-7.4v6.3h7.4C1258.9,1085.3,1260.5,1084.2,1260.5,1082.1z"/>
	<path class="st3" d="M1273.9,1060.6h8.8v31.1h-8.8V1060.6z M1279.9,1051.3h8.4l-8.3,6.7h-6L1279.9,1051.3z"/>
	<path class="st3" d="M1287.4,1076.1c0-9.3,7.3-16.2,17.3-16.2s17.3,6.8,17.3,16.2s-7.3,16.2-17.3,16.2S1287.4,1085.4,1287.4,1076.1
		z M1313,1076.1c0-5.4-3.7-8.9-8.4-8.9s-8.4,3.5-8.4,8.9s3.7,8.9,8.4,8.9S1313,1081.5,1313,1076.1z"/>
	<path class="st3" d="M1369,1083.1c0,5.4-4.4,8.5-12.8,8.5h-16.8v-31.1h15.9c8.2,0,12.2,3.3,12.2,8.1c0,3-1.5,5.4-4.2,6.7
		C1366.8,1076.7,1369,1079.3,1369,1083.1z M1348.1,1066.9v6h6c2.9,0,4.4-1,4.4-3c0-2-1.5-3-4.4-3H1348.1z M1360.1,1082.1
		c0-2.1-1.6-3.2-4.6-3.2h-7.4v6.3h7.4C1358.5,1085.3,1360.1,1084.2,1360.1,1082.1z"/>
	<path class="st3" d="M1373.5,1060.6h8.8v31.1h-8.8V1060.6z M1379.5,1051.3h8.4l-8.3,6.7h-6L1379.5,1051.3z"/>
	<path class="st3" d="M1387,1076.1c0-9.3,7.3-16.2,17.3-16.2s17.3,6.8,17.3,16.2s-7.3,16.2-17.3,16.2S1387,1085.4,1387,1076.1z
		 M1412.6,1076.1c0-5.4-3.7-8.9-8.4-8.9s-8.4,3.5-8.4,8.9s3.7,8.9,8.4,8.9S1412.6,1081.5,1412.6,1076.1z"/>
</g>
<g>
	<path class="st2" d="M450.2,616.1c0-9.5,7.2-16.2,17.1-16.2c5.7,0,10.3,2.1,13.4,5.9l-5.6,5.1c-2-2.4-4.3-3.6-7.3-3.6
		c-5.1,0-8.7,3.5-8.7,8.9c0,5.3,3.5,8.9,8.7,8.9c3,0,5.4-1.3,7.3-3.6l5.6,5.1c-3,3.8-7.6,5.9-13.4,5.9
		C457.5,632.2,450.2,625.5,450.2,616.1z"/>
	<path class="st2" d="M482.3,616.1c0-9.3,7.3-16.2,17.3-16.2s17.3,6.8,17.3,16.2s-7.3,16.2-17.3,16.2S482.3,625.4,482.3,616.1z
		 M508,616.1c0-5.4-3.7-8.9-8.4-8.9s-8.4,3.5-8.4,8.9s3.7,8.9,8.4,8.9S508,621.5,508,616.1z"/>
	<path class="st2" d="M551,600.6v31.1h-7.2L530,615.1v16.6h-8.6v-31.1h7.2l13.7,16.6v-16.6H551z"/>
	<path class="st2" d="M555.6,616.1c0-9.5,7.2-16.2,17.1-16.2c5.7,0,10.3,2.1,13.4,5.9l-5.6,5.1c-2-2.4-4.3-3.6-7.3-3.6
		c-5.1,0-8.7,3.5-8.7,8.9c0,5.3,3.5,8.9,8.7,8.9c3,0,5.4-1.3,7.3-3.6l5.6,5.1c-3,3.8-7.6,5.9-13.4,5.9
		C562.8,632.2,555.6,625.5,555.6,616.1z"/>
	<path class="st2" d="M614.9,624.8v6.8h-24.9v-31.1h24.4v6.8h-15.7v5.2h13.8v6.6h-13.8v5.7H614.9z"/>
	<path class="st2" d="M647.7,612c0,7.1-5.3,11.4-13.8,11.4h-5.4v8.1h-8.8v-31.1h14.2C642.4,600.6,647.7,604.9,647.7,612z M638.9,612
		c0-2.9-1.8-4.6-5.5-4.6h-4.9v9.1h4.9C637.1,616.6,638.9,614.9,638.9,612z"/>
	<path class="st2" d="M650.8,616.1c0-9.5,7.2-16.2,17.1-16.2c5.7,0,10.3,2.1,13.4,5.9l-5.6,5.1c-2-2.4-4.3-3.6-7.3-3.6
		c-5.1,0-8.7,3.5-8.7,8.9c0,5.3,3.5,8.9,8.7,8.9c3,0,5.4-1.3,7.3-3.6l5.6,5.1c-3,3.8-7.6,5.9-13.4,5.9
		C658.1,632.2,650.8,625.5,650.8,616.1z"/>
	<path class="st2" d="M685.2,600.6h8.8v31.1h-8.8V600.6z"/>
	<path class="st2" d="M698.6,616.1c0-9.3,7.3-16.2,17.3-16.2s17.3,6.8,17.3,16.2s-7.3,16.2-17.3,16.2S698.6,625.4,698.6,616.1z
		 M724.3,616.1c0-5.4-3.7-8.9-8.4-8.9s-8.4,3.5-8.4,8.9s3.7,8.9,8.4,8.9S724.3,621.5,724.3,616.1z M717.5,591.3h8.4l-8.3,6.7h-6
		L717.5,591.3z"/>
	<path class="st2" d="M767.3,600.6v31.1h-7.2l-13.7-16.6v16.6h-8.6v-31.1h7.2l13.7,16.6v-16.6H767.3z"/>
</g>
<g>
	<path class="st3" d="M449.9,615.8c0-9.5,7.2-16.2,17.1-16.2c5.7,0,10.3,2.1,13.4,5.9l-5.6,5.1c-2-2.4-4.3-3.6-7.3-3.6
		c-5.1,0-8.7,3.5-8.7,8.9c0,5.3,3.5,8.9,8.7,8.9c3,0,5.4-1.3,7.3-3.6l5.6,5.1c-3,3.8-7.6,5.9-13.4,5.9
		C457.1,632,449.9,625.3,449.9,615.8z"/>
	<path class="st3" d="M482,615.8c0-9.3,7.3-16.2,17.3-16.2s17.3,6.8,17.3,16.2s-7.3,16.2-17.3,16.2S482,625.1,482,615.8z
		 M507.6,615.8c0-5.4-3.7-8.9-8.4-8.9s-8.4,3.5-8.4,8.9s3.7,8.9,8.4,8.9S507.6,621.2,507.6,615.8z"/>
	<path class="st3" d="M550.7,600.3v31.1h-7.2l-13.7-16.6v16.6h-8.6v-31.1h7.2l13.7,16.6v-16.6H550.7z"/>
	<path class="st3" d="M555.3,615.8c0-9.5,7.2-16.2,17.1-16.2c5.7,0,10.3,2.1,13.4,5.9l-5.6,5.1c-2-2.4-4.3-3.6-7.3-3.6
		c-5.1,0-8.7,3.5-8.7,8.9c0,5.3,3.5,8.9,8.7,8.9c3,0,5.4-1.3,7.3-3.6l5.6,5.1c-3,3.8-7.6,5.9-13.4,5.9
		C562.5,632,555.3,625.3,555.3,615.8z"/>
	<path class="st3" d="M614.6,624.5v6.8h-24.9v-31.1H614v6.8h-15.7v5.2h13.8v6.6h-13.8v5.7H614.6z"/>
	<path class="st3" d="M647.4,611.8c0,7.1-5.3,11.4-13.8,11.4h-5.4v8.1h-8.8v-31.1h14.2C642.1,600.3,647.4,604.7,647.4,611.8z
		 M638.6,611.8c0-2.9-1.8-4.6-5.5-4.6h-4.9v9.1h4.9C636.7,616.3,638.6,614.6,638.6,611.8z"/>
	<path class="st3" d="M650.5,615.8c0-9.5,7.2-16.2,17.1-16.2c5.7,0,10.3,2.1,13.4,5.9l-5.6,5.1c-2-2.4-4.3-3.6-7.3-3.6
		c-5.1,0-8.7,3.5-8.7,8.9c0,5.3,3.5,8.9,8.7,8.9c3,0,5.4-1.3,7.3-3.6l5.6,5.1c-3,3.8-7.6,5.9-13.4,5.9
		C657.8,632,650.5,625.3,650.5,615.8z"/>
	<path class="st3" d="M684.9,600.3h8.8v31.1h-8.8V600.3z"/>
	<path class="st3" d="M698.3,615.8c0-9.3,7.3-16.2,17.3-16.2s17.3,6.8,17.3,16.2s-7.3,16.2-17.3,16.2S698.3,625.1,698.3,615.8z
		 M724,615.8c0-5.4-3.7-8.9-8.4-8.9s-8.4,3.5-8.4,8.9s3.7,8.9,8.4,8.9S724,621.2,724,615.8z M717.2,591h8.4l-8.3,6.7h-6L717.2,591z"
		/>
	<path class="st3" d="M767,600.3v31.1h-7.2l-13.7-16.6v16.6h-8.6v-31.1h7.2l13.7,16.6v-16.6H767z"/>
</g>
<g>
	<path class="st2" d="M182.6,1188.6h-13.1l-2.4,6h-9l13.7-31.1h8.7l13.8,31.1h-9.1L182.6,1188.6z M180.1,1182.1l-4-9.9l-4,9.9H180.1
		z"/>
	<path class="st2" d="M210.3,1186.4h-4.8v8.3h-8.8v-31.1h14.2c8.5,0,13.8,4.4,13.8,11.5c0,4.6-2.2,7.9-6.1,9.8l6.7,9.8h-9.4
		L210.3,1186.4z M210.4,1170.5h-4.9v9.1h4.9c3.6,0,5.5-1.7,5.5-4.5C215.8,1172.2,214,1170.5,210.4,1170.5z"/>
	<path class="st2" d="M250.3,1188.6h-13.1l-2.4,6h-9l13.7-31.1h8.7l13.8,31.1h-9.1L250.3,1188.6z M247.8,1182.1l-4-9.9l-4,9.9H247.8
		z"/>
	<path class="st2" d="M263.5,1180.8v-17.2h8.8v17c0,5.3,2.2,7.5,5.9,7.5c3.6,0,5.9-2.1,5.9-7.5v-17h8.7v17.2
		c0,9.3-5.4,14.5-14.6,14.5S263.5,1190,263.5,1180.8z"/>
	<path class="st2" d="M297,1179.1c0-9.5,7.2-16.2,17.1-16.2c5.7,0,10.3,2.1,13.4,5.9l-5.6,5.1c-2-2.4-4.3-3.6-7.3-3.6
		c-5.1,0-8.7,3.5-8.7,8.9c0,5.3,3.5,8.9,8.7,8.9c3,0,5.4-1.3,7.3-3.6l5.6,5.1c-3,3.8-7.6,5.9-13.4,5.9
		C304.2,1195.2,297,1188.5,297,1179.1z"/>
	<path class="st2" d="M329.1,1179.1c0-9.3,7.3-16.2,17.3-16.2s17.3,6.8,17.3,16.2s-7.3,16.2-17.3,16.2S329.1,1188.4,329.1,1179.1z
		 M354.7,1179.1c0-5.4-3.7-8.9-8.4-8.9s-8.4,3.5-8.4,8.9s3.7,8.9,8.4,8.9S354.7,1184.5,354.7,1179.1z"/>
</g>
<g>
	<path class="st3" d="M182.3,1188.3h-13.1l-2.4,6h-9l13.7-31.1h8.7l13.8,31.1h-9.1L182.3,1188.3z M179.7,1181.8l-4-9.9l-4,9.9H179.7
		z"/>
	<path class="st3" d="M210,1186.1h-4.8v8.3h-8.8v-31.1h14.2c8.5,0,13.8,4.4,13.8,11.5c0,4.6-2.2,7.9-6.1,9.8l6.7,9.8h-9.4
		L210,1186.1z M210,1170.2h-4.9v9.1h4.9c3.6,0,5.5-1.7,5.5-4.5C215.5,1171.9,213.7,1170.2,210,1170.2z"/>
	<path class="st3" d="M250,1188.3h-13.1l-2.4,6h-9l13.7-31.1h8.7l13.8,31.1h-9.1L250,1188.3z M247.4,1181.8l-4-9.9l-4,9.9H247.4z"/>
	<path class="st3" d="M263.2,1180.5v-17.2h8.8v17c0,5.3,2.2,7.5,5.9,7.5c3.6,0,5.9-2.1,5.9-7.5v-17h8.7v17.2
		c0,9.3-5.4,14.5-14.6,14.5S263.2,1189.8,263.2,1180.5z"/>
	<path class="st3" d="M296.7,1178.8c0-9.5,7.2-16.2,17.1-16.2c5.7,0,10.3,2.1,13.4,5.9l-5.6,5.1c-2-2.4-4.3-3.6-7.3-3.6
		c-5.1,0-8.7,3.5-8.7,8.9c0,5.3,3.5,8.9,8.7,8.9c3,0,5.4-1.3,7.3-3.6l5.6,5.1c-3,3.8-7.6,5.9-13.4,5.9
		C303.9,1195,296.7,1188.3,296.7,1178.8z"/>
	<path class="st3" d="M328.8,1178.8c0-9.3,7.3-16.2,17.3-16.2s17.3,6.8,17.3,16.2S356,1195,346,1195S328.8,1188.1,328.8,1178.8z
		 M354.4,1178.8c0-5.4-3.7-8.9-8.4-8.9s-8.4,3.5-8.4,8.9s3.7,8.9,8.4,8.9S354.4,1184.2,354.4,1178.8z"/>
</g>
<g>
	<g>
		<g>
			<path class="st4" d="M1368.7,309.2c0-40.5-32.8-73.3-73.3-73.3s-73.3,32.8-73.3,73.3c0,46.6,73.3,104.3,73.3,104.3
				S1368.7,355.8,1368.7,309.2z"/>
			<g>
				<path class="st5" d="M1295.4,235.9c-40.5,0-73.3,32.8-73.3,73.3c0,20.2,13.8,42.6,29.5,61.4l98.3-110.4
					C1336.4,245.3,1317,235.9,1295.4,235.9z"/>
				<path class="st6" d="M1251.6,370.6c20.4,24.5,43.8,42.9,43.8,42.9s73.3-57.7,73.3-104.3c0-18.9-7.1-36.1-18.9-49.1L1251.6,370.6
					z"/>
			</g>
			<g>
				<path class="st7" d="M1268.4,351.6c7.8,5,17,7.8,27,7.8c27.8,0,50.3-22.5,50.3-50.3c0-12-4.2-23.1-11.3-31.7L1268.4,351.6z"/>
				<path class="st8" d="M1295.4,258.8c-27.8,0-50.3,22.5-50.3,50.3c0,17.9,9.3,33.6,23.4,42.5l66.1-74.2
					C1325.2,266,1311.1,258.8,1295.4,258.8z"/>
			</g>
			<circle class="st3" cx="1295.4" cy="309.1" r="46.1"/>
			<path class="st9" d="M1349.8,260.1l-3.9,4.3c10.9,12.4,17,28.2,17,44.7c0,17.6-12.1,40.2-35.1,65.6
				c-13.1,14.5-26.3,26.1-32.5,31.2c-7.2-6.1-24.3-21-39.4-39.2c-0.2-0.2-0.4-0.4-0.5-0.7l-3.9,4.4c20.4,24.5,43.8,42.9,43.8,42.9
				s73.3-57.7,73.3-104.3C1368.7,290.3,1361.5,273.1,1349.8,260.1z"/>
			<path class="st10" d="M1227.8,309.2c0-37.3,30.3-67.6,67.6-67.6c19.1,0,37.4,8.1,50.2,22.3c0.1,0.2,0.3,0.3,0.4,0.5l3.9-4.3
				c-13.4-14.9-32.8-24.2-54.5-24.2c-40.5,0-73.3,32.8-73.3,73.3c0,20.2,13.8,42.6,29.5,61.4l3.9-4.4
				C1237.4,344.4,1227.8,324.7,1227.8,309.2z"/>
		</g>
	</g>
</g>
<g>
	<path class="st11" d="M1313.3,315.6c0,8.5-6.4,16.3-20.8,16.3c-6.6,0-13.6-1.6-18.5-4.7l4.8-10.2c3.9,2.6,8.7,4,13.2,4
		c4.6,0,7.6-1.8,7.6-5c0-2.9-2-4.8-9.3-4.8h-12.9l2.4-27.9h30.4v10.4h-19.2l-0.6,7h3.2C1307.8,300.6,1313.3,307.1,1313.3,315.6z"/>
</g>
<g>
	<g>
		<g>
			<path class="st4" d="M1589.7,1010.2c0-40.5-32.8-73.3-73.3-73.3s-73.3,32.8-73.3,73.3c0,46.6,73.3,104.3,73.3,104.3
				S1589.7,1056.8,1589.7,1010.2z"/>
			<g>
				<path class="st5" d="M1516.4,936.9c-40.5,0-73.3,32.8-73.3,73.3c0,20.2,13.8,42.6,29.5,61.4l98.3-110.4
					C1557.4,946.3,1538,936.9,1516.4,936.9z"/>
				<path class="st6" d="M1472.6,1071.6c20.4,24.5,43.8,42.9,43.8,42.9s73.3-57.7,73.3-104.3c0-18.9-7.1-36.1-18.9-49.1
					L1472.6,1071.6z"/>
			</g>
			<g>
				<path class="st7" d="M1489.4,1052.6c7.8,5,17,7.8,27,7.8c27.8,0,50.3-22.5,50.3-50.3c0-12-4.2-23.1-11.3-31.7L1489.4,1052.6z"/>
				<path class="st8" d="M1516.4,959.8c-27.8,0-50.3,22.5-50.3,50.3c0,17.9,9.3,33.6,23.4,42.5l66.1-74.2
					C1546.2,967,1532.1,959.8,1516.4,959.8z"/>
			</g>
			<circle class="st3" cx="1516.4" cy="1010.1" r="46.1"/>
			<path class="st9" d="M1570.8,961.1l-3.9,4.3c10.9,12.4,17,28.2,17,44.7c0,17.6-12.1,40.2-35.1,65.6
				c-13.1,14.5-26.3,26.1-32.5,31.2c-7.2-6.1-24.3-21-39.4-39.2c-0.2-0.2-0.4-0.4-0.5-0.7l-3.9,4.4c20.4,24.5,43.8,42.9,43.8,42.9
				s73.3-57.7,73.3-104.3C1589.7,991.3,1582.5,974.1,1570.8,961.1z"/>
			<path class="st10" d="M1448.8,1010.2c0-37.3,30.3-67.6,67.6-67.6c19.1,0,37.4,8.1,50.2,22.3c0.1,0.2,0.3,0.3,0.4,0.5l3.9-4.3
				c-13.4-14.9-32.8-24.2-54.5-24.2c-40.5,0-73.3,32.8-73.3,73.3c0,20.2,13.8,42.6,29.5,61.4l3.9-4.4
				C1458.4,1045.4,1448.8,1025.7,1448.8,1010.2z"/>
		</g>
	</g>
</g>
<g>
	<path class="st11" d="M1533.7,1021.2v10.7h-37.1v-8.5l17.9-16.7c3.8-3.5,4.4-5.7,4.4-7.7c0-3.1-2-4.9-6.1-4.9
		c-3.5,0-6.6,1.6-8.5,4.6l-10-5.6c3.6-6,10.4-9.9,19.8-9.9c11,0,18.5,5.7,18.5,14.5c0,4.6-1.3,8.9-8.1,15.1l-9,8.3H1533.7z"/>
</g>
<g>
	<g>
		<g>
			<path class="st4" d="M334.7,1023.2c0-40.5-32.8-73.3-73.3-73.3s-73.3,32.8-73.3,73.3c0,46.6,73.3,104.3,73.3,104.3
				S334.7,1069.8,334.7,1023.2z"/>
			<g>
				<path class="st5" d="M261.4,949.9c-40.5,0-73.3,32.8-73.3,73.3c0,20.2,13.8,42.6,29.5,61.4l98.3-110.4
					C302.4,959.3,283,949.9,261.4,949.9z"/>
				<path class="st6" d="M217.6,1084.6c20.4,24.5,43.8,42.9,43.8,42.9s73.3-57.7,73.3-104.3c0-18.9-7.1-36.1-18.9-49.1L217.6,1084.6
					z"/>
			</g>
			<g>
				<path class="st7" d="M234.4,1065.6c7.8,5,17,7.8,27,7.8c27.8,0,50.3-22.5,50.3-50.3c0-12-4.2-23.1-11.3-31.7L234.4,1065.6z"/>
				<path class="st8" d="M261.4,972.8c-27.8,0-50.3,22.5-50.3,50.3c0,17.9,9.3,33.6,23.4,42.5l66.1-74.2
					C291.2,980,277.1,972.8,261.4,972.8z"/>
			</g>
			<circle class="st3" cx="261.4" cy="1023.1" r="46.1"/>
			<path class="st9" d="M315.8,974.1l-3.9,4.3c10.9,12.4,17,28.2,17,44.7c0,17.6-12.1,40.2-35.1,65.6
				c-13.1,14.5-26.3,26.1-32.5,31.2c-7.2-6.1-24.3-21-39.4-39.2c-0.2-0.2-0.4-0.4-0.5-0.7l-3.9,4.4c20.4,24.5,43.8,42.9,43.8,42.9
				s73.3-57.7,73.3-104.3C334.7,1004.3,327.5,987.1,315.8,974.1z"/>
			<path class="st10" d="M193.8,1023.2c0-37.3,30.3-67.6,67.6-67.6c19.1,0,37.4,8.1,50.2,22.3c0.1,0.2,0.3,0.3,0.4,0.5l3.9-4.3
				c-13.4-14.9-32.8-24.2-54.5-24.2c-40.5,0-73.3,32.8-73.3,73.3c0,20.2,13.8,42.6,29.5,61.4l3.9-4.4
				C203.4,1058.4,193.8,1038.7,193.8,1023.2z"/>
		</g>
	</g>
</g>
<g>
	<path class="st11" d="M278.5,1030c0,8.1-6.4,15.9-20.8,15.9c-6.6,0-13.6-1.6-18.5-4.7l4.9-10.2c3.8,2.6,8.7,4,13.2,4
		c4.6,0,7.6-1.8,7.6-5c0-2.9-2.1-4.6-7.3-4.6H252v-8.5l8.5-9.2h-18.8v-10.4h34.5v8.5l-9.9,10.6C274.3,1018,278.5,1023.2,278.5,1030z
		"/>
</g>
<g>
	<g>
		<g>
			<path class="st4" d="M675.7,444.2c0-40.5-32.8-73.3-73.3-73.3s-73.3,32.8-73.3,73.3c0,46.6,73.3,104.3,73.3,104.3
				S675.7,490.8,675.7,444.2z"/>
			<g>
				<path class="st5" d="M602.4,370.9c-40.5,0-73.3,32.8-73.3,73.3c0,20.2,13.8,42.6,29.5,61.4l98.3-110.4
					C643.4,380.3,624,370.9,602.4,370.9z"/>
				<path class="st6" d="M558.6,505.6c20.4,24.5,43.8,42.9,43.8,42.9s73.3-57.7,73.3-104.3c0-18.9-7.1-36.1-18.9-49.1L558.6,505.6z"
					/>
			</g>
			<g>
				<path class="st7" d="M575.4,486.6c7.8,5,17,7.8,27,7.8c27.8,0,50.3-22.5,50.3-50.3c0-12-4.2-23.1-11.3-31.7L575.4,486.6z"/>
				<path class="st8" d="M602.4,393.8c-27.8,0-50.3,22.5-50.3,50.3c0,17.9,9.3,33.6,23.4,42.5l66.1-74.2
					C632.2,401,618.1,393.8,602.4,393.8z"/>
			</g>
			<circle class="st3" cx="602.4" cy="444.1" r="46.1"/>
			<path class="st9" d="M656.8,395.1l-3.9,4.3c10.9,12.4,17,28.2,17,44.7c0,17.6-12.1,40.2-35.1,65.6
				c-13.1,14.5-26.3,26.1-32.5,31.2c-7.2-6.1-24.3-21-39.4-39.2c-0.2-0.2-0.4-0.4-0.5-0.7l-3.9,4.4c20.4,24.5,43.8,42.9,43.8,42.9
				s73.3-57.7,73.3-104.3C675.7,425.3,668.5,408.1,656.8,395.1z"/>
			<path class="st10" d="M534.8,444.2c0-37.3,30.3-67.6,67.6-67.6c19.1,0,37.4,8.1,50.2,22.3c0.1,0.2,0.3,0.3,0.4,0.5l3.9-4.3
				c-13.4-14.9-32.8-24.2-54.5-24.2c-40.5,0-73.3,32.8-73.3,73.3c0,20.2,13.8,42.6,29.5,61.4l3.9-4.4
				C544.4,479.4,534.8,459.7,534.8,444.2z"/>
		</g>
	</g>
</g>
<g>
	<path class="st11" d="M622.4,440.8c0,16.6-10.3,26.1-25.4,26.1c-5.3,0-10.5-1.2-14-3.5l4.9-9.7c2.7,1.9,5.7,2.5,8.8,2.5
		c6.7,0,11.2-3.8,12-11c-2.7,2.2-6.2,3.5-10.7,3.5c-9,0-16.4-5.9-16.4-15.1c0-9.9,8.3-16.3,18.7-16.3
		C613.7,417.3,622.4,425.3,622.4,440.8z M607.8,432.9c0-3.5-2.6-6-6.7-6c-3.8,0-6.5,2.3-6.5,6.1c0,3.7,2.7,6,6.5,6
		C605.1,438.9,607.8,436.5,607.8,432.9z"/>
</g>
</svg>
