<?xml version="1.0" encoding="utf-8"?>
<!-- Generator: Adobe Illustrator 24.0.0, SVG Export Plug-In . SVG Version: 6.00 Build 0)  -->
<svg version="1.1" id="Capa_1" xmlns="http://www.w3.org/2000/svg" xmlns:xlink="http://www.w3.org/1999/xlink" x="0px" y="0px"
	 viewBox="0 0 1920 2314" style="enable-background:new 0 0 1920 2314;" xml:space="preserve">
<style type="text/css">
	.st0{fill:#BFBFBF;stroke:#000000;stroke-width:0.25;stroke-miterlimit:10;}
	.st1{fill:#8E8E8E;}
	.st2{fill:#D4353F;}
	.st3{fill:#FF6D00;}
	.st4{fill:#FF8500;}
	.st5{fill:#D7D9D9;}
	.st6{fill:#C5C7C8;}
	.st7{fill:#FFFFFF;}
	.st8{fill:none;}
	.st9{opacity:0.4;fill:#D4353F;enable-background:new    ;}
	.st10{stroke:#000000;stroke-width:6;stroke-miterlimit:10;}
</style>
<path class="st0" d="M849,172.1c-34.2,31.5-77.1,43.9-118.9,61.6c-25.3,10.7-48.5,23.6-60.9,49.1c-14.2,29.2-15.8,63.9-19.4,95.8
	c-4,35.4-7.7,71.9-3.4,107.4c1.6,13.2,4.3,28.8,12.8,39.7c7.1,9.1,17.8,10,28.6,8.7c32.5-3.9,64-22.7,91.5-39.1
	c28.3-16.9,55.5-35.7,82-55.3c14-10.4,29.1-19.3,43.7-28.9c21.7-14.2,43.1-29,64-44.4c39.5-29.2,78.3-61,109.8-98.9
	c-13.6-5.9-26.3-13.4-37.5-23.5c-22.7-20.5-39.5-47.8-51.5-75.8c-3.9-9.1-7.4-18.6-10.2-28.2c-5.2-2.2-10.2-5.9-15.4-11.3
	c-17.6-18.2-37-32.4-59.4-40.7C892.2,119.7,874.2,148.9,849,172.1z"/>
<path class="st1" d="M312.7,568.9c30,29.9,35,63.3,25,103.1c-3.8,15.1-4.5,37.1,3.8,48.3c28.8,39.6,32.9,79.8,27.2,121.3
	c33,12.9,70,17.2,104.4,21.4c22.8,2.8,45.8,5.2,68.5,9.1c25,4.3,48.6,10.9,74.3,10.6c52.8-0.7,103.7-18.5,153.7-33.7
	c27.1-8.3,54-13.1,82.1-16.5c66.3-8,133.1-11.5,199.2-21.3c30.2-4.5,60.6-9.9,89.7-19.3c11.6-3.8,23.1-8.2,33.7-14.3
	c6.3-3.6,18.4-10.3,21.1-17.2c1.5-3.9-2.3-11.7-3.9-16.3c-2.5-7.2-5.2-14.7-5.3-22.5c-0.4-20.8,16.8-38.2,27.5-54.3
	c6.6-10,11.6-21,17.3-31.5c5.1-9.3,10.1-18.8,14.1-28.6c8.8-21.3,12.1-43.2,10.3-66.2c-24.6-15.9-48.4-33.1-71.5-51.2
	c-19.1-14.9-41.9-33.4-48-58.2c-5.1-20.9,2.7-42.7,7.6-62.9c3.6-14.9,6.5-29.7,7-45.1c0.3-9,0.4-19.3-3.9-27.5
	c-6.7-12.6-25.8-14.5-38.5-18.1c-3.3-0.9-6.6-1.9-9.8-2.9c-0.4,0.9-0.9,1.7-1.5,2.5c-66,81.7-159.9,133.3-244,193.3
	c-30.8,21.9-62.6,42.9-96.4,60c-26,13.1-60.4,30-90.3,22.1c-30.8-8.1-37.6-46.5-39.9-73.4c-3.2-37.5,1-75.4,5.4-112.5
	c3.9-33.4,6.6-68.8,23.2-98.8c15.2-27.4,42-41.7,69.9-53.3c38.6-16.2,79.1-27.7,110.6-56.7c22.8-21,39.1-47.1,50.9-75.3
	c-8.6-1.8-17.5-2.7-27-2.8c-27.6-0.1-55.4-5.2-82.8-9.7c-100.8-16.5-199.4,0.8-292.3,34.8c-74.4,27.2-142.7,72-212.1,111.8
	c-12.7,7.3-27.1,30-24.5,42c7.5,34.5,19,69.7,37,99.8c26.8,44.9,26.1,94.8,14.3,137.2C289.1,529.2,292.3,548.7,312.7,568.9z"/>
<path class="st0" d="M413.2,989c0.2,16.5,0.3,33.2-2,49.5c-0.8,5.8-5.7,24.2,0.5,28c3.5,2.1,11.8-2.4,15-3.6
	c5.5-2.1,10.8-4.3,16.6-5c13-1.7,25.6,6.2,38.4,1.7c14.2-5,23.2-17.3,31.6-29.2c4.8-6.8,9.4-13.2,11.4-21.5
	c1.8-7.4,1.6-15.2,1.4-22.8c-0.7-32.2,6.6-62.7,11.9-94.2c-7.2-1.4-14.4-2.8-21.8-3.8c-22.1-3-44.3-5.3-66.4-8.4
	c-10.5-1.4-21.2-3-31.9-4.9C409.3,912.3,412.6,951,413.2,989z"/>
<path class="st1" d="M511.8,1961c0.6-39.4,20.9-72.9,28.2-110.8c6.7-35-2.3-72.9,9.9-107c4.3-12.2,13.3-18,24.4-23.3
	c5.8-2.7,13.2-6.2,15.3-12.8c2.4-7.7-3.6-16.4-7.4-22.7c-20-33-36.7-68-57.5-100.5c-21-32.9-32.1-69.9-50.1-104.2
	c-0.3-0.5-0.4-1-0.6-1.4c-8.1-12.1-12.3-25.8-19.3-38.8c-6.9-13-15.3-25.4-19.7-39.6c-5.2-16.6-4.9-35-5.2-52.2
	c-0.3-19.5-0.6-38.8-3.5-58.1c-5.3-35.3-11.1-71.9-25.2-104.8c-6.4-14.9-13-29.9-14-46.3c-1.1-18.2,5.4-35.7,5.8-53.8
	c0.1-2.8,1-4.9,2.5-6.5c-0.1-0.2-0.3-0.3-0.4-0.5c-8.1-10.8-5.7-26-3.9-38.4c2.6-17.8,2.4-35.9,2.1-53.8
	c-0.7-38.2-3.2-76.8,5.2-114.3c-11.3-2.6-22.4-5.6-33.2-9.6c-2.6,12.8-5.8,25.8-9.4,38.9c-11.5,42.6-28.9,86.3-3,131.3
	c5.5,9.6,1.4,25.2,0.3,37.9c-2.8,33.1-6.2,66.1-9.8,99.1c-1.9,17.5,1.6,42.4-8.3,50.8c-24.7,20.9-24.6,45.3-24.4,72.3
	c0.3,45-2.1,90.2,1.2,135c1.6,21.7,13.5,42.6,21.1,63.8c7,19.7,19,38.9,20.3,58.9c2,29.8-12.1,62.7-4.1,89.8
	c17.8,60.5,16.4,128.3,62.4,179.6c5.9,6.5,5.9,27.7,0,33.9c-30.2,31.8-4.9,58.7,8.7,82.4c7.9,13.9,31.8,25,49.1,26
	c14.2,0.8,28.5,1.3,42.7,1.6C511.9,1962.2,511.8,1961.6,511.8,1961z"/>
<path class="st0" d="M1283.9,1819.3c-18.1-33.7-38.8-66.8-48.2-104.2c-10.1-39.9-9.5-80.7-7.9-121.5c1.3-31.8,1.3-63.6,4.4-95.3
	c2.7-27.8,6.6-56.8,2.5-84.6c-1.3-9.2-3.7-21.6-11.5-27.8c-6.4-5-16.5-4.4-24.2-4.2c-27.9,1-55.6,8.5-82.7,14.8
	c-24.3,5.6-49.1,12.7-74.2,10.3c-19.9-1.9-39.4-7.4-59.3-8.6c-15.9-0.9-25.6,3.9-38.8,11.9c-12.1,7.4-24.7,14.9-39.1,16.4
	c-16,1.7-30.5-5.9-41-17.7c-14.7-16.6-14.8-43.3-15.2-64.3c-0.9-49.6,5.2-99,5.2-148.6c0-29.8-0.6-60,3.3-89.6
	c3-23.6,9.8-43.6,31.3-56.2c24.8-14.6,55.7-18.1,83.8-20.4c27.3-2.2,56.2-4.1,83.6-1.3c28.8,3,56.9,10.7,85.7,13.7
	c25.9,2.7,57.4,3.3,76.7-17.3c11.5-12.3,16.7-28.4,11.8-44.6c-4.9-16-14.1-30.5-17.1-47.1c-2.9-15.9-4.7-33.5-4.6-49.8
	c0-17,4.1-33.6,8.9-49.8c0.2-0.7,0.5-1.4,0.8-2c-0.4-17.5-9.1-33.2-16.7-48.8c-18,15.8-41.9,24.4-64.5,31
	c-31.7,9.2-64.5,14.5-97.1,18.8c-67.6,9.1-135.8,12.1-203.3,21.7c-87.6,12.4-169.1,60.3-259.9,45.3c-6.4-1-12.7-2.3-19-3.6
	c-3.7,21.3-9,42.4-11,64c-1.9,20.5,2.7,42.1-4.9,61.8c-5.6,14.5-17.5,29.7-28.5,40.7c-10.9,10.8-26.2,19.3-41.9,18.6
	c-8-0.4-16.3-4.1-24.2-3.6c-5.9,0.3-11.8,3.6-17.2,5.6c-5.5,2-11.3,3.5-16.9,3.4c-0.7,16.3-6,32.2-5.8,48.5
	c0.2,16.5,8.2,32.1,14.5,46.9c12.9,30.6,18.8,65.4,23.5,98.2c2.5,17.5,4.2,34.7,4.5,52.4c0.4,18.4-0.9,38.1,3.1,56.1
	c3.1,13.8,11,25.8,17.8,38.1c7.4,13.5,11.4,29.7,20.9,41.9c1,1.2,1.6,2.5,1.9,3.8c9.8,19.2,17.3,39.4,25.9,59.1
	c9,20.6,21,38.9,32.5,58.1c10.5,17.7,20.3,35.8,30.2,53.8c8.3,15.3,19.7,30.4,25.6,46.8c5.4,15,1.1,29.8-11.3,39.6
	c-8.6,6.8-23.4,8.6-27.5,19.7c-6.5,17.4-5.3,38.3-5.6,56.5c-0.3,18.1-0.8,36.3-4.8,54.1c-7.7,34.1-26,65-26.5,100.7
	c0,0.7-0.1,1.4-0.2,2.1c33.8,0.2,67.6-0.7,101.4-1.2c48.4-0.7,87.4,11.7,107,62.4c10,25.9,26.4,49.2,39.3,73.9
	c12.6,24,27.1,24.6,45.2,5.8c47.9-49.9,94.8-100.9,144.9-148.6c19.4-18.4,44.5-34.6,69.9-42.3c84.5-25.4,166.8-54.8,246.4-90.9
	C1285,1821.3,1284.5,1820.3,1283.9,1819.3z"/>
<path class="st1" d="M1576.4,1303.5c-53.7-32.6-107-66.1-158.9-101.5c-41.6-28.3-37.1-65.7,9.1-86.8c18.1-8.3,26.9-16.5,18.5-38.8
	c-9.6-25.5-13.5-53-20.6-79.4c-7.7-28.6,5.3-66.3-37.7-79.8c0.4-5.2,0.8-10.3,1.2-15.5c30.9-4.9,61.9-13.8,92.7-13.3
	c26.6,0.4,40.5-7.8,50-31.2c14.3-35,14.2-70.5,16.4-107.8c2.4-40.3-4.3-47.7-40.8-55.2c-22.2-4.5-42.4-30-57.8-50.3
	c-1.5-1.9-0.3-6.3,2.3-11.6c-61-19.9-120-45.4-175-78.7c-0.1,22-4.7,43.2-13.6,63.8c-9.9,23.1-22.1,47.1-36.7,67.5
	c-7.2,10-16.1,20.3-18.8,32.5c-1.9,8.7,2.8,17.7,5.5,25.8c2.5,7.4,5.4,15.9,2.4,23.6c1,0.8,1.8,1.9,2.5,3.3
	c5,10.4,10.5,20.8,14.6,31.7c4.3,2.5,5.6,8.1,4,12.6c1.7,7,2.6,14.3,2.1,21.8c-0.2,2.5-1.1,4.5-2.4,6c-4.3,15-7.7,29.9-7.2,45.7
	c0.6,16.5,1.7,35,6.8,50.6c4.8,15,13.5,29,16.1,44.6c5.2,30-15,60.2-42.1,72c-53.6,23.3-111.8-6.9-166.5-7.6
	c-29.4-0.3-59.2,0.1-88.4,3.9c-22,2.9-55.1,7.3-68.8,27.5c-5.6,8.2-7.1,19.2-8.3,28.8c-1.8,13.8-2.4,27.9-2.7,41.8
	c-0.7,28.8,0.5,57.6-0.9,86.3c-1.1,21.9-2.6,43.8-3.7,65.7c-1.3,26-3.5,54.2,2.7,79.7c2.6,10.7,8,18.9,18.6,23.6
	c13.2,5.8,27-2.2,38.2-8.9c11.1-6.6,22.1-14.7,35.1-16.9c17.9-3,36.4,1,54,4c15.5,2.7,31.3,5.7,47,3.7c11.6-1.5,23.1-4.3,34.5-6.9
	c28.2-6.4,56.3-13.6,85.1-17c20.7-2.4,45-3.5,58.5,15.5c14.3,20.1,13.6,49.4,12.7,72.9c-1,26.5-5.5,52.9-6.3,79.4
	c-1.2,39.6-3.9,79.6-2.6,119.2c1.3,40.7,11,78.1,29.7,114.2c8.7,16.8,18.2,33.2,27,49.9c60.1-28.2,118.5-60.3,175.1-97.5
	c50.2-33,82.9-68.7,89.7-126.5c1.9-15.8-1.8-39-12.2-48.1c-29.1-25.5-29.3-55.7-27.9-89.4c1.8-41.3,22.5-68.3,53.9-93.1
	C1617,1332,1613.7,1326.1,1576.4,1303.5z"/>
<path class="st0" d="M1637,386.4c-37.4-40.2-62.4-92.8-117.6-115.8c-23.4-9.8-45.5-26.2-63.7-44.2c-25.8-25.4-46.2-56.3-71.5-82.5
	c-12.8-13.2-30-26.8-47.1-30.2c-31.1-6.1-49.7-21.6-60.6-50.3c-5.1-13.6-12.7-26.2-19.6-39.1c-11.1-20.7-26.9-26.1-43.2-7.8
	c-54.7,61.5-131.3,85-201.3,120.2c-4.1,2.1-8,3.6-11.7,4.6c4.1,12.7,9.5,25,15.6,36.6c14.7,27.9,34.7,54.3,63.4,68.6
	c18.1,9,37.7,12.2,56.5,18.9c15.9,5.6,27.8,15.6,31.9,32.6c6.3,25.8-0.2,54.3-6.4,79.4c-4.2,17.1-12.1,37.5-4.8,54.9
	c4.1,9.8,12,17.9,19.6,25.2c13.1,12.5,27.8,23.3,42.3,34.1c27.6,20.4,56.3,39.4,86.2,56.4c49.5,28.2,102.1,49.7,156.2,67
	c3-4.2,6-8.2,8.7-11.4c51.4-61.4,104.3-121.5,155.5-183C1632.8,411.5,1641,390.6,1637,386.4z"/>
<g>
	<g>
		<g>
			<path class="st2" d="M361,1298.6c0-27.9-22.6-50.6-50.6-50.6c-27.9,0-50.6,22.6-50.6,50.6c0,32.1,50.6,72,50.6,72
				S361,1330.7,361,1298.6z"/>
			<g>
				<path class="st3" d="M310.4,1248c-27.9,0-50.6,22.6-50.6,50.6c0,13.9,9.5,29.4,20.4,42.4l67.8-76.2
					C338.7,1254.5,325.3,1248,310.4,1248z"/>
				<path class="st4" d="M280.2,1340.9c14.1,16.9,30.2,29.6,30.2,29.6s50.6-39.8,50.6-72c0-13-4.9-24.9-13-33.9L280.2,1340.9z"/>
			</g>
			<g>
				<path class="st5" d="M291.8,1327.8c5.4,3.4,11.7,5.4,18.6,5.4c19.2,0,34.7-15.5,34.7-34.7c0-8.3-2.9-15.9-7.8-21.9L291.8,1327.8
					z"/>
				<path class="st6" d="M310.4,1263.8c-19.2,0-34.7,15.5-34.7,34.7c0,12.3,6.4,23.2,16.1,29.3l45.6-51.2
					C331,1268.8,321.2,1263.8,310.4,1263.8z"/>
			</g>
			<circle class="st7" cx="310.4" cy="1298.5" r="31.8"/>
			<path class="st8" d="M347.9,1264.7l-2.7,3c7.5,8.6,11.7,19.5,11.7,30.8c0,12.1-8.3,27.7-24.2,45.3c-9,10-18.1,18-22.4,21.5
				c-5-4.2-16.8-14.5-27.2-27c-0.1-0.1-0.3-0.3-0.4-0.5l-2.7,3c14.1,16.9,30.2,29.6,30.2,29.6s50.6-39.8,50.6-72
				C361,1285.5,356,1273.7,347.9,1264.7z"/>
			<path class="st9" d="M263.8,1298.6c0-25.7,20.9-46.6,46.6-46.6c13.2,0,25.8,5.6,34.6,15.4c0.1,0.1,0.2,0.2,0.3,0.3l2.7-3
				c-9.2-10.3-22.6-16.7-37.6-16.7c-27.9,0-50.6,22.6-50.6,50.6c0,13.9,9.5,29.4,20.4,42.4l2.7-3
				C270.4,1322.9,263.8,1309.3,263.8,1298.6z"/>
		</g>
	</g>
	<g>
		<path d="M317,1281.7v32.5h-11v-24.2h-5.6v-8.3H317z"/>
	</g>
</g>
<g>
	<path class="st10" d="M223,1388.9h9.7v28.7H223V1388.9z"/>
	<path class="st10" d="M270.1,1421.2c-2,2.4-4.9,3.6-8.4,3.6c-5.1,0-8.2-1.6-13.4-7c-7.2-1.5-12.2-7.2-12.2-14.6
		c0-8.7,6.8-15,16.2-15c9.3,0,16.2,6.3,16.2,15c0,6.4-3.6,11.4-9.3,13.7c0.9,0.9,1.6,1.2,2.7,1.2c1.4,0,2.8-0.7,4-1.8L270.1,1421.2z
		 M246,1403.2c0,4.5,2.9,7.2,6.4,7.2s6.4-2.7,6.4-7.2c0-4.5-2.9-7.2-6.4-7.2S246,1398.8,246,1403.2z"/>
	<path class="st10" d="M271.8,1404.7v-15.8h9.7v15.5c0,4.4,1.7,6,4.4,6s4.4-1.6,4.4-6v-15.5h9.5v15.8c0,8.6-5.2,13.6-14,13.6
		S271.8,1413.3,271.8,1404.7z"/>
	<path class="st10" d="M304.2,1388.9h9.7v28.7h-9.7V1388.9z"/>
	<path class="st10" d="M351.3,1421.2c-2,2.4-4.9,3.6-8.4,3.6c-5.1,0-8.2-1.6-13.4-7c-7.2-1.5-12.2-7.2-12.2-14.6
		c0-8.7,6.8-15,16.2-15c9.3,0,16.2,6.3,16.2,15c0,6.4-3.6,11.4-9.3,13.7c0.9,0.9,1.6,1.2,2.7,1.2c1.4,0,2.8-0.7,4-1.8L351.3,1421.2z
		 M327.1,1403.2c0,4.5,2.9,7.2,6.4,7.2c3.6,0,6.4-2.7,6.4-7.2c0-4.5-2.9-7.2-6.4-7.2C330,1396.1,327.1,1398.8,327.1,1403.2z"/>
	<path class="st10" d="M353,1404.7v-15.8h9.7v15.5c0,4.4,1.7,6,4.4,6s4.4-1.6,4.4-6v-15.5h9.5v15.8c0,8.6-5.2,13.6-14,13.6
		S353,1413.3,353,1404.7z"/>
	<path class="st10" d="M409.2,1410.3v7.3h-23.8v-28.7h23.3v7.3h-13.8v3.4H407v7h-12.1v3.8H409.2z"/>
</g>
<g>
	<path class="st7" d="M223,1388.9h9.7v28.7H223V1388.9z"/>
	<path class="st7" d="M270.1,1421.2c-2,2.4-4.9,3.6-8.4,3.6c-5.1,0-8.2-1.6-13.4-7c-7.2-1.5-12.2-7.2-12.2-14.6
		c0-8.7,6.8-15,16.2-15c9.3,0,16.2,6.3,16.2,15c0,6.4-3.6,11.4-9.3,13.7c0.9,0.9,1.6,1.2,2.7,1.2c1.4,0,2.8-0.7,4-1.8L270.1,1421.2z
		 M246,1403.2c0,4.5,2.9,7.2,6.4,7.2s6.4-2.7,6.4-7.2c0-4.5-2.9-7.2-6.4-7.2S246,1398.8,246,1403.2z"/>
	<path class="st7" d="M271.8,1404.7v-15.8h9.7v15.5c0,4.4,1.7,6,4.4,6s4.4-1.6,4.4-6v-15.5h9.5v15.8c0,8.6-5.2,13.6-14,13.6
		S271.8,1413.3,271.8,1404.7z"/>
	<path class="st7" d="M304.2,1388.9h9.7v28.7h-9.7V1388.9z"/>
	<path class="st7" d="M351.3,1421.2c-2,2.4-4.9,3.6-8.4,3.6c-5.1,0-8.2-1.6-13.4-7c-7.2-1.5-12.2-7.2-12.2-14.6
		c0-8.7,6.8-15,16.2-15c9.3,0,16.2,6.3,16.2,15c0,6.4-3.6,11.4-9.3,13.7c0.9,0.9,1.6,1.2,2.7,1.2c1.4,0,2.8-0.7,4-1.8L351.3,1421.2z
		 M327.1,1403.2c0,4.5,2.9,7.2,6.4,7.2c3.6,0,6.4-2.7,6.4-7.2c0-4.5-2.9-7.2-6.4-7.2C330,1396.1,327.1,1398.8,327.1,1403.2z"/>
	<path class="st7" d="M353,1404.7v-15.8h9.7v15.5c0,4.4,1.7,6,4.4,6s4.4-1.6,4.4-6v-15.5h9.5v15.8c0,8.6-5.2,13.6-14,13.6
		S353,1413.3,353,1404.7z"/>
	<path class="st7" d="M409.2,1410.3v7.3h-23.8v-28.7h23.3v7.3h-13.8v3.4H407v7h-12.1v3.8H409.2z"/>
</g>
<g>
	<path class="st10" d="M611.3,668.1v28.7h-9.7v-10.6h-8.9v10.6H583v-28.7h9.7v10.2h8.9v-10.2H611.3z"/>
	<path class="st10" d="M615.7,683.9v-15.8h9.7v15.5c0,4.4,1.7,6,4.4,6c2.7,0,4.4-1.6,4.4-6v-15.5h9.5v15.8c0,8.6-5.2,13.6-14,13.6
		S615.7,692.5,615.7,683.9z"/>
	<path class="st10" d="M667,691.8h-10.9l-1.9,5h-9.8l12.5-28.7h9.5l12.5,28.7h-10L667,691.8z M664.3,684.8l-2.8-7.2l-2.8,7.2H664.3z
		"/>
	<path class="st10" d="M692.8,689.6h-2.6v7.2h-9.7v-28.7h13.8c8,0,13.1,4.2,13.1,10.8c0,4.1-2,7.3-5.4,9l6,8.8h-10.3L692.8,689.6z
		 M693.7,675.6h-3.5v6.7h3.5c2.7,0,3.9-1.3,3.9-3.4C697.6,676.8,696.3,675.6,693.7,675.6z"/>
	<path class="st10" d="M730.5,691.8h-10.9l-1.9,5h-9.8l12.5-28.7h9.5l12.5,28.7h-10L730.5,691.8z M727.9,684.8l-2.8-7.2l-2.8,7.2
		H727.9z"/>
</g>
<g>
	<path class="st7" d="M611.3,668.1v28.7h-9.7v-10.6h-8.9v10.6H583v-28.7h9.7v10.2h8.9v-10.2H611.3z"/>
	<path class="st7" d="M615.7,683.9v-15.8h9.7v15.5c0,4.4,1.7,6,4.4,6c2.7,0,4.4-1.6,4.4-6v-15.5h9.5v15.8c0,8.6-5.2,13.6-14,13.6
		S615.7,692.5,615.7,683.9z"/>
	<path class="st7" d="M667,691.8h-10.9l-1.9,5h-9.8l12.5-28.7h9.5l12.5,28.7h-10L667,691.8z M664.3,684.8l-2.8-7.2l-2.8,7.2H664.3z"
		/>
	<path class="st7" d="M692.8,689.6h-2.6v7.2h-9.7v-28.7h13.8c8,0,13.1,4.2,13.1,10.8c0,4.1-2,7.3-5.4,9l6,8.8h-10.3L692.8,689.6z
		 M693.7,675.6h-3.5v6.7h3.5c2.7,0,3.9-1.3,3.9-3.4C697.6,676.8,696.3,675.6,693.7,675.6z"/>
	<path class="st7" d="M730.5,691.8h-10.9l-1.9,5h-9.8l12.5-28.7h9.5l12.5,28.7h-10L730.5,691.8z M727.9,684.8l-2.8-7.2l-2.8,7.2
		H727.9z"/>
</g>
<g>
	<path class="st10" d="M783.6,302.8c0-8.8,6.8-15,16-15c5.6,0,10,2,12.9,5.7l-6.1,5.4c-1.7-2.1-3.7-3.4-6.3-3.4
		c-4,0-6.7,2.8-6.7,7.2c0,4.4,2.7,7.2,6.7,7.2c2.6,0,4.6-1.2,6.3-3.4l6.1,5.4c-2.8,3.7-7.3,5.7-12.9,5.7
		C790.3,317.8,783.6,311.6,783.6,302.8z"/>
	<path class="st10" d="M834.3,312.2h-10.9l-1.9,5h-9.8l12.5-28.7h9.5l12.5,28.7h-10L834.3,312.2z M831.7,305.2l-2.8-7.2l-2.8,7.2
		H831.7z"/>
	<path class="st10" d="M873.4,317.2l-0.1-13.1l-6.2,10.5h-4.3l-6.2-10v12.6h-8.8v-28.7h7.9l9.3,15.3l9.1-15.3h7.9l0.1,28.7H873.4z"
		/>
	<path class="st10" d="M886.9,288.5h9.7v28.7h-9.7V288.5z"/>
	<path class="st10" d="M929.5,288.5v28.7h-7.9l-10.9-13v13h-9.4v-28.7h7.9l10.9,13v-13H929.5z M910.8,286.2h-4.4
		c0.1-4.3,2.2-7.1,5.7-7.1c3,0,4.6,2.4,6.1,2.4c1.1,0,1.8-0.7,1.8-1.9h4.4c-0.1,4.2-2.2,7-5.7,7c-3,0-4.6-2.4-6.1-2.4
		C911.6,284.2,910.9,284.9,910.8,286.2z"/>
	<path class="st10" d="M953.7,312.2h-10.9l-1.9,5h-9.8l12.5-28.7h9.5l12.5,28.7h-10L953.7,312.2z M951.1,305.2l-2.8-7.2l-2.8,7.2
		H951.1z"/>
</g>
<g>
	<path class="st7" d="M783.6,302.8c0-8.8,6.8-15,16-15c5.6,0,10,2,12.9,5.7l-6.1,5.4c-1.7-2.1-3.7-3.4-6.3-3.4c-4,0-6.7,2.8-6.7,7.2
		c0,4.4,2.7,7.2,6.7,7.2c2.6,0,4.6-1.2,6.3-3.4l6.1,5.4c-2.8,3.7-7.3,5.7-12.9,5.7C790.3,317.8,783.6,311.6,783.6,302.8z"/>
	<path class="st7" d="M834.3,312.2h-10.9l-1.9,5h-9.8l12.5-28.7h9.5l12.5,28.7h-10L834.3,312.2z M831.7,305.2l-2.8-7.2l-2.8,7.2
		H831.7z"/>
	<path class="st7" d="M873.4,317.2l-0.1-13.1l-6.2,10.5h-4.3l-6.2-10v12.6h-8.8v-28.7h7.9l9.3,15.3l9.1-15.3h7.9l0.1,28.7H873.4z"/>
	<path class="st7" d="M886.9,288.5h9.7v28.7h-9.7V288.5z"/>
	<path class="st7" d="M929.5,288.5v28.7h-7.9l-10.9-13v13h-9.4v-28.7h7.9l10.9,13v-13H929.5z M910.8,286.2h-4.4
		c0.1-4.3,2.2-7.1,5.7-7.1c3,0,4.6,2.4,6.1,2.4c1.1,0,1.8-0.7,1.8-1.9h4.4c-0.1,4.2-2.2,7-5.7,7c-3,0-4.6-2.4-6.1-2.4
		C911.6,284.2,910.9,284.9,910.8,286.2z"/>
	<path class="st7" d="M953.7,312.2h-10.9l-1.9,5h-9.8l12.5-28.7h9.5l12.5,28.7h-10L953.7,312.2z M951.1,305.2l-2.8-7.2l-2.8,7.2
		H951.1z"/>
</g>
<g>
	<path class="st10" d="M1228.4,370.3c0-8.8,6.8-15,16-15c5.6,0,10,2,12.9,5.7l-6.1,5.4c-1.7-2.1-3.7-3.4-6.3-3.4
		c-4,0-6.7,2.8-6.7,7.2c0,4.4,2.7,7.2,6.7,7.2c2.6,0,4.6-1.2,6.3-3.4l6.1,5.4c-2.8,3.7-7.3,5.7-12.9,5.7
		C1235.2,385.3,1228.4,379.1,1228.4,370.3z"/>
	<path class="st10" d="M1258.3,370.3c0-8.7,6.8-15,16.2-15s16.2,6.3,16.2,15c0,8.7-6.8,15-16.2,15S1258.3,378.9,1258.3,370.3z
		 M1280.9,370.3c0-4.5-2.9-7.2-6.4-7.2s-6.4,2.7-6.4,7.2c0,4.5,2.9,7.2,6.4,7.2S1280.9,374.7,1280.9,370.3z"/>
	<path class="st10" d="M1294.2,355.9h9.7v21.2h12.9v7.5h-22.6V355.9z"/>
	<path class="st10" d="M1317.9,370.3c0-8.8,6.8-15,16-15c5.6,0,10,2,12.9,5.7l-6.1,5.4c-1.7-2.1-3.7-3.4-6.3-3.4
		c-4,0-6.7,2.8-6.7,7.2c0,4.4,2.7,7.2,6.7,7.2c2.6,0,4.6-1.2,6.3-3.4l6.1,5.4c-2.8,3.7-7.3,5.7-12.9,5.7
		C1324.6,385.3,1317.9,379.1,1317.9,370.3z"/>
	<path class="st10" d="M1377.8,355.9v28.7h-9.7V374h-8.9v10.6h-9.7v-28.7h9.7v10.2h8.9v-10.2H1377.8z"/>
	<path class="st10" d="M1402,379.6h-10.9l-1.9,5h-9.8l12.5-28.7h9.5l12.5,28.7h-10L1402,379.6z M1399.3,372.6l-2.8-7.2l-2.8,7.2
		H1399.3z"/>
	<path class="st10" d="M1443.7,355.9v28.7h-7.9l-10.9-13v13h-9.4v-28.7h7.9l10.9,13v-13H1443.7z"/>
	<path class="st10" d="M1472.2,377.3v7.3h-23.8v-28.7h23.3v7.3h-13.8v3.4h12.1v7h-12.1v3.8H1472.2z"/>
</g>
<g>
	<path class="st7" d="M1228.4,370.3c0-8.8,6.8-15,16-15c5.6,0,10,2,12.9,5.7l-6.1,5.4c-1.7-2.1-3.7-3.4-6.3-3.4
		c-4,0-6.7,2.8-6.7,7.2c0,4.4,2.7,7.2,6.7,7.2c2.6,0,4.6-1.2,6.3-3.4l6.1,5.4c-2.8,3.7-7.3,5.7-12.9,5.7
		C1235.2,385.3,1228.4,379.1,1228.4,370.3z"/>
	<path class="st7" d="M1258.3,370.3c0-8.7,6.8-15,16.2-15s16.2,6.3,16.2,15c0,8.7-6.8,15-16.2,15S1258.3,378.9,1258.3,370.3z
		 M1280.9,370.3c0-4.5-2.9-7.2-6.4-7.2s-6.4,2.7-6.4,7.2c0,4.5,2.9,7.2,6.4,7.2S1280.9,374.7,1280.9,370.3z"/>
	<path class="st7" d="M1294.2,355.9h9.7v21.2h12.9v7.5h-22.6V355.9z"/>
	<path class="st7" d="M1317.9,370.3c0-8.8,6.8-15,16-15c5.6,0,10,2,12.9,5.7l-6.1,5.4c-1.7-2.1-3.7-3.4-6.3-3.4
		c-4,0-6.7,2.8-6.7,7.2c0,4.4,2.7,7.2,6.7,7.2c2.6,0,4.6-1.2,6.3-3.4l6.1,5.4c-2.8,3.7-7.3,5.7-12.9,5.7
		C1324.6,385.3,1317.9,379.1,1317.9,370.3z"/>
	<path class="st7" d="M1377.8,355.9v28.7h-9.7V374h-8.9v10.6h-9.7v-28.7h9.7v10.2h8.9v-10.2H1377.8z"/>
	<path class="st7" d="M1402,379.6h-10.9l-1.9,5h-9.8l12.5-28.7h9.5l12.5,28.7h-10L1402,379.6z M1399.3,372.6l-2.8-7.2l-2.8,7.2
		H1399.3z"/>
	<path class="st7" d="M1443.7,355.9v28.7h-7.9l-10.9-13v13h-9.4v-28.7h7.9l10.9,13v-13H1443.7z"/>
	<path class="st7" d="M1472.2,377.3v7.3h-23.8v-28.7h23.3v7.3h-13.8v3.4h12.1v7h-12.1v3.8H1472.2z"/>
</g>
<g>
	<path class="st10" d="M1255.7,1270.7c0,6.6-5.1,10.8-13.1,10.8h-4.1v7h-9.7v-28.7h13.8C1250.6,1259.9,1255.7,1264.1,1255.7,1270.7z
		 M1246,1270.7c0-2.1-1.3-3.4-3.9-3.4h-3.5v6.7h3.5C1244.7,1274.1,1246,1272.8,1246,1270.7z"/>
	<path class="st10" d="M1258.9,1259.9h9.7v28.7h-9.7V1259.9z"/>
	<path class="st10" d="M1272.1,1274.2c0-8.8,6.8-15,16-15c5.6,0,10,2,12.9,5.7l-6.1,5.4c-1.7-2.1-3.7-3.4-6.3-3.4
		c-4,0-6.7,2.8-6.7,7.2s2.7,7.2,6.7,7.2c2.6,0,4.6-1.2,6.3-3.4l6.1,5.4c-2.8,3.7-7.3,5.7-12.9,5.7
		C1278.8,1289.2,1272.1,1283,1272.1,1274.2z"/>
	<path class="st10" d="M1322.8,1283.6h-10.9l-1.9,5h-9.8l12.5-28.7h9.5l12.5,28.7h-10L1322.8,1283.6z M1320.2,1276.6l-2.8-7.2
		l-2.8,7.2H1320.2z"/>
</g>
<g>
	<path class="st7" d="M1255.7,1270.7c0,6.6-5.1,10.8-13.1,10.8h-4.1v7h-9.7v-28.7h13.8C1250.6,1259.9,1255.7,1264.1,1255.7,1270.7z
		 M1246,1270.7c0-2.1-1.3-3.4-3.9-3.4h-3.5v6.7h3.5C1244.7,1274.1,1246,1272.8,1246,1270.7z"/>
	<path class="st7" d="M1258.9,1259.9h9.7v28.7h-9.7V1259.9z"/>
	<path class="st7" d="M1272.1,1274.2c0-8.8,6.8-15,16-15c5.6,0,10,2,12.9,5.7l-6.1,5.4c-1.7-2.1-3.7-3.4-6.3-3.4
		c-4,0-6.7,2.8-6.7,7.2s2.7,7.2,6.7,7.2c2.6,0,4.6-1.2,6.3-3.4l6.1,5.4c-2.8,3.7-7.3,5.7-12.9,5.7
		C1278.8,1289.2,1272.1,1283,1272.1,1274.2z"/>
	<path class="st7" d="M1322.8,1283.6h-10.9l-1.9,5h-9.8l12.5-28.7h9.5l12.5,28.7h-10L1322.8,1283.6z M1320.2,1276.6l-2.8-7.2
		l-2.8,7.2H1320.2z"/>
</g>
<g>
	<path class="st10" d="M625,1602c0,6.6-5.1,10.8-13.1,10.8h-4.1v7h-9.7v-28.7h13.8C619.9,1591.2,625,1595.3,625,1602z M615.2,1602
		c0-2.1-1.3-3.4-3.9-3.4h-3.5v6.7h3.5C614,1605.3,615.2,1604.1,615.2,1602z"/>
	<path class="st10" d="M627.4,1605.5c0-8.7,6.8-15,16.2-15s16.2,6.3,16.2,15c0,8.7-6.8,15-16.2,15S627.4,1614.2,627.4,1605.5z
		 M650,1605.5c0-4.5-2.9-7.2-6.4-7.2s-6.4,2.7-6.4,7.2c0,4.5,2.9,7.2,6.4,7.2S650,1610,650,1605.5z"/>
	<path class="st10" d="M688.4,1612.3v7.5h-26.3v-5.9l13.1-15.2h-12.7v-7.5h25.3v5.9l-13.1,15.2H688.4z"/>
	<path class="st10" d="M689.9,1605.5c0-8.7,6.8-15,16.2-15s16.2,6.3,16.2,15c0,8.7-6.8,15-16.2,15S689.9,1614.2,689.9,1605.5z
		 M712.5,1605.5c0-4.5-2.9-7.2-6.4-7.2c-3.6,0-6.4,2.7-6.4,7.2c0,4.5,2.9,7.2,6.4,7.2C709.6,1612.7,712.5,1610,712.5,1605.5z"/>
	<path class="st10" d="M757.6,1614.8h-10.9l-1.9,5h-9.8l12.5-28.7h9.5l12.5,28.7h-10L757.6,1614.8z M754.9,1607.9l-2.8-7.2l-2.8,7.2
		H754.9z"/>
	<path class="st10" d="M771.1,1591.2h9.7v21.2h12.9v7.5h-22.6V1591.2z"/>
	<path class="st10" d="M821.9,1619.8l-0.1-13.1l-6.2,10.5h-4.3l-6.2-10v12.6h-8.8v-28.7h7.9l9.3,15.3l9.1-15.3h7.9l0.1,28.7H821.9z"
		/>
	<path class="st10" d="M834.3,1605.5c0-8.7,6.8-15,16.2-15s16.2,6.3,16.2,15c0,8.7-6.8,15-16.2,15S834.3,1614.2,834.3,1605.5z
		 M856.9,1605.5c0-4.5-2.9-7.2-6.4-7.2s-6.4,2.7-6.4,7.2c0,4.5,2.9,7.2,6.4,7.2S856.9,1610,856.9,1605.5z"/>
	<path class="st10" d="M898.4,1591.2v28.7h-7.9l-10.9-13v13h-9.4v-28.7h7.9l10.9,13v-13H898.4z"/>
	<path class="st10" d="M909.3,1598.7h-8.4v-7.5h26.5v7.5H919v21.2h-9.7V1598.7z"/>
	<path class="st10" d="M953.7,1612.6v7.3h-23.8v-28.7h23.3v7.3h-13.8v3.4h12.1v7h-12.1v3.8H953.7z"/>
</g>
<g>
	<path class="st7" d="M625,1602c0,6.6-5.1,10.8-13.1,10.8h-4.1v7h-9.7v-28.7h13.8C619.9,1591.2,625,1595.3,625,1602z M615.2,1602
		c0-2.1-1.3-3.4-3.9-3.4h-3.5v6.7h3.5C614,1605.3,615.2,1604.1,615.2,1602z"/>
	<path class="st7" d="M627.4,1605.5c0-8.7,6.8-15,16.2-15s16.2,6.3,16.2,15c0,8.7-6.8,15-16.2,15S627.4,1614.2,627.4,1605.5z
		 M650,1605.5c0-4.5-2.9-7.2-6.4-7.2s-6.4,2.7-6.4,7.2c0,4.5,2.9,7.2,6.4,7.2S650,1610,650,1605.5z"/>
	<path class="st7" d="M688.4,1612.3v7.5h-26.3v-5.9l13.1-15.2h-12.7v-7.5h25.3v5.9l-13.1,15.2H688.4z"/>
	<path class="st7" d="M689.9,1605.5c0-8.7,6.8-15,16.2-15s16.2,6.3,16.2,15c0,8.7-6.8,15-16.2,15S689.9,1614.2,689.9,1605.5z
		 M712.5,1605.5c0-4.5-2.9-7.2-6.4-7.2c-3.6,0-6.4,2.7-6.4,7.2c0,4.5,2.9,7.2,6.4,7.2C709.6,1612.7,712.5,1610,712.5,1605.5z"/>
	<path class="st7" d="M757.6,1614.8h-10.9l-1.9,5h-9.8l12.5-28.7h9.5l12.5,28.7h-10L757.6,1614.8z M754.9,1607.9l-2.8-7.2l-2.8,7.2
		H754.9z"/>
	<path class="st7" d="M771.1,1591.2h9.7v21.2h12.9v7.5h-22.6V1591.2z"/>
	<path class="st7" d="M821.9,1619.8l-0.1-13.1l-6.2,10.5h-4.3l-6.2-10v12.6h-8.8v-28.7h7.9l9.3,15.3l9.1-15.3h7.9l0.1,28.7H821.9z"
		/>
	<path class="st7" d="M834.3,1605.5c0-8.7,6.8-15,16.2-15s16.2,6.3,16.2,15c0,8.7-6.8,15-16.2,15S834.3,1614.2,834.3,1605.5z
		 M856.9,1605.5c0-4.5-2.9-7.2-6.4-7.2s-6.4,2.7-6.4,7.2c0,4.5,2.9,7.2,6.4,7.2S856.9,1610,856.9,1605.5z"/>
	<path class="st7" d="M898.4,1591.2v28.7h-7.9l-10.9-13v13h-9.4v-28.7h7.9l10.9,13v-13H898.4z"/>
	<path class="st7" d="M909.3,1598.7h-8.4v-7.5h26.5v7.5H919v21.2h-9.7V1598.7z"/>
	<path class="st7" d="M953.7,1612.6v7.3h-23.8v-28.7h23.3v7.3h-13.8v3.4h12.1v7h-12.1v3.8H953.7z"/>
</g>
<g>
	<path class="st10" d="M468.2,993.4h-10.9l-1.9,5h-9.8l12.5-28.7h9.5l12.5,28.7h-10L468.2,993.4z M465.6,986.5l-2.8-7.2l-2.8,7.2
		H465.6z"/>
	<path class="st10" d="M481.7,969.8h9.7v21.2h12.9v7.5h-22.6V969.8z"/>
	<path class="st10" d="M510.5,977.3h-8.4v-7.5h26.5v7.5h-8.4v21.2h-9.7V977.3z"/>
	<path class="st10" d="M529.6,984.1c0-8.7,6.8-15,16.2-15s16.2,6.3,16.2,15c0,8.7-6.8,15-16.2,15S529.6,992.8,529.6,984.1z
		 M552.2,984.1c0-4.5-2.9-7.2-6.4-7.2c-3.6,0-6.4,2.7-6.4,7.2c0,4.5,2.9,7.2,6.4,7.2C549.3,991.3,552.2,988.6,552.2,984.1z"/>
	<path class="st10" d="M606,969.8v28.7h-9.7v-10.6h-8.9v10.6h-9.7v-28.7h9.7v10.2h8.9v-10.2H606z"/>
	<path class="st10" d="M609.5,984.1c0-8.7,6.8-15,16.2-15s16.2,6.3,16.2,15c0,8.7-6.8,15-16.2,15S609.5,992.8,609.5,984.1z
		 M632.1,984.1c0-4.5-2.9-7.2-6.4-7.2s-6.4,2.7-6.4,7.2c0,4.5,2.9,7.2,6.4,7.2S632.1,988.6,632.1,984.1z"/>
	<path class="st10" d="M643.6,996.1l3.1-7c2.7,1.6,6.3,2.6,9.5,2.6c2.7,0,3.7-0.6,3.7-1.6c0-3.6-15.9-0.7-15.9-11.4
		c0-5.3,4.5-9.7,13.4-9.7c3.9,0,7.8,0.8,10.8,2.5l-2.9,7c-2.8-1.4-5.5-2.1-8-2.1c-2.8,0-3.7,0.8-3.7,1.8c0,3.4,15.9,0.6,15.9,11.1
		c0,5.2-4.5,9.7-13.4,9.7C651.3,999.1,646.5,997.9,643.6,996.1z"/>
	<path class="st10" d="M699.2,980.6c0,6.6-5.1,10.8-13.1,10.8H682v7h-9.7v-28.7h13.8C694.1,969.8,699.2,973.9,699.2,980.6z
		 M689.4,980.6c0-2.1-1.3-3.4-3.9-3.4H682v6.7h3.5C688.2,983.9,689.4,982.7,689.4,980.6z"/>
	<path class="st10" d="M702.3,969.8h9.7v28.7h-9.7V969.8z"/>
	<path class="st10" d="M715.5,984.1c0-8.8,6.8-15,16-15c5.6,0,10,2,12.9,5.7l-6.1,5.4c-1.7-2.1-3.7-3.4-6.3-3.4
		c-4,0-6.7,2.8-6.7,7.2c0,4.4,2.7,7.2,6.7,7.2c2.6,0,4.6-1.2,6.3-3.4l6.1,5.4c-2.8,3.7-7.3,5.7-12.9,5.7
		C722.3,999.1,715.5,992.9,715.5,984.1z"/>
	<path class="st10" d="M747.2,969.8h9.7v28.7h-9.7V969.8z"/>
	<path class="st10" d="M760.4,984.1c0-8.7,6.8-15,16.2-15c9.3,0,16.2,6.3,16.2,15c0,8.7-6.8,15-16.2,15
		C767.2,999.1,760.4,992.8,760.4,984.1z M783,984.1c0-4.5-2.9-7.2-6.4-7.2c-3.6,0-6.4,2.7-6.4,7.2c0,4.5,2.9,7.2,6.4,7.2
		C780.1,991.3,783,988.6,783,984.1z"/>
</g>
<g>
	<path class="st7" d="M468.2,993.4h-10.9l-1.9,5h-9.8l12.5-28.7h9.5l12.5,28.7h-10L468.2,993.4z M465.6,986.5l-2.8-7.2l-2.8,7.2
		H465.6z"/>
	<path class="st7" d="M481.7,969.8h9.7v21.2h12.9v7.5h-22.6V969.8z"/>
	<path class="st7" d="M510.5,977.3h-8.4v-7.5h26.5v7.5h-8.4v21.2h-9.7V977.3z"/>
	<path class="st7" d="M529.6,984.1c0-8.7,6.8-15,16.2-15s16.2,6.3,16.2,15c0,8.7-6.8,15-16.2,15S529.6,992.8,529.6,984.1z
		 M552.2,984.1c0-4.5-2.9-7.2-6.4-7.2c-3.6,0-6.4,2.7-6.4,7.2c0,4.5,2.9,7.2,6.4,7.2C549.3,991.3,552.2,988.6,552.2,984.1z"/>
	<path class="st7" d="M606,969.8v28.7h-9.7v-10.6h-8.9v10.6h-9.7v-28.7h9.7v10.2h8.9v-10.2H606z"/>
	<path class="st7" d="M609.5,984.1c0-8.7,6.8-15,16.2-15s16.2,6.3,16.2,15c0,8.7-6.8,15-16.2,15S609.5,992.8,609.5,984.1z
		 M632.1,984.1c0-4.5-2.9-7.2-6.4-7.2s-6.4,2.7-6.4,7.2c0,4.5,2.9,7.2,6.4,7.2S632.1,988.6,632.1,984.1z"/>
	<path class="st7" d="M643.6,996.1l3.1-7c2.7,1.6,6.3,2.6,9.5,2.6c2.7,0,3.7-0.6,3.7-1.6c0-3.6-15.9-0.7-15.9-11.4
		c0-5.3,4.5-9.7,13.4-9.7c3.9,0,7.8,0.8,10.8,2.5l-2.9,7c-2.8-1.4-5.5-2.1-8-2.1c-2.8,0-3.7,0.8-3.7,1.8c0,3.4,15.9,0.6,15.9,11.1
		c0,5.2-4.5,9.7-13.4,9.7C651.3,999.1,646.5,997.9,643.6,996.1z"/>
	<path class="st7" d="M699.2,980.6c0,6.6-5.1,10.8-13.1,10.8H682v7h-9.7v-28.7h13.8C694.1,969.8,699.2,973.9,699.2,980.6z
		 M689.4,980.6c0-2.1-1.3-3.4-3.9-3.4H682v6.7h3.5C688.2,983.9,689.4,982.7,689.4,980.6z"/>
	<path class="st7" d="M702.3,969.8h9.7v28.7h-9.7V969.8z"/>
	<path class="st7" d="M715.5,984.1c0-8.8,6.8-15,16-15c5.6,0,10,2,12.9,5.7l-6.1,5.4c-1.7-2.1-3.7-3.4-6.3-3.4c-4,0-6.7,2.8-6.7,7.2
		c0,4.4,2.7,7.2,6.7,7.2c2.6,0,4.6-1.2,6.3-3.4l6.1,5.4c-2.8,3.7-7.3,5.7-12.9,5.7C722.3,999.1,715.5,992.9,715.5,984.1z"/>
	<path class="st7" d="M747.2,969.8h9.7v28.7h-9.7V969.8z"/>
	<path class="st7" d="M760.4,984.1c0-8.7,6.8-15,16.2-15c9.3,0,16.2,6.3,16.2,15c0,8.7-6.8,15-16.2,15
		C767.2,999.1,760.4,992.8,760.4,984.1z M783,984.1c0-4.5-2.9-7.2-6.4-7.2c-3.6,0-6.4,2.7-6.4,7.2c0,4.5,2.9,7.2,6.4,7.2
		C780.1,991.3,783,988.6,783,984.1z"/>
</g>
</svg>
