<?xml version="1.0" encoding="utf-8"?>
<!-- Generator: Adobe Illustrator 24.0.0, SVG Export Plug-In . SVG Version: 6.00 Build 0)  -->
<svg version="1.1" id="Capa_1" xmlns="http://www.w3.org/2000/svg" xmlns:xlink="http://www.w3.org/1999/xlink" x="0px" y="0px"
	 viewBox="0 0 1920 2314" style="enable-background:new 0 0 1920 2314;" xml:space="preserve">
<style type="text/css">
	.st0{fill:#8E8E8E;}
	.st1{fill:#BFBFBF;}
	.st2{stroke:#000000;stroke-width:6;stroke-miterlimit:10;}
	.st3{fill:#FFFFFF;}
	.st4{fill:#D4353F;}
	.st5{fill:#FF6D00;}
	.st6{fill:#FF8500;}
	.st7{fill:#D7D9D9;}
	.st8{fill:#C5C7C8;}
	.st9{opacity:0.4;fill:#DA5D68;enable-background:new    ;}
	.st10{opacity:0.4;fill:#D4353F;enable-background:new    ;}
	.st11{fill:#444444;}
</style>
<path class="st0" d="M1601.5,1097.9c-28-23.6-58.8-49-93.5-60c-57.8-18.4-113.4,22-171,23.3c-30.2,0.7-58.8-9.3-85-23.6
	c-19.3-10.5-36.7-24.2-56.3-34.3c-48.2-24.9-99-3.9-148.7,3.5c-20.9,3.1-44.1,4.9-63.5-5.4c-17.7-9.4-25.5-27.2-28.1-46
	c-18.4,5.7-39.9,9.9-56-0.6c-13.9-9.1-17-26.3-20-41.4c-4-20.3-10-38.9-25.3-53.8c-17-16.6-40.2-29.7-63.8-36.4
	c1,14.1-1.5,28.5-14.1,36.8c-13.9,9.1-32.4,6.2-47.7,3.1c-19.8-4-42.9-7.8-59.9-19.3c-12.8-8.6-16-21.2-23.7-33.6
	c-4.9-7.9-12.4-12.4-18.4-19.1c-6.8-7.6-8.2-16.7-11-26c-5.2-17.1-19.9,9-24.6,14.7c-31.6,37.4-81.1,2.2-105.7-26.1
	c-11.7-13.5-24.4-29.2-26.3-47.6c-1.5-14.8,1-29.8-0.4-44.7c-1.5-15.9-9-24.9-25.7-25.3c-14.4-0.4-25.8,10.9-35.1,20.6
	c-17.2,17.9-40.1,51.8-68.8,34.3c-20.1-12.3-24-36.6-23.9-58.3c0.1-21.1,5.6-45.7-1.8-65.8c-2.8-7.6-8.3-12.4-15.2-15.1
	c-2.2,0.4-5.2-0.2-7.5-0.6c-18.5-3.3-46.2,11-52.8,28.1c-5.2,13.6-12.5,23.5-28.3,26c-10.5,1.7-33.2,31.8-30.7,41.3
	c4.1,15,7.7,31.8,17.1,43.2c15.1,18.4,14.6,29.8,1.9,51.6c-1.5-1.8-2.9-3.6-4.4-5.3c-15.7-17.7-51.7-25.3-72.4-15
	c-2.8,1.4-5.9,4.2-6.9,7.1c-5,14.2-11.7,24.6-29.6,19.6c-2.9-0.8-7.2,2.6-10.7,4.4C51.8,758.4,39.3,764,28,771.4
	c-5.2,3.4-11.9,11-11.2,15.7c9.1,62.4,15.9,125.4,30.6,186.5c10.4,43.1,31.6,83.7,48.5,125.2c25.9,63.7,52.4,127.3,78.3,191
	c7.5,18.3,17.3,36.6,20.2,55.7c10.4,67.4,18.5,135.1,26.6,202.8c0.8,6.3-3.2,15.4-8,19.7c-11.2,10-13.4,20.7-7.4,33.5
	c6.6,14.2,29.6,29.3,39.9,27.5c10.5-1.8,21.7-1.3,31.6-4.7c23.8-8.3,47.2-17.8,70.2-28c4.1-1.8,5.6-9.3,8.6-14
	c6.2-9.8,10.6-22.6,19.5-28.5c16.4-11,28.5-22.4,24.5-47.4c6.2,4.1,8.2,5.2,9.9,6.5c16.9,13.1,34,21.1,53.6,4.4
	c3.6-3,9.8-5,14.4-4.4c10.9,1.4,21.6,4.7,32.3,7.3c-5.2,7.8-9.4,16.7-15.8,23.3c-17.7,18.1-16.6,59.4,4.2,67.6
	c15.4,6.1,33,9,49.6,9.3c30.5,0.7,61.2-3.2,91.6-1.9c13.7,0.6,28.8,6.8,40.1,14.9c28,19.9,56.2,36.1,92.6,32.6
	c8.8-0.8,20.1,3.4,27,9.2c15.9,13.4,32.6,18.4,52,11.1c9.8-3.7,14.5-0.4,15.7,8.6c1.5,11.4,8,15.2,18.6,15.4
	c5,0.1,10.3,1.2,14.9,3.2c17.2,7.2,31.4,3.1,45.9-8c8-6.2,20.3-13,28.9-11.1c32.3,7,59.7-12.8,90.3-13.5c4.9-0.1,11.9-6.3,14-11.3
	c9.6-23.6,29.7-34.5,50.4-45.8c22.9-12.5,27.2-12.5,36.6,11.5c8.4,21.6,22.9,34.8,44.9,40.1c12.2,2.9,24.6,4.5,36.7,7.9
	c30.4,8.6,60.4,17.8,70.5,53.6c3.7,13.2,12.9,19.8,27.1,22.1c29.7,4.6,59.2,11.1,88.8,16.8c22,4.2,28-2.2,23.5-24.2
	c-2.7-13.3-10.6-15.6-22.7-13.3c-5,1-13.7,0.1-15.2-2.8c-2.3-4.5-1.8-12.6,0.9-17c5.9-9.5,13.5-18,21.4-26
	c17.1-17.5,31.1-35.4,27.3-62.6c-2.3-16.3-0.4-33.2-0.4-51.2c25.7,10.4,33.8,5.4,33.7-18.8c-0.1-16.4,5-29.5,15.5-42
	c4.5-5.4,7.6-14.7,6.6-21.5c-5.3-35.2-11.9-70.3-18.7-105.2c-7-35.8-11.3-71.5-7.4-108.2c1-9.6-6.5-20.4-11.1-30.2
	c-2.8-6-9.3-10.6-10.9-16.7c-7.2-27.3,13.3-70,39.3-82.1c23.2-10.8,47-20.2,70.5-30.4c10.4-4.5,16.1-11.8,14.8-24
	C1601.5,1099,1601.5,1098.4,1601.5,1097.9z"/>
<path class="st1" d="M1881.2,816.5c-36.7-20.9-61-50.2-67.2-93c-0.8-5.6-3.6-10.8-4.9-16.3c-5.3-22.4-10.1-44.9-15.8-67.2
	c-2.5-9.6-4.7-20.8-11-27.6c-24.5-26.3-25.1-25.7-3.3-53.3c1.4-1.8,3-3.5,4.4-5.2c9.8-11.6,10.4-25.7,1.8-36.2
	c-11-13.5-16.6-27.8-18.2-44.5c-1-9.9-6-14.4-16.1-11.8c-19.7,5-37-0.4-53.2-11.5c-14.3-9.8-30.2-10.3-47.3-10
	c-26.9,0.5-53.9-2.7-80.9-3.9c-16.3-0.7-32.7-1.2-48.9-0.3c-4.6,0.3-10.6,4.7-13,9c-19.8,35.1-41.9,66.6-85,76.5
	c-7.1,1.6-16.3,11.9-17.3,19.2c-2,13.8-5,22.2-20.5,23.5c-4.3,0.4-9.1,6.4-11.9,11c-5.1,8.2-9.3,17-13.1,25.8
	c-4,9.3-8.7,20.3-20.4,14.8c-16.4-7.6-43.2-3.1-46.3-27.1c-2.6-20.2,0.9-42.3,6.8-62c4.4-14.9,3.6-26.3-1-40.6
	c-4.3-13.7-7-31-2.4-43.8c8.8-24.8,1.3-43.7-24.6-50.2c-17.5-4.4-31.7-0.2-46.4,9.5c-28.9,19.2-76.3,5.1-92.5-25.1
	c-3.6-6.8-11-14-18-16.1c-16.7-4.8-34.2-6.7-51.5-9.4c-17.2-2.8-34.7-4.4-51.7-8c-11.2-2.4-18.2-8.4-12-22.2
	c3.8-8.5,4.2-19.9-7.6-22.5c-18.1-3.8-36.8-4.3-55-7.5c-10-1.7-24.4-2.9-28.5-9.5c-24.4-38.8-61.5-56.1-103.5-66.3
	c-12.3-3-20.4-7.1-13.2-22c1.6-3.3,0.5-9.6-1.7-12.9c-19.5-27.7-21.6-58.9-21-91.3c0.4-24.3-19.1-38.3-42.7-32.4
	c-5.5,1.4-10.8,3.6-16.3,5c-24.3,6.1-46.4-0.2-70.3-10.1c5.2-5.7,8.2-9.1,13.1-14.5c-33.4,0.8-61.1-7.4-86.1-25.2
	c-5.4-3.8-13.9-4.4-21-4.4c-13.6,0-27.2,1.1-40.8,2.4c-29.6,2.8-61.2-6.6-88.2,11.5c-21.4,14.4-41.4,16.8-64.9,4.7
	c-14.3-7.4-18-0.8-18.4,16.3c-0.3,14.1-5.8,28.1-9.6,41.9c-2.2,8.2-5.5,16.2-8.3,24.3c8.7,0.8,17.4,1.9,26.2,2.3
	c3.3,0.2,6.7-1.1,10.1-1.6c13.5-2.3,27-4.6,44.2-7.5c-17.7,27-28.8,50.8-27.4,79.7c0.5,9.7-4.9,21.1-11,29.3
	c-8.7,11.7-19.1,23.3-31.3,31.2c-21.6,13.9-23.5,32.1-19.7,54.6c2.5,15.2-1.4,30.6-17.3,37.3c-21.5,9-30.3,26.1-34.7,47.1
	c-3.9,18.6,0.7,28,18.5,34.5c19.8,7.2,40,13,59.8,20.1c20.4,7.3,23.8,15.1,17.4,36.3c-8.1,26.8-24.6,47.3-44,65.5
	c5.1,3.4,9.6,8,13.1,13.8c13,21.4,8.6,49.3,7.7,72.9c-0.6,15.8-2.3,41.9,14,49.6c9.1,4.3,18.1-6.7,24.1-13
	c10.8-11.4,20.5-23.7,33.2-33.2c24.2-18.2,65.3-17.3,77.7,14.6c5.6,14.4,4.6,30.4,4.3,45.6c-0.2,6.4-0.7,13.3,0.4,19.6
	c1.4,7.9,7.3,15.5,11.9,21.8c13,18,31.2,36.2,52.6,43.5c8.6,2.9,16.9,5,24.2-1.2c5.6-4.7,9.7-11.1,14.1-16.8
	c9.9-12.6,23.6-22.6,39.7-13.3c7.9,4.6,11.6,12.5,13.7,21c1.1,4.4,1.8,8.9,4.2,12.8c2.7,4.4,7.3,7,11,10.6
	c9.6,9.4,13.8,20.3,20.2,31.7c8,14.3,26.9,17,41.4,20.7c13.7,3.4,29.8,9.1,44.1,6.7c15.1-2.5,11.1-21,8.7-31.9
	c-1.9-8.7,5.1-14.7,13.4-13.4c49.1,7.8,102.4,42,116.4,91.7c3.7,13.2,3.2,32.7,11.9,43.6c10.3,13,41,0.6,53.8-3.8
	c6.8-2.3,13.7,3.8,13.8,10.5c0.3,25.6,10.2,44.8,37.5,46.5c23.2,1.4,46.5-4.8,69-9.6c29.5-6.4,59.2-11.6,89.2-5.7
	c20.7,4,39.1,14.1,56.6,25.5c20.2,13.1,40.3,26.1,63,34.4c29.1,10.5,58.4,8.7,87.9,1c27-7.1,53.1-17.2,80.9-20.5
	c31.6-3.7,60.5,4.7,87.7,20.4c21.2,12.2,40.7,26.6,59.6,41.9c5-5.7,13-8.5,23.8-7.8c26,1.9,47.1-8.3,68.8-20.3
	c22.9-12.7,47.2-19.7,74.8-17.3c19.1,1.6,39.3-2.3,58.1-7.3c12.6-3.4,24.6-11.7,34.9-20.2c3.9-3.3,3.2-13.2,3.1-20.1
	c-0.1-9.2-5.3-20.1-1.9-27.2c6.3-13.2,17.2-24.4,26.4-36.1c4.8-6.1,12.3-11,15-17.8C1920.2,875.5,1904.1,829.6,1881.2,816.5z"/>
<g>
	<path class="st2" d="M654.7,1149.9h-9.5v-7H673v7h-9.5v24.1h-8.8V1149.9z"/>
	<path class="st2" d="M701.2,1167.2v6.8h-24.9v-31.1h24.4v6.8H685v5.2h13.8v6.6H685v5.7H701.2z"/>
	<path class="st2" d="M734.1,1174l-0.1-16.5l-8,13.4h-3.9l-7.9-13v16h-8.1v-31.1h7.2l10.9,17.9l10.6-17.9h7.2l0.1,31.1H734.1z"/>
	<path class="st2" d="M748.1,1160.1v-17.2h8.8v17c0,5.3,2.2,7.5,5.9,7.5c3.6,0,5.9-2.1,5.9-7.5v-17h8.7v17.2
		c0,9.3-5.4,14.5-14.6,14.5C753.6,1174.6,748.1,1169.4,748.1,1160.1z"/>
	<path class="st2" d="M781.7,1158.4c0-9.5,7.2-16.2,17.1-16.2c5.7,0,10.3,2.1,13.4,5.9l-5.6,5.1c-2-2.4-4.3-3.6-7.3-3.6
		c-5.1,0-8.7,3.5-8.7,8.9c0,5.3,3.5,8.9,8.7,8.9c3,0,5.4-1.3,7.3-3.6l5.6,5.1c-3,3.8-7.6,5.9-13.4,5.9
		C788.9,1174.6,781.7,1167.9,781.7,1158.4z"/>
	<path class="st2" d="M813.8,1158.4c0-9.3,7.3-16.2,17.3-16.2s17.3,6.8,17.3,16.2s-7.3,16.2-17.3,16.2S813.8,1167.8,813.8,1158.4z
		 M839.4,1158.4c0-5.4-3.7-8.9-8.4-8.9s-8.4,3.5-8.4,8.9s3.7,8.9,8.4,8.9S839.4,1163.8,839.4,1158.4z"/>
</g>
<g>
	<path class="st3" d="M654.7,1149.9h-9.5v-7H673v7h-9.5v24.1h-8.8V1149.9z"/>
	<path class="st3" d="M701.2,1167.2v6.8h-24.9v-31.1h24.4v6.8H685v5.2h13.8v6.6H685v5.7H701.2z"/>
	<path class="st3" d="M734.1,1174l-0.1-16.5l-8,13.4h-3.9l-7.9-13v16h-8.1v-31.1h7.2l10.9,17.9l10.6-17.9h7.2l0.1,31.1H734.1z"/>
	<path class="st3" d="M748.1,1160.1v-17.2h8.8v17c0,5.3,2.2,7.5,5.9,7.5c3.6,0,5.9-2.1,5.9-7.5v-17h8.7v17.2
		c0,9.3-5.4,14.5-14.6,14.5C753.6,1174.6,748.1,1169.4,748.1,1160.1z"/>
	<path class="st3" d="M781.7,1158.4c0-9.5,7.2-16.2,17.1-16.2c5.7,0,10.3,2.1,13.4,5.9l-5.6,5.1c-2-2.4-4.3-3.6-7.3-3.6
		c-5.1,0-8.7,3.5-8.7,8.9c0,5.3,3.5,8.9,8.7,8.9c3,0,5.4-1.3,7.3-3.6l5.6,5.1c-3,3.8-7.6,5.9-13.4,5.9
		C788.9,1174.6,781.7,1167.9,781.7,1158.4z"/>
	<path class="st3" d="M813.8,1158.4c0-9.3,7.3-16.2,17.3-16.2s17.3,6.8,17.3,16.2s-7.3,16.2-17.3,16.2S813.8,1167.8,813.8,1158.4z
		 M839.4,1158.4c0-5.4-3.7-8.9-8.4-8.9s-8.4,3.5-8.4,8.9s3.7,8.9,8.4,8.9S839.4,1163.8,839.4,1158.4z"/>
</g>
<g>
	<path class="st2" d="M937.9,646.9h-13.1l-2.4,6h-9l13.7-31.1h8.7l13.8,31.1h-9.1L937.9,646.9z M935.3,640.5l-4-9.9l-4,9.9H935.3z"
		/>
	<path class="st2" d="M981.5,621.9V653h-7.2l-13.7-16.6V653H952v-31.1h7.2l13.7,16.6v-16.6H981.5z"/>
	<path class="st2" d="M1008.5,636.8h7.8v12.9c-3.6,2.6-8.5,3.9-13,3.9c-9.9,0-17.1-6.7-17.1-16.2c0-9.5,7.2-16.2,17.3-16.2
		c5.8,0,10.5,2,13.6,5.7l-5.6,5.1c-2.1-2.4-4.6-3.5-7.5-3.5c-5.3,0-8.9,3.5-8.9,8.9c0,5.2,3.5,8.9,8.8,8.9c1.6,0,3.2-0.3,4.7-1
		V636.8z"/>
	<path class="st2" d="M1020.3,637.4c0-9.3,7.3-16.2,17.3-16.2s17.3,6.8,17.3,16.2s-7.3,16.2-17.3,16.2S1020.3,646.8,1020.3,637.4z
		 M1045.9,637.4c0-5.4-3.7-8.9-8.4-8.9s-8.4,3.5-8.4,8.9s3.7,8.9,8.4,8.9S1045.9,642.8,1045.9,637.4z"/>
	<path class="st2" d="M1059.4,621.9h8.8V646h14.8v7h-23.6V621.9z"/>
</g>
<g>
	<path class="st3" d="M937.9,646.9h-13.1l-2.4,6h-9l13.7-31.1h8.7l13.8,31.1h-9.1L937.9,646.9z M935.3,640.5l-4-9.9l-4,9.9H935.3z"
		/>
	<path class="st3" d="M981.5,621.9V653h-7.2l-13.7-16.6V653H952v-31.1h7.2l13.7,16.6v-16.6H981.5z"/>
	<path class="st3" d="M1008.5,636.8h7.8v12.9c-3.6,2.6-8.5,3.9-13,3.9c-9.9,0-17.1-6.7-17.1-16.2c0-9.5,7.2-16.2,17.3-16.2
		c5.8,0,10.5,2,13.6,5.7l-5.6,5.1c-2.1-2.4-4.6-3.5-7.5-3.5c-5.3,0-8.9,3.5-8.9,8.9c0,5.2,3.5,8.9,8.8,8.9c1.6,0,3.2-0.3,4.7-1
		V636.8z"/>
	<path class="st3" d="M1020.3,637.4c0-9.3,7.3-16.2,17.3-16.2s17.3,6.8,17.3,16.2s-7.3,16.2-17.3,16.2S1020.3,646.8,1020.3,637.4z
		 M1045.9,637.4c0-5.4-3.7-8.9-8.4-8.9s-8.4,3.5-8.4,8.9s3.7,8.9,8.4,8.9S1045.9,642.8,1045.9,637.4z"/>
	<path class="st3" d="M1059.4,621.9h8.8V646h14.8v7h-23.6V621.9z"/>
</g>
<g>
	<g>
		<g>
			<path class="st4" d="M812.4,1006.7c0-40.5-32.8-73.3-73.3-73.3s-73.3,32.8-73.3,73.3c0,46.6,73.3,104.3,73.3,104.3
				S812.4,1053.3,812.4,1006.7z"/>
			<g>
				<path class="st5" d="M739.1,933.4c-40.5,0-73.3,32.8-73.3,73.3c0,20.2,13.8,42.6,29.5,61.4l98.3-110.4
					C780.1,942.8,760.7,933.4,739.1,933.4z"/>
				<path class="st6" d="M695.3,1068.1c20.4,24.5,43.8,42.9,43.8,42.9s73.3-57.7,73.3-104.3c0-18.9-7.1-36.1-18.9-49.1L695.3,1068.1
					z"/>
			</g>
			<g>
				<path class="st7" d="M712.1,1049.1c7.8,5,17,7.8,27,7.8c27.8,0,50.3-22.5,50.3-50.3c0-12-4.2-23.1-11.3-31.7L712.1,1049.1z"/>
				<path class="st8" d="M739.1,956.3c-27.8,0-50.3,22.5-50.3,50.3c0,17.9,9.3,33.6,23.4,42.5l66.1-74.2
					C768.9,963.5,754.8,956.3,739.1,956.3z"/>
			</g>
			<circle class="st3" cx="739.1" cy="1006.6" r="46.1"/>
			<path class="st9" d="M793.5,957.6l-3.9,4.3c10.9,12.4,17,28.2,17,44.7c0,17.6-12.1,40.2-35.1,65.6
				c-13.1,14.5-26.3,26.1-32.5,31.2c-7.2-6.1-24.3-21-39.4-39.2c-0.2-0.2-0.4-0.4-0.5-0.7l-3.9,4.4c20.4,24.5,43.8,42.9,43.8,42.9
				s73.3-57.7,73.3-104.3C812.4,987.8,805.2,970.6,793.5,957.6z"/>
			<path class="st10" d="M671.5,1006.7c0-37.3,30.3-67.6,67.6-67.6c19.1,0,37.4,8.1,50.2,22.3c0.1,0.2,0.3,0.3,0.4,0.5l3.9-4.3
				c-13.4-14.9-32.8-24.2-54.5-24.2c-40.5,0-73.3,32.8-73.3,73.3c0,20.2,13.8,42.6,29.5,61.4l3.9-4.4
				C681.1,1041.9,671.5,1022.2,671.5,1006.7z"/>
		</g>
	</g>
</g>
<g>
	<path class="st11" d="M760.4,1013.1c0,9.9-8.3,16.3-18.7,16.3c-13.4,0-22.1-8-22.1-23.5c0-16.6,10.3-26.1,25.3-26.1
		c5.4,0,10.6,1.2,14,3.5l-4.9,9.7c-2.7-1.9-5.7-2.5-8.8-2.5c-6.8,0-11.4,3.8-12.1,11.1c2.7-2.3,6.3-3.5,10.8-3.5
		C752.9,998,760.4,1004,760.4,1013.1z M747.3,1013.7c0-3.7-2.7-6-6.5-6c-3.9,0-6.6,2.5-6.6,6.1c0,3.5,2.6,6,6.7,6
		C744.6,1019.8,747.3,1017.5,747.3,1013.7z"/>
</g>
<g>
	<g>
		<g>
			<path class="st4" d="M1069.2,492.6c0-40.5-32.8-73.3-73.3-73.3s-73.3,32.8-73.3,73.3c0,46.6,73.3,104.3,73.3,104.3
				S1069.2,539.2,1069.2,492.6z"/>
			<g>
				<path class="st5" d="M995.9,419.3c-40.5,0-73.3,32.8-73.3,73.3c0,20.2,13.8,42.6,29.5,61.4l98.3-110.4
					C1036.9,428.7,1017.5,419.3,995.9,419.3z"/>
				<path class="st6" d="M952.1,554c20.4,24.5,43.8,42.9,43.8,42.9s73.3-57.7,73.3-104.3c0-18.9-7.1-36.1-18.9-49.1L952.1,554z"/>
			</g>
			<g>
				<path class="st7" d="M968.9,535c7.8,5,17,7.8,27,7.8c27.8,0,50.3-22.5,50.3-50.3c0-12-4.2-23.1-11.3-31.7L968.9,535z"/>
				<path class="st8" d="M995.9,442.2c-27.8,0-50.3,22.5-50.3,50.3c0,17.9,9.3,33.6,23.4,42.5l66.1-74.2
					C1025.7,449.4,1011.6,442.2,995.9,442.2z"/>
			</g>
			<circle class="st3" cx="995.9" cy="492.5" r="46.1"/>
			<path class="st9" d="M1050.3,443.5l-3.9,4.3c10.9,12.4,17,28.2,17,44.7c0,17.6-12.1,40.2-35.1,65.6
				c-13.1,14.5-26.3,26.1-32.5,31.2c-7.2-6.1-24.3-21-39.4-39.2c-0.2-0.2-0.4-0.4-0.5-0.7l-3.9,4.4c20.4,24.5,43.8,42.9,43.8,42.9
				s73.3-57.7,73.3-104.3C1069.2,473.7,1062,456.5,1050.3,443.5z"/>
			<path class="st10" d="M928.3,492.6c0-37.3,30.3-67.6,67.6-67.6c19.1,0,37.4,8.1,50.2,22.3c0.1,0.2,0.3,0.3,0.4,0.5l3.9-4.3
				c-13.4-14.9-32.8-24.2-54.5-24.2c-40.5,0-73.3,32.8-73.3,73.3c0,20.2,13.8,42.6,29.5,61.4l3.9-4.4
				C937.9,527.8,928.3,508.1,928.3,492.6z"/>
		</g>
	</g>
</g>
<g>
	<path class="st11" d="M1021.3,505.2h-7.1v9.1h-13.2v-9.1h-25.2v-8.8l21.4-29.8h14l-19.4,27.9h9.7v-8.1h12.7v8.1h7.1V505.2z"/>
</g>
</svg>
