<?xml version="1.0" encoding="utf-8"?>
<!-- Generator: Adobe Illustrator 24.0.0, SVG Export Plug-In . SVG Version: 6.00 Build 0)  -->
<svg version="1.1" id="Capa_1" xmlns="http://www.w3.org/2000/svg" xmlns:xlink="http://www.w3.org/1999/xlink" x="0px" y="0px"
	 viewBox="0 0 1920 2314" style="enable-background:new 0 0 1920 2314;" xml:space="preserve">
<style type="text/css">
	.st0{fill:#BFBFBF;}
	.st1{fill:#8E8E8E;}
	.st2{fill:#FFFFFF;stroke:#000000;stroke-width:6;stroke-miterlimit:10;}
	.st3{fill:#FFFFFF;}
	.st4{stroke:#000000;stroke-width:6;stroke-miterlimit:10;}
	.st5{fill:#D4353F;}
	.st6{fill:#FF6D00;}
	.st7{fill:#FF8500;}
	.st8{fill:#D7D9D9;}
	.st9{fill:#C5C7C8;}
	.st10{opacity:0.4;fill:#DA5D68;}
	.st11{opacity:0.4;fill:#D4353F;}
	.st12{fill:#444444;}
</style>
<path class="st0" d="M1616.7,76.5C1612.2,82.9,1613.5,78.7,1616.7,76.5L1616.7,76.5z"/>
<path class="st1" d="M1223,2011.2c-8.3,1.7-18.9-1.2-26.7-5.4c-12.9-7-31.3-14.4-34.9-25.7c-6.6-20.2-2.8-43.4-5.5-65.2
	c-1.5-12.5-4.9-26-11.4-36.5c-11-17.7-24.7-33.9-38.2-49.9c-6-7.1-8.8-14.7-10-22.6c-2.3-0.3-4.7-0.7-7-1.3
	c-8.6-2.1-13.6-4.7-21.9-0.2c-22.7,12.2-31.7,38.2-54.9,49.7c-19.6,9.7-41.8,14.3-63,19c-22.7,4.9-45.5,9.1-68.4,12.9
	c-25.4,4.2-52.6-2.4-71.7,19c-14.7,16.4-18.3,40.1-20.5,61.2c-2,18.7-6.4,49.3,10.5,63.1c6.7,5.4,15.8,7.4,23.1,11.9
	c9.8,5.9,17.9,14.3,24.1,23.9c17.2,26.4,15.5,57.7,17.1,88.1c0.1,0.1,0.1,0.2,0.2,0.2c2.2,3.2,9.2,5.8,12.8,4.7
	c17.5-5,34.5-11.9,52-17.1c19.7-5.9,39.5-11.7,59.7-15.7c5.9-1.2,14.1,2.6,19.4,6.6c8.9,6.5,16.5,15,28.5,26.4
	c1.9,10.9-11.9,33.2,11.6,44.8c23.7,11.7,46.7,32,73.8,13.2c8.3,3.1,15.4,5.5,22.3,8.4c4.5,1.9,11.6,3.5,12.6,6.8
	c4.9,15.7,8.7,31.8,11.6,47.9c3.2,17.4,11.3,22.6,27.3,15.7c7.8-3.4,15.4-7.2,23-10.7c19.8,15.2,24.9,15.2,30.2-8.9
	c7.5-33.5,13.8-68.3-12.4-98.5c-3.5-4.1-6.7-12.1-5-16.3c7.2-17.4-4.1-22.2-16-27.7c-2.7-1.2-4.4-4.5-9.2-9.7
	c6.6,0.7,9.4,0.1,11.3,1.3c35.1,21.5,56,14,71.7-25.2c2-5,6.8-9.7,11.6-12.4c11.7-6.6,12-15.6,5.7-24.8
	C1286.2,2033.1,1267.4,2001.9,1223,2011.2z"/>
<path class="st0" d="M836.5,2130.2c-1.6-26.6-6.2-55.9-32.5-69c-12.3-6.1-22.4-12.3-29.8-21.4c-27.1,12.4-55.9,14.5-82.3-1.8
	c-21.1-13-36.9-32.8-53.7-50.5c-14.3-15-30.9-26.7-47.1-39.5c-9.5-7.5-19.1-14.9-29.1-21.9c-4.6-3.2-9.3-6.5-14.2-9.2
	c-1.1-0.6-3.4-1.9-3.9-2.1c-0.3-0.1-0.5-0.2-0.5-0.3c-0.2,0-0.4-0.1-0.7-0.1c-13.6-2.1-25.9,6.1-37.6,11.8c-2.3,1.1-4.7,2.2-7,3.2
	c0.4,0.8,0.9,1.5,1.4,2.2c19.5,23.1,19.7,31.5,1,56c-4.4,5.7-7.4,12.5-11.8,20.1c10,3.1,18.9,3.3,23.1,7.8
	c5.8,6.2,11.8,16.3,10.8,23.8c-1.6,12-8.9,23.2-14.6,36.5c20,4.8,16.9,14.1,11.7,27c-5.1,12.5-6.7,26.8-8.1,40.5
	c-2.2,22.5,2.3,45.1-3.2,67.8c-2.1,8.6,0,23.7,5.8,27.6c10.7,7.3,22.2-0.2,31.5-11.9c9.3,4.4,17.5,8.4,25.9,12.2
	c41.5,18.9,89.3,25.4,120.1-25.6c6-9.9,15.5-14.4,21.7,0.6c8,19.4,19.7,16.9,32.1,5.8c17.1-15.2,33.3-31.6,50.2-47.1
	c11-10,27.6-16.8,15.6-39.1c9.1,1.8,17.7,2.4,25.7,4C836.8,2135,836.6,2132.6,836.5,2130.2z"/>
<path class="st0" d="M1104.7,1618.6c-3-1.8-6.3-2.7-10.2-2.2c-11.4,1.7-22.2,10.1-31.8,16c-19.8,12.3-42.9,22.7-62.8,10.9
	c-18.6,19.6-33.9,45.1-58.2,56.9c-27.7,13.4-58.3-7.4-71.4-32.2c-1.3-2.4-4.7-8.1-5.3-11.6c-2.5,1.5-10.4,1.3-13,2
	c-3.9,0.9-7.8,2.1-11.5,3.6c-5,2-9.4,4.9-14,7.6c-18.6,10.9-46.8,14.2-67,3.6c-2.4,2.7-5.8,5.6-7.1,7.1
	c-10.2,11.6-16.5,25.7-25.9,37.9c-9.5,12.4-21.6,20.4-35.1,27.9c-0.6,0.4-1.6,1-2.7,1.8c1.7,6.4,2,14.1,2.3,18.9
	c0.8,12.8,0.2,25.9-1.7,38.6c-3.5,24.7-17,49-44.9,48.8c-4.9,0-9.7-1.2-14.6-1.7c-1.1-0.1-3.5-0.1-4.8-0.2c-0.3,0.6-0.8,1.5-1.1,2.7
	c-0.6,3.4-0.9,6.8-0.9,10.3c0,5.5,1.2,9.6,3.9,14.3c5.5,9.6,13.4,17.5,16.3,28.5c3.5,13.2-0.8,25.8-7.8,37c-0.5,0.9-1.1,1.6-1.8,2.3
	c4.5,3.7,9,7.4,13.1,11.4c17.4,16.6,31.8,36.7,51,51.4c20.6,15.8,42.5,16.7,65.5,5.9c-5.1-22.6-1.5-47.4,2-69.9
	c3.7-23.7,12.2-48.4,30.8-64.6c10.3-9,22.8-15.8,36.3-17.9c13.1-2.1,26.5-0.5,39.6-2.3c24.9-3.5,49.8-8.7,74.3-14.2
	c20.9-4.7,49-8.4,65.1-23.8c8.7-8.3,14.4-19.1,23.1-27.3c8.2-7.7,19.1-15.3,29.9-18.7c9.1-2.9,17.7-1.8,26.7,0.7
	c1.9,0.5,3.6,0.9,5.3,1.2c0.1-11-2.8-22.2-2.4-33.3c0.7-18.8-2.2-40.4,6.1-55.5c11.1-20.2,12.9-37.1,5.9-57.9
	C1104.5,1628.1,1104.4,1623.4,1104.7,1618.6z"/>
<path class="st1" d="M733.1,1566.4c-12.6-14.4-27-11.7-44.3-11.2c-18.1,0.6-32.4-7-47.2-16.4c-14.6-9.3-26.9-12.2-44.2-10.1
	c-16.8,2.1-33.2,6.7-49.5,11.2c-16.2,4.5-32.4,9.4-48.9,12.4c-7.3,1.3-13.7,1.7-20.5-1.9c-2.5-1.3-4.7-3.6-7.2-4.7
	c-0.3-0.1-0.6-0.3-0.7-0.4c-0.1,0.3-0.3,0.6-0.6,1c-3.8,5-6,10.8-10.8,15.2c-5.3,4.8-12.9,7-19.3,9.9c-3.8,1.8-7.5,3.4-11.3,4.8
	c1.2,4.7,2.3,9.4,3.2,14.1c5.3,30.5,9,61.2,13.5,91.8c0.4,2.6,1.6,5,2.6,7.4c16.5,43.5,35.9,86.4,24,134.9c-0.6,2.3,0.9,5.1,1.5,7.6
	c5.9,23.7,11.8,47.4,17.7,71c18.7-9,37.2-19.6,57.9-14.4c19.2,4.8,36.9,22,52.1,33.8c3.9,3,7.8,5.9,11.8,8.9
	c8.8-14.3,3.5-20.6-5.1-33.4c-8.2-12.1-11.9-24.3-10.7-38.9c1-12.4,4.4-26,16.9-31.4c9.5-4,18.7-0.6,28.5-0.1
	c25.2,1.4,22.8-38.9,22.5-55.9c-0.2-8.8-2.4-16.8-4-21.8c-2.2-6.8-2.1-12.9,3.4-18.3c6.1-6,15.9-9.4,23.1-13.7
	c15.2-9.1,22.7-22.2,31.7-36.9c6.5-10.7,14.9-21,23.8-29.8c6-6,12.5-8.4,20.6-5.6C755.1,1618.7,751.6,1587.6,733.1,1566.4z"/>
<path class="st1" d="M632.2,1504.6c9.9-27.9,7.3-58.6,11.7-87.6c3.9-25.3,15.8-48.2,30.8-68.8c25.9-35.4,61.2-48.8,103.8-48.2
	c3.9-6.5,7.5-12.9,10.3-19.9c-14-4.7-25.7-13.2-31.1-26.3c-3.5,2.1-8,2.6-12.7-0.3c-29.3-17.8-74.2-24-107.7-17.4
	c-14.1,2.8-29.3,11.8-34.3,25.9c-4,11.2-3.1,23.8-5.1,35.3c-4.9,28.2-27.5,49.1-53.1,59.9c-7.1,3-17.1,4.3-22.6,9.3
	c-5,4.5-4.8,20.9-4.8,29c0.3,42.1,8.3,80.8,28.7,117.4c10.7-2.9,21.5-5.7,32.4-7.8c16.5-3.2,34.6-6.1,51.1-1.5
	C630.6,1504,631.4,1504.3,632.2,1504.6z"/>
<path class="st0" d="M1063,1570.4c-9.3-18.7-16.2-37.7-34.8-49.1c-17.4-10.7-36.9-17.6-52.6-31.2c-16.3-14.1-24.5-35.5-34.4-54
	c-5.4-10-11.2-20.3-19.9-27.8c-8.3-7.2-19.8-10-30.2-12.8c-25.4-7-51.5-11.4-75.8-22c-15.5-6.8-37.3-15.1-46.3-30.8
	c-3.1-5.5-3.8-11-2.9-16.4c-14,0.5-28,2.9-40.4,9.7c-15.1,8.3-26.1,21.7-35.2,36.1c-14.6,23.1-21,45.3-22.9,72.6
	c-1.7,24.9-3.4,49-12,72.3c5.8,3.7,11.6,7.3,18,9.8c18,7.1,37.9-2.6,56.6,5.3c14.3,6.1,25.3,18.1,33,31.4c15.4,27,18.6,58.6,30,87.2
	c0.3,0.7,0.5,1.4,0.6,2c0,0,0.1,0,0.1,0c11.4-0.4,18.4-5.9,28.1-11c16.7-8.7,53.2-22.1,65.7-0.2c5.2,9,6.6,17,14.4,24.8
	c8.5,8.5,18.1,15.8,29.8,9.5c10.8-5.8,19-16.9,26.8-26c9.9-11.6,19.7-23.2,31.2-33.3c5.2-4.6,13.6-5.5,18.6,0
	c16.9,18.3,45.9-11.2,62.7-19.3c2.2-1.1,4.4-2,6.7-2.9C1071.7,1587.1,1067.1,1578.7,1063,1570.4z"/>
<path class="st0" d="M1205.1,696.2c-4.3-4.1-8.9-7.8-13-12.2c-2.7-2.8-1.6-2.4-4-3.4c-15.9-6.8-37.5-2.1-52.8,3.4
	c-15.4,5.6-29.6,14.1-38.5,28.3c-14.4,23.2-11.9,53.2-8.5,79.1c3.3,25.2,6.7,50.9,13.9,75.3c12.1,40.5,44.5,120.6,99.3,108.7
	c14-3.1,27.3-7,41.7-3.8c15.3,3.4,30.2,14.2,38.9,27.1c9.1,13.5,13.7,23,30.6,26.4c3.6,0.7,7.2,1.3,10.9,1.7
	c4-4.1,8.8-7.6,14.1-11.4c16.1-11.5,17.9-24.3,9.1-42.8c-0.8-1.8-1.6-3.6-2.4-5.4c-3.8-1.1-7.1-3.8-8.6-8.5
	c-25.6-77.6-89.5-137.6-109.5-217.2C1222.1,724.8,1218,708.6,1205.1,696.2z"/>
<path class="st1" d="M662.8,872.4c6.6-16.5,25.7-31.1,20.7-49.8c-4-15.1-7.3-30.4,1.9-44.5c7.2-11.1,18.1-12.1,27.7-19.4
	c8.8-6.6,8.4-23.2,2.5-31.8c-5.8-8.4-16.7-13.1-25.7-17c-23.6-10.2-44.1-19-61.7-38.7c-3.4-3.9-6.7-8-9.9-12
	c-2.2,3.1-4.4,6.3-6.5,9.8c-7-10.3-10.4-15.4-17-25.1c-9.7,14-15.2,29-26,36c-21.7,14.2-20.8,25.8-9.1,47.5c10,18.4,12.3,42.3,13,64
	c0.4,12-8.4,25.2-15.8,35.9c-1.2,1.8-16.4-5.9-29.2-10.8c-9.9,20.5-26.3,42.3-30.3,66.1c-3.7,22.4-18.2,20.6-30.8,25.7
	c-15.2,6.1-25,1.9-28.6-15.5c-1.9-8.9-6.8-17.2-11.8-29.2c-5.9,7.5-9,10.6-11.2,14.3c-10.6,18.7-16.7,38.5-20.6,58.9
	c21.5,3.5,42.8,8.9,63.4,15.6c27.6,9.1,53.1,20.9,73.1,42.6c7.5,8.1,13.8,17.3,21.1,25.6c2.8,3.2,7,9,11.7,9.2
	c10,0.5,21.4-14.5,27.5-20.6c5.2-5.3,10.5-9.6,16.7-13.6c4.6-3,11-5.8,14.3-10.4c7.5-10.8,0.2-27.5,7.3-39.5
	c5.3-8.9,15-20.7,25.2-24.3c2.8-1,5.4-1.3,7.7-1.1C659.8,904.2,656.3,888.8,662.8,872.4z"/>
<path class="st0" d="M1272.3,1031.8c-5.7-6.9-8.9-15.7-14.9-22.3c-16.2-18-33.6-11.3-53.9-7.7c-17.1,3-33.3,0.1-48.5-8.5
	c-26.5-15-45.1-42.5-58.4-69.2c-9.9-19.8-18.1-41-23.3-62.7c-7,0.9-13.9,1-21.1,0.4c-7.2-0.6-19.6-4.3-26.6-2
	c-5.6,1.8-9.9,9.8-14.1,13.6c-4.7,4.4-10.1,8-16.2,10.1c-31.1,10.9-66.7-4.4-97.3-10.3c-13-2.5-27.8-4.5-41-3.7
	c-11.8,0.7-19.1,7.8-26.2,16.8c-11.5,14.5-12,34.4-22.3,49.8c-9,13.5-23.8,21.4-33.4,34.3c13.3,15.1,6.7,33.8,12,52.2
	c6.9,24,26.1,28.7,48.7,29c24.5,0.3,48.8-1.8,72.8,4.4c6.7,1.7,9.5,7,9.4,12.3c51.5-18,107.4-45.7,162.1-31.2
	c25.3,6.7,46.5,21.6,63.6,41c15.6,17.7,28.2,38,46,53.7c24.2,21.4,53.7,33.7,84,44.6c1.6-7.6,3.2-15.3,4.7-22.9
	c2.3-11.2,2.8-22.9,6.9-33.4c8.4-21.8,25-42.5,26.3-64.4c0.1-1.4,0.2-2.7,0.4-4c-6-0.9-11.9-2.2-17.6-4.2
	C1285.7,1044.4,1278.4,1039.2,1272.3,1031.8z"/>
<path class="st0" d="M796.5,887.8c-9.7-11-13.7-22.6-13.3-37.3c0.3-11.9,3.8-26.1-7.1-34.5c-18.1-13.9-42.9-14.2-60.7-29.4
	c-17.4,8.9-5.6,25.7-4.4,40.6c1.5,18.6-10.8,32.3-19.8,47.2c-12.4,20.4-1.1,41.9-0.1,63.8c0.1,1.3-0.1,2.5-0.3,3.7
	c1.8,1.3,3.7,2.3,5.8,3c19,6.4,38.8,4.9,56.7,11.3c10.4-13.7,26.1-22.4,34.8-37.1c5.2-8.8,7.1-19.4,10.7-28.8c0-0.1,0.1-0.2,0.1-0.3
	C798.1,889.3,797.3,888.6,796.5,887.8z"/>
<path class="st0" d="M990.6,448.5c-10.9-8.5-25.3-12.7-37.8-18.1c-16.7-7.1-32.5-15.4-48.2-24.5c-15-8.7-27.3-13.2-44.5-7.6
	c-19,6.1-37.8,11.5-57.5,15.2c-16.9,3.2-33.5,2.2-49.2,10.1c-34.4,17.2-61.1,44.9-100.4,51.9c-20,3.6-36.9-1.6-53.7-8.5
	c-1.3,13.8,0.2,29-5.7,40.3c-15.8,29.7,6.5,51.6,19.7,66c17.9,19.5,18.2,38.6,16.5,58.9c5.9,6.7,11.3,13.9,17.2,20.5
	c9.5,10.6,20.1,19.2,33.1,25c11.1,5,22.8,8.7,33.6,14.5c25.7,13.9,39.4,40.6,28.9,69.3c-1.3,3.6-3,6.6-4.9,9.2
	c8,5.6,17.5,8.7,27.1,11.9c14.7-36.4,26.1-73.8,36-111.7c7.4-28.5,10.7-63.2,34.4-83.6c19.8-17.1,37.5-33,48.5-57.2
	c11.6-25.6,25.1-47.6,53-57.1c20.9-7.2,43.8-6.2,65.8-4.6C1000.8,460.7,997.4,453.8,990.6,448.5z"/>
<path class="st1" d="M1128.7,189.9c-1.6-2.4,0.8-7.4,0.8-11.2c0.1-7.1,2.7-16.7-0.8-21c-15.1-18-14.2-39.9-17.9-60.8
	c-0.7-3.7-2.6-7.7-5.1-10.6c-14.6-16.6-20.1-35.7-20.1-57.7c0-5.2-8.5-14.8-13.1-14.8c-27.4,0.3-54.8,2.1-82.1,4.9
	c-15,1.5-33.9,1.2-29.2,26.2c0.4,2-1.5,5.8-3.4,6.7c-27.7,14.1-50.7,41.9-87.6,29.9c-12.2-4-58.1,21-61.3,33.3
	c-7.6,29.6-16.7,59.1-20.4,89.3c-2.9,23.4-17.8,25.3-37,31.5c1.5-31.6-14.1-40.5-41.7-38.4c-13,1-22.7-9.6-24.8-23.9
	c-1.7-12.4-3.3-24.8-4.5-37.2c-1-10.5-4.8-14.6-16.9-16.4c-25.6-3.9-52.9-2.4-74-23.7c-11.1-11.2-24.7-7.4-32.8,7.1
	c-7.7,13.7-18.9,19.1-34.5,17.5c-7.1-0.7-14.6-0.2-21.7,1c-5.4,0.9-14.6,3.3-14.9,5.8c-0.6,5.7,2.4,12.3,5.5,17.7
	c3.1,5.5,11.7,10.2,11.5,14.8c-1,17.2,11.5,18,22.1,24.8c21.4,13.6,42.3,29.4,58.8,48.3c6.8,7.9,1.3,26.1,2.4,39.6
	c0.5,5.5,2.2,12.4,6,15.7c14.5,12.9,11.2,29.5,4.5,41.6c-14,25.3-6.4,49.6,3.4,70.6c7.5,16.1,20.1,28,7.9,43.1
	c5.1,2.1,10.3,4.1,15.6,5.5c20.9,5.7,43.7-3,61.7-13.3c17.7-10.1,33.5-23.2,51.4-33c17.2-9.4,33.7-11.3,52.7-13.5
	c19.9-2.4,40.8-7.8,59.5-14.7c16.4-6.1,33.5-7.3,50-0.8c17.7,7,33.4,18.5,50.6,26.6c14.1,6.6,28.9,11.8,42.9,18.8
	c22.8,11.4,33.9,29.7,36.6,52.2c13.9,1.4,29.6,1.6,37-6.2c6.7-7-4.5-20.6-5.9-29c-2.2-13.2,3.7-25.9,9.9-37.2
	c17.5-31.8,26.2-68,22.8-104.1c-2.5-26.2-1.1-48.7,19.7-67.7c8.1-7.4,17.3-13.5,26.8-19C1136.7,201.7,1132.7,195.9,1128.7,189.9z"/>
<path class="st1" d="M1051,493c-21,2-88.8-1.4-107.5,5.3c-26.9,9.7-32,38.6-45,60.7c-12.6,21.4-32.9,33.6-49.3,51
	c-7.9,8.3-10.7,19.6-13.6,30.4c-4.4,16.9-8.5,33.9-13,50.8c-9.3,34.6-20.2,68.5-33.8,101.7c2,1.3,4,2.7,5.8,4.2
	c9.9,8.4,14.6,20.2,15.5,32.9c0.9,12.1-3.8,26,3.1,36.6c8.1-9.7,17.8-18.2,30.2-21.5c12.3-3.3,25.2-1.4,37.6-0.4
	c17.1,1.5,33.5,5.2,50.2,9.1c15.8,3.7,33.6,9.1,49.9,6.2c15.4-2.7,20.9-19.8,35.4-24.9c16.3-5.8,34.6,1.6,51.8,0.3
	c-9.1-57.7-23.3-128.9,34.9-165.5c16.4-10.3,37-17,56.2-18.4c13.4-0.9,32.9-0.1,44.6,7.6c3.9,2.6,6.4,6.3,9.7,9.5
	c6.1,6.1,12.7,11,18,17.9c10.9,14.1,15.5,30.8,19.8,47.7c9.7,38.4,31.7,71.7,52.4,105c22.2,35.8,43.9,72,57.2,112.2
	c0.1,0.4,0.2,0.8,0.3,1.2c9.8,9.7,20.9,16.9,36.3,15.5c17.6-1.6,36.1-3,52.2-9.3c13.4-5.2,24.1-17.5,33.5-24.6
	c1.2-14.5,1.9-27.8,3.6-40.9c1.8-13.2,3.6-26.5,7.6-39c1.5-4.7,9.7-11.2,13.7-10.5c18.1,3.1,20.8-10.5,22.5-21.2
	c2.5-15.6,16.1-31.9,0.2-47.8c-0.5-0.5-1-1.1-1.6-1.2c-23.1-2.9-42.3-28-66.1-10.5c-16.7-16.2-12.6-28.8,0.3-42.3
	c5.2-5.4,6.7-14.7,8.8-22.6c2.5-9.6,3.6-19.5,5.8-29.1c1.7-7.5,4.6-14.8,6.2-22.3c1.6-7.8,2.2-15.8,3.2-23.8
	c1.6-13.3,8.4-28.7,3.8-39.3c-11.3-26.7-13-51.5-0.8-77.6c7.5-16,2-27.4-11.2-39c-9.5-8.4-20-21.3-20.8-32.8
	c-1.7-26.8,4.1-53.4-5.3-80.7c-6-17.2-20.1-32.3-36-22.6c-24.6,15-50.8,20.3-78.2,18.9c-13.7-0.7-31-3.8-39.5-12.8
	c-12.6-13.2-16.8-33.9-28.1-48.7c-12.5-16.4-27.8-31.3-44.2-43.9c-14.1-10.9-37-4.1-53.6,7.6c-6.1,4.3-18.5,2.4-26.8-0.2
	c-3.7-1.2-8.5-7-10.8-11c-6.1,4.5-11.5,9.7-15.1,16.3c-6,11.1-3.6,23.4-2.4,35.4c1.8,18.4,1.6,36.2-2.3,54.4
	c-3.7,17.3-9.9,34.6-16.8,50.8c-5,11.7-16.1,23.7-12.9,36.9c3.3,13.6,11.8,23.2,5.2,37.5c-3.5,7.5-8.7,14.6-16.5,17.7"/>
<path class="st0" d="M765.4,1039.5c-4.9-11.6-6.7-23.5-6.8-36.1c0-8.6,0.6-13.1-6.8-18.7c-22.1-16.4-54.3-5.4-77.1-21.5
	c-1.2-0.9-9.9-8.2-14.6-13.3c-0.8,0.8-1.5,1.5-1.5,1.6c-5.2,5.8-7,8.8-7.2,16.4c-0.4,14.8-1.5,27.6-12.8,38.3
	c-10,9.4-22.1,15.2-31.8,25c-14.4,14.5-35,31.9-56.6,21.6c-16.3-7.8-25.8-26.3-37.6-39.1c-17.8-19.4-40.3-29.1-65-37
	c-18.5-5.9-37.6-10.8-56.9-14c-1.3,10.1-2.3,20.3-3.4,30.4c-1.9,18.1-3.2,36.3-4.7,54.4c-1.2,15.3-2.1,30.6-3.4,45.9
	c-1.4,16.8-4.5,33.6-4.2,50.3c0.3,15.4,7.6,31.2,5.7,46c-4.8,37.1,2.6,72.4,9.6,108c2.6,13.4,4.6,27,7.5,40.3
	c2.1,9.3,5.9,18.3,8,27.6c4.1,18.1,10.2,36.2,10.6,54.5c0.8,37.3-1.8,74.6-2.4,111.9c-0.1,4.2,3.9,8.3,5.2,12.7
	c0.6,2.1,1.3,4.2,1.9,6.3c0.6-0.3,1.2-0.5,1.9-0.8c8.2-3.6,17.3-5.9,22.1-13.7c8.5-14,22.2-23.6,38.4-14.4c8.1,4.6,6.1,5.3,15.5,3.3
	c7.2-1.6,14.3-3.4,21.4-5.3c-22.5-42.6-32.9-91.9-28.4-140.1c1.2-12.3,3.9-24.8,13.5-33.4c7.9-7.1,18.6-9.1,28.2-13.1
	c13.2-5.4,27.5-15,34.4-27.9c6.7-12.6,5.4-27.6,7.8-41.3c6.1-35.7,39.1-53.7,72.8-56c34.9-2.4,75.8,2.9,106.9,20.4
	c2.6-22.6,15-44.4,24.9-64.2c22.5-45,62.5-69.1,107.2-85.8C842.9,1074.1,786.8,1090.1,765.4,1039.5z"/>
<path class="st1" d="M1255.7,1279c1.9-6.1,1.7-12.8,2.8-19.1c2.5-15.4,4.9-30.8,7.8-46.1c0.8-4.2,1.6-8.3,2.5-12.5
	c-32.2-11.6-63.9-23.9-91.3-45.6c-33.5-26.5-50.6-72.1-91.7-89c-51.3-21.1-107,9.5-155.4,25.6c-47.4,15.8-95.2,30.5-122.4,76.1
	c-10.6,17.8-21.4,38.7-25.8,59c-4.5,21,7.9,27.4,27.1,30.4c7.3,1.1,10.6,9.9,9.2,16.2c-4,17.5-12.4,32-21.9,46.9
	c-1.6,2.4-3.1,4.9-4.4,7.4c-0.1,0.3,0,1.2-0.1,1.5c2,3,7.6,6.5,11.7,8.8c21.3,12.2,44.3,19.1,68,24.9c20.6,5,45.4,8.6,62.6,21.8
	c16.7,12.8,26.4,31.6,35.7,49.9c9.9,19.4,19.1,34.3,38.3,45.6c14.9,8.7,31.2,14.9,44.6,26c15.7,13,23.1,31.1,31.9,48.9
	c4.9,9.9,10.2,22.5,20.7,27.7c1.2,0.6,2.4,1.1,3.6,1.5c3-18.1,6.4-36.2,7.4-54.5c1.7-29.3,15.7-49.3,39.3-68.2
	c6.2,16,10.8,29.6,16.9,42.4c2,4.1,10.7,9.7,11.7,8.9c11-9.1,27.1-13.6,25.3-33.8c-2.1-22.3,19.1-46.2,40.8-49.8
	c15.1-2.5,17.1-9.9,10.2-23.3c-9.7-18.8-17.2-38.7-25-58.3c-1.3-3.3-0.5-7.9,0.7-11.5C1242.8,1317.5,1249.7,1298.4,1255.7,1279z"/>
<g>
	<path class="st2" d="M1197.6,528.4l-14.1,33h-9.2l-14.1-33h10.1l8.9,21.5l9.1-21.5H1197.6z"/>
	<path class="st2" d="M1197.2,528.4h9.3v33h-9.3V528.4z"/>
	<path class="st2" d="M1209.1,544.9c0-10,7.7-17.1,18.1-17.1c6.1,0,11,2.2,14.2,6.2l-5.9,5.4c-2.1-2.5-4.6-3.9-7.8-3.9
		c-5.4,0-9.2,3.8-9.2,9.4s3.8,9.4,9.2,9.4c3.2,0,5.7-1.4,7.8-3.9l5.9,5.4c-3.2,4-8.1,6.2-14.2,6.2
		C1216.8,562,1209.1,554.9,1209.1,544.9z"/>
	<path class="st2" d="M1242.5,546.7v-18.3h9.3v18c0,5.7,2.4,7.9,6.3,7.9c3.9,0,6.2-2.3,6.2-7.9v-18h9.2v18.3
		c0,9.8-5.7,15.4-15.5,15.4C1248.3,562,1242.5,556.5,1242.5,546.7z"/>
	<path class="st2" d="M1308.9,528.4v33h-7.7l-14.6-17.6v17.6h-9.1v-33h7.7l14.6,17.6v-17.6H1308.9z M1287.9,525.6h-4.4
		c0.1-4.6,2.4-7.5,6-7.5c3.3,0,5.1,2.9,6.8,2.9c1.3,0,2.1-0.9,2.2-2.4h4.4c-0.1,4.4-2.4,7.4-6,7.4c-3.3,0-5.1-2.9-6.8-2.9
		C1288.8,523.1,1288,524.1,1287.9,525.6z"/>
	<path class="st2" d="M1335.2,555h-13.9l-2.6,6.4h-9.5l14.6-33h9.2l14.6,33h-9.7L1335.2,555z M1332.5,548.1l-4.2-10.6l-4.2,10.6
		H1332.5z"/>
</g>
<g>
	<path class="st3" d="M1197.6,528.4l-14.1,33h-9.2l-14.1-33h10.1l8.9,21.5l9.1-21.5H1197.6z"/>
	<path class="st3" d="M1197.2,528.4h9.3v33h-9.3V528.4z"/>
	<path class="st3" d="M1209.1,544.9c0-10,7.7-17.1,18.1-17.1c6.1,0,11,2.2,14.2,6.2l-5.9,5.4c-2.1-2.5-4.6-3.9-7.8-3.9
		c-5.4,0-9.2,3.8-9.2,9.4s3.8,9.4,9.2,9.4c3.2,0,5.7-1.4,7.8-3.9l5.9,5.4c-3.2,4-8.1,6.2-14.2,6.2
		C1216.8,562,1209.1,554.9,1209.1,544.9z"/>
	<path class="st3" d="M1242.5,546.7v-18.3h9.3v18c0,5.7,2.4,7.9,6.3,7.9c3.9,0,6.2-2.3,6.2-7.9v-18h9.2v18.3
		c0,9.8-5.7,15.4-15.5,15.4C1248.3,562,1242.5,556.5,1242.5,546.7z"/>
	<path class="st3" d="M1308.9,528.4v33h-7.7l-14.6-17.6v17.6h-9.1v-33h7.7l14.6,17.6v-17.6H1308.9z M1287.9,525.6h-4.4
		c0.1-4.6,2.4-7.5,6-7.5c3.3,0,5.1,2.9,6.8,2.9c1.3,0,2.1-0.9,2.2-2.4h4.4c-0.1,4.4-2.4,7.4-6,7.4c-3.3,0-5.1-2.9-6.8-2.9
		C1288.8,523.1,1288,524.1,1287.9,525.6z"/>
	<path class="st3" d="M1335.2,555h-13.9l-2.6,6.4h-9.5l14.6-33h9.2l14.6,33h-9.7L1335.2,555z M1332.5,548.1l-4.2-10.6l-4.2,10.6
		H1332.5z"/>
</g>
<g>
	<path class="st2" d="M866.7,1003.2h-5.1v8.8h-9.3v-33h15.1c9,0,14.6,4.7,14.6,12.2c0,4.9-2.4,8.4-6.5,10.4l7.1,10.4h-10
		L866.7,1003.2z M866.8,986.3h-5.2v9.7h5.2c3.9,0,5.8-1.8,5.8-4.8C872.6,988.1,870.7,986.3,866.8,986.3z"/>
	<path class="st2" d="M884.8,979h9.3v33h-9.3V979z"/>
	<path class="st2" d="M896.7,995.5c0-9.9,7.8-17.1,18.3-17.1c10.6,0,18.3,7.3,18.3,17.1s-7.8,17.1-18.3,17.1
		C904.5,1012.6,896.7,1005.4,896.7,995.5z M923.9,995.5c0-5.7-3.9-9.4-8.9-9.4s-8.9,3.7-8.9,9.4s3.9,9.4,8.9,9.4
		S923.9,1001.2,923.9,995.5z"/>
	<path class="st2" d="M978.6,979v33h-9.3v-12.9h-12.7v12.9h-9.3v-33h9.3v12.4h12.7V979H978.6z"/>
	<path class="st2" d="M982.6,997.3V979h9.3v18c0,5.7,2.4,7.9,6.3,7.9c3.9,0,6.2-2.3,6.2-7.9v-18h9.2v18.3c0,9.8-5.7,15.4-15.5,15.4
		C988.3,1012.6,982.6,1007.1,982.6,997.3z"/>
	<path class="st2" d="M1032,1003.2h-5.1v8.8h-9.3v-33h15.1c9,0,14.6,4.7,14.6,12.2c0,4.9-2.4,8.4-6.5,10.4l7.1,10.4h-10L1032,1003.2
		z M1032,986.3h-5.2v9.7h5.2c3.9,0,5.8-1.8,5.8-4.8C1037.8,988.1,1035.9,986.3,1032,986.3z"/>
	<path class="st2" d="M1056.6,986.4h-10.1V979h29.5v7.4h-10.1v25.6h-9.3V986.4z"/>
	<path class="st2" d="M1097.6,1005.6h-13.9l-2.6,6.4h-9.5l14.6-33h9.2l14.6,33h-9.7L1097.6,1005.6z M1094.8,998.7l-4.2-10.6
		l-4.2,10.6H1094.8z"/>
	<path class="st2" d="M1110.2,979h15.6c10.9,0,18.4,6.4,18.4,16.5s-7.5,16.5-18.4,16.5h-15.6V979z M1125.4,1004.5
		c5.6,0,9.4-3.3,9.4-9s-3.8-9-9.4-9h-5.9v18.1H1125.4z"/>
	<path class="st2" d="M1145,995.5c0-9.9,7.8-17.1,18.3-17.1c10.6,0,18.3,7.3,18.3,17.1s-7.8,17.1-18.3,17.1
		C1152.8,1012.6,1145,1005.4,1145,995.5z M1172.2,995.5c0-5.7-3.9-9.4-8.9-9.4s-8.9,3.7-8.9,9.4s3.9,9.4,8.9,9.4
		S1172.2,1001.2,1172.2,995.5z"/>
</g>
<g>
	<path class="st3" d="M866.7,1003.2h-5.1v8.8h-9.3v-33h15.1c9,0,14.6,4.7,14.6,12.2c0,4.9-2.4,8.4-6.5,10.4l7.1,10.4h-10
		L866.7,1003.2z M866.8,986.3h-5.2v9.7h5.2c3.9,0,5.8-1.8,5.8-4.8C872.6,988.1,870.7,986.3,866.8,986.3z"/>
	<path class="st3" d="M884.8,979h9.3v33h-9.3V979z"/>
	<path class="st3" d="M896.7,995.5c0-9.9,7.8-17.1,18.3-17.1c10.6,0,18.3,7.3,18.3,17.1s-7.8,17.1-18.3,17.1
		C904.5,1012.6,896.7,1005.4,896.7,995.5z M923.9,995.5c0-5.7-3.9-9.4-8.9-9.4s-8.9,3.7-8.9,9.4s3.9,9.4,8.9,9.4
		S923.9,1001.2,923.9,995.5z"/>
	<path class="st3" d="M978.6,979v33h-9.3v-12.9h-12.7v12.9h-9.3v-33h9.3v12.4h12.7V979H978.6z"/>
	<path class="st3" d="M982.6,997.3V979h9.3v18c0,5.7,2.4,7.9,6.3,7.9c3.9,0,6.2-2.3,6.2-7.9v-18h9.2v18.3c0,9.8-5.7,15.4-15.5,15.4
		C988.3,1012.6,982.6,1007.1,982.6,997.3z"/>
	<path class="st3" d="M1032,1003.2h-5.1v8.8h-9.3v-33h15.1c9,0,14.6,4.7,14.6,12.2c0,4.9-2.4,8.4-6.5,10.4l7.1,10.4h-10L1032,1003.2
		z M1032,986.3h-5.2v9.7h5.2c3.9,0,5.8-1.8,5.8-4.8C1037.8,988.1,1035.9,986.3,1032,986.3z"/>
	<path class="st3" d="M1056.6,986.4h-10.1V979h29.5v7.4h-10.1v25.6h-9.3V986.4z"/>
	<path class="st3" d="M1097.6,1005.6h-13.9l-2.6,6.4h-9.5l14.6-33h9.2l14.6,33h-9.7L1097.6,1005.6z M1094.8,998.7l-4.2-10.6
		l-4.2,10.6H1094.8z"/>
	<path class="st3" d="M1110.2,979h15.6c10.9,0,18.4,6.4,18.4,16.5s-7.5,16.5-18.4,16.5h-15.6V979z M1125.4,1004.5
		c5.6,0,9.4-3.3,9.4-9s-3.8-9-9.4-9h-5.9v18.1H1125.4z"/>
	<path class="st3" d="M1145,995.5c0-9.9,7.8-17.1,18.3-17.1c10.6,0,18.3,7.3,18.3,17.1s-7.8,17.1-18.3,17.1
		C1152.8,1012.6,1145,1005.4,1145,995.5z M1172.2,995.5c0-5.7-3.9-9.4-8.9-9.4s-8.9,3.7-8.9,9.4s3.9,9.4,8.9,9.4
		S1172.2,1001.2,1172.2,995.5z"/>
</g>
<g>
	<path class="st2" d="M953.1,1269l-0.1-17.5l-8.5,14.2h-4.1l-8.4-13.8v17h-8.6v-33h7.7l11.6,19l11.3-19h7.7l0.1,33H953.1z"/>
	<path class="st2" d="M964.2,1252.5c0-9.9,7.8-17.1,18.3-17.1c10.6,0,18.3,7.3,18.3,17.1s-7.8,17.1-18.3,17.1
		C972,1269.6,964.2,1262.4,964.2,1252.5z M991.4,1252.5c0-5.7-3.9-9.4-8.9-9.4s-8.9,3.7-8.9,9.4s3.9,9.4,8.9,9.4
		S991.4,1258.2,991.4,1252.5z"/>
	<path class="st2" d="M1034.7,1236v33h-7.7l-14.6-17.6v17.6h-9.1v-33h7.7l14.6,17.6V1236H1034.7z"/>
	<path class="st2" d="M1046,1243.4h-10.1v-7.4h29.5v7.4h-10.1v25.6h-9.3V1243.4z"/>
	<path class="st2" d="M1093,1261.7v7.2h-26.5v-33h25.9v7.2h-16.6v5.6h14.6v7h-14.6v6H1093z"/>
	<path class="st2" d="M1136.9,1248.2c0,7.5-5.7,12.2-14.6,12.2h-5.7v8.6h-9.3v-33h15.1C1131.3,1236,1136.9,1240.6,1136.9,1248.2z
		 M1127.5,1248.2c0-3.1-1.9-4.9-5.8-4.9h-5.2v9.7h5.2C1125.6,1253,1127.5,1251.2,1127.5,1248.2z"/>
	<path class="st2" d="M1159.5,1262.6h-13.9l-2.6,6.4h-9.5l14.6-33h9.2l14.6,33h-9.7L1159.5,1262.6z M1156.8,1255.7l-4.2-10.6
		l-4.2,10.6H1156.8z"/>
	<path class="st2" d="M1177.5,1243.4h-10.1v-7.4h29.5v7.4h-10.1v25.6h-9.3V1243.4z"/>
	<path class="st2" d="M1212.4,1260.2h-5.1v8.8h-9.3v-33h15.1c9,0,14.6,4.7,14.6,12.2c0,4.9-2.4,8.4-6.5,10.4l7.1,10.4h-10
		L1212.4,1260.2z M1212.5,1243.3h-5.2v9.7h5.2c3.9,0,5.8-1.8,5.8-4.8C1218.3,1245.1,1216.4,1243.3,1212.5,1243.3z"/>
	<path class="st2" d="M1230.5,1236h9.3v33h-9.3V1236z"/>
	<path class="st2" d="M1266.2,1262.6h-13.9l-2.6,6.4h-9.5l14.6-33h9.2l14.6,33h-9.7L1266.2,1262.6z M1263.5,1255.7l-4.2-10.6
		l-4.2,10.6H1263.5z"/>
</g>
<g>
	<path class="st3" d="M953.1,1269l-0.1-17.5l-8.5,14.2h-4.1l-8.4-13.8v17h-8.6v-33h7.7l11.6,19l11.3-19h7.7l0.1,33H953.1z"/>
	<path class="st3" d="M964.2,1252.5c0-9.9,7.8-17.1,18.3-17.1c10.6,0,18.3,7.3,18.3,17.1s-7.8,17.1-18.3,17.1
		C972,1269.6,964.2,1262.4,964.2,1252.5z M991.4,1252.5c0-5.7-3.9-9.4-8.9-9.4s-8.9,3.7-8.9,9.4s3.9,9.4,8.9,9.4
		S991.4,1258.2,991.4,1252.5z"/>
	<path class="st3" d="M1034.7,1236v33h-7.7l-14.6-17.6v17.6h-9.1v-33h7.7l14.6,17.6V1236H1034.7z"/>
	<path class="st3" d="M1046,1243.4h-10.1v-7.4h29.5v7.4h-10.1v25.6h-9.3V1243.4z"/>
	<path class="st3" d="M1093,1261.7v7.2h-26.5v-33h25.9v7.2h-16.6v5.6h14.6v7h-14.6v6H1093z"/>
	<path class="st3" d="M1136.9,1248.2c0,7.5-5.7,12.2-14.6,12.2h-5.7v8.6h-9.3v-33h15.1C1131.3,1236,1136.9,1240.6,1136.9,1248.2z
		 M1127.5,1248.2c0-3.1-1.9-4.9-5.8-4.9h-5.2v9.7h5.2C1125.6,1253,1127.5,1251.2,1127.5,1248.2z"/>
	<path class="st3" d="M1159.5,1262.6h-13.9l-2.6,6.4h-9.5l14.6-33h9.2l14.6,33h-9.7L1159.5,1262.6z M1156.8,1255.7l-4.2-10.6
		l-4.2,10.6H1156.8z"/>
	<path class="st3" d="M1177.5,1243.4h-10.1v-7.4h29.5v7.4h-10.1v25.6h-9.3V1243.4z"/>
	<path class="st3" d="M1212.4,1260.2h-5.1v8.8h-9.3v-33h15.1c9,0,14.6,4.7,14.6,12.2c0,4.9-2.4,8.4-6.5,10.4l7.1,10.4h-10
		L1212.4,1260.2z M1212.5,1243.3h-5.2v9.7h5.2c3.9,0,5.8-1.8,5.8-4.8C1218.3,1245.1,1216.4,1243.3,1212.5,1243.3z"/>
	<path class="st3" d="M1230.5,1236h9.3v33h-9.3V1236z"/>
	<path class="st3" d="M1266.2,1262.6h-13.9l-2.6,6.4h-9.5l14.6-33h9.2l14.6,33h-9.7L1266.2,1262.6z M1263.5,1255.7l-4.2-10.6
		l-4.2,10.6H1263.5z"/>
</g>
<g>
	<path class="st2" d="M783.6,1517.5c0-10,7.7-17.1,18.1-17.1c6.1,0,11,2.2,14.2,6.2l-5.9,5.4c-2.1-2.5-4.6-3.9-7.8-3.9
		c-5.4,0-9.2,3.8-9.2,9.4s3.8,9.4,9.2,9.4c3.2,0,5.7-1.4,7.8-3.9l5.9,5.4c-3.2,4-8.1,6.2-14.2,6.2
		C791.3,1534.6,783.6,1527.5,783.6,1517.5z"/>
	<path class="st2" d="M815.3,1517.5c0-9.9,7.8-17.1,18.3-17.1c10.6,0,18.3,7.3,18.3,17.1s-7.8,17.1-18.3,17.1
		C823.1,1534.6,815.3,1527.4,815.3,1517.5z M842.5,1517.5c0-5.7-3.9-9.4-8.9-9.4s-8.9,3.7-8.9,9.4c0,5.7,3.9,9.4,8.9,9.4
		S842.5,1523.2,842.5,1517.5z"/>
	<path class="st2" d="M884.3,1534l-0.1-17.5l-8.5,14.2h-4.1l-8.4-13.8v17h-8.6v-33h7.7l11.6,19l11.3-19h7.7l0.1,33H884.3z"/>
	<path class="st2" d="M928.4,1524.9c0,5.7-4.7,9-13.6,9h-17.8v-33h16.9c8.7,0,12.9,3.5,12.9,8.6c0,3.2-1.6,5.7-4.4,7.2
		C926.1,1518.1,928.4,1520.9,928.4,1524.9z M906.3,1507.7v6.4h6.4c3.1,0,4.7-1.1,4.7-3.2c0-2.1-1.6-3.2-4.7-3.2H906.3z M919,1523.9
		c0-2.3-1.7-3.3-4.9-3.3h-7.8v6.7h7.8C917.3,1527.2,919,1526.1,919,1523.9z"/>
	<path class="st2" d="M953,1527.5h-13.9l-2.6,6.4H927l14.6-33h9.2l14.6,33h-9.7L953,1527.5z M950.3,1520.7l-4.2-10.6l-4.2,10.6
		H950.3z"/>
	<path class="st2" d="M980,1525.2h-5.1v8.8h-9.3v-33h15.1c9,0,14.6,4.7,14.6,12.2c0,4.9-2.4,8.4-6.5,10.4l7.1,10.4h-10L980,1525.2z
		 M980.1,1508.3h-5.2v9.7h5.2c3.9,0,5.8-1.8,5.8-4.8C985.9,1510.1,984,1508.3,980.1,1508.3z"/>
	<path class="st2" d="M1029.5,1524.9c0,5.7-4.7,9-13.6,9h-17.8v-33h16.9c8.7,0,12.9,3.5,12.9,8.6c0,3.2-1.6,5.7-4.4,7.2
		C1027.2,1518.1,1029.5,1520.9,1029.5,1524.9z M1007.4,1507.7v6.4h6.4c3.1,0,4.7-1.1,4.7-3.2c0-2.1-1.6-3.2-4.7-3.2H1007.4z
		 M1020.1,1523.9c0-2.3-1.7-3.3-4.9-3.3h-7.8v6.7h7.8C1018.4,1527.2,1020.1,1526.1,1020.1,1523.9z"/>
	<path class="st2" d="M1054.1,1527.5h-13.9l-2.6,6.4h-9.5l14.6-33h9.2l14.6,33h-9.7L1054.1,1527.5z M1051.3,1520.7l-4.2-10.6
		l-4.2,10.6H1051.3z"/>
	<path class="st2" d="M1066.7,1501h9.3v25.6h15.7v7.4h-25.1V1501z"/>
	<path class="st2" d="M1115.5,1527.5h-13.9l-2.6,6.4h-9.5l14.6-33h9.2l14.6,33h-9.7L1115.5,1527.5z M1112.8,1520.7l-4.2-10.6
		l-4.2,10.6H1112.8z"/>
</g>
<g>
	<path class="st3" d="M783.6,1517.5c0-10,7.7-17.1,18.1-17.1c6.1,0,11,2.2,14.2,6.2l-5.9,5.4c-2.1-2.5-4.6-3.9-7.8-3.9
		c-5.4,0-9.2,3.8-9.2,9.4s3.8,9.4,9.2,9.4c3.2,0,5.7-1.4,7.8-3.9l5.9,5.4c-3.2,4-8.1,6.2-14.2,6.2
		C791.3,1534.6,783.6,1527.5,783.6,1517.5z"/>
	<path class="st3" d="M815.3,1517.5c0-9.9,7.8-17.1,18.3-17.1c10.6,0,18.3,7.3,18.3,17.1s-7.8,17.1-18.3,17.1
		C823.1,1534.6,815.3,1527.4,815.3,1517.5z M842.5,1517.5c0-5.7-3.9-9.4-8.9-9.4s-8.9,3.7-8.9,9.4c0,5.7,3.9,9.4,8.9,9.4
		S842.5,1523.2,842.5,1517.5z"/>
	<path class="st3" d="M884.3,1534l-0.1-17.5l-8.5,14.2h-4.1l-8.4-13.8v17h-8.6v-33h7.7l11.6,19l11.3-19h7.7l0.1,33H884.3z"/>
	<path class="st3" d="M928.4,1524.9c0,5.7-4.7,9-13.6,9h-17.8v-33h16.9c8.7,0,12.9,3.5,12.9,8.6c0,3.2-1.6,5.7-4.4,7.2
		C926.1,1518.1,928.4,1520.9,928.4,1524.9z M906.3,1507.7v6.4h6.4c3.1,0,4.7-1.1,4.7-3.2c0-2.1-1.6-3.2-4.7-3.2H906.3z M919,1523.9
		c0-2.3-1.7-3.3-4.9-3.3h-7.8v6.7h7.8C917.3,1527.2,919,1526.1,919,1523.9z"/>
	<path class="st3" d="M953,1527.5h-13.9l-2.6,6.4H927l14.6-33h9.2l14.6,33h-9.7L953,1527.5z M950.3,1520.7l-4.2-10.6l-4.2,10.6
		H950.3z"/>
	<path class="st3" d="M980,1525.2h-5.1v8.8h-9.3v-33h15.1c9,0,14.6,4.7,14.6,12.2c0,4.9-2.4,8.4-6.5,10.4l7.1,10.4h-10L980,1525.2z
		 M980.1,1508.3h-5.2v9.7h5.2c3.9,0,5.8-1.8,5.8-4.8C985.9,1510.1,984,1508.3,980.1,1508.3z"/>
	<path class="st3" d="M1029.5,1524.9c0,5.7-4.7,9-13.6,9h-17.8v-33h16.9c8.7,0,12.9,3.5,12.9,8.6c0,3.2-1.6,5.7-4.4,7.2
		C1027.2,1518.1,1029.5,1520.9,1029.5,1524.9z M1007.4,1507.7v6.4h6.4c3.1,0,4.7-1.1,4.7-3.2c0-2.1-1.6-3.2-4.7-3.2H1007.4z
		 M1020.1,1523.9c0-2.3-1.7-3.3-4.9-3.3h-7.8v6.7h7.8C1018.4,1527.2,1020.1,1526.1,1020.1,1523.9z"/>
	<path class="st3" d="M1054.1,1527.5h-13.9l-2.6,6.4h-9.5l14.6-33h9.2l14.6,33h-9.7L1054.1,1527.5z M1051.3,1520.7l-4.2-10.6
		l-4.2,10.6H1051.3z"/>
	<path class="st3" d="M1066.7,1501h9.3v25.6h15.7v7.4h-25.1V1501z"/>
	<path class="st3" d="M1115.5,1527.5h-13.9l-2.6,6.4h-9.5l14.6-33h9.2l14.6,33h-9.7L1115.5,1527.5z M1112.8,1520.7l-4.2-10.6
		l-4.2,10.6H1112.8z"/>
</g>
<g>
	<path class="st2" d="M813.3,1736h9.3v33h-9.3V1736z"/>
	<path class="st2" d="M826.9,1736h9.3v25.6H852v7.4h-25.1V1736z"/>
	<path class="st2" d="M853.3,1736h9.3v25.6h15.7v7.4h-25.1V1736z"/>
	<path class="st2" d="M902.1,1762.5h-13.9l-2.6,6.4h-9.5l14.6-33h9.2l14.6,33h-9.7L902.1,1762.5z M899.4,1755.7l-4.2-10.6l-4.2,10.6
		H899.4z"/>
	<path class="st2" d="M944.4,1748.2c0,7.5-5.7,12.2-14.6,12.2H924v8.6h-9.3v-33h15.1C938.8,1736,944.4,1740.6,944.4,1748.2z
		 M935,1748.2c0-3.1-1.9-4.9-5.8-4.9H924v9.7h5.2C933.1,1753,935,1751.2,935,1748.2z"/>
	<path class="st2" d="M973.1,1761.7v7.2h-26.5v-33h25.9v7.2h-16.6v5.6h14.6v7h-14.6v6H973.1z"/>
	<path class="st2" d="M975.9,1736h9.3v25.6h15.7v7.4h-25.1V1736z"/>
</g>
<g>
	<path class="st3" d="M813.3,1736h9.3v33h-9.3V1736z"/>
	<path class="st3" d="M826.9,1736h9.3v25.6H852v7.4h-25.1V1736z"/>
	<path class="st3" d="M853.3,1736h9.3v25.6h15.7v7.4h-25.1V1736z"/>
	<path class="st3" d="M902.1,1762.5h-13.9l-2.6,6.4h-9.5l14.6-33h9.2l14.6,33h-9.7L902.1,1762.5z M899.4,1755.7l-4.2-10.6l-4.2,10.6
		H899.4z"/>
	<path class="st3" d="M944.4,1748.2c0,7.5-5.7,12.2-14.6,12.2H924v8.6h-9.3v-33h15.1C938.8,1736,944.4,1740.6,944.4,1748.2z
		 M935,1748.2c0-3.1-1.9-4.9-5.8-4.9H924v9.7h5.2C933.1,1753,935,1751.2,935,1748.2z"/>
	<path class="st3" d="M973.1,1761.7v7.2h-26.5v-33h25.9v7.2h-16.6v5.6h14.6v7h-14.6v6H973.1z"/>
	<path class="st3" d="M975.9,1736h9.3v25.6h15.7v7.4h-25.1V1736z"/>
</g>
<g>
	<path class="st2" d="M927,2003l3.1-6.9c2.9,1.9,7.1,3.3,10.9,3.3c3.9,0,5.4-1.1,5.4-2.7c0-5.2-18.7-1.4-18.7-13.7
		c0-5.9,4.8-10.7,14.6-10.7c4.3,0,8.7,1,12,2.9l-2.9,6.9c-3.2-1.7-6.3-2.5-9.1-2.5c-3.9,0-5.3,1.3-5.3,3c0,5,18.7,1.3,18.7,13.4
		c0,5.7-4.8,10.6-14.6,10.6C935.5,2006.6,930.1,2005.2,927,2003z"/>
	<path class="st2" d="M979.5,1999.5h-13.9l-2.6,6.4h-9.5l14.6-33h9.2l14.6,33h-9.7L979.5,1999.5z M976.8,1992.7l-4.2-10.6l-4.2,10.6
		H976.8z"/>
	<path class="st2" d="M992.1,1973h9.3v25.6h15.7v7.4h-25.1V1973z"/>
	<path class="st2" d="M1040.9,1999.5H1027l-2.6,6.4h-9.5l14.6-33h9.2l14.6,33h-9.7L1040.9,1999.5z M1038.2,1992.7l-4.2-10.6
		l-4.2,10.6H1038.2z"/>
	<path class="st2" d="M1083.3,2006l-0.1-17.5l-8.5,14.2h-4.1l-8.4-13.8v17h-8.6v-33h7.7l11.6,19l11.3-19h7.7l0.1,33H1083.3z"/>
	<path class="st2" d="M1118.2,1999.5h-13.9l-2.6,6.4h-9.5l14.6-33h9.2l14.6,33h-9.7L1118.2,1999.5z M1115.5,1992.7l-4.2-10.6
		l-4.2,10.6H1115.5z"/>
	<path class="st2" d="M1162.1,1973v33h-7.7l-14.6-17.6v17.6h-9.1v-33h7.7l14.6,17.6V1973H1162.1z"/>
	<path class="st2" d="M1164.7,1989.5c0-10,7.7-17.1,18.1-17.1c6.1,0,11,2.2,14.2,6.2l-5.9,5.4c-2.1-2.5-4.6-3.9-7.8-3.9
		c-5.4,0-9.2,3.8-9.2,9.4s3.8,9.4,9.2,9.4c3.2,0,5.7-1.4,7.8-3.9l5.9,5.4c-3.2,4-8.1,6.2-14.2,6.2
		C1172.4,2006.6,1164.7,1999.5,1164.7,1989.5z"/>
	<path class="st2" d="M1220.3,1999.5h-13.9l-2.6,6.4h-9.5l14.6-33h9.2l14.6,33h-9.7L1220.3,1999.5z M1217.6,1992.7l-4.2-10.6
		l-4.2,10.6H1217.6z"/>
</g>
<g>
	<path class="st3" d="M927,2003l3.1-6.9c2.9,1.9,7.1,3.3,10.9,3.3c3.9,0,5.4-1.1,5.4-2.7c0-5.2-18.7-1.4-18.7-13.7
		c0-5.9,4.8-10.7,14.6-10.7c4.3,0,8.7,1,12,2.9l-2.9,6.9c-3.2-1.7-6.3-2.5-9.1-2.5c-3.9,0-5.3,1.3-5.3,3c0,5,18.7,1.3,18.7,13.4
		c0,5.7-4.8,10.6-14.6,10.6C935.5,2006.6,930.1,2005.2,927,2003z"/>
	<path class="st3" d="M979.5,1999.5h-13.9l-2.6,6.4h-9.5l14.6-33h9.2l14.6,33h-9.7L979.5,1999.5z M976.8,1992.7l-4.2-10.6l-4.2,10.6
		H976.8z"/>
	<path class="st3" d="M992.1,1973h9.3v25.6h15.7v7.4h-25.1V1973z"/>
	<path class="st3" d="M1040.9,1999.5H1027l-2.6,6.4h-9.5l14.6-33h9.2l14.6,33h-9.7L1040.9,1999.5z M1038.2,1992.7l-4.2-10.6
		l-4.2,10.6H1038.2z"/>
	<path class="st3" d="M1083.3,2006l-0.1-17.5l-8.5,14.2h-4.1l-8.4-13.8v17h-8.6v-33h7.7l11.6,19l11.3-19h7.7l0.1,33H1083.3z"/>
	<path class="st3" d="M1118.2,1999.5h-13.9l-2.6,6.4h-9.5l14.6-33h9.2l14.6,33h-9.7L1118.2,1999.5z M1115.5,1992.7l-4.2-10.6
		l-4.2,10.6H1115.5z"/>
	<path class="st3" d="M1162.1,1973v33h-7.7l-14.6-17.6v17.6h-9.1v-33h7.7l14.6,17.6V1973H1162.1z"/>
	<path class="st3" d="M1164.7,1989.5c0-10,7.7-17.1,18.1-17.1c6.1,0,11,2.2,14.2,6.2l-5.9,5.4c-2.1-2.5-4.6-3.9-7.8-3.9
		c-5.4,0-9.2,3.8-9.2,9.4s3.8,9.4,9.2,9.4c3.2,0,5.7-1.4,7.8-3.9l5.9,5.4c-3.2,4-8.1,6.2-14.2,6.2
		C1172.4,2006.6,1164.7,1999.5,1164.7,1989.5z"/>
	<path class="st3" d="M1220.3,1999.5h-13.9l-2.6,6.4h-9.5l14.6-33h9.2l14.6,33h-9.7L1220.3,1999.5z M1217.6,1992.7l-4.2-10.6
		l-4.2,10.6H1217.6z"/>
</g>
<g>
	<path class="st2" d="M519.3,2091h9.3v25.6h15.7v7.4h-25.1V2091z"/>
	<path class="st2" d="M543.5,2107.5c0-9.9,7.8-17.1,18.3-17.1c10.6,0,18.3,7.3,18.3,17.1s-7.8,17.1-18.3,17.1
		C551.2,2124.6,543.5,2117.4,543.5,2107.5z M570.7,2107.5c0-5.7-3.9-9.4-8.9-9.4s-8.9,3.7-8.9,9.4c0,5.7,3.9,9.4,8.9,9.4
		S570.7,2113.2,570.7,2107.5z"/>
	<path class="st2" d="M580.3,2121l3.1-6.9c2.9,1.9,7.1,3.3,10.9,3.3c3.9,0,5.4-1.1,5.4-2.7c0-5.2-18.7-1.4-18.7-13.7
		c0-5.9,4.8-10.7,14.6-10.7c4.3,0,8.7,1,12,2.9l-2.9,6.9c-3.2-1.7-6.3-2.5-9.1-2.5c-3.9,0-5.3,1.3-5.3,3c0,5,18.7,1.3,18.7,13.4
		c0,5.7-4.8,10.6-14.6,10.6C588.8,2124.6,583.5,2123.2,580.3,2121z"/>
	<path class="st2" d="M655.6,2091l-14.1,33h-9.2l-14.1-33h10.1l8.9,21.5l9.1-21.5H655.6z"/>
	<path class="st2" d="M655.1,2091h9.3v33h-9.3V2091z"/>
	<path class="st2" d="M668.8,2091h9.3v25.6h15.7v7.4h-25.1V2091z"/>
	<path class="st2" d="M692.9,2107.5c0-9.9,7.8-17.1,18.3-17.1c10.6,0,18.3,7.3,18.3,17.1s-7.8,17.1-18.3,17.1
		C700.7,2124.6,692.9,2117.4,692.9,2107.5z M720.2,2107.5c0-5.7-3.9-9.4-8.9-9.4s-8.9,3.7-8.9,9.4c0,5.7,3.9,9.4,8.9,9.4
		S720.2,2113.2,720.2,2107.5z"/>
	<path class="st2" d="M729.8,2121l3.1-6.9c2.9,1.9,7.1,3.3,10.9,3.3c3.9,0,5.4-1.1,5.4-2.7c0-5.2-18.7-1.4-18.7-13.7
		c0-5.9,4.8-10.7,14.6-10.7c4.3,0,8.7,1,12,2.9l-2.9,6.9c-3.2-1.7-6.3-2.5-9.1-2.5c-3.9,0-5.3,1.3-5.3,3c0,5,18.7,1.3,18.7,13.4
		c0,5.7-4.8,10.6-14.6,10.6C738.3,2124.6,732.9,2123.2,729.8,2121z"/>
</g>
<g>
	<path class="st3" d="M519.3,2091h9.3v25.6h15.7v7.4h-25.1V2091z"/>
	<path class="st3" d="M543.5,2107.5c0-9.9,7.8-17.1,18.3-17.1c10.6,0,18.3,7.3,18.3,17.1s-7.8,17.1-18.3,17.1
		C551.2,2124.6,543.5,2117.4,543.5,2107.5z M570.7,2107.5c0-5.7-3.9-9.4-8.9-9.4s-8.9,3.7-8.9,9.4c0,5.7,3.9,9.4,8.9,9.4
		S570.7,2113.2,570.7,2107.5z"/>
	<path class="st3" d="M580.3,2121l3.1-6.9c2.9,1.9,7.1,3.3,10.9,3.3c3.9,0,5.4-1.1,5.4-2.7c0-5.2-18.7-1.4-18.7-13.7
		c0-5.9,4.8-10.7,14.6-10.7c4.3,0,8.7,1,12,2.9l-2.9,6.9c-3.2-1.7-6.3-2.5-9.1-2.5c-3.9,0-5.3,1.3-5.3,3c0,5,18.7,1.3,18.7,13.4
		c0,5.7-4.8,10.6-14.6,10.6C588.8,2124.6,583.5,2123.2,580.3,2121z"/>
	<path class="st3" d="M655.6,2091l-14.1,33h-9.2l-14.1-33h10.1l8.9,21.5l9.1-21.5H655.6z"/>
	<path class="st3" d="M655.1,2091h9.3v33h-9.3V2091z"/>
	<path class="st3" d="M668.8,2091h9.3v25.6h15.7v7.4h-25.1V2091z"/>
	<path class="st3" d="M692.9,2107.5c0-9.9,7.8-17.1,18.3-17.1c10.6,0,18.3,7.3,18.3,17.1s-7.8,17.1-18.3,17.1
		C700.7,2124.6,692.9,2117.4,692.9,2107.5z M720.2,2107.5c0-5.7-3.9-9.4-8.9-9.4s-8.9,3.7-8.9,9.4c0,5.7,3.9,9.4,8.9,9.4
		S720.2,2113.2,720.2,2107.5z"/>
	<path class="st3" d="M729.8,2121l3.1-6.9c2.9,1.9,7.1,3.3,10.9,3.3c3.9,0,5.4-1.1,5.4-2.7c0-5.2-18.7-1.4-18.7-13.7
		c0-5.9,4.8-10.7,14.6-10.7c4.3,0,8.7,1,12,2.9l-2.9,6.9c-3.2-1.7-6.3-2.5-9.1-2.5c-3.9,0-5.3,1.3-5.3,3c0,5,18.7,1.3,18.7,13.4
		c0,5.7-4.8,10.6-14.6,10.6C738.3,2124.6,732.9,2123.2,729.8,2121z"/>
</g>
<g>
	<path class="st2" d="M478.6,1675.5c0-10,7.7-17.1,18.1-17.1c6.1,0,11,2.2,14.2,6.2l-5.9,5.4c-2.1-2.5-4.6-3.9-7.8-3.9
		c-5.4,0-9.2,3.8-9.2,9.4s3.8,9.4,9.2,9.4c3.2,0,5.7-1.4,7.8-3.9l5.9,5.4c-3.2,4-8.1,6.2-14.2,6.2
		C486.3,1692.6,478.6,1685.5,478.6,1675.5z"/>
	<path class="st2" d="M534.2,1685.5h-13.9l-2.6,6.4h-9.5l14.6-33h9.2l14.6,33h-9.7L534.2,1685.5z M531.5,1678.7l-4.2-10.6l-4.2,10.6
		H531.5z"/>
	<path class="st2" d="M578.2,1659v33h-7.7l-14.6-17.6v17.6h-9.1v-33h7.7l14.6,17.6V1659H578.2z"/>
	<path class="st2" d="M608.9,1684.7v7.2h-26.5v-33h25.9v7.2h-16.6v5.6h14.6v7h-14.6v6H608.9z"/>
	<path class="st2" d="M611.7,1659h9.3v25.6h15.7v7.4h-25.1V1659z"/>
	<path class="st2" d="M660.6,1685.5h-13.9l-2.6,6.4h-9.5l14.6-33h9.2l14.6,33h-9.7L660.6,1685.5z M657.8,1678.7l-4.2-10.6l-4.2,10.6
		H657.8z"/>
</g>
<g>
	<path class="st3" d="M478.6,1675.5c0-10,7.7-17.1,18.1-17.1c6.1,0,11,2.2,14.2,6.2l-5.9,5.4c-2.1-2.5-4.6-3.9-7.8-3.9
		c-5.4,0-9.2,3.8-9.2,9.4s3.8,9.4,9.2,9.4c3.2,0,5.7-1.4,7.8-3.9l5.9,5.4c-3.2,4-8.1,6.2-14.2,6.2
		C486.3,1692.6,478.6,1685.5,478.6,1675.5z"/>
	<path class="st3" d="M534.2,1685.5h-13.9l-2.6,6.4h-9.5l14.6-33h9.2l14.6,33h-9.7L534.2,1685.5z M531.5,1678.7l-4.2-10.6l-4.2,10.6
		H531.5z"/>
	<path class="st3" d="M578.2,1659v33h-7.7l-14.6-17.6v17.6h-9.1v-33h7.7l14.6,17.6V1659H578.2z"/>
	<path class="st3" d="M608.9,1684.7v7.2h-26.5v-33h25.9v7.2h-16.6v5.6h14.6v7h-14.6v6H608.9z"/>
	<path class="st3" d="M611.7,1659h9.3v25.6h15.7v7.4h-25.1V1659z"/>
	<path class="st3" d="M660.6,1685.5h-13.9l-2.6,6.4h-9.5l14.6-33h9.2l14.6,33h-9.7L660.6,1685.5z M657.8,1678.7l-4.2-10.6l-4.2,10.6
		H657.8z"/>
</g>
<g>
	<g>
		<path class="st2" d="M558,1397.2c0,7.5-5.7,12.2-14.6,12.2h-5.7v8.6h-9.3v-33h15.1C552.4,1385,558,1389.6,558,1397.2z
			 M548.6,1397.2c0-3.1-1.9-4.9-5.8-4.9h-5.2v9.7h5.2C546.7,1402,548.6,1400.2,548.6,1397.2z"/>
		<path class="st2" d="M559.6,1403.3V1385h9.3v18c0,5.7,2.4,7.9,6.3,7.9c3.9,0,6.2-2.3,6.2-7.9v-18h9.2v18.3
			c0,9.8-5.7,15.4-15.5,15.4C565.3,1418.6,559.6,1413.1,559.6,1403.3z"/>
		<path class="st2" d="M625.9,1385v33h-7.7l-14.6-17.6v17.6h-9.1v-33h7.7l14.6,17.6V1385H625.9z"/>
		<path class="st2" d="M630.1,1385h9.3v33h-9.3V1385z"/>
		<path class="st2" d="M650.8,1392.4h-10.1v-7.4h29.5v7.4h-10.1v25.6h-9.3V1392.4z"/>
		<path class="st2" d="M691.8,1411.6h-13.9l-2.6,6.4h-9.5l14.6-33h9.2l14.6,33h-9.7L691.8,1411.6z M689,1404.7l-4.2-10.6l-4.2,10.6
			H689z"/>
		<path class="st2" d="M740.5,1421.8c-2.2,2.7-5.5,4.1-9.2,4.1c-5.4,0-8.9-1.8-14.4-7.6c-8.7-1.5-14.7-8.1-14.7-16.9
			c0-9.9,7.8-17.1,18.3-17.1c10.6,0,18.3,7.3,18.3,17.1c0,7.5-4.5,13.5-11.2,15.9c1.3,1.4,2.4,1.9,3.9,1.9c1.8,0,3.5-0.8,5-2.3
			L740.5,1421.8z M720.5,1410.9c5,0,8.9-3.7,8.9-9.4s-3.9-9.4-8.9-9.4s-8.9,3.7-8.9,9.4S715.5,1410.9,720.5,1410.9z"/>
		<path class="st2" d="M741.1,1403.3V1385h9.3v18c0,5.7,2.4,7.9,6.3,7.9c3.9,0,6.2-2.3,6.2-7.9v-18h9.2v18.3
			c0,9.8-5.7,15.4-15.5,15.4C746.8,1418.6,741.1,1413.1,741.1,1403.3z"/>
		<path class="st2" d="M776,1385h9.3v33H776V1385z"/>
	</g>
	<g>
		<path class="st3" d="M558,1397.2c0,7.5-5.7,12.2-14.6,12.2h-5.7v8.6h-9.3v-33h15.1C552.4,1385,558,1389.6,558,1397.2z
			 M548.6,1397.2c0-3.1-1.9-4.9-5.8-4.9h-5.2v9.7h5.2C546.7,1402,548.6,1400.2,548.6,1397.2z"/>
		<path class="st3" d="M559.6,1403.3V1385h9.3v18c0,5.7,2.4,7.9,6.3,7.9c3.9,0,6.2-2.3,6.2-7.9v-18h9.2v18.3
			c0,9.8-5.7,15.4-15.5,15.4C565.3,1418.6,559.6,1413.1,559.6,1403.3z"/>
		<path class="st3" d="M625.9,1385v33h-7.7l-14.6-17.6v17.6h-9.1v-33h7.7l14.6,17.6V1385H625.9z"/>
		<path class="st3" d="M630.1,1385h9.3v33h-9.3V1385z"/>
		<path class="st3" d="M650.8,1392.4h-10.1v-7.4h29.5v7.4h-10.1v25.6h-9.3V1392.4z"/>
		<path class="st3" d="M691.8,1411.6h-13.9l-2.6,6.4h-9.5l14.6-33h9.2l14.6,33h-9.7L691.8,1411.6z M689,1404.7l-4.2-10.6l-4.2,10.6
			H689z"/>
		<path class="st3" d="M740.5,1421.8c-2.2,2.7-5.5,4.1-9.2,4.1c-5.4,0-8.9-1.8-14.4-7.6c-8.7-1.5-14.7-8.1-14.7-16.9
			c0-9.9,7.8-17.1,18.3-17.1c10.6,0,18.3,7.3,18.3,17.1c0,7.5-4.5,13.5-11.2,15.9c1.3,1.4,2.4,1.9,3.9,1.9c1.8,0,3.5-0.8,5-2.3
			L740.5,1421.8z M720.5,1410.9c5,0,8.9-3.7,8.9-9.4s-3.9-9.4-8.9-9.4s-8.9,3.7-8.9,9.4S715.5,1410.9,720.5,1410.9z"/>
		<path class="st3" d="M741.1,1403.3V1385h9.3v18c0,5.7,2.4,7.9,6.3,7.9c3.9,0,6.2-2.3,6.2-7.9v-18h9.2v18.3
			c0,9.8-5.7,15.4-15.5,15.4C746.8,1418.6,741.1,1413.1,741.1,1403.3z"/>
		<path class="st3" d="M776,1385h9.3v33H776V1385z"/>
	</g>
</g>
<g>
	<path class="st2" d="M1173.9,822.6c0,7.5-5.7,12.2-14.6,12.2h-5.7v8.6h-9.3v-33h15.1C1168.2,810.4,1173.9,815.1,1173.9,822.6z
		 M1164.5,822.6c0-3.1-1.9-4.9-5.8-4.9h-5.2v9.7h5.2C1162.5,827.4,1164.5,825.6,1164.5,822.6z"/>
	<path class="st2" d="M1196.5,837h-13.9l-2.6,6.4h-9.5l14.6-33h9.2l14.6,33h-9.7L1196.5,837z M1193.8,830.1l-4.2-10.6l-4.2,10.6
		H1193.8z"/>
	<path class="st2" d="M1209.1,810.4h9.3v33h-9.3V810.4z"/>
	<path class="st2" d="M1244.8,826.2h8.2v13.7c-3.8,2.7-9,4.2-13.8,4.2c-10.5,0-18.2-7.1-18.2-17.1s7.7-17.1,18.4-17.1
		c6.2,0,11.2,2.1,14.4,6l-5.9,5.4c-2.3-2.5-4.9-3.7-8-3.7c-5.7,0-9.4,3.7-9.4,9.4c0,5.6,3.8,9.4,9.3,9.4c1.7,0,3.4-0.3,5-1.1V826.2z
		"/>
	<path class="st2" d="M1256.3,828.7v-18.3h9.3v18c0,5.7,2.4,7.9,6.3,7.9c3.9,0,6.2-2.3,6.2-7.9v-18h9.2v18.3
		c0,9.8-5.7,15.4-15.5,15.4C1262.1,844,1256.3,838.5,1256.3,828.7z"/>
	<path class="st2" d="M1312.7,837h-13.9l-2.6,6.4h-9.5l14.6-33h9.2l14.6,33h-9.7L1312.7,837z M1309.9,830.1l-4.2-10.6l-4.2,10.6
		H1309.9z"/>
	<path class="st2" d="M1356.6,810.4v33h-7.7l-14.6-17.6v17.6h-9.1v-33h7.7l14.6,17.6v-17.6H1356.6z"/>
	<path class="st2" d="M1359.2,826.9c0-9.9,7.8-17.1,18.3-17.1c10.6,0,18.3,7.3,18.3,17.1s-7.8,17.1-18.3,17.1
		C1366.9,844,1359.2,836.8,1359.2,826.9z M1386.4,826.9c0-5.7-3.9-9.4-8.9-9.4s-8.9,3.7-8.9,9.4s3.9,9.4,8.9,9.4
		S1386.4,832.6,1386.4,826.9z"/>
</g>
<g>
	<path class="st3" d="M1173.9,822.6c0,7.5-5.7,12.2-14.6,12.2h-5.7v8.6h-9.3v-33h15.1C1168.2,810.4,1173.9,815.1,1173.9,822.6z
		 M1164.5,822.6c0-3.1-1.9-4.9-5.8-4.9h-5.2v9.7h5.2C1162.5,827.4,1164.5,825.6,1164.5,822.6z"/>
	<path class="st3" d="M1196.5,837h-13.9l-2.6,6.4h-9.5l14.6-33h9.2l14.6,33h-9.7L1196.5,837z M1193.8,830.1l-4.2-10.6l-4.2,10.6
		H1193.8z"/>
	<path class="st3" d="M1209.1,810.4h9.3v33h-9.3V810.4z"/>
	<path class="st3" d="M1244.8,826.2h8.2v13.7c-3.8,2.7-9,4.2-13.8,4.2c-10.5,0-18.2-7.1-18.2-17.1s7.7-17.1,18.4-17.1
		c6.2,0,11.2,2.1,14.4,6l-5.9,5.4c-2.3-2.5-4.9-3.7-8-3.7c-5.7,0-9.4,3.7-9.4,9.4c0,5.6,3.8,9.4,9.3,9.4c1.7,0,3.4-0.3,5-1.1V826.2z
		"/>
	<path class="st3" d="M1256.3,828.7v-18.3h9.3v18c0,5.7,2.4,7.9,6.3,7.9c3.9,0,6.2-2.3,6.2-7.9v-18h9.2v18.3
		c0,9.8-5.7,15.4-15.5,15.4C1262.1,844,1256.3,838.5,1256.3,828.7z"/>
	<path class="st3" d="M1312.7,837h-13.9l-2.6,6.4h-9.5l14.6-33h9.2l14.6,33h-9.7L1312.7,837z M1309.9,830.1l-4.2-10.6l-4.2,10.6
		H1309.9z"/>
	<path class="st3" d="M1356.6,810.4v33h-7.7l-14.6-17.6v17.6h-9.1v-33h7.7l14.6,17.6v-17.6H1356.6z"/>
	<path class="st3" d="M1359.2,826.9c0-9.9,7.8-17.1,18.3-17.1c10.6,0,18.3,7.3,18.3,17.1s-7.8,17.1-18.3,17.1
		C1366.9,844,1359.2,836.8,1359.2,826.9z M1386.4,826.9c0-5.7-3.9-9.4-8.9-9.4s-8.9,3.7-8.9,9.4s3.9,9.4,8.9,9.4
		S1386.4,832.6,1386.4,826.9z"/>
</g>
<g>
	<path class="st4" d="M571.2,517.4h9.3V543h15.7v7.4h-25.1V517.4z"/>
	<path class="st4" d="M620,544h-13.9l-2.6,6.4H594l14.6-33h9.2l14.6,33h-9.7L620,544z M617.3,537.1l-4.2-10.6l-4.2,10.6H617.3z"/>
	<path class="st4" d="M641.6,547.4l3.1-6.9c2.9,1.9,7.1,3.3,10.9,3.3c3.9,0,5.4-1.1,5.4-2.7c0-5.2-18.7-1.4-18.7-13.7
		c0-5.9,4.8-10.7,14.6-10.7c4.3,0,8.7,1,12,2.9l-2.9,6.9c-3.2-1.7-6.3-2.5-9.1-2.5c-3.9,0-5.3,1.3-5.3,3c0,5,18.7,1.3,18.7,13.4
		c0,5.7-4.8,10.6-14.6,10.6C650.1,551,644.7,549.6,641.6,547.4z"/>
	<path class="st4" d="M698.5,543.2v7.2h-26.5v-33h25.9v7.2h-16.6v5.6h14.6v7h-14.6v6H698.5z"/>
	<path class="st4" d="M715.8,541.6h-5.1v8.8h-9.3v-33h15.1c9,0,14.6,4.7,14.6,12.2c0,4.9-2.4,8.4-6.5,10.4l7.1,10.4h-10L715.8,541.6
		z M715.9,524.8h-5.2v9.7h5.2c3.9,0,5.8-1.8,5.8-4.8C721.7,526.5,719.7,524.8,715.9,524.8z"/>
	<path class="st4" d="M760.3,543.2v7.2h-26.5v-33h25.9v7.2h-16.6v5.6h14.6v7h-14.6v6H760.3z"/>
	<path class="st4" d="M794.5,517.4v33h-7.7l-14.6-17.6v17.6h-9.1v-33h7.7l14.6,17.6v-17.6H794.5z"/>
	<path class="st4" d="M820.9,544h-13.9l-2.6,6.4h-9.5l14.6-33h9.2l14.6,33h-9.7L820.9,544z M818.1,537.1l-4.2-10.6l-4.2,10.6H818.1z
		"/>
</g>
<g>
	<path class="st3" d="M571.2,516.4h9.3V542h15.7v7.4h-25.1V516.4z"/>
	<path class="st3" d="M620,543h-13.9l-2.6,6.4H594l14.6-33h9.2l14.6,33h-9.7L620,543z M617.3,536.1l-4.2-10.6l-4.2,10.6H617.3z"/>
	<path class="st3" d="M641.6,546.4l3.1-6.9c2.9,1.9,7.1,3.3,10.9,3.3c3.9,0,5.4-1.1,5.4-2.7c0-5.2-18.7-1.4-18.7-13.7
		c0-5.9,4.8-10.7,14.6-10.7c4.3,0,8.7,1,12,2.9l-2.9,6.9c-3.2-1.7-6.3-2.5-9.1-2.5c-3.9,0-5.3,1.3-5.3,3c0,5,18.7,1.3,18.7,13.4
		c0,5.7-4.8,10.6-14.6,10.6C650.1,550,644.7,548.6,641.6,546.4z"/>
	<path class="st3" d="M698.5,542.2v7.2h-26.5v-33h25.9v7.2h-16.6v5.6h14.6v7h-14.6v6H698.5z"/>
	<path class="st3" d="M715.8,540.6h-5.1v8.8h-9.3v-33h15.1c9,0,14.6,4.7,14.6,12.2c0,4.9-2.4,8.4-6.5,10.4l7.1,10.4h-10L715.8,540.6
		z M715.9,523.8h-5.2v9.7h5.2c3.9,0,5.8-1.8,5.8-4.8C721.7,525.5,719.7,523.8,715.9,523.8z"/>
	<path class="st3" d="M760.3,542.2v7.2h-26.5v-33h25.9v7.2h-16.6v5.6h14.6v7h-14.6v6H760.3z"/>
	<path class="st3" d="M794.5,516.4v33h-7.7l-14.6-17.6v17.6h-9.1v-33h7.7l14.6,17.6v-17.6H794.5z"/>
	<path class="st3" d="M820.9,543h-13.9l-2.6,6.4h-9.5l14.6-33h9.2l14.6,33h-9.7L820.9,543z M818.1,536.1l-4.2-10.6l-4.2,10.6H818.1z
		"/>
</g>
<g>
	<path class="st2" d="M386.5,735.9c0-10,7.7-17.1,18.1-17.1c6.1,0,11,2.2,14.2,6.2l-5.9,5.4c-2.1-2.5-4.6-3.9-7.8-3.9
		c-5.4,0-9.2,3.8-9.2,9.4s3.8,9.4,9.2,9.4c3.2,0,5.7-1.4,7.8-3.9l5.9,5.4c-3.2,4-8.1,6.2-14.2,6.2
		C394.1,753,386.5,745.9,386.5,735.9z"/>
	<path class="st2" d="M418.2,735.9c0-9.9,7.8-17.1,18.3-17.1c10.6,0,18.3,7.3,18.3,17.1S447,753,436.5,753
		C425.9,753,418.2,745.8,418.2,735.9z M445.4,735.9c0-5.7-3.9-9.4-8.9-9.4s-8.9,3.7-8.9,9.4s3.9,9.4,8.9,9.4
		S445.4,741.6,445.4,735.9z"/>
	<path class="st2" d="M494,756.2c-2.2,2.7-5.5,4.1-9.2,4.1c-5.4,0-8.9-1.8-14.4-7.6c-8.7-1.5-14.7-8.1-14.7-16.9
		c0-9.9,7.8-17.1,18.3-17.1c10.6,0,18.3,7.3,18.3,17.1c0,7.5-4.5,13.5-11.2,15.9c1.3,1.4,2.4,1.9,3.9,1.9c1.8,0,3.5-0.8,5-2.3
		L494,756.2z M474,745.3c5,0,8.9-3.7,8.9-9.4s-3.9-9.4-8.9-9.4s-8.9,3.7-8.9,9.4S469,745.3,474,745.3z"/>
	<path class="st2" d="M494.6,737.7v-18.3h9.3v18c0,5.7,2.4,7.9,6.3,7.9c3.9,0,6.2-2.3,6.2-7.9v-18h9.2v18.3
		c0,9.8-5.7,15.4-15.5,15.4C500.3,753,494.6,747.5,494.6,737.7z"/>
	<path class="st2" d="M529.5,719.4h9.3v33h-9.3V719.4z"/>
	<path class="st2" d="M572.9,752.4l-0.1-17.5l-8.5,14.2h-4.1l-8.4-13.8v17h-8.6v-33h7.7l11.6,19l11.3-19h7.7l0.1,33H572.9z"/>
	<path class="st2" d="M617.1,743.3c0,5.7-4.7,9-13.6,9h-17.8v-33h16.9c8.7,0,12.9,3.5,12.9,8.6c0,3.2-1.6,5.7-4.4,7.2
		C614.8,736.5,617.1,739.3,617.1,743.3z M595,726.1v6.4h6.4c3.1,0,4.7-1.1,4.7-3.2c0-2.1-1.6-3.2-4.7-3.2H595z M607.7,742.3
		c0-2.3-1.7-3.3-4.9-3.3H595v6.7h7.8C606,745.6,607.7,744.6,607.7,742.3z"/>
	<path class="st2" d="M617.9,735.9c0-9.9,7.8-17.1,18.3-17.1c10.6,0,18.3,7.3,18.3,17.1s-7.8,17.1-18.3,17.1
		C625.7,753,617.9,745.8,617.9,735.9z M645.1,735.9c0-5.7-3.9-9.4-8.9-9.4s-8.9,3.7-8.9,9.4s3.9,9.4,8.9,9.4
		S645.1,741.6,645.1,735.9z"/>
</g>
<g>
	<path class="st3" d="M386.5,735.9c0-10,7.7-17.1,18.1-17.1c6.1,0,11,2.2,14.2,6.2l-5.9,5.4c-2.1-2.5-4.6-3.9-7.8-3.9
		c-5.4,0-9.2,3.8-9.2,9.4s3.8,9.4,9.2,9.4c3.2,0,5.7-1.4,7.8-3.9l5.9,5.4c-3.2,4-8.1,6.2-14.2,6.2
		C394.1,753,386.5,745.9,386.5,735.9z"/>
	<path class="st3" d="M418.2,735.9c0-9.9,7.8-17.1,18.3-17.1c10.6,0,18.3,7.3,18.3,17.1S447,753,436.5,753
		C425.9,753,418.2,745.8,418.2,735.9z M445.4,735.9c0-5.7-3.9-9.4-8.9-9.4s-8.9,3.7-8.9,9.4s3.9,9.4,8.9,9.4
		S445.4,741.6,445.4,735.9z"/>
	<path class="st3" d="M494,756.2c-2.2,2.7-5.5,4.1-9.2,4.1c-5.4,0-8.9-1.8-14.4-7.6c-8.7-1.5-14.7-8.1-14.7-16.9
		c0-9.9,7.8-17.1,18.3-17.1c10.6,0,18.3,7.3,18.3,17.1c0,7.5-4.5,13.5-11.2,15.9c1.3,1.4,2.4,1.9,3.9,1.9c1.8,0,3.5-0.8,5-2.3
		L494,756.2z M474,745.3c5,0,8.9-3.7,8.9-9.4s-3.9-9.4-8.9-9.4s-8.9,3.7-8.9,9.4S469,745.3,474,745.3z"/>
	<path class="st3" d="M494.6,737.7v-18.3h9.3v18c0,5.7,2.4,7.9,6.3,7.9c3.9,0,6.2-2.3,6.2-7.9v-18h9.2v18.3
		c0,9.8-5.7,15.4-15.5,15.4C500.3,753,494.6,747.5,494.6,737.7z"/>
	<path class="st3" d="M529.5,719.4h9.3v33h-9.3V719.4z"/>
	<path class="st3" d="M572.9,752.4l-0.1-17.5l-8.5,14.2h-4.1l-8.4-13.8v17h-8.6v-33h7.7l11.6,19l11.3-19h7.7l0.1,33H572.9z"/>
	<path class="st3" d="M617.1,743.3c0,5.7-4.7,9-13.6,9h-17.8v-33h16.9c8.7,0,12.9,3.5,12.9,8.6c0,3.2-1.6,5.7-4.4,7.2
		C614.8,736.5,617.1,739.3,617.1,743.3z M595,726.1v6.4h6.4c3.1,0,4.7-1.1,4.7-3.2c0-2.1-1.6-3.2-4.7-3.2H595z M607.7,742.3
		c0-2.3-1.7-3.3-4.9-3.3H595v6.7h7.8C606,745.6,607.7,744.6,607.7,742.3z"/>
	<path class="st3" d="M617.9,735.9c0-9.9,7.8-17.1,18.3-17.1c10.6,0,18.3,7.3,18.3,17.1s-7.8,17.1-18.3,17.1
		C625.7,753,617.9,745.8,617.9,735.9z M645.1,735.9c0-5.7-3.9-9.4-8.9-9.4s-8.9,3.7-8.9,9.4s3.9,9.4,8.9,9.4
		S645.1,741.6,645.1,735.9z"/>
</g>
<g>
	<path class="st2" d="M430.5,1145.9c0-9.9,7.8-17.1,18.3-17.1c10.6,0,18.3,7.3,18.3,17.1s-7.8,17.1-18.3,17.1
		C438.2,1163,430.5,1155.8,430.5,1145.9z M457.7,1145.9c0-5.7-3.9-9.4-8.9-9.4c-5,0-8.9,3.7-8.9,9.4s3.9,9.4,8.9,9.4
		C453.8,1155.3,457.7,1151.6,457.7,1145.9z"/>
	<path class="st2" d="M502,1129.4l-14.1,33h-9.2l-14.1-33h10.1l8.9,21.5l9.1-21.5H502z"/>
	<path class="st2" d="M522.5,1156h-13.9l-2.6,6.4h-9.5l14.6-33h9.2l14.6,33h-9.7L522.5,1156z M519.8,1149.1l-4.2-10.6l-4.2,10.6
		H519.8z"/>
	<path class="st2" d="M535.1,1129.4h9.3v25.6h15.7v7.4h-25.1V1129.4z"/>
	<path class="st2" d="M561.5,1129.4h9.3v25.6h15.7v7.4h-25.1V1129.4z"/>
	<path class="st2" d="M614.3,1155.2v7.2h-26.5v-33h25.9v7.2h-16.6v5.6h14.6v7h-14.6v6H614.3z"/>
</g>
<g>
	<path class="st3" d="M430.5,1145.9c0-9.9,7.8-17.1,18.3-17.1c10.6,0,18.3,7.3,18.3,17.1s-7.8,17.1-18.3,17.1
		C438.2,1163,430.5,1155.8,430.5,1145.9z M457.7,1145.9c0-5.7-3.9-9.4-8.9-9.4c-5,0-8.9,3.7-8.9,9.4s3.9,9.4,8.9,9.4
		C453.8,1155.3,457.7,1151.6,457.7,1145.9z"/>
	<path class="st3" d="M502,1129.4l-14.1,33h-9.2l-14.1-33h10.1l8.9,21.5l9.1-21.5H502z"/>
	<path class="st3" d="M522.5,1156h-13.9l-2.6,6.4h-9.5l14.6-33h9.2l14.6,33h-9.7L522.5,1156z M519.8,1149.1l-4.2-10.6l-4.2,10.6
		H519.8z"/>
	<path class="st3" d="M535.1,1129.4h9.3v25.6h15.7v7.4h-25.1V1129.4z"/>
	<path class="st3" d="M561.5,1129.4h9.3v25.6h15.7v7.4h-25.1V1129.4z"/>
	<path class="st3" d="M614.3,1155.2v7.2h-26.5v-33h25.9v7.2h-16.6v5.6h14.6v7h-14.6v6H614.3z"/>
</g>
<g>
	<path class="st4" d="M743.2,271.4h9.3V297h15.7v7.4h-25.1V271.4z"/>
	<path class="st4" d="M792,298h-13.9l-2.6,6.4H766l14.6-33h9.2l14.6,33h-9.7L792,298z M789.3,291.1l-4.2-10.6l-4.2,10.6H789.3z"/>
	<path class="st4" d="M847.3,271.4v33H838v-12.9h-12.7v12.9h-9.3v-33h9.3v12.4H838v-12.4H847.3z"/>
	<path class="st4" d="M851.5,271.4h9.3v33h-9.3V271.4z"/>
	<path class="st4" d="M887.3,287.2h8.2v13.7c-3.8,2.7-9,4.2-13.8,4.2c-10.5,0-18.2-7.1-18.2-17.1s7.7-17.1,18.4-17.1
		c6.2,0,11.2,2.1,14.4,6l-5.9,5.4c-2.3-2.5-4.9-3.7-8-3.7c-5.7,0-9.4,3.7-9.4,9.4c0,5.6,3.8,9.4,9.3,9.4c1.7,0,3.4-0.3,5-1.1V287.2z
		"/>
	<path class="st4" d="M898.8,289.7v-18.3h9.3v18c0,5.7,2.4,7.9,6.3,7.9c3.9,0,6.2-2.3,6.2-7.9v-18h9.2v18.3
		c0,9.8-5.7,15.4-15.5,15.4C904.5,305,898.8,299.5,898.8,289.7z"/>
	<path class="st4" d="M960.2,297.2v7.2h-26.5v-33h25.9v7.2H943v5.6h14.6v7H943v6H960.2z"/>
	<path class="st4" d="M977.5,295.6h-5.1v8.8H963v-33h15.1c9,0,14.6,4.7,14.6,12.2c0,4.9-2.4,8.4-6.5,10.4l7.1,10.4h-10L977.5,295.6z
		 M977.6,278.8h-5.2v9.7h5.2c3.9,0,5.8-1.8,5.8-4.8C983.3,280.5,981.4,278.8,977.6,278.8z"/>
	<path class="st4" d="M1017.6,298h-13.9l-2.6,6.4h-9.5l14.6-33h9.2l14.6,33h-9.7L1017.6,298z M1014.9,291.1l-4.2-10.6l-4.2,10.6
		H1014.9z"/>
</g>
<g>
	<path class="st3" d="M743.2,271.4h9.3V297h15.7v7.4h-25.1V271.4z"/>
	<path class="st3" d="M792,298h-13.9l-2.6,6.4H766l14.6-33h9.2l14.6,33h-9.7L792,298z M789.3,291.1l-4.2-10.6l-4.2,10.6H789.3z"/>
	<path class="st3" d="M847.3,271.4v33H838v-12.9h-12.7v12.9h-9.3v-33h9.3v12.4H838v-12.4H847.3z"/>
	<path class="st3" d="M851.5,271.4h9.3v33h-9.3V271.4z"/>
	<path class="st3" d="M887.3,287.2h8.2v13.7c-3.8,2.7-9,4.2-13.8,4.2c-10.5,0-18.2-7.1-18.2-17.1s7.7-17.1,18.4-17.1
		c6.2,0,11.2,2.1,14.4,6l-5.9,5.4c-2.3-2.5-4.9-3.7-8-3.7c-5.7,0-9.4,3.7-9.4,9.4c0,5.6,3.8,9.4,9.3,9.4c1.7,0,3.4-0.3,5-1.1V287.2z
		"/>
	<path class="st3" d="M898.8,289.7v-18.3h9.3v18c0,5.7,2.4,7.9,6.3,7.9c3.9,0,6.2-2.3,6.2-7.9v-18h9.2v18.3
		c0,9.8-5.7,15.4-15.5,15.4C904.5,305,898.8,299.5,898.8,289.7z"/>
	<path class="st3" d="M960.2,297.2v7.2h-26.5v-33h25.9v7.2H943v5.6h14.6v7H943v6H960.2z"/>
	<path class="st3" d="M977.5,295.6h-5.1v8.8H963v-33h15.1c9,0,14.6,4.7,14.6,12.2c0,4.9-2.4,8.4-6.5,10.4l7.1,10.4h-10L977.5,295.6z
		 M977.6,278.8h-5.2v9.7h5.2c3.9,0,5.8-1.8,5.8-4.8C983.3,280.5,981.4,278.8,977.6,278.8z"/>
	<path class="st3" d="M1017.6,298h-13.9l-2.6,6.4h-9.5l14.6-33h9.2l14.6,33h-9.7L1017.6,298z M1014.9,291.1l-4.2-10.6l-4.2,10.6
		H1014.9z"/>
</g>
<g>
	<g>
		<g>
			<path class="st5" d="M657.3,1957.7c0-40.5-32.8-73.3-73.3-73.3s-73.3,32.8-73.3,73.3c0,46.6,73.3,104.3,73.3,104.3
				S657.3,2004.3,657.3,1957.7z"/>
			<g>
				<path class="st6" d="M584,1884.4c-40.5,0-73.3,32.8-73.3,73.3c0,20.2,13.8,42.6,29.5,61.4l98.3-110.4
					C625,1893.7,605.6,1884.4,584,1884.4z"/>
				<path class="st7" d="M540.2,2019.1c20.4,24.5,43.8,42.9,43.8,42.9s73.3-57.7,73.3-104.3c0-18.9-7.1-36.1-18.9-49.1L540.2,2019.1
					z"/>
			</g>
			<g>
				<path class="st8" d="M557.1,2000.1c7.8,5,17,7.8,27,7.8c27.8,0,50.3-22.5,50.3-50.3c0-12-4.2-23.1-11.3-31.7L557.1,2000.1z"/>
				<path class="st9" d="M584,1907.2c-27.8,0-50.3,22.5-50.3,50.3c0,17.9,9.3,33.6,23.4,42.5l66.1-74.2
					C613.9,1914.5,599.8,1907.2,584,1907.2z"/>
			</g>
			<circle class="st3" cx="584" cy="1957.6" r="46.1"/>
			<path class="st10" d="M638.5,1908.6l-3.9,4.3c10.9,12.4,17,28.2,17,44.7c0,17.6-12.1,40.2-35.1,65.6
				c-13.1,14.5-26.3,26.1-32.5,31.2c-7.2-6.1-24.3-21-39.4-39.2c-0.2-0.2-0.4-0.4-0.5-0.7l-3.9,4.4c20.4,24.5,43.8,42.9,43.8,42.9
				s73.3-57.7,73.3-104.3C657.3,1938.8,650.2,1921.6,638.5,1908.6z"/>
			<path class="st11" d="M516.5,1957.7c0-37.3,30.3-67.6,67.6-67.6c19.1,0,37.4,8.1,50.2,22.3c0.1,0.2,0.3,0.3,0.4,0.5l3.9-4.3
				c-13.4-14.9-32.8-24.2-54.5-24.2c-40.5,0-73.3,32.8-73.3,73.3c0,20.2,13.8,42.6,29.5,61.4l3.9-4.4
				C526,1992.9,516.5,1973.2,516.5,1957.7z"/>
		</g>
	</g>
	<g>
		<path class="st12" d="M605.1,1968.6v10.1h-35.2v-8l16.9-15.8c3.6-3.4,4.1-5.4,4.1-7.3c0-2.9-1.9-4.7-5.8-4.7
			c-3.3,0-6.3,1.5-8.1,4.4l-9.5-5.3c3.4-5.7,9.8-9.4,18.7-9.4c10.4,0,17.6,5.4,17.6,13.8c0,4.4-1.2,8.4-7.7,14.3l-8.5,7.9H605.1z"/>
	</g>
</g>
<g>
	<g>
		<g>
			<path class="st5" d="M1133.3,1650.7c0-40.5-32.8-73.3-73.3-73.3c-40.5,0-73.3,32.8-73.3,73.3c0,46.6,73.3,104.3,73.3,104.3
				S1133.3,1697.3,1133.3,1650.7z"/>
			<g>
				<path class="st6" d="M1060,1577.4c-40.5,0-73.3,32.8-73.3,73.3c0,20.2,13.8,42.6,29.5,61.4l98.3-110.4
					C1101,1586.7,1081.6,1577.4,1060,1577.4z"/>
				<path class="st7" d="M1016.2,1712.1c20.4,24.5,43.8,42.9,43.8,42.9s73.3-57.7,73.3-104.3c0-18.9-7.1-36.1-18.9-49.1
					L1016.2,1712.1z"/>
			</g>
			<g>
				<path class="st8" d="M1033.1,1693.1c7.8,5,17,7.8,27,7.8c27.8,0,50.3-22.5,50.3-50.3c0-12-4.2-23.1-11.3-31.7L1033.1,1693.1z"/>
				<path class="st9" d="M1060,1600.2c-27.8,0-50.3,22.5-50.3,50.3c0,17.9,9.3,33.6,23.4,42.5l66.1-74.2
					C1089.9,1607.5,1075.8,1600.2,1060,1600.2z"/>
			</g>
			<circle class="st3" cx="1060" cy="1650.6" r="46.1"/>
			<path class="st10" d="M1114.5,1601.6l-3.9,4.3c10.9,12.4,17,28.2,17,44.7c0,17.6-12.1,40.2-35.1,65.6
				c-13.1,14.5-26.3,26.1-32.5,31.2c-7.2-6.1-24.3-21-39.4-39.2c-0.2-0.2-0.4-0.4-0.5-0.7l-3.9,4.4c20.4,24.5,43.8,42.9,43.8,42.9
				s73.3-57.7,73.3-104.3C1133.3,1631.8,1126.2,1614.6,1114.5,1601.6z"/>
			<path class="st11" d="M992.5,1650.7c0-37.3,30.3-67.6,67.6-67.6c19.1,0,37.4,8.1,50.2,22.3c0.1,0.2,0.3,0.3,0.4,0.5l3.9-4.3
				c-13.4-14.9-32.8-24.2-54.5-24.2c-40.5,0-73.3,32.8-73.3,73.3c0,20.2,13.8,42.6,29.5,61.4l3.9-4.4
				C1002,1685.9,992.5,1666.2,992.5,1650.7z"/>
		</g>
	</g>
	<g>
		<path class="st12" d="M1067.5,1626.5v45.2h-12.8v-35.4h-8.4v-9.9H1067.5z"/>
	</g>
</g>
<g>
	<g>
		<g>
			<path class="st5" d="M716.5,396.3c0-40.5-32.8-73.3-73.3-73.3s-73.3,32.8-73.3,73.3c0,46.6,73.3,104.3,73.3,104.3
				S716.5,442.9,716.5,396.3z"/>
			<g>
				<path class="st6" d="M643.1,323c-40.5,0-73.3,32.8-73.3,73.3c0,20.2,13.8,42.6,29.5,61.4l98.3-110.4
					C684.2,332.4,664.8,323,643.1,323z"/>
				<path class="st7" d="M599.3,457.7c20.4,24.5,43.8,42.9,43.8,42.9s73.3-57.7,73.3-104.3c0-18.9-7.1-36.1-18.9-49.1L599.3,457.7z"
					/>
			</g>
			<g>
				<path class="st8" d="M616.2,438.8c7.8,5,17,7.8,27,7.8c27.8,0,50.3-22.5,50.3-50.3c0-12-4.2-23.1-11.3-31.7L616.2,438.8z"/>
				<path class="st9" d="M643.1,345.9c-27.8,0-50.3,22.5-50.3,50.3c0,17.9,9.3,33.6,23.4,42.5l66.1-74.2
					C673,353.2,658.9,345.9,643.1,345.9z"/>
			</g>
			<circle class="st3" cx="643.1" cy="396.2" r="46.1"/>
			<path class="st10" d="M697.6,347.3l-3.9,4.3c10.9,12.4,17,28.2,17,44.7c0,17.6-12.1,40.2-35.1,65.6
				c-13.1,14.5-26.3,26.1-32.5,31.2c-7.2-6.1-24.3-21-39.4-39.2c-0.2-0.2-0.4-0.4-0.5-0.7l-3.9,4.4c20.4,24.5,43.8,42.9,43.8,42.9
				s73.3-57.7,73.3-104.3C716.5,377.5,709.3,360.3,697.6,347.3z"/>
			<path class="st11" d="M575.6,396.3c0-37.3,30.3-67.6,67.6-67.6c19.1,0,37.4,8.1,50.2,22.3c0.1,0.2,0.3,0.3,0.4,0.5l3.9-4.3
				c-13.4-14.9-32.8-24.2-54.5-24.2c-40.5,0-73.3,32.8-73.3,73.3c0,20.2,13.8,42.6,29.5,61.4l3.9-4.4
				C585.1,431.5,575.6,411.8,575.6,396.3z"/>
		</g>
	</g>
	<g>
		<path class="st12" d="M650.7,372.1v45.2h-12.8V382h-8.4v-9.9H650.7z"/>
	</g>
</g>
<g>
	<g>
		<g>
			<path class="st5" d="M663.5,855.3c0-40.5-32.8-73.3-73.3-73.3s-73.3,32.8-73.3,73.3c0,46.6,73.3,104.3,73.3,104.3
				S663.5,901.9,663.5,855.3z"/>
			<g>
				<path class="st6" d="M590.1,782c-40.5,0-73.3,32.8-73.3,73.3c0,20.2,13.8,42.6,29.5,61.4l98.3-110.4
					C631.2,791.4,611.8,782,590.1,782z"/>
				<path class="st7" d="M546.3,916.7c20.4,24.5,43.8,42.9,43.8,42.9s73.3-57.7,73.3-104.3c0-18.9-7.1-36.1-18.9-49.1L546.3,916.7z"
					/>
			</g>
			<g>
				<path class="st8" d="M563.2,897.8c7.8,5,17,7.8,27,7.8c27.8,0,50.3-22.5,50.3-50.3c0-12-4.2-23.1-11.3-31.7L563.2,897.8z"/>
				<path class="st9" d="M590.1,804.9c-27.8,0-50.3,22.5-50.3,50.3c0,17.9,9.3,33.6,23.4,42.5l66.1-74.2
					C620,812.2,605.9,804.9,590.1,804.9z"/>
			</g>
			<circle class="st3" cx="590.1" cy="855.2" r="46.1"/>
			<path class="st10" d="M644.6,806.3l-3.9,4.3c10.9,12.4,17,28.2,17,44.7c0,17.6-12.1,40.2-35.1,65.6
				c-13.1,14.5-26.3,26.1-32.5,31.2c-7.2-6.1-24.3-21-39.4-39.2c-0.2-0.2-0.4-0.4-0.5-0.7l-3.9,4.4c20.4,24.5,43.8,42.9,43.8,42.9
				s73.3-57.7,73.3-104.3C663.5,836.5,656.3,819.3,644.6,806.3z"/>
			<path class="st11" d="M522.6,855.3c0-37.3,30.3-67.6,67.6-67.6c19.1,0,37.4,8.1,50.2,22.3c0.1,0.2,0.3,0.3,0.4,0.5l3.9-4.3
				c-13.4-14.9-32.8-24.2-54.5-24.2c-40.5,0-73.3,32.8-73.3,73.3c0,20.2,13.8,42.6,29.5,61.4l3.9-4.4
				C532.1,890.5,522.6,870.8,522.6,855.3z"/>
		</g>
	</g>
	<g>
		<path class="st12" d="M597.7,831.1v45.2h-12.8V841h-8.4v-9.9H597.7z"/>
	</g>
</g>
</svg>
