<?xml version="1.0" encoding="UTF-8" standalone="no"?>
<svg
   xmlns:dc="http://purl.org/dc/elements/1.1/"
   xmlns:cc="http://creativecommons.org/ns#"
   xmlns:rdf="http://www.w3.org/1999/02/22-rdf-syntax-ns#"
   xmlns:svg="http://www.w3.org/2000/svg"
   xmlns="http://www.w3.org/2000/svg"
   xmlns:sodipodi="http://sodipodi.sourceforge.net/DTD/sodipodi-0.dtd"
   xmlns:inkscape="http://www.inkscape.org/namespaces/inkscape"
   version="1.1"
   x="0px"
   y="0px"
   viewBox="0 0 72 47"
   xml:space="preserve"
   id="svg22"
   sodipodi:docname="aireacondicionado.svg"
   width="60"
   height="60"
   inkscape:version="0.92.3 (2405546, 2018-03-11)"><metadata
     id="metadata28"><rdf:RDF><cc:Work
         rdf:about=""><dc:format>image/svg+xml</dc:format><dc:type
           rdf:resource="http://purl.org/dc/dcmitype/StillImage" /></cc:Work></rdf:RDF></metadata><defs
     id="defs26" /><sodipodi:namedview
     pagecolor="#ffffff"
     bordercolor="#666666"
     borderopacity="1"
     objecttolerance="10"
     gridtolerance="10"
     guidetolerance="10"
     inkscape:pageopacity="0"
     inkscape:pageshadow="2"
     inkscape:window-width="1280"
     inkscape:window-height="716"
     id="namedview24"
     showgrid="false"
     inkscape:zoom="5.3400704"
     inkscape:cx="26.17988"
     inkscape:cy="19.046396"
     inkscape:window-x="0"
     inkscape:window-y="28"
     inkscape:window-maximized="1"
     inkscape:current-layer="svg22" /><path
     d="M 66.481773,2.0224452 H 39.962282 32.104656 5.5851651 c -2.7079346,0 -4.91101666,2.2030821 -4.91101666,4.9110167 V 25.595326 c 0,2.707935 2.20308206,4.911017 4.91101666,4.911017 h 26.5194909 7.857626 26.519491 c 2.707933,0 4.911016,-2.203082 4.911016,-4.911017 V 6.9334619 c 0,-2.7079346 -2.203083,-4.9110167 -4.911016,-4.9110167 z M 5.5851651,3.9868518 h 26.5194909 7.857626 26.519491 c 1.624563,0 2.946609,1.3220457 2.946609,2.9466101 V 20.684309 H 39.962282 32.104656 2.638555 V 6.9334619 c 0,-1.6245644 1.3220457,-2.9466101 2.9466101,-2.9466101 z M 32.104656,28.541936 H 11.478385 V 26.57753 h 20.626271 7.857626 20.626271 v 1.964406 H 39.962282 Z m 34.377117,0 H 62.552959 V 24.613123 H 39.962282 32.104656 9.5139783 v 3.928813 H 5.5851651 c -1.6245644,0 -2.9466101,-1.322046 -2.9466101,-2.94661 v -2.94661 h 29.466101 7.857626 29.4661 v 2.94661 c 0,1.624564 -1.322046,2.94661 -2.946609,2.94661 z"
     id="path2"
     inkscape:connector-curvature="0"
     style="stroke-width:0.9822033" /><rect
     x="5.5851645"
     y="14.79109"
     width="7.8576264"
     height="1.9644066"
     id="rect4"
     style="stroke-width:0.9822033" /><rect
     x="15.407197"
     y="14.79109"
     width="1.9644066"
     height="1.9644066"
     id="rect6"
     style="stroke-width:0.9822033" /><path
     d="m 14.424996,34.435157 h -1.964407 c 0,0.781833 -0.296626,1.127569 -0.745493,1.652065 -0.543158,0.632539 -1.218915,1.421248 -1.218915,2.929912 0,1.509647 0.675757,2.297375 1.218915,2.930895 0.448867,0.524497 0.745493,0.870233 0.745493,1.653048 0,0.782816 -0.296626,1.129534 -0.746474,1.653049 -0.542177,0.633521 -1.217934,1.42223 -1.217934,2.931876 h 1.964408 c 0,-0.782816 0.296625,-1.129533 0.746474,-1.653047 0.542177,-0.633522 1.217933,-1.423213 1.217933,-2.931878 0,-1.508664 -0.674774,-2.297373 -1.217933,-2.930894 -0.449849,-0.523514 -0.746474,-0.870232 -0.746474,-1.653049 0,-0.782815 0.296625,-1.128552 0.745493,-1.652065 0.543158,-0.633522 1.218914,-1.421249 1.218914,-2.929912 z"
     id="path8"
     inkscape:connector-curvature="0"
     style="stroke-width:0.9822033" /><path
     d="m 26.211435,34.435157 h -1.964406 c 0,0.781833 -0.296625,1.127569 -0.745492,1.652065 -0.543158,0.632539 -1.218915,1.421248 -1.218915,2.929912 0,1.509647 0.675757,2.297375 1.218915,2.930895 0.448867,0.524497 0.745492,0.870233 0.745492,1.653048 0,0.782816 -0.296625,1.129534 -0.746475,1.653049 -0.542175,0.633521 -1.217932,1.42223 -1.217932,2.931876 h 1.964407 c 0,-0.782816 0.296626,-1.129533 0.746474,-1.653047 0.542177,-0.633522 1.217932,-1.423213 1.217932,-2.931878 0,-1.508664 -0.674773,-2.297373 -1.217932,-2.930894 -0.449848,-0.523514 -0.746474,-0.870232 -0.746474,-1.653049 0,-0.782815 0.296626,-1.128552 0.745492,-1.652065 0.543159,-0.633522 1.218914,-1.421249 1.218914,-2.929912 z"
     id="path10"
     inkscape:connector-curvature="0"
     style="stroke-width:0.9822033" /><path
     d="m 37.997876,34.435157 h -1.964407 c 0,0.781833 -0.296625,1.127569 -0.745492,1.652065 -0.543159,0.632539 -1.218915,1.421248 -1.218915,2.929912 0,1.509647 0.675756,2.297375 1.218915,2.930895 0.448867,0.524497 0.745492,0.870233 0.745492,1.653048 0,0.782816 -0.296625,1.129534 -0.746475,1.653049 -0.542176,0.633521 -1.217932,1.42223 -1.217932,2.931876 h 1.964407 c 0,-0.782816 0.296625,-1.129533 0.746475,-1.653047 0.542176,-0.633522 1.217932,-1.423213 1.217932,-2.931878 0,-1.508664 -0.674774,-2.297373 -1.217932,-2.930894 -0.44985,-0.523514 -0.746475,-0.870232 -0.746475,-1.653049 0,-0.782815 0.296625,-1.128552 0.745492,-1.652065 0.543159,-0.633522 1.218915,-1.421249 1.218915,-2.929912 z"
     id="path12"
     inkscape:connector-curvature="0"
     style="stroke-width:0.9822033" /><path
     d="m 49.784316,34.435157 h -1.964407 c 0,0.781833 -0.296626,1.127569 -0.745493,1.652065 -0.543158,0.632539 -1.218913,1.421248 -1.218913,2.929912 0,1.509647 0.675755,2.297375 1.218913,2.930895 0.448867,0.524497 0.745493,0.870233 0.745493,1.653048 0,0.782816 -0.296626,1.129534 -0.746474,1.653049 -0.542177,0.633521 -1.217932,1.42223 -1.217932,2.931876 h 1.964406 c 0,-0.782816 0.296625,-1.129533 0.746474,-1.653047 0.542176,-0.633522 1.217933,-1.423213 1.217933,-2.931878 0,-1.508664 -0.674774,-2.297373 -1.217933,-2.930894 -0.449849,-0.523514 -0.746474,-0.870232 -0.746474,-1.653049 0,-0.782815 0.296625,-1.128552 0.745493,-1.652065 0.543157,-0.633522 1.218914,-1.421249 1.218914,-2.929912 z"
     id="path14"
     inkscape:connector-curvature="0"
     style="stroke-width:0.9822033" /><path
     d="m 61.570755,34.435157 h -1.964406 c 0,0.781833 -0.296625,1.127569 -0.745493,1.652065 -0.543158,0.632539 -1.218914,1.421248 -1.218914,2.929912 0,1.509647 0.675756,2.297375 1.218914,2.930895 0.448868,0.524497 0.745493,0.870233 0.745493,1.653048 0,0.782816 -0.296625,1.129534 -0.746475,1.653049 -0.542176,0.633521 -1.217932,1.42223 -1.217932,2.931876 h 1.964407 c 0,-0.782816 0.296626,-1.129533 0.746474,-1.653047 0.542177,-0.633522 1.217932,-1.423213 1.217932,-2.931878 0,-1.508664 -0.674773,-2.297373 -1.217932,-2.930894 -0.449848,-0.523514 -0.746474,-0.870232 -0.746474,-1.653049 0,-0.782815 0.296626,-1.128552 0.745492,-1.652065 0.543159,-0.633522 1.218914,-1.421249 1.218914,-2.929912 z"
     id="path16"
     inkscape:connector-curvature="0"
     style="stroke-width:0.9822033" /></svg>