<?xml version="1.0" encoding="UTF-8" standalone="no"?>
<svg
   xmlns:dc="http://purl.org/dc/elements/1.1/"
   xmlns:cc="http://creativecommons.org/ns#"
   xmlns:rdf="http://www.w3.org/1999/02/22-rdf-syntax-ns#"
   xmlns:svg="http://www.w3.org/2000/svg"
   xmlns="http://www.w3.org/2000/svg"
   xmlns:sodipodi="http://sodipodi.sourceforge.net/DTD/sodipodi-0.dtd"
   xmlns:inkscape="http://www.inkscape.org/namespaces/inkscape"
   version="1.1"
   x="0px"
   y="0px"
   viewBox="0 0 62 62"
   xml:space="preserve"
   id="svg22"
   sodipodi:docname="aspiradora.svg"
   width="60"
   height="60"
   inkscape:version="0.92.3 (2405546, 2018-03-11)"><metadata
     id="metadata28"><rdf:RDF><cc:Work
         rdf:about=""><dc:format>image/svg+xml</dc:format><dc:type
           rdf:resource="http://purl.org/dc/dcmitype/StillImage" /></cc:Work></rdf:RDF></metadata><defs
     id="defs26" /><sodipodi:namedview
     pagecolor="#ffffff"
     bordercolor="#666666"
     borderopacity="1"
     objecttolerance="10"
     gridtolerance="10"
     guidetolerance="10"
     inkscape:pageopacity="0"
     inkscape:pageshadow="2"
     inkscape:window-width="1280"
     inkscape:window-height="716"
     id="namedview24"
     showgrid="false"
     inkscape:zoom="5.9"
     inkscape:cx="10.002923"
     inkscape:cy="29.48228"
     inkscape:window-x="0"
     inkscape:window-y="28"
     inkscape:window-maximized="1"
     inkscape:current-layer="svg22" /><g
     id="g16"
     transform="translate(-2,-1)"><path
       d="M 57,55 V 51 H 55 V 12 C 55,5.935 50.065,1 44,1 37.935,1 33,5.935 33,12 v 18 c 0,0.551 -0.449,1 -1,1 H 25.311 C 23.624,30.523 21.846,30.209 20,30.077 V 27 h -9 v 3 H 9 c -3.86,0 -7,3.14 -7,7 v 13 c 0,2.757 2.243,5 5,5 h 5.589 c 1.19,2.928 4.061,5 7.411,5 3.35,0 6.221,-2.072 7.411,-5 H 36 c 2.757,0 5,-2.243 5,-5 C 41,44.789 38.817,40.105 35.188,36.581 37.416,35.704 39,33.536 39,31 V 12 c 0,-2.757 2.243,-5 5,-5 2.757,0 5,2.243 5,5 v 39 h -2 v 4 h -7 v 8 H 64 V 55 Z M 13,29 h 5 v 1 h -5 z m 7,29 c -3.309,0 -6,-2.691 -6,-6 0,-3.309 2.691,-6 6,-6 3.309,0 6,2.691 6,6 0,3.309 -2.691,6 -6,6 z M 36,53 H 27.931 C 27.972,52.672 28,52.339 28,52 c 0,-4.411 -3.589,-8 -8,-8 -4.411,0 -8,3.589 -8,8 0,0.339 0.028,0.672 0.069,1 H 7 C 5.346,53 4,51.654 4,50 V 37 c 0,-2.757 2.243,-5 5,-5 h 2 7 c 11.776,0 21,7.907 21,18 0,1.654 -1.346,3 -3,3 z M 44,5 c -3.86,0 -7,3.14 -7,7 v 19 c 0,2.097 -1.627,3.803 -3.683,3.968 C 32.371,34.241 31.353,33.583 30.273,33 H 32 c 1.654,0 3,-1.346 3,-3 V 12 c 0,-4.962 4.038,-9 9,-9 4.962,0 9,4.038 9,9 V 51 H 51 V 12 C 51,8.14 47.86,5 44,5 Z m 5,48 h 6 v 2 h -6 z m 13,8 H 42 v -4 h 5 10 5 z"
       id="path2"
       inkscape:connector-curvature="0" /><rect
       x="36"
       y="61"
       width="2"
       height="2"
       id="rect4" /><rect
       x="32"
       y="61"
       width="2"
       height="2"
       id="rect6" /><rect
       x="28"
       y="61"
       width="2"
       height="2"
       id="rect8" /><rect
       x="6"
       y="35"
       width="2"
       height="2"
       id="rect10" /><rect
       x="6"
       y="39"
       width="2"
       height="2"
       id="rect12" /><path
       d="m 20,48 c -2.206,0 -4,1.794 -4,4 0,2.206 1.794,4 4,4 2.206,0 4,-1.794 4,-4 0,-2.206 -1.794,-4 -4,-4 z m 0,6 c -1.103,0 -2,-0.897 -2,-2 0,-1.103 0.897,-2 2,-2 1.103,0 2,0.897 2,2 0,1.103 -0.897,2 -2,2 z"
       id="path14"
       inkscape:connector-curvature="0" /></g></svg>