<?xml version="1.0" encoding="UTF-8" standalone="no"?>
<svg
   xmlns:dc="http://purl.org/dc/elements/1.1/"
   xmlns:cc="http://creativecommons.org/ns#"
   xmlns:rdf="http://www.w3.org/1999/02/22-rdf-syntax-ns#"
   xmlns:svg="http://www.w3.org/2000/svg"
   xmlns="http://www.w3.org/2000/svg"
   xmlns:sodipodi="http://sodipodi.sourceforge.net/DTD/sodipodi-0.dtd"
   xmlns:inkscape="http://www.inkscape.org/namespaces/inkscape"
   viewBox="0 0 60 47"
   x="0px"
   y="0px"
   version="1.1"
   id="svg26"
   sodipodi:docname="bomba.svg"
   width="60"
   height="60"
   inkscape:version="0.92.3 (2405546, 2018-03-11)">
  <metadata
     id="metadata32">
    <rdf:RDF>
      <cc:Work
         rdf:about="">
        <dc:format>image/svg+xml</dc:format>
        <dc:type
           rdf:resource="http://purl.org/dc/dcmitype/StillImage" />
      </cc:Work>
    </rdf:RDF>
  </metadata>
  <defs
     id="defs30" />
  <sodipodi:namedview
     pagecolor="#ffffff"
     bordercolor="#666666"
     borderopacity="1"
     objecttolerance="10"
     gridtolerance="10"
     guidetolerance="10"
     inkscape:pageopacity="0"
     inkscape:pageshadow="2"
     inkscape:window-width="1015"
     inkscape:window-height="569"
     id="namedview28"
     showgrid="false"
     inkscape:zoom="2.95"
     inkscape:cx="-20.338983"
     inkscape:cy="17"
     inkscape:window-x="0"
     inkscape:window-y="28"
     inkscape:window-maximized="0"
     inkscape:current-layer="svg26" />
  <g
     id="g20"
     transform="translate(-2,-10)">
    <path
       d="M 61,47 H 50 v -2 h 5 a 1,1 0 0 0 1,-1 v -3 h 3 a 1,1 0 0 0 1,-1 V 28 A 1,1 0 0 0 59,27 H 56 V 24 A 1,1 0 0 0 55,23 H 45 v -2 h 4 a 1,1 0 0 0 1,-1 v -4 a 1,1 0 0 0 -0.553,-0.895 l -2,-1 A 1,1 0 0 0 47,14 h -2 v -3 a 1,1 0 0 0 -1,-1 h -6 a 1,1 0 0 0 -1,1 v 3 h -2 a 1,1 0 0 0 -0.447,0.105 l -2,1 A 1,1 0 0 0 32,16 v 4 a 1,1 0 0 0 1,1 h 4 v 2 h -7 a 1,1 0 0 0 -0.8,0.4 l -3,4 A 1,1 0 0 0 26,28 v 2 h -4 v -9 h 2 V 19 H 14 v 2 h 2 v 5 h -3 a 1,1 0 0 0 -0.707,0.293 l -2,2 A 1,1 0 0 0 10,29 v 2 H 4 v 10 h 2 v -4 h 4 v 2 a 1,1 0 0 0 0.293,0.707 l 2,2 A 1,1 0 0 0 13,42 h 3 v 5 H 3 a 1,1 0 0 0 -1,1 v 8 a 1,1 0 0 0 1,1 h 58 a 1,1 0 0 0 1,-1 v -8 a 1,1 0 0 0 -1,-1 z m -13,0 h -2 v -2 h 2 z m -10,0 v -2 h 6 v 2 z m -16,0 v -9 h 4 v 2 a 1,1 0 0 0 0.2,0.6 l 3,4 A 1,1 0 0 0 30,45 h 2 v 2 z m 12,-2 h 2 v 2 H 34 Z M 58,29 V 39 H 56 V 29 Z M 39,12 h 4 v 2 H 39 Z M 34,16.618 35.236,16 H 46.764 L 48,16.618 V 19 H 34 Z M 39,21 h 4 v 2 H 39 Z M 28,28.333 30.5,25 H 54 V 43 H 30.5 L 28,39.667 Z M 26,32 v 4 H 22 V 32 Z M 18,21 h 2 v 5 H 18 Z M 6,35 v -2 h 4 v 2 z m 6,3.586 V 29.414 L 13.414,28 H 20 V 40 H 13.414 Z M 18,42 h 2 v 5 H 18 Z M 60,55 H 4 v -6 h 56 z"
       id="path2"
       inkscape:connector-curvature="0" />
    <rect
       x="32"
       y="27"
       width="18"
       height="2"
       id="rect4" />
    <rect
       x="32"
       y="31"
       width="18"
       height="2"
       id="rect6" />
    <rect
       x="32"
       y="35"
       width="18"
       height="2"
       id="rect8" />
    <rect
       x="32"
       y="39"
       width="18"
       height="2"
       id="rect10" />
    <rect
       x="8"
       y="51"
       width="4"
       height="2"
       id="rect12" />
    <rect
       x="15"
       y="51"
       width="2"
       height="2"
       id="rect14" />
    <rect
       x="54"
       y="51"
       width="2"
       height="2"
       id="rect16" />
    <rect
       x="16"
       y="30"
       width="2"
       height="2"
       id="rect18" />
  </g>
</svg>
