<?xml version="1.0" encoding="UTF-8" standalone="no"?>
<svg
   xmlns:dc="http://purl.org/dc/elements/1.1/"
   xmlns:cc="http://creativecommons.org/ns#"
   xmlns:rdf="http://www.w3.org/1999/02/22-rdf-syntax-ns#"
   xmlns:svg="http://www.w3.org/2000/svg"
   xmlns="http://www.w3.org/2000/svg"
   xmlns:sodipodi="http://sodipodi.sourceforge.net/DTD/sodipodi-0.dtd"
   xmlns:inkscape="http://www.inkscape.org/namespaces/inkscape"
   version="1.1"
   x="0px"
   y="0px"
   viewBox="0 0 64 44.98"
   enable-background="new 0 0 70 70"
   xml:space="preserve"
   id="svg18"
   sodipodi:docname="computador.svg"
   width="60"
   height="60"
   inkscape:version="0.92.3 (2405546, 2018-03-11)"><metadata
     id="metadata24"><rdf:RDF><cc:Work
         rdf:about=""><dc:format>image/svg+xml</dc:format><dc:type
           rdf:resource="http://purl.org/dc/dcmitype/StillImage" /></cc:Work></rdf:RDF></metadata><defs
     id="defs22" /><sodipodi:namedview
     pagecolor="#ffffff"
     bordercolor="#666666"
     borderopacity="1"
     objecttolerance="10"
     gridtolerance="10"
     guidetolerance="10"
     inkscape:pageopacity="0"
     inkscape:pageshadow="2"
     inkscape:window-width="755"
     inkscape:window-height="480"
     id="namedview20"
     showgrid="false"
     inkscape:zoom="2.6971429"
     inkscape:cx="40.798678"
     inkscape:cy="25.948655"
     inkscape:window-x="0"
     inkscape:window-y="28"
     inkscape:window-maximized="0"
     inkscape:current-layer="svg18" /><g
     id="g12"
     transform="translate(-3,-12.51)"><g
       id="g10"><path
         d="M 64.25,12.51 H 48.3701 c -1.52,0 -2.75,1.24 -2.75,2.75 0,0.56 0,0.75 0,0.75 v 38.73 c 0,1.51 1.24,2.75 2.75,2.75 H 64.25 c 1.52,0 2.75,-1.24 2.75,-2.75 0,-34.69 0,-39.48 0,-39.48 0,-1.51 -1.23,-2.75 -2.75,-2.75 z m 1.25,42.23 c 0,0.69 -0.5599,1.25 -1.25,1.25 H 48.3701 c -0.7001,0 -1.25,-0.55 -1.25,-1.25 V 52.35 H 65.5 Z m 0,-3.9 H 47.1201 V 25.67 H 65.5 Z M 47.51,24.1701 v -4.31 h 17.6001 v 4.31 z m 17.99,-5.81 H 47.1201 v -3.1 c 0,-0.7 0.5499,-1.25 1.25,-1.25 H 64.25 c 0.6901,0 1.25,0.56 1.25,1.25 z"
         id="path2"
         inkscape:connector-curvature="0" /><path
         d="M 41.4501,21.53 H 5.4601 C 4.1001,21.53 3,22.63 3,23.98 3,24.29 3,24.39 3,24.39 3,25.77 3.01,31.2 3,49.55 3,50.9 4.1001,52 5.4501,52 h 12.5 l -1.53,3.99 h -1.7899 c -0.41,0 -0.75,0.33 -0.75,0.75 0,0.41 0.34,0.75 0.75,0.75 H 32.27 c 0.42,0 0.75,-0.34 0.75,-0.75 0,-0.42 -0.33,-0.75 -0.75,-0.75 H 30.49 L 28.9601,52 h 12.49 c 1.35,0 2.4501,-1.1 2.4501,-2.45 0,-0.25 0,-3.9 0.01,-25.5699 0,-1.3501 -1.1001,-2.4501 -2.4601,-2.4501 z M 18.03,55.99 19.56,52 h 7.79 l 1.53,3.99 z m 24.3701,-6.44 c 0,0.53 -0.4202,0.95 -0.9501,0.95 H 25.31 c 0,0 -3.9399,0 -19.86,0 -0.52,0 -0.9501,-0.42 -0.9501,-0.95 V 45.37 H 42.4 v 4.18 z m 0.0101,-5.68 H 4.5 V 23.98 c 0,-0.53 0.4301,-0.95 0.9601,-0.95 h 35.99 c 0.5299,0 0.9601,0.42 0.9601,0.95 z"
         id="path4"
         inkscape:connector-curvature="0" /><path
         d="m 56.3101,34.52 c -1.9199,0 -3.48,1.56 -3.48,3.48 0,1.92 1.5601,3.48 3.48,3.48 1.9199,0 3.48,-1.56 3.48,-3.48 -1e-4,-1.92 -1.5601,-3.48 -3.48,-3.48 z m 0,5.46 c -1.09,0 -1.98,-0.89 -1.98,-1.98 0,-1.09 0.89,-1.98 1.98,-1.98 1.0901,0 1.98,0.89 1.98,1.98 -1e-4,1.09 -0.89,1.98 -1.98,1.98 z"
         id="path6"
         inkscape:connector-curvature="0" /><path
         d="m 61.9402,26.9544 h -1.2881 c -0.4141,0 -0.75,0.3359 -0.75,0.75 0,0.4141 0.3359,0.75 0.75,0.75 h 1.2881 c 0.4141,0 0.75,-0.3359 0.75,-0.75 0,-0.4141 -0.336,-0.75 -0.75,-0.75 z"
         id="path8"
         inkscape:connector-curvature="0" /></g></g></svg>