<?xml version="1.0" encoding="UTF-8" standalone="no"?>
<svg
   xmlns:dc="http://purl.org/dc/elements/1.1/"
   xmlns:cc="http://creativecommons.org/ns#"
   xmlns:rdf="http://www.w3.org/1999/02/22-rdf-syntax-ns#"
   xmlns:svg="http://www.w3.org/2000/svg"
   xmlns="http://www.w3.org/2000/svg"
   xmlns:sodipodi="http://sodipodi.sourceforge.net/DTD/sodipodi-0.dtd"
   xmlns:inkscape="http://www.inkscape.org/namespaces/inkscape"
   version="1.1"
   x="0px"
   y="0px"
   viewBox="0 0 70.373001 90"
   xml:space="preserve"
   id="svg22"
   sodipodi:docname="lavadora.svg"
   width="60"
   height="60"
   inkscape:version="0.92.3 (2405546, 2018-03-11)"><metadata
     id="metadata28"><rdf:RDF><cc:Work
         rdf:about=""><dc:format>image/svg+xml</dc:format><dc:type
           rdf:resource="http://purl.org/dc/dcmitype/StillImage" /></cc:Work></rdf:RDF></metadata><defs
     id="defs26" /><sodipodi:namedview
     pagecolor="#ffffff"
     bordercolor="#666666"
     borderopacity="1"
     objecttolerance="10"
     gridtolerance="10"
     guidetolerance="10"
     inkscape:pageopacity="0"
     inkscape:pageshadow="2"
     inkscape:window-width="723"
     inkscape:window-height="480"
     id="namedview24"
     showgrid="false"
     inkscape:zoom="1.888"
     inkscape:cx="10.496508"
     inkscape:cy="32.5"
     inkscape:window-x="0"
     inkscape:window-y="28"
     inkscape:window-maximized="0"
     inkscape:current-layer="svg22" /><g
     id="g16"
     transform="translate(-14.813,-5)"><path
       d="M 83.687,5 H 16.313 c -0.829,0 -1.5,0.672 -1.5,1.5 v 83.006 c 0,0.828 0.671,1.5 1.5,1.5 h 3.572 V 95 h 3 V 91.006 H 77.114 V 95 h 3 v -3.994 h 3.572 c 0.829,0 1.5,-0.672 1.5,-1.5 V 6.5 C 85.187,5.672 84.515,5 83.687,5 Z m -1.5,3 V 24.728 H 17.813 V 8 Z M 17.813,88.006 V 27.728 h 64.373 v 60.278 z"
       id="path2"
       inkscape:connector-curvature="0" /><path
       d="m 50,33.867 c -13.233,0 -24,10.767 -24,24 0,13.233 10.767,24 24,24 13.233,0 24,-10.767 24,-24 0,-13.233 -10.767,-24 -24,-24 z m 0,45 c -11.58,0 -21,-9.421 -21,-21 0,-11.579 9.42,-21 21,-21 11.58,0 21,9.421 21,21 0,11.579 -9.42,21 -21,21 z"
       id="path4"
       inkscape:connector-curvature="0" /><path
       d="m 50,39.987 c -9.859,0 -17.879,8.021 -17.879,17.88 0,9.858 8.021,17.879 17.879,17.879 9.858,0 17.88,-8.02 17.88,-17.879 0,-9.859 -8.021,-17.88 -17.88,-17.88 z m 0,32.759 c -8.205,0 -14.879,-6.675 -14.879,-14.879 0,-8.205 6.675,-14.88 14.879,-14.88 8.204,0 14.879,6.675 14.879,14.88 C 64.88,66.071 58.205,72.746 50,72.746 Z"
       id="path6"
       inkscape:connector-curvature="0" /><rect
       x="22.212"
       y="13.525"
       width="3"
       height="5.677"
       id="rect8" /><rect
       x="29.377001"
       y="13.525"
       width="3"
       height="5.677"
       id="rect10" /><rect
       x="36.542"
       y="13.525"
       width="3"
       height="5.677"
       id="rect12" /><rect
       x="64.211998"
       y="14.864"
       width="12.076"
       height="3"
       id="rect14" /></g></svg>