<?xml version="1.0" encoding="UTF-8" standalone="no"?>
<svg
   xmlns:dc="http://purl.org/dc/elements/1.1/"
   xmlns:cc="http://creativecommons.org/ns#"
   xmlns:rdf="http://www.w3.org/1999/02/22-rdf-syntax-ns#"
   xmlns:svg="http://www.w3.org/2000/svg"
   xmlns="http://www.w3.org/2000/svg"
   xmlns:sodipodi="http://sodipodi.sourceforge.net/DTD/sodipodi-0.dtd"
   xmlns:inkscape="http://www.inkscape.org/namespaces/inkscape"
   version="1.1"
   x="0px"
   y="0px"
   viewBox="0 0 34 56.200001"
   xml:space="preserve"
   id="svg34"
   sodipodi:docname="refrigerador.svg"
   width="60"
   height="60"
   inkscape:version="0.92.3 (2405546, 2018-03-11)"><metadata
     id="metadata40"><rdf:RDF><cc:Work
         rdf:about=""><dc:format>image/svg+xml</dc:format><dc:type
           rdf:resource="http://purl.org/dc/dcmitype/StillImage" /></cc:Work></rdf:RDF></metadata><defs
     id="defs38" /><sodipodi:namedview
     pagecolor="#ffffff"
     bordercolor="#666666"
     borderopacity="1"
     objecttolerance="10"
     gridtolerance="10"
     guidetolerance="10"
     inkscape:pageopacity="0"
     inkscape:pageshadow="2"
     inkscape:window-width="1280"
     inkscape:window-height="716"
     id="namedview36"
     showgrid="false"
     inkscape:zoom="5.9"
     inkscape:cx="-14.542117"
     inkscape:cy="27.274746"
     inkscape:window-x="0"
     inkscape:window-y="28"
     inkscape:window-maximized="1"
     inkscape:current-layer="svg34" /><g
     id="g28"
     transform="translate(-15,-3.9)"
     style="opacity:0.98999999;fill:#000000;fill-opacity:1"><g
       id="g18"
       style="fill:#000000;fill-opacity:1"><g
         id="g4"
         style="fill:#000000;fill-opacity:1"><path
           d="M 43.1,57.4 H 20.9 c -0.5,0 -1,-0.1 -1.6,-0.2 C 16.7,56.5 15,54.1 15,51.5 V 9.8 c 0,-3.2 2.6,-5.9 5.9,-5.9 h 22.2 c 3.2,0 5.9,2.6 5.9,5.9 v 41.8 c 0,2.6 -1.8,5 -4.3,5.7 -0.6,0.1 -1.1,0.1 -1.6,0.1 z M 20.9,5.9 C 18.8,5.9 17,7.6 17,9.8 v 41.8 c 0,1.7 1.2,3.3 2.8,3.7 0.4,0.1 0.7,0.1 1.1,0.1 h 22.2 c 0.3,0 0.7,0 1.1,-0.1 1.6,-0.5 2.8,-2 2.8,-3.7 V 9.8 C 47,7.7 45.3,5.9 43.1,5.9 Z"
           id="path2"
           inkscape:connector-curvature="0"
           style="fill:#000000;fill-opacity:1" /></g><g
         id="g8"
         style="fill:#000000;fill-opacity:1"><rect
           x="16"
           y="21.700001"
           width="32"
           height="2"
           id="rect6"
           style="fill:#000000;fill-opacity:1" /></g><g
         id="g12"
         style="fill:#000000;fill-opacity:1"><path
           d="m 42.7,16.6 c -0.6,0 -1,-0.4 -1,-1 v -5.3 c 0,-0.6 0.4,-1 1,-1 0.6,0 1,0.4 1,1 v 5.3 c 0,0.5 -0.5,1 -1,1 z"
           id="path10"
           inkscape:connector-curvature="0"
           style="fill:#000000;fill-opacity:1" /></g><g
         id="g16"
         style="fill:#000000;fill-opacity:1"><path
           d="m 42.7,34.3 c -0.6,0 -1,-0.4 -1,-1 V 28 c 0,-0.6 0.4,-1 1,-1 0.6,0 1,0.4 1,1 v 5.3 c 0,0.6 -0.5,1 -1,1 z"
           id="path14"
           inkscape:connector-curvature="0"
           style="fill:#000000;fill-opacity:1" /></g></g><g
       id="g22"
       style="fill:#000000;fill-opacity:1"><path
         d="m 21.3,60.1 h -1.8 c -0.6,0 -1,-0.4 -1,-1 v -2.8 c 0,-0.3 0.1,-0.6 0.4,-0.8 0.2,-0.2 0.6,-0.3 0.9,-0.2 0.4,0.1 0.8,0.1 1.1,0.1 h 0.4 c 0.6,0 1,0.4 1,1 v 2.7 c 0,0.6 -0.4,1 -1,1 z"
         id="path20"
         inkscape:connector-curvature="0"
         style="fill:#000000;fill-opacity:1" /></g><g
       id="g26"
       style="fill:#000000;fill-opacity:1"><path
         d="m 44.4,60.1 h -1.8 c -0.6,0 -1,-0.4 -1,-1 v -2.7 c 0,-0.6 0.4,-1 1,-1 H 43 c 0.3,0 0.7,0 1.1,-0.1 0.3,-0.1 0.6,0 0.9,0.2 0.2,0.2 0.4,0.5 0.4,0.8 v 2.8 c 0,0.6 -0.4,1 -1,1 z"
         id="path24"
         inkscape:connector-curvature="0"
         style="fill:#000000;fill-opacity:1" /></g></g></svg>