<?xml version="1.0" encoding="UTF-8" standalone="no"?>
<svg
   xmlns:dc="http://purl.org/dc/elements/1.1/"
   xmlns:cc="http://creativecommons.org/ns#"
   xmlns:rdf="http://www.w3.org/1999/02/22-rdf-syntax-ns#"
   xmlns:svg="http://www.w3.org/2000/svg"
   xmlns="http://www.w3.org/2000/svg"
   xmlns:sodipodi="http://sodipodi.sourceforge.net/DTD/sodipodi-0.dtd"
   xmlns:inkscape="http://www.inkscape.org/namespaces/inkscape"
   version="1.1"
   x="0px"
   y="0px"
   viewBox="0 0 88.669998 75.980003"
   enable-background="new 0 0 100 100"
   xml:space="preserve"
   id="svg36"
   sodipodi:docname="secador_pelo.svg"
   width="60"
   height="60"
   inkscape:version="0.92.3 (2405546, 2018-03-11)"><metadata
     id="metadata42"><rdf:RDF><cc:Work
         rdf:about=""><dc:format>image/svg+xml</dc:format><dc:type
           rdf:resource="http://purl.org/dc/dcmitype/StillImage" /></cc:Work></rdf:RDF></metadata><defs
     id="defs40" /><sodipodi:namedview
     pagecolor="#ffffff"
     bordercolor="#666666"
     borderopacity="1"
     objecttolerance="10"
     gridtolerance="10"
     guidetolerance="10"
     inkscape:pageopacity="0"
     inkscape:pageshadow="2"
     inkscape:window-width="1280"
     inkscape:window-height="716"
     id="namedview38"
     showgrid="false"
     inkscape:zoom="1.888"
     inkscape:cx="-31.247808"
     inkscape:cy="25.211028"
     inkscape:window-x="0"
     inkscape:window-y="28"
     inkscape:window-maximized="1"
     inkscape:current-layer="svg36" /><g
     id="g30"
     transform="translate(-5.83,-12.37)"><g
       id="g28"><g
         id="g14"><g
           id="g4"><path
             stroke-miterlimit="10"
             d="M 49.163,34.718"
             id="path2"
             inkscape:connector-curvature="0"
             style="fill:none;stroke:#000000;stroke-width:2.72830009;stroke-linecap:round;stroke-miterlimit:10" /></g><g
           id="g8"><path
             d="M 28.12,12.37 C 15.83,12.4 5.83,22.41 5.83,34.72 c 0,7.67 3.99,14.85 10.46,18.93 l -0.01,18.24 c 0,2.07 1.91,3.9 4.09,3.9 h 6.6 c -0.54,5.94 -4.61,9.83 -10.47,9.83 v 2.73 c 7.36,0 12.63,-5.1 13.21,-12.56 h 6.55 c 2.06,0 3.68,-1.71 3.69,-3.9 V 53.71 c 2.61,-1.61 4.88,-3.77 6.62,-6.31 L 83.04,35.75 V 12.37 Z m 52.19,21.39 -35.16,11.23 0.01,0.04 c -0.24,0.1 -0.46,0.27 -0.61,0.51 -1.69,2.55 -3.98,4.7 -6.64,6.22 -0.54,0.31 -0.79,0.94 -0.65,1.51 h -0.04 v 18.62 c -0.01,0.57 -0.34,1.17 -0.96,1.17 H 20.37 C 19.71,73.06 19,72.46 19,71.89 L 19.02,53.27 H 18.97 C 19.15,52.68 18.9,52.02 18.35,51.7 12.31,48.2 8.56,41.69 8.56,34.72 8.56,23.92 17.33,15.13 28.12,15.1 h 52.19 z"
             id="path6"
             inkscape:connector-curvature="0" /></g><g
           id="g12"><path
             d="m 28.69,47.63 c -7.328,0 -13.29,-5.962 -13.29,-13.291 0,-7.328 5.961,-13.29 13.29,-13.29 7.329,0 13.29,5.962 13.29,13.29 -10e-4,7.329 -5.961,13.291 -13.29,13.291 z m 0,-23.852 c -5.823,0 -10.561,4.738 -10.561,10.561 0,5.824 4.738,10.562 10.561,10.562 5.824,0 10.562,-4.738 10.562,-10.562 C 39.251,28.517 34.514,23.778 28.69,23.778 Z"
             id="path10"
             inkscape:connector-curvature="0" /></g></g><g
         id="g18"><path
           d="m 93.136,18.534 h -5.729 c -0.753,0 -1.364,-0.611 -1.364,-1.364 0,-0.753 0.611,-1.364 1.364,-1.364 h 5.729 c 0.753,0 1.364,0.611 1.364,1.364 0,0.753 -0.611,1.364 -1.364,1.364 z"
           id="path16"
           inkscape:connector-curvature="0" /></g><g
         id="g22"><path
           d="m 93.136,25.41 h -5.729 c -0.753,0 -1.364,-0.611 -1.364,-1.364 0,-0.753 0.611,-1.364 1.364,-1.364 h 5.729 c 0.753,0 1.364,0.61 1.364,1.364 0,0.752 -0.611,1.364 -1.364,1.364 z"
           id="path20"
           inkscape:connector-curvature="0" /></g><g
         id="g26"><path
           d="m 93.136,32.285 h -5.729 c -0.753,0 -1.364,-0.61 -1.364,-1.364 0,-0.754 0.611,-1.364 1.364,-1.364 h 5.729 c 0.753,0 1.364,0.61 1.364,1.364 0,0.753 -0.611,1.364 -1.364,1.364 z"
           id="path24"
           inkscape:connector-curvature="0" /></g></g></g></svg>