<?xml version="1.0" encoding="UTF-8" standalone="no"?>
<svg
   xmlns:dc="http://purl.org/dc/elements/1.1/"
   xmlns:cc="http://creativecommons.org/ns#"
   xmlns:rdf="http://www.w3.org/1999/02/22-rdf-syntax-ns#"
   xmlns:svg="http://www.w3.org/2000/svg"
   xmlns="http://www.w3.org/2000/svg"
   xmlns:sodipodi="http://sodipodi.sourceforge.net/DTD/sodipodi-0.dtd"
   xmlns:inkscape="http://www.inkscape.org/namespaces/inkscape"
   version="1.1"
   x="0px"
   y="0px"
   viewBox="0 0 60.20504 46.299999"
   xml:space="preserve"
   id="svg8"
   sodipodi:docname="tv.svg"
   width="60"
   height="60"
   inkscape:version="0.92.3 (2405546, 2018-03-11)"><metadata
     id="metadata14"><rdf:RDF><cc:Work
         rdf:about=""><dc:format>image/svg+xml</dc:format><dc:type
           rdf:resource="http://purl.org/dc/dcmitype/StillImage" /></cc:Work></rdf:RDF></metadata><defs
     id="defs12" /><sodipodi:namedview
     pagecolor="#ffffff"
     bordercolor="#666666"
     borderopacity="1"
     objecttolerance="10"
     gridtolerance="10"
     guidetolerance="10"
     inkscape:pageopacity="0"
     inkscape:pageshadow="2"
     inkscape:window-width="1280"
     inkscape:window-height="716"
     id="namedview10"
     showgrid="false"
     inkscape:zoom="1.888"
     inkscape:cx="-48.025"
     inkscape:cy="10.7"
     inkscape:window-x="0"
     inkscape:window-y="28"
     inkscape:window-maximized="1"
     inkscape:current-layer="svg8" /><path
     d="M 57.1,0 H 3.1 C 1.4,0 0,1.4 0,3.1 V 36.9 C 0,38.6 1.4,40 3.1,40 h 23.1 v 2.6 c -4.8,0.3 -12.6,0.7 -12.6,2.3 v 1.4 c 0,0 0,0 0,0 h 32.9 c 0,0 0,0 0,0 V 44.9 C 46.5,43.4 38.8,43 33.9,42.6 V 40 h 23.2 c 1.7,0 3.1,-1.4 3.1,-3.1 V 3.1 C 60.3,1.4 58.9,0 57.1,0 Z m 0.5,36.9 c 0,0.3 -0.2,0.5 -0.5,0.5 H 3.1 C 2.8,37.4 2.6,37.2 2.6,36.9 V 3.1 C 2.6,2.8 2.8,2.6 3.1,2.6 h 54 c 0.3,0 0.5,0.2 0.5,0.5 z"
     id="path2"
     inkscape:connector-curvature="0" /></svg>