<svg id="Capa_1" data-name="Capa 1" xmlns="http://www.w3.org/2000/svg" viewBox="0 0 228.1 106.06"><defs><style>.cls-1{fill:#c10000;}.cls-2{fill:#139900;}</style></defs><title>enchufe</title><rect class="cls-1" x="37.36" y="88.69" width="29.44" height="7.98" transform="translate(-68.51 20.16) rotate(-34.84)"/><rect class="cls-1" x="71.75" y="51.52" width="25.82" height="6.91" rx="3.46" transform="matrix(0.81, -0.59, 0.59, 0.81, -41.03, 34.16)"/><polygon class="cls-1" points="69.19 58.96 73.54 55.77 51.26 25.33 42.2 31.96 69.19 58.96"/><path class="cls-1" d="M55.21,68.89A19,19,0,0,0,71.52,97.27,18.59,18.59,0,0,0,81,94.68Z" transform="translate(-24.9 -26.21)"/><rect class="cls-1" x="26.76" y="71.43" width="96.15" height="10.29" transform="translate(51.17 -56.7) rotate(45)"/><path class="cls-1" d="M91.05,82.33a3.44,3.44,0,0,0,1.33-.59l15.28-11.13A3.45,3.45,0,1,0,103.59,65L88.31,76.16A3.43,3.43,0,0,0,87,78.24Z" transform="translate(-24.9 -26.21)"/><path class="cls-1" d="M75.45,127.31A50.55,50.55,0,1,1,126,76.76,50.6,50.6,0,0,1,75.45,127.31Zm0-93.4A42.85,42.85,0,1,0,118.3,76.76,42.9,42.9,0,0,0,75.45,33.91Z" transform="translate(-24.9 -26.21)"/><rect class="cls-2" x="164.46" y="93.68" width="29.4" height="7.97" transform="translate(-48.57 93.66) rotate(-34.84)"/><path class="cls-2" d="M225.47,87,203.2,56.57,188.61,67.26a19,19,0,0,0,10,35A18.6,18.6,0,0,0,210.47,98Z" transform="translate(-24.9 -26.21)"/><rect class="cls-2" x="198.81" y="56.55" width="25.79" height="6.9" rx="3.45" transform="translate(-19.65 109.92) rotate(-36.06)"/><rect class="cls-2" x="211.57" y="74.2" width="25.79" height="6.9" rx="3.45" transform="translate(-27.59 120.81) rotate(-36.06)"/><path class="cls-2" d="M202.5,132.27A50.5,50.5,0,1,1,253,81.77,50.55,50.55,0,0,1,202.5,132.27Zm0-93.31a42.81,42.81,0,1,0,42.81,42.81A42.87,42.87,0,0,0,202.5,39Z" transform="translate(-24.9 -26.21)"/></svg>